{
	"asset":{
		"generator":"Khronos glTF Blender I/O v5.2.40",
		"version":"2.0"
	},
	"scene":0,
	"scenes":[
		{
			"name":"Scene",
			"nodes":[
				0,
				1,
				2,
				3,
				4,
				5,
				6,
				7,
				8,
				9
			]
		}
	],
	"nodes":[
		{
			"mesh":0,
			"name":"cannon_01_ball_01"
		},
		{
			"mesh":1,
			"name":"cannon_01_ball_02"
		},
		{
			"mesh":2,
			"name":"cannon_01_ball_03"
		},
		{
			"mesh":3,
			"name":"cannon_01_barrel"
		},
		{
			"mesh":4,
			"name":"cannon_01_frame"
		},
		{
			"mesh":5,
			"name":"cannon_01_pusherblock"
		},
		{
			"mesh":6,
			"name":"cannon_01_wheel_01"
		},
		{
			"mesh":7,
			"name":"cannon_01_wheel_02"
		},
		{
			"mesh":8,
			"name":"cannon_01_wheel_03"
		},
		{
			"mesh":9,
			"name":"cannon_01_wheel_04"
		}
	],
	"materials":[
		{
			"doubleSided":true,
			"name":"cannon_01",
			"normalTexture":{
				"index":0
			},
			"pbrMetallicRoughness":{
				"baseColorTexture":{
					"index":1
				},
				"metallicRoughnessTexture":{
					"index":2
				}
			}
		}
	],
	"meshes":[
		{
			"name":"Cube.025",
			"primitives":[
				{
					"attributes":{
						"POSITION":0,
						"NORMAL":1,
						"TEXCOORD_0":2
					},
					"indices":3,
					"material":0
				}
			]
		},
		{
			"name":"Cube.068",
			"primitives":[
				{
					"attributes":{
						"POSITION":4,
						"NORMAL":5,
						"TEXCOORD_0":6
					},
					"indices":7,
					"material":0
				}
			]
		},
		{
			"name":"Cube.088",
			"primitives":[
				{
					"attributes":{
						"POSITION":8,
						"NORMAL":9,
						"TEXCOORD_0":10
					},
					"indices":11,
					"material":0
				}
			]
		},
		{
			"name":"Cylinder.016",
			"primitives":[
				{
					"attributes":{
						"POSITION":12,
						"NORMAL":13,
						"TEXCOORD_0":14
					},
					"indices":15,
					"material":0
				}
			]
		},
		{
			"name":"Cube.027",
			"primitives":[
				{
					"attributes":{
						"POSITION":16,
						"NORMAL":17,
						"TEXCOORD_0":18
					},
					"indices":19,
					"material":0
				}
			]
		},
		{
			"name":"Cube.003",
			"primitives":[
				{
					"attributes":{
						"POSITION":20,
						"NORMAL":21,
						"TEXCOORD_0":22
					},
					"indices":23,
					"material":0
				}
			]
		},
		{
			"name":"Cylinder.001",
			"primitives":[
				{
					"attributes":{
						"POSITION":24,
						"NORMAL":25,
						"TEXCOORD_0":26
					},
					"indices":27,
					"material":0
				}
			]
		},
		{
			"name":"Cylinder.002",
			"primitives":[
				{
					"attributes":{
						"POSITION":28,
						"NORMAL":29,
						"TEXCOORD_0":30
					},
					"indices":31,
					"material":0
				}
			]
		},
		{
			"name":"Cylinder.003",
			"primitives":[
				{
					"attributes":{
						"POSITION":32,
						"NORMAL":33,
						"TEXCOORD_0":34
					},
					"indices":35,
					"material":0
				}
			]
		},
		{
			"name":"Cylinder.039",
			"primitives":[
				{
					"attributes":{
						"POSITION":36,
						"NORMAL":37,
						"TEXCOORD_0":38
					},
					"indices":39,
					"material":0
				}
			]
		}
	],
	"textures":[
		{
			"sampler":0,
			"source":0
		},
		{
			"sampler":0,
			"source":1
		},
		{
			"sampler":0,
			"source":2
		}
	],
	"images":[
		{
			"mimeType":"image/jpeg",
			"name":"cannon_01_nor_gl_1k",
			"uri":"textures/cannon_01_nor_gl_1k.jpg"
		},
		{
			"mimeType":"image/jpeg",
			"name":"cannon_01_diff_1k",
			"uri":"textures/cannon_01_diff_1k.jpg"
		},
		{
			"mimeType":"image/jpeg",
			"name":"cannon_01_arm_1k",
			"uri":"textures/cannon_01_arm_1k.jpg"
		}
	],
	"accessors":[
		{
			"bufferView":0,
			"componentType":5126,
			"count":119,
			"max":[
				-0.3704778552055359,
				0.14132511615753174,
				0.07873687148094177
			],
			"min":[
				-0.5113565325737,
				0.0025134843308478594,
				-0.06334260106086731
			],
			"type":"VEC3"
		},
		{
			"bufferView":1,
			"componentType":5126,
			"count":119,
			"type":"VEC3"
		},
		{
			"bufferView":2,
			"componentType":5126,
			"count":119,
			"type":"VEC2"
		},
		{
			"bufferView":3,
			"componentType":5123,
			"count":498,
			"type":"SCALAR"
		},
		{
			"bufferView":4,
			"componentType":5126,
			"count":120,
			"max":[
				-0.3109433650970459,
				0.14167363941669464,
				-0.3898795545101166
			],
			"min":[
				-0.45388007164001465,
				0.0023731915280222893,
				-0.5312032103538513
			],
			"type":"VEC3"
		},
		{
			"bufferView":5,
			"componentType":5126,
			"count":120,
			"type":"VEC3"
		},
		{
			"bufferView":6,
			"componentType":5126,
			"count":120,
			"type":"VEC2"
		},
		{
			"bufferView":7,
			"componentType":5123,
			"count":495,
			"type":"SCALAR"
		},
		{
			"bufferView":8,
			"componentType":5126,
			"count":122,
			"max":[
				-0.4968533515930176,
				0.14202462136745453,
				-0.8362582325935364
			],
			"min":[
				-0.6378630995750427,
				0.0020571877248585224,
				-0.9784574508666992
			],
			"type":"VEC3"
		},
		{
			"bufferView":9,
			"componentType":5126,
			"count":122,
			"type":"VEC3"
		},
		{
			"bufferView":10,
			"componentType":5126,
			"count":122,
			"type":"VEC2"
		},
		{
			"bufferView":11,
			"componentType":5123,
			"count":498,
			"type":"SCALAR"
		},
		{
			"bufferView":12,
			"componentType":5126,
			"count":1056,
			"max":[
				0.4434983730316162,
				0.8631055951118469,
				1.1520158052444458
			],
			"min":[
				-0.10636566579341888,
				0.3493799865245819,
				-1.0732944011688232
			],
			"type":"VEC3"
		},
		{
			"bufferView":13,
			"componentType":5126,
			"count":1056,
			"type":"VEC3"
		},
		{
			"bufferView":14,
			"componentType":5126,
			"count":1056,
			"type":"VEC2"
		},
		{
			"bufferView":15,
			"componentType":5123,
			"count":3432,
			"type":"SCALAR"
		},
		{
			"bufferView":16,
			"componentType":5126,
			"count":6181,
			"max":[
				0.6378630995750427,
				0.6729167103767395,
				0.2248331606388092
			],
			"min":[
				-0.3006942868232727,
				0.07933434844017029,
				-1.1520158052444458
			],
			"type":"VEC3"
		},
		{
			"bufferView":17,
			"componentType":5126,
			"count":6181,
			"type":"VEC3"
		},
		{
			"bufferView":18,
			"componentType":5126,
			"count":6181,
			"type":"VEC2"
		},
		{
			"bufferView":19,
			"componentType":5123,
			"count":19851,
			"type":"SCALAR"
		},
		{
			"bufferView":20,
			"componentType":5126,
			"count":117,
			"max":[
				0.22369250655174255,
				0.40367841720581055,
				-0.7264899015426636
			],
			"min":[
				0.11337289214134216,
				0.2834967076778412,
				-1.136194109916687
			],
			"type":"VEC3"
		},
		{
			"bufferView":21,
			"componentType":5126,
			"count":117,
			"type":"VEC3"
		},
		{
			"bufferView":22,
			"componentType":5126,
			"count":117,
			"type":"VEC2"
		},
		{
			"bufferView":23,
			"componentType":5123,
			"count":336,
			"type":"SCALAR"
		},
		{
			"bufferView":24,
			"componentType":5126,
			"count":168,
			"max":[
				-0.16616539657115936,
				0.3017665147781372,
				0.1519087255001068
			],
			"min":[
				-0.24449871480464935,
				0.004731023218482733,
				-0.1522516906261444
			],
			"type":"VEC3"
		},
		{
			"bufferView":25,
			"componentType":5126,
			"count":168,
			"type":"VEC3"
		},
		{
			"bufferView":26,
			"componentType":5126,
			"count":168,
			"type":"VEC2"
		},
		{
			"bufferView":27,
			"componentType":5123,
			"count":468,
			"type":"SCALAR"
		},
		{
			"bufferView":28,
			"componentType":5126,
			"count":162,
			"max":[
				-0.16616566479206085,
				0.30378425121307373,
				-0.778821587562561
			],
			"min":[
				-0.24449901282787323,
				0.00690712733194232,
				-1.0847408771514893
			],
			"type":"VEC3"
		},
		{
			"bufferView":29,
			"componentType":5126,
			"count":162,
			"type":"VEC3"
		},
		{
			"bufferView":30,
			"componentType":5126,
			"count":162,
			"type":"VEC2"
		},
		{
			"bufferView":31,
			"componentType":5123,
			"count":468,
			"type":"SCALAR"
		},
		{
			"bufferView":32,
			"componentType":5126,
			"count":162,
			"max":[
				0.5816677808761597,
				0.30378425121307373,
				0.15382257103919983
			],
			"min":[
				0.5033344030380249,
				0.005130566656589508,
				-0.152096688747406
			],
			"type":"VEC3"
		},
		{
			"bufferView":33,
			"componentType":5126,
			"count":162,
			"type":"VEC3"
		},
		{
			"bufferView":34,
			"componentType":5126,
			"count":162,
			"type":"VEC2"
		},
		{
			"bufferView":35,
			"componentType":5123,
			"count":465,
			"type":"SCALAR"
		},
		{
			"bufferView":36,
			"componentType":5126,
			"count":166,
			"max":[
				0.5816674828529358,
				0.3044503331184387,
				-0.7776642441749573
			],
			"min":[
				0.5033340454101562,
				0,
				-1.078708291053772
			],
			"type":"VEC3"
		},
		{
			"bufferView":37,
			"componentType":5126,
			"count":166,
			"type":"VEC3"
		},
		{
			"bufferView":38,
			"componentType":5126,
			"count":166,
			"type":"VEC2"
		},
		{
			"bufferView":39,
			"componentType":5123,
			"count":468,
			"type":"SCALAR"
		}
	],
	"bufferViews":[
		{
			"buffer":0,
			"byteLength":1428,
			"byteOffset":0,
			"target":34962
		},
		{
			"buffer":0,
			"byteLength":1428,
			"byteOffset":1428,
			"target":34962
		},
		{
			"buffer":0,
			"byteLength":952,
			"byteOffset":2856,
			"target":34962
		},
		{
			"buffer":0,
			"byteLength":996,
			"byteOffset":3808,
			"target":34963
		},
		{
			"buffer":0,
			"byteLength":1440,
			"byteOffset":4804,
			"target":34962
		},
		{
			"buffer":0,
			"byteLength":1440,
			"byteOffset":6244,
			"target":34962
		},
		{
			"buffer":0,
			"byteLength":960,
			"byteOffset":7684,
			"target":34962
		},
		{
			"buffer":0,
			"byteLength":990,
			"byteOffset":8644,
			"target":34963
		},
		{
			"buffer":0,
			"byteLength":1464,
			"byteOffset":9636,
			"target":34962
		},
		{
			"buffer":0,
			"byteLength":1464,
			"byteOffset":11100,
			"target":34962
		},
		{
			"buffer":0,
			"byteLength":976,
			"byteOffset":12564,
			"target":34962
		},
		{
			"buffer":0,
			"byteLength":996,
			"byteOffset":13540,
			"target":34963
		},
		{
			"buffer":0,
			"byteLength":12672,
			"byteOffset":14536,
			"target":34962
		},
		{
			"buffer":0,
			"byteLength":12672,
			"byteOffset":27208,
			"target":34962
		},
		{
			"buffer":0,
			"byteLength":8448,
			"byteOffset":39880,
			"target":34962
		},
		{
			"buffer":0,
			"byteLength":6864,
			"byteOffset":48328,
			"target":34963
		},
		{
			"buffer":0,
			"byteLength":74172,
			"byteOffset":55192,
			"target":34962
		},
		{
			"buffer":0,
			"byteLength":74172,
			"byteOffset":129364,
			"target":34962
		},
		{
			"buffer":0,
			"byteLength":49448,
			"byteOffset":203536,
			"target":34962
		},
		{
			"buffer":0,
			"byteLength":39702,
			"byteOffset":252984,
			"target":34963
		},
		{
			"buffer":0,
			"byteLength":1404,
			"byteOffset":292688,
			"target":34962
		},
		{
			"buffer":0,
			"byteLength":1404,
			"byteOffset":294092,
			"target":34962
		},
		{
			"buffer":0,
			"byteLength":936,
			"byteOffset":295496,
			"target":34962
		},
		{
			"buffer":0,
			"byteLength":672,
			"byteOffset":296432,
			"target":34963
		},
		{
			"buffer":0,
			"byteLength":2016,
			"byteOffset":297104,
			"target":34962
		},
		{
			"buffer":0,
			"byteLength":2016,
			"byteOffset":299120,
			"target":34962
		},
		{
			"buffer":0,
			"byteLength":1344,
			"byteOffset":301136,
			"target":34962
		},
		{
			"buffer":0,
			"byteLength":936,
			"byteOffset":302480,
			"target":34963
		},
		{
			"buffer":0,
			"byteLength":1944,
			"byteOffset":303416,
			"target":34962
		},
		{
			"buffer":0,
			"byteLength":1944,
			"byteOffset":305360,
			"target":34962
		},
		{
			"buffer":0,
			"byteLength":1296,
			"byteOffset":307304,
			"target":34962
		},
		{
			"buffer":0,
			"byteLength":936,
			"byteOffset":308600,
			"target":34963
		},
		{
			"buffer":0,
			"byteLength":1944,
			"byteOffset":309536,
			"target":34962
		},
		{
			"buffer":0,
			"byteLength":1944,
			"byteOffset":311480,
			"target":34962
		},
		{
			"buffer":0,
			"byteLength":1296,
			"byteOffset":313424,
			"target":34962
		},
		{
			"buffer":0,
			"byteLength":930,
			"byteOffset":314720,
			"target":34963
		},
		{
			"buffer":0,
			"byteLength":1992,
			"byteOffset":315652,
			"target":34962
		},
		{
			"buffer":0,
			"byteLength":1992,
			"byteOffset":317644,
			"target":34962
		},
		{
			"buffer":0,
			"byteLength":1328,
			"byteOffset":319636,
			"target":34962
		},
		{
			"buffer":0,
			"byteLength":936,
			"byteOffset":320964,
			"target":34963
		}
	],
	"samplers":[
		{
			"magFilter":9729,
			"minFilter":9987
		}
	],
	"buffers":[
		{
			"byteLength":321900,
			"uri":"cannon_01.bin"
		}
	]
}
