{
	"asset":{
		"generator":"Khronos glTF Blender I/O v5.2.40",
		"version":"2.0"
	},
	"scene":0,
	"scenes":[
		{
			"name":"Scene",
			"nodes":[
				0,
				1
			]
		}
	],
	"nodes":[
		{
			"mesh":0,
			"name":"Fronds"
		},
		{
			"mesh":1,
			"name":"Trunk"
		}
	],
	"materials":[
		{
			"alphaMode":"BLEND",
			"doubleSided":true,
			"name":"frond",
			"pbrMetallicRoughness":{
				"baseColorTexture":{
					"index":0
				},
				"metallicFactor":0,
				"roughnessFactor":0.8500000238418579
			}
		},
		{
			"doubleSided":true,
			"name":"bark",
			"normalTexture":{
				"index":1
			},
			"pbrMetallicRoughness":{
				"baseColorTexture":{
					"index":2
				},
				"metallicFactor":0,
				"roughnessFactor":0.8500000238418579
			}
		}
	],
	"meshes":[
		{
			"name":"fronds",
			"primitives":[
				{
					"attributes":{
						"POSITION":0,
						"NORMAL":1,
						"TEXCOORD_0":2
					},
					"indices":3,
					"material":0
				}
			]
		},
		{
			"name":"trunk",
			"primitives":[
				{
					"attributes":{
						"POSITION":4,
						"NORMAL":5,
						"TEXCOORD_0":6
					},
					"indices":7,
					"material":1
				}
			]
		}
	],
	"textures":[
		{
			"sampler":0,
			"source":0
		},
		{
			"sampler":0,
			"source":1
		},
		{
			"sampler":0,
			"source":2
		}
	],
	"images":[
		{
			"mimeType":"image/png",
			"name":"palm_frond",
			"uri":"textures/palm_frond.png"
		},
		{
			"mimeType":"image/jpeg",
			"name":"palm_tree_bark_nor_gl",
			"uri":"textures/palm_tree_bark_nor_gl.jpg"
		},
		{
			"mimeType":"image/jpeg",
			"name":"palm_tree_bark_diff",
			"uri":"textures/palm_tree_bark_diff.jpg"
		}
	],
	"accessors":[
		{
			"bufferView":0,
			"componentType":5126,
			"count":1024,
			"max":[
				5.994192600250244,
				10.48458480834961,
				4.210682392120361
			],
			"min":[
				-1.6994737386703491,
				8.23658561706543,
				-4.045485973358154
			],
			"type":"VEC3"
		},
		{
			"bufferView":1,
			"componentType":5126,
			"count":1024,
			"type":"VEC3"
		},
		{
			"bufferView":2,
			"componentType":5126,
			"count":1024,
			"type":"VEC2"
		},
		{
			"bufferView":3,
			"componentType":5123,
			"count":1536,
			"type":"SCALAR"
		},
		{
			"bufferView":4,
			"componentType":5126,
			"count":209,
			"max":[
				2.3559999465942383,
				10,
				0.30433809757232666
			],
			"min":[
				-0.3199999928474426,
				0,
				-0.30433809757232666
			],
			"type":"VEC3"
		},
		{
			"bufferView":5,
			"componentType":5126,
			"count":209,
			"type":"VEC3"
		},
		{
			"bufferView":6,
			"componentType":5126,
			"count":209,
			"type":"VEC2"
		},
		{
			"bufferView":7,
			"componentType":5123,
			"count":1080,
			"type":"SCALAR"
		}
	],
	"bufferViews":[
		{
			"buffer":0,
			"byteLength":12288,
			"byteOffset":0,
			"target":34962
		},
		{
			"buffer":0,
			"byteLength":12288,
			"byteOffset":12288,
			"target":34962
		},
		{
			"buffer":0,
			"byteLength":8192,
			"byteOffset":24576,
			"target":34962
		},
		{
			"buffer":0,
			"byteLength":3072,
			"byteOffset":32768,
			"target":34963
		},
		{
			"buffer":0,
			"byteLength":2508,
			"byteOffset":35840,
			"target":34962
		},
		{
			"buffer":0,
			"byteLength":2508,
			"byteOffset":38348,
			"target":34962
		},
		{
			"buffer":0,
			"byteLength":1672,
			"byteOffset":40856,
			"target":34962
		},
		{
			"buffer":0,
			"byteLength":2160,
			"byteOffset":42528,
			"target":34963
		}
	],
	"samplers":[
		{
			"magFilter":9729,
			"minFilter":9987
		}
	],
	"buffers":[
		{
			"byteLength":44688,
			"uri":"palm_03.bin"
		}
	]
}
