{
	"asset":{
		"generator":"Khronos glTF Blender I/O v5.2.40",
		"version":"2.0"
	},
	"scene":0,
	"scenes":[
		{
			"name":"Scene",
			"nodes":[
				0,
				1,
				2,
				3
			]
		}
	],
	"nodes":[
		{
			"mesh":0,
			"name":"wine_barrel_01"
		},
		{
			"mesh":1,
			"name":"wine_barrel_01_base"
		},
		{
			"mesh":2,
			"name":"wine_barrel_01_bung"
		},
		{
			"mesh":3,
			"name":"wine_barrel_01_Lid"
		}
	],
	"materials":[
		{
			"doubleSided":true,
			"name":"wine_barrel_01",
			"normalTexture":{
				"index":0
			},
			"pbrMetallicRoughness":{
				"baseColorTexture":{
					"index":1
				},
				"metallicRoughnessTexture":{
					"index":2
				}
			}
		}
	],
	"meshes":[
		{
			"name":"Plane.006",
			"primitives":[
				{
					"attributes":{
						"POSITION":0,
						"NORMAL":1,
						"TEXCOORD_0":2
					},
					"indices":3,
					"material":0
				}
			]
		},
		{
			"name":"DiameterSmall.004",
			"primitives":[
				{
					"attributes":{
						"POSITION":4,
						"NORMAL":5,
						"TEXCOORD_0":6
					},
					"indices":7,
					"material":0
				}
			]
		},
		{
			"name":"Cylinder.014",
			"primitives":[
				{
					"attributes":{
						"POSITION":8,
						"NORMAL":9,
						"TEXCOORD_0":10
					},
					"indices":11,
					"material":0
				}
			]
		},
		{
			"name":"DiameterSmall.012",
			"primitives":[
				{
					"attributes":{
						"POSITION":12,
						"NORMAL":13,
						"TEXCOORD_0":14
					},
					"indices":15,
					"material":0
				}
			]
		}
	],
	"textures":[
		{
			"sampler":0,
			"source":0
		},
		{
			"sampler":0,
			"source":1
		},
		{
			"sampler":0,
			"source":2
		}
	],
	"images":[
		{
			"mimeType":"image/jpeg",
			"name":"wine_barrel_01_nor_gl_1k",
			"uri":"textures/wine_barrel_01_nor_gl_1k.jpg"
		},
		{
			"mimeType":"image/jpeg",
			"name":"wine_barrel_01_diff_1k",
			"uri":"textures/wine_barrel_01_diff_1k.jpg"
		},
		{
			"mimeType":"image/jpeg",
			"name":"wine_barrel_01_arm_1k",
			"uri":"textures/wine_barrel_01_arm_1k.jpg"
		}
	],
	"accessors":[
		{
			"bufferView":0,
			"componentType":5126,
			"count":6877,
			"max":[
				0.3710963726043701,
				0.8712633848190308,
				0.3642066419124603
			],
			"min":[
				-0.3710963726043701,
				0,
				-0.377990186214447
			],
			"type":"VEC3"
		},
		{
			"bufferView":1,
			"componentType":5126,
			"count":6877,
			"type":"VEC3"
		},
		{
			"bufferView":2,
			"componentType":5126,
			"count":6877,
			"type":"VEC2"
		},
		{
			"bufferView":3,
			"componentType":5123,
			"count":16974,
			"type":"SCALAR"
		},
		{
			"bufferView":4,
			"componentType":5126,
			"count":210,
			"max":[
				0.2915518879890442,
				0.04999111220240593,
				0.2825269103050232
			],
			"min":[
				-0.2915525436401367,
				0.03448069468140602,
				-0.2964410185813904
			],
			"type":"VEC3"
		},
		{
			"bufferView":5,
			"componentType":5126,
			"count":210,
			"type":"VEC3"
		},
		{
			"bufferView":6,
			"componentType":5126,
			"count":210,
			"type":"VEC2"
		},
		{
			"bufferView":7,
			"componentType":5123,
			"count":372,
			"type":"SCALAR"
		},
		{
			"bufferView":8,
			"componentType":5126,
			"count":75,
			"max":[
				0.028845617547631264,
				0.4620422422885895,
				0.377990186214447
			],
			"min":[
				-0.02405691333115101,
				0.40913864970207214,
				0.335964173078537
			],
			"type":"VEC3"
		},
		{
			"bufferView":9,
			"componentType":5126,
			"count":75,
			"type":"VEC3"
		},
		{
			"bufferView":10,
			"componentType":5126,
			"count":75,
			"type":"VEC2"
		},
		{
			"bufferView":11,
			"componentType":5123,
			"count":276,
			"type":"SCALAR"
		},
		{
			"bufferView":12,
			"componentType":5126,
			"count":203,
			"max":[
				0.29155194759368896,
				0.8367002010345459,
				0.2825269103050232
			],
			"min":[
				-0.2915526032447815,
				0.8211896419525146,
				-0.2964409589767456
			],
			"type":"VEC3"
		},
		{
			"bufferView":13,
			"componentType":5126,
			"count":203,
			"type":"VEC3"
		},
		{
			"bufferView":14,
			"componentType":5126,
			"count":203,
			"type":"VEC2"
		},
		{
			"bufferView":15,
			"componentType":5123,
			"count":372,
			"type":"SCALAR"
		}
	],
	"bufferViews":[
		{
			"buffer":0,
			"byteLength":82524,
			"byteOffset":0,
			"target":34962
		},
		{
			"buffer":0,
			"byteLength":82524,
			"byteOffset":82524,
			"target":34962
		},
		{
			"buffer":0,
			"byteLength":55016,
			"byteOffset":165048,
			"target":34962
		},
		{
			"buffer":0,
			"byteLength":33948,
			"byteOffset":220064,
			"target":34963
		},
		{
			"buffer":0,
			"byteLength":2520,
			"byteOffset":254012,
			"target":34962
		},
		{
			"buffer":0,
			"byteLength":2520,
			"byteOffset":256532,
			"target":34962
		},
		{
			"buffer":0,
			"byteLength":1680,
			"byteOffset":259052,
			"target":34962
		},
		{
			"buffer":0,
			"byteLength":744,
			"byteOffset":260732,
			"target":34963
		},
		{
			"buffer":0,
			"byteLength":900,
			"byteOffset":261476,
			"target":34962
		},
		{
			"buffer":0,
			"byteLength":900,
			"byteOffset":262376,
			"target":34962
		},
		{
			"buffer":0,
			"byteLength":600,
			"byteOffset":263276,
			"target":34962
		},
		{
			"buffer":0,
			"byteLength":552,
			"byteOffset":263876,
			"target":34963
		},
		{
			"buffer":0,
			"byteLength":2436,
			"byteOffset":264428,
			"target":34962
		},
		{
			"buffer":0,
			"byteLength":2436,
			"byteOffset":266864,
			"target":34962
		},
		{
			"buffer":0,
			"byteLength":1624,
			"byteOffset":269300,
			"target":34962
		},
		{
			"buffer":0,
			"byteLength":744,
			"byteOffset":270924,
			"target":34963
		}
	],
	"samplers":[
		{
			"magFilter":9729,
			"minFilter":9987
		}
	],
	"buffers":[
		{
			"byteLength":271668,
			"uri":"wine_barrel_01.bin"
		}
	]
}
