{
	"asset":{
		"generator":"Khronos glTF Blender I/O v5.2.40",
		"version":"2.0"
	},
	"scene":0,
	"scenes":[
		{
			"name":"Scene",
			"nodes":[
				0,
				1,
				2
			]
		}
	],
	"nodes":[
		{
			"mesh":0,
			"name":"wooden_lantern_01"
		},
		{
			"mesh":1,
			"name":"wooden_lantern_01_door"
		},
		{
			"mesh":2,
			"name":"wooden_lantern_01_handle"
		}
	],
	"materials":[
		{
			"doubleSided":true,
			"name":"wooden_lantern_01",
			"normalTexture":{
				"index":0
			},
			"pbrMetallicRoughness":{
				"baseColorTexture":{
					"index":1
				},
				"metallicRoughnessTexture":{
					"index":2
				}
			}
		},
		{
			"alphaMode":"BLEND",
			"doubleSided":true,
			"name":"wooden_lantern_01_glass",
			"normalTexture":{
				"index":3
			},
			"pbrMetallicRoughness":{
				"baseColorTexture":{
					"index":4
				},
				"metallicRoughnessTexture":{
					"index":5
				}
			}
		}
	],
	"meshes":[
		{
			"name":"Cube.001",
			"primitives":[
				{
					"attributes":{
						"POSITION":0,
						"NORMAL":1,
						"TEXCOORD_0":2
					},
					"indices":3,
					"material":0
				},
				{
					"attributes":{
						"POSITION":4,
						"NORMAL":5,
						"TEXCOORD_0":6
					},
					"indices":7,
					"material":1
				}
			]
		},
		{
			"name":"Cube.004",
			"primitives":[
				{
					"attributes":{
						"POSITION":8,
						"NORMAL":9,
						"TEXCOORD_0":10
					},
					"indices":11,
					"material":0
				},
				{
					"attributes":{
						"POSITION":12,
						"NORMAL":13,
						"TEXCOORD_0":14
					},
					"indices":15,
					"material":1
				}
			]
		},
		{
			"name":"Cylinder.031",
			"primitives":[
				{
					"attributes":{
						"POSITION":16,
						"NORMAL":17,
						"TEXCOORD_0":18
					},
					"indices":19,
					"material":0
				}
			]
		}
	],
	"textures":[
		{
			"sampler":0,
			"source":0
		},
		{
			"sampler":0,
			"source":1
		},
		{
			"sampler":0,
			"source":2
		},
		{
			"sampler":0,
			"source":3
		},
		{
			"sampler":0,
			"source":4
		},
		{
			"sampler":0,
			"source":5
		}
	],
	"images":[
		{
			"mimeType":"image/jpeg",
			"name":"wooden_lantern_01_nor_gl_1k",
			"uri":"textures/wooden_lantern_01_nor_gl_1k.jpg"
		},
		{
			"mimeType":"image/jpeg",
			"name":"wooden_lantern_01_diff_1k",
			"uri":"textures/wooden_lantern_01_diff_1k.jpg"
		},
		{
			"mimeType":"image/jpeg",
			"name":"wooden_lantern_01_arm_1k",
			"uri":"textures/wooden_lantern_01_arm_1k.jpg"
		},
		{
			"mimeType":"image/jpeg",
			"name":"wooden_lantern_01_glass_nor_gl_1k",
			"uri":"textures/wooden_lantern_01_glass_nor_gl_1k.jpg"
		},
		{
			"mimeType":"image/png",
			"name":"wooden_lantern_01_glass_diff_1k",
			"uri":"textures/wooden_lantern_01_glass_diff_1k.png"
		},
		{
			"mimeType":"image/jpeg",
			"name":"wooden_lantern_01_glass_arm_1k",
			"uri":"textures/wooden_lantern_01_glass_arm_1k.jpg"
		}
	],
	"accessors":[
		{
			"bufferView":0,
			"componentType":5126,
			"count":1947,
			"max":[
				0.11062493920326233,
				0.4039788246154785,
				0.10332922637462616
			],
			"min":[
				-0.11062493920326233,
				0,
				-0.11710937321186066
			],
			"type":"VEC3"
		},
		{
			"bufferView":1,
			"componentType":5126,
			"count":1947,
			"type":"VEC3"
		},
		{
			"bufferView":2,
			"componentType":5126,
			"count":1947,
			"type":"VEC2"
		},
		{
			"bufferView":3,
			"componentType":5123,
			"count":4956,
			"type":"SCALAR"
		},
		{
			"bufferView":4,
			"componentType":5126,
			"count":72,
			"max":[
				0.09007946401834488,
				0.3049931824207306,
				0.06696053594350815
			],
			"min":[
				-0.08775105327367783,
				0.06407694518566132,
				-0.09477289021015167
			],
			"type":"VEC3"
		},
		{
			"bufferView":5,
			"componentType":5126,
			"count":72,
			"type":"VEC3"
		},
		{
			"bufferView":6,
			"componentType":5126,
			"count":72,
			"type":"VEC2"
		},
		{
			"bufferView":7,
			"componentType":5123,
			"count":108,
			"type":"SCALAR"
		},
		{
			"bufferView":8,
			"componentType":5126,
			"count":729,
			"max":[
				0.07202506065368652,
				0.33699193596839905,
				0.11710937321186066
			],
			"min":[
				-0.07197330892086029,
				0.02633417770266533,
				0.06889299303293228
			],
			"type":"VEC3"
		},
		{
			"bufferView":9,
			"componentType":5126,
			"count":729,
			"type":"VEC3"
		},
		{
			"bufferView":10,
			"componentType":5126,
			"count":729,
			"type":"VEC2"
		},
		{
			"bufferView":11,
			"componentType":5123,
			"count":1815,
			"type":"SCALAR"
		},
		{
			"bufferView":12,
			"componentType":5126,
			"count":24,
			"max":[
				0.03919561207294464,
				0.30434727668762207,
				0.08343055099248886
			],
			"min":[
				-0.038706712424755096,
				0.06666718423366547,
				0.08108586072921753
			],
			"type":"VEC3"
		},
		{
			"bufferView":13,
			"componentType":5126,
			"count":24,
			"type":"VEC3"
		},
		{
			"bufferView":14,
			"componentType":5126,
			"count":24,
			"type":"VEC2"
		},
		{
			"bufferView":15,
			"componentType":5123,
			"count":36,
			"type":"SCALAR"
		},
		{
			"bufferView":16,
			"componentType":5126,
			"count":157,
			"max":[
				0.09038513153791428,
				0.5288544297218323,
				-0.002408897504210472
			],
			"min":[
				-0.08725442737340927,
				0.35658591985702515,
				-0.015770157799124718
			],
			"type":"VEC3"
		},
		{
			"bufferView":17,
			"componentType":5126,
			"count":157,
			"type":"VEC3"
		},
		{
			"bufferView":18,
			"componentType":5126,
			"count":157,
			"type":"VEC2"
		},
		{
			"bufferView":19,
			"componentType":5123,
			"count":579,
			"type":"SCALAR"
		}
	],
	"bufferViews":[
		{
			"buffer":0,
			"byteLength":23364,
			"byteOffset":0,
			"target":34962
		},
		{
			"buffer":0,
			"byteLength":23364,
			"byteOffset":23364,
			"target":34962
		},
		{
			"buffer":0,
			"byteLength":15576,
			"byteOffset":46728,
			"target":34962
		},
		{
			"buffer":0,
			"byteLength":9912,
			"byteOffset":62304,
			"target":34963
		},
		{
			"buffer":0,
			"byteLength":864,
			"byteOffset":72216,
			"target":34962
		},
		{
			"buffer":0,
			"byteLength":864,
			"byteOffset":73080,
			"target":34962
		},
		{
			"buffer":0,
			"byteLength":576,
			"byteOffset":73944,
			"target":34962
		},
		{
			"buffer":0,
			"byteLength":216,
			"byteOffset":74520,
			"target":34963
		},
		{
			"buffer":0,
			"byteLength":8748,
			"byteOffset":74736,
			"target":34962
		},
		{
			"buffer":0,
			"byteLength":8748,
			"byteOffset":83484,
			"target":34962
		},
		{
			"buffer":0,
			"byteLength":5832,
			"byteOffset":92232,
			"target":34962
		},
		{
			"buffer":0,
			"byteLength":3630,
			"byteOffset":98064,
			"target":34963
		},
		{
			"buffer":0,
			"byteLength":288,
			"byteOffset":101696,
			"target":34962
		},
		{
			"buffer":0,
			"byteLength":288,
			"byteOffset":101984,
			"target":34962
		},
		{
			"buffer":0,
			"byteLength":192,
			"byteOffset":102272,
			"target":34962
		},
		{
			"buffer":0,
			"byteLength":72,
			"byteOffset":102464,
			"target":34963
		},
		{
			"buffer":0,
			"byteLength":1884,
			"byteOffset":102536,
			"target":34962
		},
		{
			"buffer":0,
			"byteLength":1884,
			"byteOffset":104420,
			"target":34962
		},
		{
			"buffer":0,
			"byteLength":1256,
			"byteOffset":106304,
			"target":34962
		},
		{
			"buffer":0,
			"byteLength":1158,
			"byteOffset":107560,
			"target":34963
		}
	],
	"samplers":[
		{
			"magFilter":9729,
			"minFilter":9987
		}
	],
	"buffers":[
		{
			"byteLength":108720,
			"uri":"wooden_lantern_01.bin"
		}
	]
}
