{
	"asset":{
		"generator":"Khronos glTF Blender I/O v5.2.40",
		"version":"2.0"
	},
	"scene":0,
	"scenes":[
		{
			"name":"Scene",
			"nodes":[
				0,
				1,
				2
			]
		}
	],
	"nodes":[
		{
			"mesh":0,
			"name":"wooden_crate_01"
		},
		{
			"mesh":1,
			"name":"wooden_crate_01_latch"
		},
		{
			"mesh":2,
			"name":"wooden_crate_01_lid"
		}
	],
	"materials":[
		{
			"doubleSided":true,
			"name":"wooden_crate_01",
			"normalTexture":{
				"index":0
			},
			"pbrMetallicRoughness":{
				"baseColorTexture":{
					"index":1
				},
				"metallicRoughnessTexture":{
					"index":2
				}
			}
		}
	],
	"meshes":[
		{
			"name":"Cube.020",
			"primitives":[
				{
					"attributes":{
						"POSITION":0,
						"NORMAL":1,
						"TEXCOORD_0":2
					},
					"indices":3,
					"material":0
				}
			]
		},
		{
			"name":"Cube.001",
			"primitives":[
				{
					"attributes":{
						"POSITION":4,
						"NORMAL":5,
						"TEXCOORD_0":6
					},
					"indices":7,
					"material":0
				}
			]
		},
		{
			"name":"Cube.005",
			"primitives":[
				{
					"attributes":{
						"POSITION":8,
						"NORMAL":9,
						"TEXCOORD_0":10
					},
					"indices":11,
					"material":0
				}
			]
		}
	],
	"textures":[
		{
			"sampler":0,
			"source":0
		},
		{
			"sampler":0,
			"source":1
		},
		{
			"sampler":0,
			"source":2
		}
	],
	"images":[
		{
			"mimeType":"image/jpeg",
			"name":"wooden_crate_01_nor_gl_1k",
			"uri":"textures/wooden_crate_01_nor_gl_1k.jpg"
		},
		{
			"mimeType":"image/jpeg",
			"name":"wooden_crate_01_diff_1k",
			"uri":"textures/wooden_crate_01_diff_1k.jpg"
		},
		{
			"mimeType":"image/jpeg",
			"name":"wooden_crate_01_arm_1k",
			"uri":"textures/wooden_crate_01_arm_1k.jpg"
		}
	],
	"accessors":[
		{
			"bufferView":0,
			"componentType":5126,
			"count":2027,
			"max":[
				0.4123325049877167,
				0.3219083845615387,
				0.20431803166866302
			],
			"min":[
				-0.4123325049877167,
				0,
				-0.2040400505065918
			],
			"type":"VEC3"
		},
		{
			"bufferView":1,
			"componentType":5126,
			"count":2027,
			"type":"VEC3"
		},
		{
			"bufferView":2,
			"componentType":5126,
			"count":2027,
			"type":"VEC2"
		},
		{
			"bufferView":3,
			"componentType":5123,
			"count":7533,
			"type":"SCALAR"
		},
		{
			"bufferView":4,
			"componentType":5126,
			"count":179,
			"max":[
				0.00946471281349659,
				0.3437441885471344,
				0.19876059889793396
			],
			"min":[
				-0.016272226348519325,
				0.2463863641023636,
				0.12198898196220398
			],
			"type":"VEC3"
		},
		{
			"bufferView":5,
			"componentType":5126,
			"count":179,
			"type":"VEC3"
		},
		{
			"bufferView":6,
			"componentType":5126,
			"count":179,
			"type":"VEC2"
		},
		{
			"bufferView":7,
			"componentType":5123,
			"count":513,
			"type":"SCALAR"
		},
		{
			"bufferView":8,
			"componentType":5126,
			"count":373,
			"max":[
				0.3541330397129059,
				0.3496182858943939,
				0.18722568452358246
			],
			"min":[
				-0.3541330397129059,
				0.30739569664001465,
				-0.20431803166866302
			],
			"type":"VEC3"
		},
		{
			"bufferView":9,
			"componentType":5126,
			"count":373,
			"type":"VEC3"
		},
		{
			"bufferView":10,
			"componentType":5126,
			"count":373,
			"type":"VEC2"
		},
		{
			"bufferView":11,
			"componentType":5123,
			"count":945,
			"type":"SCALAR"
		}
	],
	"bufferViews":[
		{
			"buffer":0,
			"byteLength":24324,
			"byteOffset":0,
			"target":34962
		},
		{
			"buffer":0,
			"byteLength":24324,
			"byteOffset":24324,
			"target":34962
		},
		{
			"buffer":0,
			"byteLength":16216,
			"byteOffset":48648,
			"target":34962
		},
		{
			"buffer":0,
			"byteLength":15066,
			"byteOffset":64864,
			"target":34963
		},
		{
			"buffer":0,
			"byteLength":2148,
			"byteOffset":79932,
			"target":34962
		},
		{
			"buffer":0,
			"byteLength":2148,
			"byteOffset":82080,
			"target":34962
		},
		{
			"buffer":0,
			"byteLength":1432,
			"byteOffset":84228,
			"target":34962
		},
		{
			"buffer":0,
			"byteLength":1026,
			"byteOffset":85660,
			"target":34963
		},
		{
			"buffer":0,
			"byteLength":4476,
			"byteOffset":86688,
			"target":34962
		},
		{
			"buffer":0,
			"byteLength":4476,
			"byteOffset":91164,
			"target":34962
		},
		{
			"buffer":0,
			"byteLength":2984,
			"byteOffset":95640,
			"target":34962
		},
		{
			"buffer":0,
			"byteLength":1890,
			"byteOffset":98624,
			"target":34963
		}
	],
	"samplers":[
		{
			"magFilter":9729,
			"minFilter":9987
		}
	],
	"buffers":[
		{
			"byteLength":100516,
			"uri":"wooden_crate_01.bin"
		}
	]
}
