{
	"asset":{
		"generator":"Khronos glTF Blender I/O v5.2.40",
		"version":"2.0"
	},
	"scene":0,
	"scenes":[
		{
			"name":"Scene",
			"nodes":[
				0,
				1
			]
		}
	],
	"nodes":[
		{
			"mesh":0,
			"name":"wooden_crate_02_crate"
		},
		{
			"mesh":1,
			"name":"wooden_crate_02_lid"
		}
	],
	"materials":[
		{
			"doubleSided":true,
			"name":"wooden_crate_02",
			"normalTexture":{
				"index":0
			},
			"pbrMetallicRoughness":{
				"baseColorTexture":{
					"index":1
				},
				"metallicRoughnessTexture":{
					"index":2
				}
			}
		}
	],
	"meshes":[
		{
			"name":"Cube.006",
			"primitives":[
				{
					"attributes":{
						"POSITION":0,
						"NORMAL":1,
						"TEXCOORD_0":2
					},
					"indices":3,
					"material":0
				}
			]
		},
		{
			"name":"Cube.008",
			"primitives":[
				{
					"attributes":{
						"POSITION":4,
						"NORMAL":5,
						"TEXCOORD_0":6
					},
					"indices":7,
					"material":0
				}
			]
		}
	],
	"textures":[
		{
			"sampler":0,
			"source":0
		},
		{
			"sampler":0,
			"source":1
		},
		{
			"sampler":0,
			"source":2
		}
	],
	"images":[
		{
			"mimeType":"image/jpeg",
			"name":"wooden_crate_02_nor_gl_1k",
			"uri":"textures/wooden_crate_02_nor_gl_1k.jpg"
		},
		{
			"mimeType":"image/jpeg",
			"name":"wooden_crate_02_diff_1k",
			"uri":"textures/wooden_crate_02_diff_1k.jpg"
		},
		{
			"mimeType":"image/jpeg",
			"name":"wooden_crate_02_arm_1k",
			"uri":"textures/wooden_crate_02_arm_1k.jpg"
		}
	],
	"accessors":[
		{
			"bufferView":0,
			"componentType":5126,
			"count":2092,
			"max":[
				0.26455047726631165,
				0.44552406668663025,
				0.5831629037857056
			],
			"min":[
				-0.26455047726631165,
				0,
				-0.5831629037857056
			],
			"type":"VEC3"
		},
		{
			"bufferView":1,
			"componentType":5126,
			"count":2092,
			"type":"VEC3"
		},
		{
			"bufferView":2,
			"componentType":5126,
			"count":2092,
			"type":"VEC2"
		},
		{
			"bufferView":3,
			"componentType":5123,
			"count":7809,
			"type":"SCALAR"
		},
		{
			"bufferView":4,
			"componentType":5126,
			"count":397,
			"max":[
				0.2394971251487732,
				0.46402594447135925,
				0.520082414150238
			],
			"min":[
				-0.2392004430294037,
				0.3970348536968231,
				-0.5200825929641724
			],
			"type":"VEC3"
		},
		{
			"bufferView":5,
			"componentType":5126,
			"count":397,
			"type":"VEC3"
		},
		{
			"bufferView":6,
			"componentType":5126,
			"count":397,
			"type":"VEC2"
		},
		{
			"bufferView":7,
			"componentType":5123,
			"count":1188,
			"type":"SCALAR"
		}
	],
	"bufferViews":[
		{
			"buffer":0,
			"byteLength":25104,
			"byteOffset":0,
			"target":34962
		},
		{
			"buffer":0,
			"byteLength":25104,
			"byteOffset":25104,
			"target":34962
		},
		{
			"buffer":0,
			"byteLength":16736,
			"byteOffset":50208,
			"target":34962
		},
		{
			"buffer":0,
			"byteLength":15618,
			"byteOffset":66944,
			"target":34963
		},
		{
			"buffer":0,
			"byteLength":4764,
			"byteOffset":82564,
			"target":34962
		},
		{
			"buffer":0,
			"byteLength":4764,
			"byteOffset":87328,
			"target":34962
		},
		{
			"buffer":0,
			"byteLength":3176,
			"byteOffset":92092,
			"target":34962
		},
		{
			"buffer":0,
			"byteLength":2376,
			"byteOffset":95268,
			"target":34963
		}
	],
	"samplers":[
		{
			"magFilter":9729,
			"minFilter":9987
		}
	],
	"buffers":[
		{
			"byteLength":97644,
			"uri":"wooden_crate_02.bin"
		}
	]
}
