{
	"asset":{
		"generator":"Khronos glTF Blender I/O v5.2.40",
		"version":"2.0"
	},
	"extensionsUsed":[
		"KHR_materials_specular"
	],
	"scene":0,
	"scenes":[
		{
			"name":"Scene",
			"nodes":[
				0
			]
		}
	],
	"nodes":[
		{
			"mesh":0,
			"name":"house_white"
		}
	],
	"materials":[
		{
			"doubleSided":true,
			"extensions":{
				"KHR_materials_specular":{
					"specularFactor":0
				}
			},
			"name":"Material.001",
			"pbrMetallicRoughness":{
				"baseColorTexture":{
					"index":0
				},
				"metallicFactor":0,
				"roughnessFactor":0.8999999761581421
			}
		}
	],
	"meshes":[
		{
			"name":"material",
			"primitives":[
				{
					"attributes":{
						"POSITION":0,
						"NORMAL":1,
						"TEXCOORD_0":2
					},
					"indices":3,
					"material":0
				}
			]
		}
	],
	"textures":[
		{
			"sampler":0,
			"source":0
		}
	],
	"images":[
		{
			"mimeType":"image/jpeg",
			"name":"house_white",
			"uri":"textures/house_white.jpg"
		}
	],
	"accessors":[
		{
			"bufferView":0,
			"componentType":5126,
			"count":41991,
			"max":[
				4.032222747802734,
				7.514101505279541,
				3.3565211296081543
			],
			"min":[
				-4.035401344299316,
				-0.010209954343736172,
				-3.351940870285034
			],
			"type":"VEC3"
		},
		{
			"bufferView":1,
			"componentType":5126,
			"count":41991,
			"type":"VEC3"
		},
		{
			"bufferView":2,
			"componentType":5126,
			"count":41991,
			"type":"VEC2"
		},
		{
			"bufferView":3,
			"componentType":5123,
			"count":41997,
			"type":"SCALAR"
		}
	],
	"bufferViews":[
		{
			"buffer":0,
			"byteLength":503892,
			"byteOffset":0,
			"target":34962
		},
		{
			"buffer":0,
			"byteLength":503892,
			"byteOffset":503892,
			"target":34962
		},
		{
			"buffer":0,
			"byteLength":335928,
			"byteOffset":1007784,
			"target":34962
		},
		{
			"buffer":0,
			"byteLength":83994,
			"byteOffset":1343712,
			"target":34963
		}
	],
	"samplers":[
		{
			"magFilter":9729,
			"minFilter":9987
		}
	],
	"buffers":[
		{
			"byteLength":1427708,
			"uri":"house_white.bin"
		}
	]
}
