{
	"asset":{
		"generator":"Khronos glTF Blender I/O v5.2.40",
		"version":"2.0"
	},
	"extensionsUsed":[
		"KHR_materials_specular"
	],
	"scene":0,
	"scenes":[
		{
			"name":"Scene",
			"nodes":[
				0
			]
		}
	],
	"nodes":[
		{
			"mesh":0,
			"name":"house_yellow"
		}
	],
	"materials":[
		{
			"doubleSided":true,
			"extensions":{
				"KHR_materials_specular":{
					"specularFactor":0
				}
			},
			"name":"Material.001",
			"pbrMetallicRoughness":{
				"baseColorTexture":{
					"index":0
				},
				"metallicFactor":0,
				"roughnessFactor":0.8999999761581421
			}
		}
	],
	"meshes":[
		{
			"name":"material",
			"primitives":[
				{
					"attributes":{
						"POSITION":0,
						"NORMAL":1,
						"TEXCOORD_0":2
					},
					"indices":3,
					"material":0
				}
			]
		}
	],
	"textures":[
		{
			"sampler":0,
			"source":0
		}
	],
	"images":[
		{
			"mimeType":"image/jpeg",
			"name":"house_yellow",
			"uri":"textures/house_yellow.jpg"
		}
	],
	"accessors":[
		{
			"bufferView":0,
			"componentType":5126,
			"count":35992,
			"max":[
				4.526600360870361,
				5.784446716308594,
				4.487765312194824
			],
			"min":[
				-4.519845962524414,
				-0.008206149563193321,
				-4.475061893463135
			],
			"type":"VEC3"
		},
		{
			"bufferView":1,
			"componentType":5126,
			"count":35992,
			"type":"VEC3"
		},
		{
			"bufferView":2,
			"componentType":5126,
			"count":35992,
			"type":"VEC2"
		},
		{
			"bufferView":3,
			"componentType":5123,
			"count":36000,
			"type":"SCALAR"
		}
	],
	"bufferViews":[
		{
			"buffer":0,
			"byteLength":431904,
			"byteOffset":0,
			"target":34962
		},
		{
			"buffer":0,
			"byteLength":431904,
			"byteOffset":431904,
			"target":34962
		},
		{
			"buffer":0,
			"byteLength":287936,
			"byteOffset":863808,
			"target":34962
		},
		{
			"buffer":0,
			"byteLength":72000,
			"byteOffset":1151744,
			"target":34963
		}
	],
	"samplers":[
		{
			"magFilter":9729,
			"minFilter":9987
		}
	],
	"buffers":[
		{
			"byteLength":1223744,
			"uri":"house_yellow.bin"
		}
	]
}
