{
	"asset":{
		"generator":"Khronos glTF Blender I/O v5.2.40",
		"version":"2.0"
	},
	"extensionsUsed":[
		"KHR_materials_specular"
	],
	"scene":0,
	"scenes":[
		{
			"name":"Scene",
			"nodes":[
				0
			]
		}
	],
	"nodes":[
		{
			"mesh":0,
			"name":"tavern"
		}
	],
	"materials":[
		{
			"doubleSided":true,
			"extensions":{
				"KHR_materials_specular":{
					"specularFactor":0
				}
			},
			"name":"Material.001",
			"pbrMetallicRoughness":{
				"baseColorTexture":{
					"index":0
				},
				"metallicFactor":0,
				"roughnessFactor":0.8999999761581421
			}
		}
	],
	"meshes":[
		{
			"name":"material",
			"primitives":[
				{
					"attributes":{
						"POSITION":0,
						"NORMAL":1,
						"TEXCOORD_0":2
					},
					"indices":3,
					"material":0
				}
			]
		}
	],
	"textures":[
		{
			"sampler":0,
			"source":0
		}
	],
	"images":[
		{
			"mimeType":"image/jpeg",
			"name":"tavern",
			"uri":"textures/tavern.jpg"
		}
	],
	"accessors":[
		{
			"bufferView":0,
			"componentType":5126,
			"count":41995,
			"max":[
				4.520068645477295,
				9.637167930603027,
				4.037388801574707
			],
			"min":[
				-4.526886940002441,
				-0.00808421615511179,
				-4.038793087005615
			],
			"type":"VEC3"
		},
		{
			"bufferView":1,
			"componentType":5126,
			"count":41995,
			"type":"VEC3"
		},
		{
			"bufferView":2,
			"componentType":5126,
			"count":41995,
			"type":"VEC2"
		},
		{
			"bufferView":3,
			"componentType":5123,
			"count":42000,
			"type":"SCALAR"
		}
	],
	"bufferViews":[
		{
			"buffer":0,
			"byteLength":503940,
			"byteOffset":0,
			"target":34962
		},
		{
			"buffer":0,
			"byteLength":503940,
			"byteOffset":503940,
			"target":34962
		},
		{
			"buffer":0,
			"byteLength":335960,
			"byteOffset":1007880,
			"target":34962
		},
		{
			"buffer":0,
			"byteLength":84000,
			"byteOffset":1343840,
			"target":34963
		}
	],
	"samplers":[
		{
			"magFilter":9729,
			"minFilter":9987
		}
	],
	"buffers":[
		{
			"byteLength":1427840,
			"uri":"tavern.bin"
		}
	]
}
