{
	"asset":{
		"generator":"Khronos glTF Blender I/O v5.2.40",
		"version":"2.0"
	},
	"extensionsUsed":[
		"KHR_materials_specular"
	],
	"scene":0,
	"scenes":[
		{
			"name":"Scene",
			"nodes":[
				18
			]
		}
	],
	"nodes":[
		{
			"name":"Head",
			"translation":[
				0,
				0.07360005378723145,
				0
			]
		},
		{
			"children":[
				0
			],
			"name":"Neck",
			"rotation":[
				0,
				1.1920927533992653e-07,
				0,
				1
			],
			"translation":[
				0,
				0.23000013828277588,
				0
			]
		},
		{
			"name":"Hand_L",
			"rotation":[
				-0.04894188791513443,
				1.2417749495341468e-08,
				-3.4668371284851673e-08,
				0.9988016486167908
			],
			"scale":[
				1.0000001192092896,
				1.0000001192092896,
				1
			],
			"translation":[
				-2.1798229887792786e-11,
				0.22584357857704163,
				-7.2177499532699585e-09
			]
		},
		{
			"children":[
				2
			],
			"name":"LowerArm_L",
			"rotation":[
				0.09774172306060791,
				-3.968025197309544e-08,
				5.814382308955146e-09,
				0.9952118396759033
			],
			"translation":[
				-5.8253696977317304e-08,
				0.2259579300880432,
				-7.450580596923828e-09
			]
		},
		{
			"children":[
				3
			],
			"name":"UpperArm_L",
			"rotation":[
				-0.011006849817931652,
				0.0489957258105278,
				-0.974452018737793,
				0.21890999376773834
			],
			"scale":[
				1.0000004768371582,
				1,
				1
			],
			"translation":[
				0.21159999072551727,
				0.17480003833770752,
				-3.1950705192684836e-08
			]
		},
		{
			"name":"Hand_R",
			"rotation":[
				-0.046620022505521774,
				1.0383993664930813e-10,
				-9.399386158293055e-08,
				0.9989126920700073
			],
			"scale":[
				1.0000001192092896,
				1,
				1
			],
			"translation":[
				5.975450534378979e-08,
				0.23703128099441528,
				0
			]
		},
		{
			"children":[
				5
			],
			"name":"LowerArm_R",
			"rotation":[
				0.09328663349151611,
				2.2134404531470864e-08,
				6.342517622215382e-08,
				0.9956392645835876
			],
			"scale":[
				0.9999999403953552,
				1,
				0.9999998807907104
			],
			"translation":[
				-1.0762895019666985e-09,
				0.23628051578998566,
				9.313225746154785e-10
			]
		},
		{
			"children":[
				6
			],
			"name":"UpperArm_R",
			"rotation":[
				-0.008189953863620758,
				-0.03735183924436569,
				0.9760797619819641,
				0.21402345597743988
			],
			"scale":[
				1.0000003576278687,
				1.0000001192092896,
				1
			],
			"translation":[
				-0.21159999072551727,
				0.17480003833770752,
				3.1950705192684836e-08
			]
		},
		{
			"children":[
				1,
				4,
				7
			],
			"name":"Chest",
			"rotation":[
				0,
				-1.1920927533992653e-07,
				0,
				1
			],
			"scale":[
				1,
				0.9999999403953552,
				1
			],
			"translation":[
				0,
				0.18400001525878906,
				0
			]
		},
		{
			"children":[
				8
			],
			"name":"Spine",
			"rotation":[
				0,
				-3.178651297730539e-08,
				0,
				1
			],
			"translation":[
				0,
				0.1656000018119812,
				0
			]
		},
		{
			"name":"Foot_L",
			"rotation":[
				0.5788937211036682,
				-0.027336200699210167,
				0.00513725820928812,
				0.8149284720420837
			],
			"scale":[
				1,
				0.9999999403953552,
				1
			],
			"translation":[
				1.0228245805876668e-08,
				0.4340403974056244,
				-1.4260876923799515e-09
			]
		},
		{
			"children":[
				10
			],
			"name":"LowerLeg_L",
			"rotation":[
				-0.0633215457201004,
				0.0013346144696697593,
				-0.06236150488257408,
				0.996042013168335
			],
			"scale":[
				0.9999999403953552,
				0.9999998807907104,
				0.9999998807907104
			],
			"translation":[
				-1.4737380205076533e-09,
				0.43729493021965027,
				-4.190951585769653e-09
			]
		},
		{
			"children":[
				11
			],
			"name":"UpperLeg_L",
			"rotation":[
				0.0015126490034162998,
				-0.02098866179585457,
				-0.9971965551376343,
				0.07180749624967575
			],
			"scale":[
				0.9999920129776001,
				0.9999998807907104,
				0.9999992847442627
			],
			"translation":[
				0.10119999945163727,
				-0.01840001344680786,
				1.5280775755854847e-08
			]
		},
		{
			"name":"Foot_R",
			"rotation":[
				0.5788470506668091,
				0.03003864921629429,
				-0.005645411089062691,
				0.8148631453514099
			],
			"scale":[
				0.9999999403953552,
				1,
				0.9999998807907104
			],
			"translation":[
				-1.4448537921651905e-09,
				0.43405646085739136,
				2.1827872842550278e-09
			]
		},
		{
			"children":[
				13
			],
			"name":"LowerLeg_R",
			"rotation":[
				-0.06311745941638947,
				-0.00171460781712085,
				0.0796525627374649,
				0.9948209524154663
			],
			"scale":[
				1.0000001192092896,
				1,
				1
			],
			"translation":[
				2.122931164194597e-08,
				0.4399116635322571,
				-3.026798367500305e-09
			]
		},
		{
			"children":[
				14
			],
			"name":"UpperLeg_R",
			"rotation":[
				0.0018834167858585715,
				0.020832885056734085,
				0.9957202076911926,
				0.09002089500427246
			],
			"scale":[
				0.9999994039535522,
				1,
				0.9999999403953552
			],
			"translation":[
				-0.10119999945163727,
				-0.01840001344680786,
				-1.5280775755854847e-08
			]
		},
		{
			"children":[
				9,
				12,
				15
			],
			"name":"Hips",
			"rotation":[
				0,
				-1,
				0,
				7.549790126404332e-08
			],
			"translation":[
				0,
				0.9751999974250793,
				0
			]
		},
		{
			"mesh":0,
			"name":"Body",
			"skin":0
		},
		{
			"children":[
				17,
				16
			],
			"name":"Rig"
		}
	],
	"materials":[
		{
			"doubleSided":true,
			"extensions":{
				"KHR_materials_specular":{
					"specularFactor":0
				}
			},
			"name":"Material.001",
			"pbrMetallicRoughness":{
				"baseColorTexture":{
					"index":0
				},
				"metallicFactor":0,
				"roughnessFactor":0.8500000238418579
			}
		}
	],
	"meshes":[
		{
			"name":"material",
			"primitives":[
				{
					"attributes":{
						"POSITION":0,
						"NORMAL":1,
						"TEXCOORD_0":2,
						"JOINTS_0":3,
						"WEIGHTS_0":4
					},
					"indices":5,
					"material":0
				}
			]
		}
	],
	"textures":[
		{
			"sampler":0,
			"source":0
		}
	],
	"images":[
		{
			"mimeType":"image/jpeg",
			"name":"captain_skin",
			"uri":"textures/captain_skin.jpg"
		}
	],
	"skins":[
		{
			"inverseBindMatrices":6,
			"joints":[
				16,
				9,
				8,
				1,
				0,
				4,
				3,
				2,
				7,
				6,
				5,
				12,
				11,
				10,
				15,
				14,
				13
			],
			"name":"Rig"
		}
	],
	"accessors":[
		{
			"bufferView":0,
			"componentType":5126,
			"count":7000,
			"max":[
				0.48957765102386475,
				1.8423752784729004,
				0.2582548260688782
			],
			"min":[
				-0.4865494966506958,
				-0.0017889922019094229,
				-0.25744515657424927
			],
			"type":"VEC3"
		},
		{
			"bufferView":1,
			"componentType":5126,
			"count":7000,
			"type":"VEC3"
		},
		{
			"bufferView":2,
			"componentType":5126,
			"count":7000,
			"type":"VEC2"
		},
		{
			"bufferView":3,
			"componentType":5121,
			"count":7000,
			"type":"VEC4"
		},
		{
			"bufferView":4,
			"componentType":5126,
			"count":7000,
			"type":"VEC4"
		},
		{
			"bufferView":5,
			"componentType":5123,
			"count":18000,
			"type":"SCALAR"
		},
		{
			"bufferView":6,
			"componentType":5126,
			"count":17,
			"type":"MAT4"
		}
	],
	"bufferViews":[
		{
			"buffer":0,
			"byteLength":84000,
			"byteOffset":0,
			"target":34962
		},
		{
			"buffer":0,
			"byteLength":84000,
			"byteOffset":84000,
			"target":34962
		},
		{
			"buffer":0,
			"byteLength":56000,
			"byteOffset":168000,
			"target":34962
		},
		{
			"buffer":0,
			"byteLength":28000,
			"byteOffset":224000,
			"target":34962
		},
		{
			"buffer":0,
			"byteLength":112000,
			"byteOffset":252000,
			"target":34962
		},
		{
			"buffer":0,
			"byteLength":36000,
			"byteOffset":364000,
			"target":34963
		},
		{
			"buffer":0,
			"byteLength":1088,
			"byteOffset":400000
		}
	],
	"samplers":[
		{
			"magFilter":9729,
			"minFilter":9987
		}
	],
	"buffers":[
		{
			"byteLength":401088,
			"uri":"captain.bin"
		}
	]
}
