{
	"asset":{
		"generator":"Khronos glTF Blender I/O v5.2.40",
		"version":"2.0"
	},
	"extensionsUsed":[
		"KHR_materials_specular"
	],
	"scene":0,
	"scenes":[
		{
			"name":"Scene",
			"nodes":[
				18
			]
		}
	],
	"nodes":[
		{
			"name":"Head",
			"rotation":[
				-3.5527141023169746e-15,
				3.552713678800501e-15,
				-4.235164736271502e-22,
				1
			],
			"translation":[
				0,
				0.07120013236999512,
				0
			]
		},
		{
			"children":[
				0
			],
			"name":"Neck",
			"rotation":[
				-3.5527141023169746e-15,
				3.552713678800501e-15,
				-4.235164736271502e-22,
				1
			],
			"translation":[
				0,
				0.22250020503997803,
				0
			]
		},
		{
			"name":"Hand_L",
			"rotation":[
				-0.04696885496377945,
				1.292765272609131e-08,
				8.730076217489113e-08,
				0.9988963603973389
			],
			"scale":[
				1,
				1,
				0.9999999403953552
			],
			"translation":[
				2.2939006250055627e-10,
				0.22739994525909424,
				1.30385160446167e-08
			]
		},
		{
			"children":[
				2
			],
			"name":"LowerArm_L",
			"rotation":[
				0.09423696994781494,
				-4.9423679371329854e-08,
				-9.39148705469961e-08,
				0.9955497980117798
			],
			"translation":[
				3.067047416038804e-08,
				0.22546373307704926,
				3.725290298461914e-09
			]
		},
		{
			"children":[
				3
			],
			"name":"UpperArm_L",
			"rotation":[
				-0.005320764146745205,
				0.024035414680838585,
				-0.9760657548904419,
				0.21607792377471924
			],
			"scale":[
				1.000000238418579,
				1,
				1
			],
			"translation":[
				0.20469999313354492,
				0.16910016536712646,
				1.7895432691261703e-08
			]
		},
		{
			"name":"Hand_R",
			"rotation":[
				-0.04685657098889351,
				2.8955994935131457e-08,
				-1.4852972185508406e-07,
				0.9989016652107239
			],
			"scale":[
				1,
				0.9999998807907104,
				0.9999998211860657
			],
			"translation":[
				1.549014250201708e-10,
				0.22793863713741302,
				1.1175870895385742e-08
			]
		},
		{
			"children":[
				5
			],
			"name":"LowerArm_R",
			"rotation":[
				0.0940154641866684,
				4.0581042526355304e-08,
				4.4986456226858706e-10,
				0.995570719242096
			],
			"translation":[
				-9.598989381132128e-10,
				0.22598199546337128,
				2.7939677238464355e-09
			]
		},
		{
			"children":[
				6
			],
			"name":"UpperArm_R",
			"rotation":[
				-0.005240286700427532,
				-0.023694800212979317,
				0.9761183261871338,
				0.21587981283664703
			],
			"scale":[
				1.000001311302185,
				1.0000001192092896,
				1
			],
			"translation":[
				-0.20469999313354492,
				0.16910016536712646,
				-1.7895432691261703e-08
			]
		},
		{
			"children":[
				1,
				4,
				7
			],
			"name":"Chest",
			"rotation":[
				-3.5527141023169746e-15,
				-7.105427357601002e-15,
				-4.235164736271502e-22,
				1
			],
			"translation":[
				0,
				0.17800021171569824,
				0
			]
		},
		{
			"children":[
				8
			],
			"name":"Spine",
			"rotation":[
				-3.5527141023169746e-15,
				1.1920928955078125e-07,
				-2.117582368135751e-22,
				1
			],
			"translation":[
				0,
				0.1602000594139099,
				0
			]
		},
		{
			"name":"Foot_L",
			"rotation":[
				0.5787001848220825,
				-0.03727774694561958,
				0.0070077404379844666,
				0.8146578073501587
			],
			"scale":[
				1,
				0.9999998211860657,
				0.9999998807907104
			],
			"translation":[
				-3.635813428104484e-08,
				0.41995158791542053,
				1.57160684466362e-09
			]
		},
		{
			"children":[
				10
			],
			"name":"LowerLeg_L",
			"rotation":[
				-0.06236628443002701,
				0.0027387801092118025,
				-0.12460998445749283,
				0.9902400374412537
			],
			"scale":[
				0.9999998807907104,
				0.9999999403953552,
				0.9999998807907104
			],
			"translation":[
				-3.039911433688758e-08,
				0.43509066104888916,
				-1.1641532182693481e-09
			]
		},
		{
			"children":[
				11
			],
			"name":"UpperLeg_L",
			"rotation":[
				0.002812355523929,
				-0.020265553146600723,
				-0.9903011918067932,
				0.13742248713970184
			],
			"scale":[
				0.9999974966049194,
				0.9999999403953552,
				1
			],
			"translation":[
				0.09790000319480896,
				-0.01780003309249878,
				-1.4782490787013103e-08
			]
		},
		{
			"name":"Foot_R",
			"rotation":[
				0.5787701606750488,
				0.034017402678728104,
				-0.006393980234861374,
				0.8147558569908142
			],
			"translation":[
				-7.896683307251351e-10,
				0.4199281930923462,
				-5.529727786779404e-10
			]
		},
		{
			"children":[
				13
			],
			"name":"LowerLeg_R",
			"rotation":[
				-0.06273919343948364,
				-0.0022763414308428764,
				0.10463870316743851,
				0.9925267696380615
			],
			"scale":[
				1.0000001192092896,
				0.9999999403953552,
				1
			],
			"translation":[
				-1.5796347341279215e-08,
				0.43031516671180725,
				-4.656612873077393e-10
			]
		},
		{
			"children":[
				14
			],
			"name":"UpperLeg_R",
			"rotation":[
				0.0024075470864772797,
				0.02054639160633087,
				0.9929921627044678,
				0.11635556071996689
			],
			"scale":[
				1.0000009536743164,
				1,
				1
			],
			"translation":[
				-0.09790000319480896,
				-0.01780003309249878,
				1.4782490787013103e-08
			]
		},
		{
			"children":[
				9,
				12,
				15
			],
			"name":"Hips",
			"rotation":[
				0,
				1,
				2.9802318834981634e-08,
				7.549789415861596e-08
			],
			"scale":[
				1,
				0.9999997019767761,
				0.9999999403953552
			],
			"translation":[
				0,
				0.9434000253677368,
				0
			]
		},
		{
			"mesh":0,
			"name":"Body",
			"skin":0
		},
		{
			"children":[
				17,
				16
			],
			"name":"Rig"
		}
	],
	"materials":[
		{
			"doubleSided":true,
			"extensions":{
				"KHR_materials_specular":{
					"specularFactor":0
				}
			},
			"name":"Material.001",
			"pbrMetallicRoughness":{
				"baseColorTexture":{
					"index":0
				},
				"metallicFactor":0,
				"roughnessFactor":0.8500000238418579
			}
		}
	],
	"meshes":[
		{
			"name":"material",
			"primitives":[
				{
					"attributes":{
						"POSITION":0,
						"NORMAL":1,
						"TEXCOORD_0":2,
						"JOINTS_0":3,
						"WEIGHTS_0":4
					},
					"indices":5,
					"material":0
				}
			]
		}
	],
	"textures":[
		{
			"sampler":0,
			"source":0
		}
	],
	"images":[
		{
			"mimeType":"image/jpeg",
			"name":"sailor_skin",
			"uri":"textures/sailor_skin.jpg"
		}
	],
	"skins":[
		{
			"inverseBindMatrices":6,
			"joints":[
				16,
				9,
				8,
				1,
				0,
				4,
				3,
				2,
				7,
				6,
				5,
				12,
				11,
				10,
				15,
				14,
				13
			],
			"name":"Rig"
		}
	],
	"accessors":[
		{
			"bufferView":0,
			"componentType":5126,
			"count":5887,
			"max":[
				0.4737992286682129,
				1.7783010005950928,
				0.17086829245090485
			],
			"min":[
				-0.4735942482948303,
				0.00023154218797571957,
				-0.1702105551958084
			],
			"type":"VEC3"
		},
		{
			"bufferView":1,
			"componentType":5126,
			"count":5887,
			"type":"VEC3"
		},
		{
			"bufferView":2,
			"componentType":5126,
			"count":5887,
			"type":"VEC2"
		},
		{
			"bufferView":3,
			"componentType":5121,
			"count":5887,
			"type":"VEC4"
		},
		{
			"bufferView":4,
			"componentType":5126,
			"count":5887,
			"type":"VEC4"
		},
		{
			"bufferView":5,
			"componentType":5123,
			"count":15000,
			"type":"SCALAR"
		},
		{
			"bufferView":6,
			"componentType":5126,
			"count":17,
			"type":"MAT4"
		}
	],
	"bufferViews":[
		{
			"buffer":0,
			"byteLength":70644,
			"byteOffset":0,
			"target":34962
		},
		{
			"buffer":0,
			"byteLength":70644,
			"byteOffset":70644,
			"target":34962
		},
		{
			"buffer":0,
			"byteLength":47096,
			"byteOffset":141288,
			"target":34962
		},
		{
			"buffer":0,
			"byteLength":23548,
			"byteOffset":188384,
			"target":34962
		},
		{
			"buffer":0,
			"byteLength":94192,
			"byteOffset":211932,
			"target":34962
		},
		{
			"buffer":0,
			"byteLength":30000,
			"byteOffset":306124,
			"target":34963
		},
		{
			"buffer":0,
			"byteLength":1088,
			"byteOffset":336124
		}
	],
	"samplers":[
		{
			"magFilter":9729,
			"minFilter":9987
		}
	],
	"buffers":[
		{
			"byteLength":337212,
			"uri":"sailor.bin"
		}
	]
}
