{
	"asset":{
		"generator":"Khronos glTF Blender I/O v5.2.40",
		"version":"2.0"
	},
	"extensionsUsed":[
		"KHR_materials_specular"
	],
	"scene":0,
	"scenes":[
		{
			"name":"Scene",
			"nodes":[
				18
			]
		}
	],
	"nodes":[
		{
			"name":"Head",
			"translation":[
				0,
				0.07360005378723145,
				0
			]
		},
		{
			"children":[
				0
			],
			"name":"Neck",
			"rotation":[
				0,
				1.1920927533992653e-07,
				0,
				1
			],
			"translation":[
				0,
				0.23000013828277588,
				0
			]
		},
		{
			"name":"Hand_L",
			"rotation":[
				-0.04600181803107262,
				2.9113808253100615e-08,
				4.927174046542859e-08,
				0.9989413619041443
			],
			"translation":[
				5.988705709114583e-08,
				0.24012491106987,
				-4.6566128730773926e-09
			]
		},
		{
			"children":[
				2
			],
			"name":"LowerArm_L",
			"rotation":[
				0.09164173901081085,
				1.4363410016926537e-08,
				-5.593630802991356e-08,
				0.995792031288147
			],
			"scale":[
				0.9999999403953552,
				1,
				0.9999999403953552
			],
			"translation":[
				-1.1049594572654087e-10,
				0.2415149211883545,
				-1.862645149230957e-09
			]
		},
		{
			"children":[
				3
			],
			"name":"UpperArm_L",
			"rotation":[
				-0.014632206410169601,
				0.05975745990872383,
				-0.9694660902023315,
				0.23738262057304382
			],
			"scale":[
				1.0000001192092896,
				1,
				1
			],
			"translation":[
				0.21159999072551727,
				0.17480003833770752,
				-3.1950705192684836e-08
			]
		},
		{
			"name":"Hand_R",
			"rotation":[
				-0.04469145089387894,
				-5.248281809144828e-09,
				-4.117043417295463e-08,
				0.9990008473396301
			],
			"scale":[
				1,
				0.9999999403953552,
				1.0000001192092896
			],
			"translation":[
				-5.973043215590224e-08,
				0.24725501239299774,
				-1.0710209608078003e-08
			]
		},
		{
			"children":[
				5
			],
			"name":"LowerArm_R",
			"rotation":[
				0.08919492363929749,
				-5.6519100510854514e-09,
				2.5266825076641908e-08,
				0.9960141777992249
			],
			"scale":[
				0.9999999403953552,
				1,
				0.9999998807907104
			],
			"translation":[
				-2.8106839078390067e-10,
				0.24780258536338806,
				-7.450580596923828e-09
			]
		},
		{
			"children":[
				6
			],
			"name":"UpperArm_R",
			"rotation":[
				-0.011863034218549728,
				-0.04940652474761009,
				0.9711064100265503,
				0.2331751585006714
			],
			"scale":[
				1.0000003576278687,
				1,
				0.9999999403953552
			],
			"translation":[
				-0.21159999072551727,
				0.17480003833770752,
				3.1950705192684836e-08
			]
		},
		{
			"children":[
				1,
				4,
				7
			],
			"name":"Chest",
			"rotation":[
				0,
				-1.1920927533992653e-07,
				0,
				1
			],
			"scale":[
				1,
				0.9999999403953552,
				1
			],
			"translation":[
				0,
				0.18400001525878906,
				0
			]
		},
		{
			"children":[
				8
			],
			"name":"Spine",
			"rotation":[
				0,
				-3.178651297730539e-08,
				0,
				1
			],
			"translation":[
				0,
				0.1656000018119812,
				0
			]
		},
		{
			"name":"Foot_L",
			"rotation":[
				0.578846275806427,
				-0.030075162649154663,
				0.0056523834355175495,
				0.8148622512817383
			],
			"scale":[
				0.9999999403953552,
				1,
				1
			],
			"translation":[
				-8.144697360989994e-09,
				0.4340566396713257,
				-1.775333657860756e-09
			]
		},
		{
			"children":[
				10
			],
			"name":"LowerLeg_L",
			"rotation":[
				-0.063114233314991,
				0.001719689927995205,
				-0.07988493889570236,
				0.9948024749755859
			],
			"scale":[
				1,
				1,
				1.0000001192092896
			],
			"translation":[
				3.609619270150688e-08,
				0.439951092004776,
				-2.9103830456733704e-09
			]
		},
		{
			"children":[
				11
			],
			"name":"UpperLeg_L",
			"rotation":[
				0.0018891533836722374,
				-0.020830515772104263,
				-0.995698094367981,
				0.09026557207107544
			],
			"scale":[
				0.9999942183494568,
				0.9999999403953552,
				0.9999996423721313
			],
			"translation":[
				0.10119999945163727,
				-0.01840001344680786,
				1.5280775755854847e-08
			]
		},
		{
			"name":"Foot_R",
			"rotation":[
				0.5789139866828918,
				0.026078438386321068,
				-0.004900902509689331,
				0.814956784248352
			],
			"scale":[
				1,
				1,
				1.0000001192092896
			],
			"translation":[
				-2.901244355868471e-09,
				0.43403342366218567,
				1.862645149230957e-09
			]
		},
		{
			"children":[
				13
			],
			"name":"LowerLeg_R",
			"rotation":[
				-0.06340095400810242,
				-0.0011582665611058474,
				0.05424191802740097,
				0.9965122938156128
			],
			"scale":[
				1,
				1.0000001192092896,
				1.0000001192092896
			],
			"translation":[
				-1.5132506803183787e-08,
				0.43627801537513733,
				4.6566128730773926e-09
			]
		},
		{
			"children":[
				14
			],
			"name":"UpperLeg_R",
			"rotation":[
				0.0013372960966080427,
				0.02104969322681427,
				0.9977743625640869,
				0.0632571205496788
			],
			"scale":[
				0.999982476234436,
				0.9999998211860657,
				0.9999979734420776
			],
			"translation":[
				-0.10119999945163727,
				-0.01840001344680786,
				-1.5280775755854847e-08
			]
		},
		{
			"children":[
				9,
				12,
				15
			],
			"name":"Hips",
			"rotation":[
				0,
				-1,
				0,
				7.549790126404332e-08
			],
			"translation":[
				0,
				0.9751999974250793,
				0
			]
		},
		{
			"mesh":0,
			"name":"Body",
			"skin":0
		},
		{
			"children":[
				17,
				16
			],
			"name":"Rig"
		}
	],
	"materials":[
		{
			"doubleSided":true,
			"extensions":{
				"KHR_materials_specular":{
					"specularFactor":0
				}
			},
			"name":"Material.001",
			"pbrMetallicRoughness":{
				"baseColorTexture":{
					"index":0
				},
				"metallicFactor":0,
				"roughnessFactor":0.8500000238418579
			}
		}
	],
	"meshes":[
		{
			"name":"material",
			"primitives":[
				{
					"attributes":{
						"POSITION":0,
						"NORMAL":1,
						"TEXCOORD_0":2,
						"JOINTS_0":3,
						"WEIGHTS_0":4
					},
					"indices":5,
					"material":0
				}
			]
		}
	],
	"textures":[
		{
			"sampler":0,
			"source":0
		}
	],
	"images":[
		{
			"mimeType":"image/jpeg",
			"name":"townsman_skin",
			"uri":"textures/townsman_skin.jpg"
		}
	],
	"skins":[
		{
			"inverseBindMatrices":6,
			"joints":[
				16,
				9,
				8,
				1,
				0,
				4,
				3,
				2,
				7,
				6,
				5,
				12,
				11,
				10,
				15,
				14,
				13
			],
			"name":"Rig"
		}
	],
	"accessors":[
		{
			"bufferView":0,
			"componentType":5126,
			"count":5701,
			"max":[
				0.5231819748878479,
				1.8400404453277588,
				0.2184457927942276
			],
			"min":[
				-0.5222960710525513,
				-0.002298684325069189,
				-0.21949636936187744
			],
			"type":"VEC3"
		},
		{
			"bufferView":1,
			"componentType":5126,
			"count":5701,
			"type":"VEC3"
		},
		{
			"bufferView":2,
			"componentType":5126,
			"count":5701,
			"type":"VEC2"
		},
		{
			"bufferView":3,
			"componentType":5121,
			"count":5701,
			"type":"VEC4"
		},
		{
			"bufferView":4,
			"componentType":5126,
			"count":5701,
			"type":"VEC4"
		},
		{
			"bufferView":5,
			"componentType":5123,
			"count":15000,
			"type":"SCALAR"
		},
		{
			"bufferView":6,
			"componentType":5126,
			"count":17,
			"type":"MAT4"
		}
	],
	"bufferViews":[
		{
			"buffer":0,
			"byteLength":68412,
			"byteOffset":0,
			"target":34962
		},
		{
			"buffer":0,
			"byteLength":68412,
			"byteOffset":68412,
			"target":34962
		},
		{
			"buffer":0,
			"byteLength":45608,
			"byteOffset":136824,
			"target":34962
		},
		{
			"buffer":0,
			"byteLength":22804,
			"byteOffset":182432,
			"target":34962
		},
		{
			"buffer":0,
			"byteLength":91216,
			"byteOffset":205236,
			"target":34962
		},
		{
			"buffer":0,
			"byteLength":30000,
			"byteOffset":296452,
			"target":34963
		},
		{
			"buffer":0,
			"byteLength":1088,
			"byteOffset":326452
		}
	],
	"samplers":[
		{
			"magFilter":9729,
			"minFilter":9987
		}
	],
	"buffers":[
		{
			"byteLength":327540,
			"uri":"townsman.bin"
		}
	]
}
