{
	"asset":{
		"generator":"Khronos glTF Blender I/O v5.2.40",
		"version":"2.0"
	},
	"extensionsUsed":[
		"KHR_materials_specular"
	],
	"scene":0,
	"scenes":[
		{
			"name":"Scene",
			"nodes":[
				18
			]
		}
	],
	"nodes":[
		{
			"name":"Head",
			"rotation":[
				0,
				-1.1920927533992653e-07,
				0,
				1
			],
			"scale":[
				1,
				0.9999999403953552,
				1
			],
			"translation":[
				0,
				0.0671999454498291,
				0
			]
		},
		{
			"children":[
				0
			],
			"name":"Neck",
			"translation":[
				0,
				0.21000003814697266,
				0
			]
		},
		{
			"name":"Hand_L",
			"rotation":[
				-0.04847073182463646,
				-3.689336391943243e-09,
				-9.567817649269728e-09,
				0.9988245964050293
			],
			"scale":[
				1,
				0.9999998807907104,
				1
			],
			"translation":[
				-3.0150211216550815e-08,
				0.20799154043197632,
				-2.7939677238464355e-08
			]
		},
		{
			"children":[
				2
			],
			"name":"LowerArm_L",
			"rotation":[
				0.09725448489189148,
				-4.0339326545790755e-08,
				4.0133155465582604e-08,
				0.9952595233917236
			],
			"scale":[
				1.0000001192092896,
				1,
				0.9999999403953552
			],
			"translation":[
				-5.8475887243503166e-08,
				0.2061731368303299,
				-5.122274160385132e-09
			]
		},
		{
			"children":[
				3
			],
			"name":"UpperArm_L",
			"rotation":[
				-0.0052848332561552525,
				0.025715013965964317,
				-0.979188859462738,
				0.20124618709087372
			],
			"scale":[
				1.0000017881393433,
				1.0000001192092896,
				0.9999999403953552
			],
			"translation":[
				0.1932000070810318,
				0.15960001945495605,
				1.689008044536422e-08
			]
		},
		{
			"name":"Hand_R",
			"rotation":[
				-0.05128558352589607,
				1.9365829828643655e-08,
				1.2667024407164718e-07,
				0.9986839890480042
			],
			"scale":[
				1,
				1,
				1.0000001192092896
			],
			"translation":[
				0,
				0.19555127620697021,
				3.725290298461914e-09
			]
		},
		{
			"children":[
				5
			],
			"name":"LowerArm_R",
			"rotation":[
				0.10364818572998047,
				5.665882873984174e-09,
				-1.594773095803248e-07,
				0.9946140646934509
			],
			"scale":[
				1,
				1.0000001192092896,
				1
			],
			"translation":[
				1.4961615946162965e-08,
				0.19103117287158966,
				-8.731149137020111e-10
			]
		},
		{
			"children":[
				6
			],
			"name":"UpperArm_R",
			"rotation":[
				0.0008518616086803377,
				0.0038583120331168175,
				0.976474404335022,
				0.21559715270996094
			],
			"scale":[
				1.0000001192092896,
				1,
				1
			],
			"translation":[
				-0.1932000070810318,
				0.15960001945495605,
				-1.689008044536422e-08
			]
		},
		{
			"children":[
				1,
				4,
				7
			],
			"name":"Chest",
			"translation":[
				0,
				0.1679999828338623,
				0
			]
		},
		{
			"children":[
				8
			],
			"name":"Spine",
			"rotation":[
				0,
				-3.178651297730539e-08,
				0,
				1
			],
			"translation":[
				0,
				0.15119999647140503,
				0
			]
		},
		{
			"name":"Foot_L",
			"rotation":[
				0.5787879824638367,
				-0.033145081251859665,
				0.006229747086763382,
				0.8147804141044617
			],
			"scale":[
				1,
				0.9999999403953552,
				0.9999999403953552
			],
			"translation":[
				2.300022039491978e-08,
				0.3963310420513153,
				-1.6880221664905548e-09
			]
		},
		{
			"children":[
				10
			],
			"name":"LowerLeg_L",
			"rotation":[
				-0.06282973289489746,
				0.002152928849682212,
				-0.09921442717313766,
				0.9930782318115234
			],
			"scale":[
				1,
				0.9999998807907104,
				0.9999999403953552
			],
			"translation":[
				4.5373887980204586e-10,
				0.40506064891815186,
				-1.3969838619232178e-09
			]
		},
		{
			"children":[
				11
			],
			"name":"UpperLeg_L",
			"rotation":[
				0.0022951276041567326,
				-0.0206147488206625,
				-0.9936444759368896,
				0.11063675582408905
			],
			"scale":[
				1.0000029802322388,
				1.0000001192092896,
				1
			],
			"translation":[
				0.09239999949932098,
				-0.016799986362457275,
				1.3952011990170377e-08
			]
		},
		{
			"name":"Foot_R",
			"rotation":[
				0.5786663293838501,
				0.0387636162340641,
				-0.007287335116416216,
				0.8146101236343384
			],
			"scale":[
				1,
				0.9999999403953552,
				1
			],
			"translation":[
				-1.7344763847404465e-08,
				0.3963693678379059,
				3.2014213502407074e-09
			]
		},
		{
			"children":[
				13
			],
			"name":"LowerLeg_R",
			"rotation":[
				-0.0621795728802681,
				-0.0029501591343432665,
				0.13354000449180603,
				0.9890865087509155
			],
			"scale":[
				1,
				1.0000001192092896,
				1
			],
			"translation":[
				3.1292357594026043e-11,
				0.41294461488723755,
				-6.05359673500061e-09
			]
		},
		{
			"children":[
				14
			],
			"name":"UpperLeg_R",
			"rotation":[
				0.0029881701339036226,
				0.020125266164541245,
				0.9889496564865112,
				0.14684918522834778
			],
			"scale":[
				1.000002384185791,
				1.0000001192092896,
				1
			],
			"translation":[
				-0.09239999949932098,
				-0.016799986362457275,
				-1.3952011990170377e-08
			]
		},
		{
			"children":[
				9,
				12,
				15
			],
			"name":"Hips",
			"rotation":[
				0,
				-1,
				0,
				7.549790126404332e-08
			],
			"translation":[
				0,
				0.8903999924659729,
				0
			]
		},
		{
			"mesh":0,
			"name":"Body",
			"skin":0
		},
		{
			"children":[
				17,
				16
			],
			"name":"Rig"
		}
	],
	"materials":[
		{
			"doubleSided":true,
			"extensions":{
				"KHR_materials_specular":{
					"specularFactor":0
				}
			},
			"name":"Material.001",
			"pbrMetallicRoughness":{
				"baseColorTexture":{
					"index":0
				},
				"metallicFactor":0,
				"roughnessFactor":0.8500000238418579
			}
		}
	],
	"meshes":[
		{
			"name":"material",
			"primitives":[
				{
					"attributes":{
						"POSITION":0,
						"NORMAL":1,
						"TEXCOORD_0":2,
						"JOINTS_0":3,
						"WEIGHTS_0":4
					},
					"indices":5,
					"material":0
				}
			]
		}
	],
	"textures":[
		{
			"sampler":0,
			"source":0
		}
	],
	"images":[
		{
			"mimeType":"image/jpeg",
			"name":"woman_skin",
			"uri":"textures/woman_skin.jpg"
		}
	],
	"skins":[
		{
			"inverseBindMatrices":6,
			"joints":[
				16,
				9,
				8,
				1,
				0,
				4,
				3,
				2,
				7,
				6,
				5,
				12,
				11,
				10,
				15,
				14,
				13
			],
			"name":"Rig"
		}
	],
	"accessors":[
		{
			"bufferView":0,
			"componentType":5126,
			"count":6256,
			"max":[
				0.42786604166030884,
				1.6809110641479492,
				0.25040844082832336
			],
			"min":[
				-0.42509907484054565,
				-0.0009445750038139522,
				-0.24622248113155365
			],
			"type":"VEC3"
		},
		{
			"bufferView":1,
			"componentType":5126,
			"count":6256,
			"type":"VEC3"
		},
		{
			"bufferView":2,
			"componentType":5126,
			"count":6256,
			"type":"VEC2"
		},
		{
			"bufferView":3,
			"componentType":5121,
			"count":6256,
			"type":"VEC4"
		},
		{
			"bufferView":4,
			"componentType":5126,
			"count":6256,
			"type":"VEC4"
		},
		{
			"bufferView":5,
			"componentType":5123,
			"count":15000,
			"type":"SCALAR"
		},
		{
			"bufferView":6,
			"componentType":5126,
			"count":17,
			"type":"MAT4"
		}
	],
	"bufferViews":[
		{
			"buffer":0,
			"byteLength":75072,
			"byteOffset":0,
			"target":34962
		},
		{
			"buffer":0,
			"byteLength":75072,
			"byteOffset":75072,
			"target":34962
		},
		{
			"buffer":0,
			"byteLength":50048,
			"byteOffset":150144,
			"target":34962
		},
		{
			"buffer":0,
			"byteLength":25024,
			"byteOffset":200192,
			"target":34962
		},
		{
			"buffer":0,
			"byteLength":100096,
			"byteOffset":225216,
			"target":34962
		},
		{
			"buffer":0,
			"byteLength":30000,
			"byteOffset":325312,
			"target":34963
		},
		{
			"buffer":0,
			"byteLength":1088,
			"byteOffset":355312
		}
	],
	"samplers":[
		{
			"magFilter":9729,
			"minFilter":9987
		}
	],
	"buffers":[
		{
			"byteLength":356400,
			"uri":"woman.bin"
		}
	]
}
