{
	"asset":{
		"generator":"Khronos glTF Blender I/O v5.2.40",
		"version":"2.0"
	},
	"extensionsUsed":[
		"KHR_materials_emissive_strength"
	],
	"scene":0,
	"scenes":[
		{
			"name":"Scene",
			"nodes":[
				0,
				1,
				2,
				3,
				4,
				5,
				6,
				7,
				8,
				9,
				10,
				11,
				12,
				13,
				14,
				15,
				16,
				17,
				18,
				19,
				20,
				21,
				22,
				23,
				24,
				25,
				26,
				27,
				28,
				29,
				30,
				31,
				32,
				33,
				34,
				35
			]
		}
	],
	"nodes":[
		{
			"mesh":0,
			"name":"Flag",
			"translation":[
				0,
				11.46500015258789,
				18.010961532592773
			]
		},
		{
			"mesh":1,
			"name":"Hull"
		},
		{
			"name":"Muzzle_P_00",
			"translation":[
				-4.377681255340576,
				1.3814622163772583,
				-9.262771606445312
			]
		},
		{
			"name":"Muzzle_P_01",
			"translation":[
				-4.939777374267578,
				1.3470306396484375,
				-6.599811553955078
			]
		},
		{
			"name":"Muzzle_P_02",
			"translation":[
				-5.0510969161987305,
				1.2863788604736328,
				-4.009736061096191
			]
		},
		{
			"name":"Muzzle_P_03",
			"translation":[
				-5.051043510437012,
				1.2745386362075806,
				-1.5391805171966553
			]
		},
		{
			"name":"Muzzle_P_04",
			"translation":[
				-5.051307201385498,
				1.3337756395339966,
				0.9326116442680359
			]
		},
		{
			"name":"Muzzle_P_05",
			"translation":[
				-5.0517754554748535,
				1.445236086845398,
				3.405083417892456
			]
		},
		{
			"name":"Muzzle_P_06",
			"translation":[
				-5.052379608154297,
				1.6032600402832031,
				5.878007411956787
			]
		},
		{
			"name":"Muzzle_P_07",
			"translation":[
				-4.747296333312988,
				1.768312692642212,
				8.572005271911621
			]
		},
		{
			"name":"Muzzle_P_08",
			"translation":[
				-4.440256595611572,
				3.1637730598449707,
				-4.800000190734863
			]
		},
		{
			"name":"Muzzle_P_09",
			"translation":[
				-4.442872047424316,
				3.1153316497802734,
				-2.25
			]
		},
		{
			"name":"Muzzle_P_10",
			"translation":[
				-4.442872047424316,
				3.1752912998199463,
				0.30000001192092896
			]
		},
		{
			"name":"Muzzle_P_11",
			"translation":[
				-4.442872047424316,
				3.3145663738250732,
				2.8499999046325684
			]
		},
		{
			"name":"Muzzle_S_00",
			"translation":[
				4.377681255340576,
				1.3814622163772583,
				-9.262771606445312
			]
		},
		{
			"name":"Muzzle_S_01",
			"translation":[
				4.939777374267578,
				1.3470306396484375,
				-6.599811553955078
			]
		},
		{
			"name":"Muzzle_S_02",
			"translation":[
				5.0510969161987305,
				1.2863788604736328,
				-4.009736061096191
			]
		},
		{
			"name":"Muzzle_S_03",
			"translation":[
				5.051043510437012,
				1.2745386362075806,
				-1.5391805171966553
			]
		},
		{
			"name":"Muzzle_S_04",
			"translation":[
				5.051307201385498,
				1.3337756395339966,
				0.9326116442680359
			]
		},
		{
			"name":"Muzzle_S_05",
			"translation":[
				5.0517754554748535,
				1.445236086845398,
				3.405083417892456
			]
		},
		{
			"name":"Muzzle_S_06",
			"translation":[
				5.052379608154297,
				1.6032600402832031,
				5.878007411956787
			]
		},
		{
			"name":"Muzzle_S_07",
			"translation":[
				4.747296333312988,
				1.768312692642212,
				8.572005271911621
			]
		},
		{
			"name":"Muzzle_S_08",
			"translation":[
				4.440256595611572,
				3.1637730598449707,
				-4.800000190734863
			]
		},
		{
			"name":"Muzzle_S_09",
			"translation":[
				4.442872047424316,
				3.1153316497802734,
				-2.25
			]
		},
		{
			"name":"Muzzle_S_10",
			"translation":[
				4.442872047424316,
				3.1752912998199463,
				0.30000001192092896
			]
		},
		{
			"name":"Muzzle_S_11",
			"translation":[
				4.442872047424316,
				3.3145663738250732,
				2.8499999046325684
			]
		},
		{
			"mesh":2,
			"name":"Pennant",
			"translation":[
				0,
				32.25554656982422,
				-0.04891538619995117
			]
		},
		{
			"mesh":3,
			"name":"Sail_0_0_E",
			"rotation":[
				0.026176918298006058,
				0,
				0,
				0.9996573328971863
			],
			"translation":[
				0,
				12.951944351196289,
				-9.611323356628418
			]
		},
		{
			"mesh":4,
			"name":"Sail_0_1",
			"rotation":[
				0.026176918298006058,
				0,
				0,
				0.9996573328971863
			],
			"translation":[
				0,
				20.724477767944336,
				-9.203981399536133
			]
		},
		{
			"mesh":5,
			"name":"Sail_1_0_E",
			"rotation":[
				0.026176918298006058,
				0,
				0,
				0.9996573328971863
			],
			"translation":[
				0,
				13.843724250793457,
				-0.5927048921585083
			]
		},
		{
			"mesh":6,
			"name":"Sail_1_1",
			"rotation":[
				0.026176918298006058,
				0,
				0,
				0.9996573328971863
			],
			"translation":[
				0,
				22.525808334350586,
				-0.1376960575580597
			]
		},
		{
			"mesh":7,
			"name":"Sail_2_1",
			"rotation":[
				0.026176918298006058,
				0,
				0,
				0.9996573328971863
			],
			"translation":[
				0,
				18.016220092773438,
				8.634236335754395
			]
		},
		{
			"mesh":8,
			"name":"Sail_jib_0",
			"rotation":[
				-0.389708012342453,
				0.6477158069610596,
				-0.2836623787879944,
				0.590023398399353
			],
			"translation":[
				0,
				19.608678817749023,
				-11.702018737792969
			]
		},
		{
			"mesh":9,
			"name":"Sail_spanker",
			"rotation":[
				-0.11990449577569962,
				-0.6898226141929626,
				0.1553860306739807,
				0.6968664526939392
			],
			"translation":[
				0,
				13.910077095031738,
				8.75
			]
		},
		{
			"mesh":10,
			"name":"Sail_stay_1",
			"rotation":[
				-0.29225873947143555,
				0.6834563612937927,
				-0.18134889006614685,
				0.6438826322555542
			],
			"translation":[
				0,
				25.314411163330078,
				-0.7117529511451721
			]
		},
		{
			"mesh":11,
			"name":"Sail_stay_2",
			"rotation":[
				-0.46879157423973083,
				0.5364310145378113,
				0.46069708466529846,
				0.5293717384338379
			],
			"translation":[
				0,
				20.325849533081055,
				8.053045272827148
			]
		}
	],
	"materials":[
		{
			"doubleSided":true,
			"name":"barque_flag",
			"pbrMetallicRoughness":{
				"metallicFactor":0,
				"roughnessFactor":0.8999999761581421
			}
		},
		{
			"doubleSided":true,
			"name":"barque_hull",
			"pbrMetallicRoughness":{
				"baseColorTexture":{
					"index":0
				},
				"metallicFactor":0,
				"roughnessFactor":0.7200000286102295
			}
		},
		{
			"doubleSided":true,
			"name":"barque_deck",
			"pbrMetallicRoughness":{
				"baseColorTexture":{
					"index":1
				},
				"metallicFactor":0,
				"roughnessFactor":0.8500000238418579
			}
		},
		{
			"doubleSided":true,
			"name":"barque_upper",
			"pbrMetallicRoughness":{
				"baseColorTexture":{
					"index":2
				},
				"metallicFactor":0,
				"roughnessFactor":0.75
			}
		},
		{
			"doubleSided":true,
			"name":"barque_wale",
			"pbrMetallicRoughness":{
				"baseColorFactor":[
					0.01544241327792406,
					0.009841215796768665,
					0.005648850928992033,
					1
				],
				"metallicFactor":0,
				"roughnessFactor":0.699999988079071
			}
		},
		{
			"doubleSided":true,
			"name":"barque_dark",
			"pbrMetallicRoughness":{
				"baseColorFactor":[
					0.0036765073891729116,
					0.002428215928375721,
					0.0018211619462817907,
					1
				],
				"metallicFactor":0,
				"roughnessFactor":0.949999988079071
			}
		},
		{
			"doubleSided":true,
			"name":"barque_trim",
			"pbrMetallicRoughness":{
				"baseColorFactor":[
					0.3593394160270691,
					0.2187901735305786,
					0.0487823523581028,
					1
				],
				"metallicFactor":0.4000000059604645,
				"roughnessFactor":0.44999998807907104
			}
		},
		{
			"doubleSided":true,
			"name":"barque_rail",
			"pbrMetallicRoughness":{
				"baseColorFactor":[
					0.0423114113509655,
					0.021219009533524513,
					0.008568125776946545,
					1
				],
				"metallicFactor":0,
				"roughnessFactor":0.75
			}
		},
		{
			"doubleSided":true,
			"name":"barque_lid",
			"pbrMetallicRoughness":{
				"baseColorFactor":[
					0.004543377086520195,
					0.003953602630645037,
					0.002913858974352479,
					1
				],
				"metallicFactor":0,
				"roughnessFactor":0.699999988079071
			}
		},
		{
			"doubleSided":true,
			"name":"barque_portred",
			"pbrMetallicRoughness":{
				"baseColorFactor":[
					0.07618538290262222,
					0.00802319310605526,
					0.005181516520678997,
					1
				],
				"metallicFactor":0,
				"roughnessFactor":0.8500000238418579
			}
		},
		{
			"doubleSided":true,
			"name":"barque_iron",
			"pbrMetallicRoughness":{
				"baseColorFactor":[
					0.00802319310605526,
					0.007499032188206911,
					0.006995410192757845,
					1
				],
				"metallicFactor":0.550000011920929,
				"roughnessFactor":0.5
			}
		},
		{
			"doubleSided":true,
			"emissiveFactor":[
				0.3499999940395355,
				0.19320399730198723,
				0.05044496420545297
			],
			"name":"barque_glass",
			"pbrMetallicRoughness":{
				"baseColorFactor":[
					0.016807375475764275,
					0.02955683507025242,
					0.045186202973127365,
					1
				],
				"metallicFactor":0.30000001192092896,
				"roughnessFactor":0.07999999821186066
			}
		},
		{
			"doubleSided":true,
			"emissiveFactor":[
				1,
				0.4564110338687897,
				0.06847816705703735
			],
			"extensions":{
				"KHR_materials_emissive_strength":{
					"emissiveStrength":5
				}
			},
			"name":"barque_lantern",
			"pbrMetallicRoughness":{
				"baseColorFactor":[
					1,
					0.7605245113372803,
					0.35153260827064514,
					1
				],
				"metallicFactor":0,
				"roughnessFactor":0.30000001192092896
			}
		},
		{
			"doubleSided":true,
			"name":"barque_spar",
			"pbrMetallicRoughness":{
				"baseColorFactor":[
					0.04817182570695877,
					0.024157632142305374,
					0.01032982300966978,
					1
				],
				"metallicFactor":0,
				"roughnessFactor":0.699999988079071
			}
		},
		{
			"doubleSided":true,
			"name":"barque_grating",
			"pbrMetallicRoughness":{
				"baseColorFactor":[
					0.06847816705703735,
					0.03560131415724754,
					0.014443843625485897,
					1
				],
				"metallicFactor":0,
				"roughnessFactor":0.8999999761581421
			}
		},
		{
			"doubleSided":true,
			"name":"barque_spar_black",
			"pbrMetallicRoughness":{
				"baseColorFactor":[
					0.006995410192757845,
					0.005181516520678997,
					0.0036765073891729116,
					1
				],
				"metallicFactor":0,
				"roughnessFactor":0.699999988079071
			}
		},
		{
			"doubleSided":true,
			"name":"barque_rope",
			"pbrMetallicRoughness":{
				"baseColorFactor":[
					0.008568125776946545,
					0.006048833020031452,
					0.004024717025458813,
					1
				],
				"metallicFactor":0,
				"roughnessFactor":0.8999999761581421
			}
		},
		{
			"doubleSided":true,
			"name":"barque_sail",
			"pbrMetallicRoughness":{
				"baseColorTexture":{
					"index":3
				},
				"metallicFactor":0,
				"roughnessFactor":0.949999988079071
			}
		}
	],
	"meshes":[
		{
			"name":"Flag",
			"primitives":[
				{
					"attributes":{
						"POSITION":0,
						"NORMAL":1,
						"TEXCOORD_0":2
					},
					"indices":3,
					"material":0
				}
			]
		},
		{
			"name":"Hull",
			"primitives":[
				{
					"attributes":{
						"POSITION":4,
						"NORMAL":5,
						"TEXCOORD_0":6,
						"COLOR_0":7
					},
					"indices":8,
					"material":1
				},
				{
					"attributes":{
						"POSITION":9,
						"NORMAL":10,
						"TEXCOORD_0":11,
						"COLOR_0":12
					},
					"indices":13,
					"material":2
				},
				{
					"attributes":{
						"POSITION":14,
						"NORMAL":15,
						"TEXCOORD_0":16,
						"COLOR_0":17
					},
					"indices":18,
					"material":3
				},
				{
					"attributes":{
						"POSITION":19,
						"NORMAL":20,
						"TEXCOORD_0":21,
						"COLOR_0":22
					},
					"indices":23,
					"material":4
				},
				{
					"attributes":{
						"POSITION":24,
						"NORMAL":25,
						"TEXCOORD_0":26,
						"COLOR_0":27
					},
					"indices":28,
					"material":5
				},
				{
					"attributes":{
						"POSITION":29,
						"NORMAL":30,
						"TEXCOORD_0":31,
						"COLOR_0":32
					},
					"indices":33,
					"material":6
				},
				{
					"attributes":{
						"POSITION":34,
						"NORMAL":35,
						"TEXCOORD_0":36,
						"COLOR_0":37
					},
					"indices":38,
					"material":7
				},
				{
					"attributes":{
						"POSITION":39,
						"NORMAL":40,
						"TEXCOORD_0":41,
						"COLOR_0":42
					},
					"indices":43,
					"material":8
				},
				{
					"attributes":{
						"POSITION":44,
						"NORMAL":45,
						"TEXCOORD_0":46,
						"COLOR_0":47
					},
					"indices":48,
					"material":9
				},
				{
					"attributes":{
						"POSITION":49,
						"NORMAL":50,
						"TEXCOORD_0":51,
						"COLOR_0":52
					},
					"indices":53,
					"material":10
				},
				{
					"attributes":{
						"POSITION":54,
						"NORMAL":55,
						"TEXCOORD_0":56,
						"COLOR_0":57
					},
					"indices":28,
					"material":11
				},
				{
					"attributes":{
						"POSITION":58,
						"NORMAL":59,
						"TEXCOORD_0":60,
						"COLOR_0":61
					},
					"indices":62,
					"material":12
				},
				{
					"attributes":{
						"POSITION":63,
						"NORMAL":64,
						"TEXCOORD_0":65,
						"COLOR_0":66
					},
					"indices":67,
					"material":13
				},
				{
					"attributes":{
						"POSITION":68,
						"NORMAL":69,
						"TEXCOORD_0":70,
						"COLOR_0":71
					},
					"indices":72,
					"material":14
				},
				{
					"attributes":{
						"POSITION":73,
						"NORMAL":74,
						"TEXCOORD_0":75,
						"COLOR_0":76
					},
					"indices":77,
					"material":15
				},
				{
					"attributes":{
						"POSITION":78,
						"NORMAL":79,
						"TEXCOORD_0":80,
						"COLOR_0":81
					},
					"indices":82,
					"material":16
				}
			]
		},
		{
			"name":"Pennant",
			"primitives":[
				{
					"attributes":{
						"POSITION":83,
						"NORMAL":84,
						"TEXCOORD_0":85
					},
					"indices":86,
					"material":0
				}
			]
		},
		{
			"name":"Sail_0_0_E",
			"primitives":[
				{
					"attributes":{
						"POSITION":87,
						"NORMAL":88,
						"TEXCOORD_0":89
					},
					"indices":90,
					"material":17
				}
			]
		},
		{
			"name":"Sail_0_1",
			"primitives":[
				{
					"attributes":{
						"POSITION":91,
						"NORMAL":92,
						"TEXCOORD_0":93
					},
					"indices":90,
					"material":17
				}
			]
		},
		{
			"name":"Sail_1_0_E",
			"primitives":[
				{
					"attributes":{
						"POSITION":94,
						"NORMAL":95,
						"TEXCOORD_0":96
					},
					"indices":90,
					"material":17
				}
			]
		},
		{
			"name":"Sail_1_1",
			"primitives":[
				{
					"attributes":{
						"POSITION":97,
						"NORMAL":98,
						"TEXCOORD_0":99
					},
					"indices":90,
					"material":17
				}
			]
		},
		{
			"name":"Sail_2_1",
			"primitives":[
				{
					"attributes":{
						"POSITION":100,
						"NORMAL":101,
						"TEXCOORD_0":102
					},
					"indices":90,
					"material":17
				}
			]
		},
		{
			"name":"Sail_jib_0",
			"primitives":[
				{
					"attributes":{
						"POSITION":103,
						"NORMAL":104,
						"TEXCOORD_0":105
					},
					"indices":106,
					"material":17
				}
			]
		},
		{
			"name":"Sail_spanker",
			"primitives":[
				{
					"attributes":{
						"POSITION":107,
						"NORMAL":108,
						"TEXCOORD_0":109
					},
					"indices":110,
					"material":17
				}
			]
		},
		{
			"name":"Sail_stay_1",
			"primitives":[
				{
					"attributes":{
						"POSITION":111,
						"NORMAL":112,
						"TEXCOORD_0":113
					},
					"indices":106,
					"material":17
				}
			]
		},
		{
			"name":"Sail_stay_2",
			"primitives":[
				{
					"attributes":{
						"POSITION":114,
						"NORMAL":115,
						"TEXCOORD_0":116
					},
					"indices":106,
					"material":17
				}
			]
		}
	],
	"textures":[
		{
			"sampler":0,
			"source":0
		},
		{
			"sampler":0,
			"source":1
		},
		{
			"sampler":0,
			"source":2
		},
		{
			"sampler":0,
			"source":3
		}
	],
	"images":[
		{
			"mimeType":"image/jpeg",
			"name":"barque_hull",
			"uri":"textures/barque_hull.jpg"
		},
		{
			"mimeType":"image/jpeg",
			"name":"deck",
			"uri":"textures/deck.jpg"
		},
		{
			"mimeType":"image/jpeg",
			"name":"barque_upper",
			"uri":"textures/barque_upper.jpg"
		},
		{
			"mimeType":"image/jpeg",
			"name":"barque_sail",
			"uri":"textures/barque_sail.jpg"
		}
	],
	"accessors":[
		{
			"bufferView":0,
			"componentType":5126,
			"count":45,
			"max":[
				0.06440079212188721,
				0,
				4.199999809265137
			],
			"min":[
				-0.17260636389255524,
				-2.700000047683716,
				0
			],
			"type":"VEC3"
		},
		{
			"bufferView":1,
			"componentType":5126,
			"count":45,
			"type":"VEC3"
		},
		{
			"bufferView":2,
			"componentType":5126,
			"count":45,
			"type":"VEC2"
		},
		{
			"bufferView":3,
			"componentType":5123,
			"count":192,
			"type":"SCALAR"
		},
		{
			"bufferView":4,
			"componentType":5126,
			"count":4050,
			"max":[
				4.110409259796143,
				4.139999866485596,
				16.350000381469727
			],
			"min":[
				-4.110409259796143,
				-2.932499885559082,
				-16.049999237060547
			],
			"type":"VEC3"
		},
		{
			"bufferView":5,
			"componentType":5126,
			"count":4050,
			"type":"VEC3"
		},
		{
			"bufferView":6,
			"componentType":5126,
			"count":4050,
			"type":"VEC2"
		},
		{
			"bufferView":7,
			"componentType":5123,
			"count":4050,
			"normalized":true,
			"type":"VEC4"
		},
		{
			"bufferView":8,
			"componentType":5123,
			"count":22464,
			"type":"SCALAR"
		},
		{
			"bufferView":9,
			"componentType":5126,
			"count":2431,
			"max":[
				3.7400999069213867,
				5.864999771118164,
				16.710962295532227
			],
			"min":[
				-3.7400999069213867,
				2.4155805110931396,
				-16.049999237060547
			],
			"type":"VEC3"
		},
		{
			"bufferView":10,
			"componentType":5126,
			"count":2431,
			"type":"VEC3"
		},
		{
			"bufferView":11,
			"componentType":5126,
			"count":2431,
			"type":"VEC2"
		},
		{
			"bufferView":12,
			"componentType":5123,
			"count":2431,
			"normalized":true,
			"type":"VEC4"
		},
		{
			"bufferView":13,
			"componentType":5123,
			"count":4608,
			"type":"SCALAR"
		},
		{
			"bufferView":14,
			"componentType":5126,
			"count":943,
			"max":[
				3.7400999069213867,
				6.764999866485596,
				16.899290084838867
			],
			"min":[
				-3.7400999069213867,
				-2.311500072479248,
				-16.25835609436035
			],
			"type":"VEC3"
		},
		{
			"bufferView":15,
			"componentType":5126,
			"count":943,
			"type":"VEC3"
		},
		{
			"bufferView":16,
			"componentType":5126,
			"count":943,
			"type":"VEC2"
		},
		{
			"bufferView":17,
			"componentType":5123,
			"count":943,
			"normalized":true,
			"type":"VEC4"
		},
		{
			"bufferView":18,
			"componentType":5123,
			"count":2592,
			"type":"SCALAR"
		},
		{
			"bufferView":19,
			"componentType":5126,
			"count":4541,
			"max":[
				4.72206974029541,
				5.997177600860596,
				16.723649978637695
			],
			"min":[
				-4.72206974029541,
				-3.500499963760376,
				-16.98314094543457
			],
			"type":"VEC3"
		},
		{
			"bufferView":20,
			"componentType":5126,
			"count":4541,
			"type":"VEC3"
		},
		{
			"bufferView":21,
			"componentType":5126,
			"count":4541,
			"type":"VEC2"
		},
		{
			"bufferView":22,
			"componentType":5123,
			"count":4541,
			"normalized":true,
			"type":"VEC4"
		},
		{
			"bufferView":23,
			"componentType":5123,
			"count":13896,
			"type":"SCALAR"
		},
		{
			"bufferView":24,
			"componentType":5126,
			"count":528,
			"max":[
				4.206364154815674,
				4.173803806304932,
				8.865342140197754
			],
			"min":[
				-4.206364154815674,
				0.6910361647605896,
				-10.018054008483887
			],
			"type":"VEC3"
		},
		{
			"bufferView":25,
			"componentType":5126,
			"count":528,
			"type":"VEC3"
		},
		{
			"bufferView":26,
			"componentType":5126,
			"count":528,
			"type":"VEC2"
		},
		{
			"bufferView":27,
			"componentType":5123,
			"count":528,
			"normalized":true,
			"type":"VEC4"
		},
		{
			"bufferView":28,
			"componentType":5123,
			"count":792,
			"type":"SCALAR"
		},
		{
			"bufferView":29,
			"componentType":5126,
			"count":2653,
			"max":[
				3.4260897636413574,
				32.58538055419922,
				17.150962829589844
			],
			"min":[
				-3.4260897636413574,
				0.7709321975708008,
				-17.80999755859375
			],
			"type":"VEC3"
		},
		{
			"bufferView":30,
			"componentType":5126,
			"count":2653,
			"type":"VEC3"
		},
		{
			"bufferView":31,
			"componentType":5126,
			"count":2653,
			"type":"VEC2"
		},
		{
			"bufferView":32,
			"componentType":5123,
			"count":2653,
			"normalized":true,
			"type":"VEC4"
		},
		{
			"bufferView":33,
			"componentType":5123,
			"count":5688,
			"type":"SCALAR"
		},
		{
			"bufferView":34,
			"componentType":5126,
			"count":1506,
			"max":[
				3.5880866050720215,
				6.785000324249268,
				16.780961990356445
			],
			"min":[
				-3.5880866050720215,
				4.001737117767334,
				-15.762303352355957
			],
			"type":"VEC3"
		},
		{
			"bufferView":35,
			"componentType":5126,
			"count":1506,
			"type":"VEC3"
		},
		{
			"bufferView":36,
			"componentType":5126,
			"count":1506,
			"type":"VEC2"
		},
		{
			"bufferView":37,
			"componentType":5123,
			"count":1506,
			"normalized":true,
			"type":"VEC4"
		},
		{
			"bufferView":38,
			"componentType":5123,
			"count":2820,
			"type":"SCALAR"
		},
		{
			"bufferView":39,
			"componentType":5126,
			"count":384,
			"max":[
				4.906359672546387,
				2.834686040878296,
				8.946860313415527
			],
			"min":[
				-4.906359672546387,
				1.6318604946136475,
				-9.671074867248535
			],
			"type":"VEC3"
		},
		{
			"bufferView":40,
			"componentType":5126,
			"count":384,
			"type":"VEC3"
		},
		{
			"bufferView":41,
			"componentType":5126,
			"count":384,
			"type":"VEC2"
		},
		{
			"bufferView":42,
			"componentType":5123,
			"count":384,
			"normalized":true,
			"type":"VEC4"
		},
		{
			"bufferView":43,
			"componentType":5123,
			"count":576,
			"type":"SCALAR"
		},
		{
			"bufferView":44,
			"componentType":5126,
			"count":576,
			"max":[
				4.8599371910095215,
				3.084566354751587,
				8.874988555908203
			],
			"min":[
				-4.8599371910095215,
				1.660091757774353,
				-9.594253540039062
			],
			"type":"VEC3"
		},
		{
			"bufferView":45,
			"componentType":5126,
			"count":576,
			"type":"VEC3"
		},
		{
			"bufferView":46,
			"componentType":5126,
			"count":576,
			"type":"VEC2"
		},
		{
			"bufferView":47,
			"componentType":5123,
			"count":576,
			"normalized":true,
			"type":"VEC4"
		},
		{
			"bufferView":48,
			"componentType":5123,
			"count":864,
			"type":"SCALAR"
		},
		{
			"bufferView":49,
			"componentType":5126,
			"count":1705,
			"max":[
				4.827390193939209,
				6.965000152587891,
				16.870962142944336
			],
			"min":[
				-4.827390193939209,
				0.9806532263755798,
				-14.4967679977417
			],
			"type":"VEC3"
		},
		{
			"bufferView":50,
			"componentType":5126,
			"count":1705,
			"type":"VEC3"
		},
		{
			"bufferView":51,
			"componentType":5126,
			"count":1705,
			"type":"VEC2"
		},
		{
			"bufferView":52,
			"componentType":5123,
			"count":1705,
			"normalized":true,
			"type":"VEC4"
		},
		{
			"bufferView":53,
			"componentType":5123,
			"count":3408,
			"type":"SCALAR"
		},
		{
			"bufferView":54,
			"componentType":5126,
			"count":528,
			"max":[
				3.015549421310425,
				5.209499835968018,
				16.604385375976562
			],
			"min":[
				-3.015549421310425,
				3.0453150272369385,
				13.156811714172363
			],
			"type":"VEC3"
		},
		{
			"bufferView":55,
			"componentType":5126,
			"count":528,
			"type":"VEC3"
		},
		{
			"bufferView":56,
			"componentType":5126,
			"count":528,
			"type":"VEC2"
		},
		{
			"bufferView":57,
			"componentType":5123,
			"count":528,
			"normalized":true,
			"type":"VEC4"
		},
		{
			"bufferView":58,
			"componentType":5126,
			"count":80,
			"max":[
				1.9880461692810059,
				7.715000152587891,
				17.1109619140625
			],
			"min":[
				-1.9880461692810059,
				6.965000152587891,
				16.510963439941406
			],
			"type":"VEC3"
		},
		{
			"bufferView":59,
			"componentType":5126,
			"count":80,
			"type":"VEC3"
		},
		{
			"bufferView":60,
			"componentType":5126,
			"count":80,
			"type":"VEC2"
		},
		{
			"bufferView":61,
			"componentType":5123,
			"count":80,
			"normalized":true,
			"type":"VEC4"
		},
		{
			"bufferView":62,
			"componentType":5123,
			"count":168,
			"type":"SCALAR"
		},
		{
			"bufferView":63,
			"componentType":5126,
			"count":1236,
			"max":[
				8.220000267028809,
				32.308685302734375,
				18.05980682373047
			],
			"min":[
				-8.220000267028809,
				0.9264892935752869,
				-23.92108917236328
			],
			"type":"VEC3"
		},
		{
			"bufferView":64,
			"componentType":5126,
			"count":1236,
			"type":"VEC3"
		},
		{
			"bufferView":65,
			"componentType":5126,
			"count":1236,
			"type":"VEC2"
		},
		{
			"bufferView":66,
			"componentType":5123,
			"count":1236,
			"normalized":true,
			"type":"VEC4"
		},
		{
			"bufferView":67,
			"componentType":5123,
			"count":3216,
			"type":"SCALAR"
		},
		{
			"bufferView":68,
			"componentType":5126,
			"count":72,
			"max":[
				1.1302499771118164,
				3.008744478225708,
				4.800000190734863
			],
			"min":[
				-1.1302499771118164,
				2.4752912521362305,
				-16.92554473876953
			],
			"type":"VEC3"
		},
		{
			"bufferView":69,
			"componentType":5126,
			"count":72,
			"type":"VEC3"
		},
		{
			"bufferView":70,
			"componentType":5126,
			"count":72,
			"type":"VEC2"
		},
		{
			"bufferView":71,
			"componentType":5123,
			"count":72,
			"normalized":true,
			"type":"VEC4"
		},
		{
			"bufferView":72,
			"componentType":5123,
			"count":108,
			"type":"SCALAR"
		},
		{
			"bufferView":73,
			"componentType":5126,
			"count":2734,
			"max":[
				4.734769344329834,
				26.06498146057129,
				10.190771102905273
			],
			"min":[
				-4.734769344329834,
				2.5388760566711426,
				-21.06039047241211
			],
			"type":"VEC3"
		},
		{
			"bufferView":74,
			"componentType":5126,
			"count":2734,
			"type":"VEC3"
		},
		{
			"bufferView":75,
			"componentType":5126,
			"count":2734,
			"type":"VEC2"
		},
		{
			"bufferView":76,
			"componentType":5123,
			"count":2734,
			"normalized":true,
			"type":"VEC4"
		},
		{
			"bufferView":77,
			"componentType":5123,
			"count":6456,
			"type":"SCALAR"
		},
		{
			"bufferView":78,
			"componentType":5126,
			"count":8367,
			"max":[
				7.907092094421387,
				31.727947235107422,
				15.594779014587402
			],
			"min":[
				-7.907907485961914,
				2.6589672565460205,
				-23.932876586914062
			],
			"type":"VEC3"
		},
		{
			"bufferView":79,
			"componentType":5126,
			"count":8367,
			"type":"VEC3"
		},
		{
			"bufferView":80,
			"componentType":5126,
			"count":8367,
			"type":"VEC2"
		},
		{
			"bufferView":81,
			"componentType":5123,
			"count":8367,
			"normalized":true,
			"type":"VEC4"
		},
		{
			"bufferView":82,
			"componentType":5123,
			"count":13320,
			"type":"SCALAR"
		},
		{
			"bufferView":83,
			"componentType":5126,
			"count":26,
			"max":[
				0.16424664855003357,
				0,
				6
			],
			"min":[
				-0.1664924919605255,
				-0.36000001430511475,
				0
			],
			"type":"VEC3"
		},
		{
			"bufferView":84,
			"componentType":5126,
			"count":26,
			"type":"VEC3"
		},
		{
			"bufferView":85,
			"componentType":5126,
			"count":26,
			"type":"VEC2"
		},
		{
			"bufferView":86,
			"componentType":5123,
			"count":72,
			"type":"SCALAR"
		},
		{
			"bufferView":87,
			"componentType":5126,
			"count":150,
			"max":[
				8.220000267028809,
				0,
				0
			],
			"min":[
				-8.220000267028809,
				-7.004879951477051,
				-2.073033571243286
			],
			"type":"VEC3"
		},
		{
			"bufferView":88,
			"componentType":5126,
			"count":150,
			"type":"VEC3"
		},
		{
			"bufferView":89,
			"componentType":5126,
			"count":150,
			"type":"VEC2"
		},
		{
			"bufferView":90,
			"componentType":5123,
			"count":756,
			"type":"SCALAR"
		},
		{
			"bufferView":91,
			"componentType":5126,
			"count":150,
			"max":[
				7.3979997634887695,
				0,
				0
			],
			"min":[
				-7.3979997634887695,
				-7.2332000732421875,
				-1.7251057624816895
			],
			"type":"VEC3"
		},
		{
			"bufferView":92,
			"componentType":5126,
			"count":150,
			"type":"VEC3"
		},
		{
			"bufferView":93,
			"componentType":5126,
			"count":150,
			"type":"VEC2"
		},
		{
			"bufferView":94,
			"componentType":5126,
			"count":150,
			"max":[
				7.562399864196777,
				0,
				0
			],
			"min":[
				-7.562399864196777,
				-7.8246002197265625,
				-1.9071907997131348
			],
			"type":"VEC3"
		},
		{
			"bufferView":95,
			"componentType":5126,
			"count":150,
			"type":"VEC3"
		},
		{
			"bufferView":96,
			"componentType":5126,
			"count":150,
			"type":"VEC2"
		},
		{
			"bufferView":97,
			"componentType":5126,
			"count":150,
			"max":[
				6.806159973144531,
				0,
				0
			],
			"min":[
				-6.806159973144531,
				-8.144000053405762,
				-1.5870972871780396
			],
			"type":"VEC3"
		},
		{
			"bufferView":98,
			"componentType":5126,
			"count":150,
			"type":"VEC3"
		},
		{
			"bufferView":99,
			"componentType":5126,
			"count":150,
			"type":"VEC2"
		},
		{
			"bufferView":100,
			"componentType":5126,
			"count":150,
			"max":[
				6.214320182800293,
				0,
				0
			],
			"min":[
				-6.214320182800293,
				-5.908400058746338,
				-1.4490888118743896
			],
			"type":"VEC3"
		},
		{
			"bufferView":101,
			"componentType":5126,
			"count":150,
			"type":"VEC3"
		},
		{
			"bufferView":102,
			"componentType":5126,
			"count":150,
			"type":"VEC2"
		},
		{
			"bufferView":103,
			"componentType":5126,
			"count":64,
			"max":[
				16.45737075805664,
				0,
				0.3885217010974884
			],
			"min":[
				0,
				-3.698364019393921,
				-0.6384130716323853
			],
			"type":"VEC3"
		},
		{
			"bufferView":104,
			"componentType":5126,
			"count":64,
			"type":"VEC3"
		},
		{
			"bufferView":105,
			"componentType":5126,
			"count":64,
			"type":"VEC2"
		},
		{
			"bufferView":106,
			"componentType":5123,
			"count":294,
			"type":"SCALAR"
		},
		{
			"bufferView":107,
			"componentType":5126,
			"count":81,
			"max":[
				6.7628583908081055,
				7.152557373046875e-07,
				0.5278650522232056
			],
			"min":[
				-3.289412498474121,
				-10.308244705200195,
				-0.516717791557312
			],
			"type":"VEC3"
		},
		{
			"bufferView":108,
			"componentType":5126,
			"count":81,
			"type":"VEC3"
		},
		{
			"bufferView":109,
			"componentType":5126,
			"count":81,
			"type":"VEC2"
		},
		{
			"bufferView":110,
			"componentType":5123,
			"count":384,
			"type":"SCALAR"
		},
		{
			"bufferView":111,
			"componentType":5126,
			"count":64,
			"max":[
				9.74905014038086,
				4.76837158203125e-07,
				0.3456006348133087
			],
			"min":[
				0,
				-3.374419927597046,
				-0.567884624004364
			],
			"type":"VEC3"
		},
		{
			"bufferView":112,
			"componentType":5126,
			"count":64,
			"type":"VEC3"
		},
		{
			"bufferView":113,
			"componentType":5126,
			"count":64,
			"type":"VEC2"
		},
		{
			"bufferView":114,
			"componentType":5126,
			"count":64,
			"max":[
				7.238882541656494,
				0,
				0.047661617398262024
			],
			"min":[
				0,
				-0.4555043876171112,
				-0.07831946015357971
			],
			"type":"VEC3"
		},
		{
			"bufferView":115,
			"componentType":5126,
			"count":64,
			"type":"VEC3"
		},
		{
			"bufferView":116,
			"componentType":5126,
			"count":64,
			"type":"VEC2"
		}
	],
	"bufferViews":[
		{
			"buffer":0,
			"byteLength":540,
			"byteOffset":0,
			"target":34962
		},
		{
			"buffer":0,
			"byteLength":540,
			"byteOffset":540,
			"target":34962
		},
		{
			"buffer":0,
			"byteLength":360,
			"byteOffset":1080,
			"target":34962
		},
		{
			"buffer":0,
			"byteLength":384,
			"byteOffset":1440,
			"target":34963
		},
		{
			"buffer":0,
			"byteLength":48600,
			"byteOffset":1824,
			"target":34962
		},
		{
			"buffer":0,
			"byteLength":48600,
			"byteOffset":50424,
			"target":34962
		},
		{
			"buffer":0,
			"byteLength":32400,
			"byteOffset":99024,
			"target":34962
		},
		{
			"buffer":0,
			"byteLength":32400,
			"byteOffset":131424,
			"target":34962
		},
		{
			"buffer":0,
			"byteLength":44928,
			"byteOffset":163824,
			"target":34963
		},
		{
			"buffer":0,
			"byteLength":29172,
			"byteOffset":208752,
			"target":34962
		},
		{
			"buffer":0,
			"byteLength":29172,
			"byteOffset":237924,
			"target":34962
		},
		{
			"buffer":0,
			"byteLength":19448,
			"byteOffset":267096,
			"target":34962
		},
		{
			"buffer":0,
			"byteLength":19448,
			"byteOffset":286544,
			"target":34962
		},
		{
			"buffer":0,
			"byteLength":9216,
			"byteOffset":305992,
			"target":34963
		},
		{
			"buffer":0,
			"byteLength":11316,
			"byteOffset":315208,
			"target":34962
		},
		{
			"buffer":0,
			"byteLength":11316,
			"byteOffset":326524,
			"target":34962
		},
		{
			"buffer":0,
			"byteLength":7544,
			"byteOffset":337840,
			"target":34962
		},
		{
			"buffer":0,
			"byteLength":7544,
			"byteOffset":345384,
			"target":34962
		},
		{
			"buffer":0,
			"byteLength":5184,
			"byteOffset":352928,
			"target":34963
		},
		{
			"buffer":0,
			"byteLength":54492,
			"byteOffset":358112,
			"target":34962
		},
		{
			"buffer":0,
			"byteLength":54492,
			"byteOffset":412604,
			"target":34962
		},
		{
			"buffer":0,
			"byteLength":36328,
			"byteOffset":467096,
			"target":34962
		},
		{
			"buffer":0,
			"byteLength":36328,
			"byteOffset":503424,
			"target":34962
		},
		{
			"buffer":0,
			"byteLength":27792,
			"byteOffset":539752,
			"target":34963
		},
		{
			"buffer":0,
			"byteLength":6336,
			"byteOffset":567544,
			"target":34962
		},
		{
			"buffer":0,
			"byteLength":6336,
			"byteOffset":573880,
			"target":34962
		},
		{
			"buffer":0,
			"byteLength":4224,
			"byteOffset":580216,
			"target":34962
		},
		{
			"buffer":0,
			"byteLength":4224,
			"byteOffset":584440,
			"target":34962
		},
		{
			"buffer":0,
			"byteLength":1584,
			"byteOffset":588664,
			"target":34963
		},
		{
			"buffer":0,
			"byteLength":31836,
			"byteOffset":590248,
			"target":34962
		},
		{
			"buffer":0,
			"byteLength":31836,
			"byteOffset":622084,
			"target":34962
		},
		{
			"buffer":0,
			"byteLength":21224,
			"byteOffset":653920,
			"target":34962
		},
		{
			"buffer":0,
			"byteLength":21224,
			"byteOffset":675144,
			"target":34962
		},
		{
			"buffer":0,
			"byteLength":11376,
			"byteOffset":696368,
			"target":34963
		},
		{
			"buffer":0,
			"byteLength":18072,
			"byteOffset":707744,
			"target":34962
		},
		{
			"buffer":0,
			"byteLength":18072,
			"byteOffset":725816,
			"target":34962
		},
		{
			"buffer":0,
			"byteLength":12048,
			"byteOffset":743888,
			"target":34962
		},
		{
			"buffer":0,
			"byteLength":12048,
			"byteOffset":755936,
			"target":34962
		},
		{
			"buffer":0,
			"byteLength":5640,
			"byteOffset":767984,
			"target":34963
		},
		{
			"buffer":0,
			"byteLength":4608,
			"byteOffset":773624,
			"target":34962
		},
		{
			"buffer":0,
			"byteLength":4608,
			"byteOffset":778232,
			"target":34962
		},
		{
			"buffer":0,
			"byteLength":3072,
			"byteOffset":782840,
			"target":34962
		},
		{
			"buffer":0,
			"byteLength":3072,
			"byteOffset":785912,
			"target":34962
		},
		{
			"buffer":0,
			"byteLength":1152,
			"byteOffset":788984,
			"target":34963
		},
		{
			"buffer":0,
			"byteLength":6912,
			"byteOffset":790136,
			"target":34962
		},
		{
			"buffer":0,
			"byteLength":6912,
			"byteOffset":797048,
			"target":34962
		},
		{
			"buffer":0,
			"byteLength":4608,
			"byteOffset":803960,
			"target":34962
		},
		{
			"buffer":0,
			"byteLength":4608,
			"byteOffset":808568,
			"target":34962
		},
		{
			"buffer":0,
			"byteLength":1728,
			"byteOffset":813176,
			"target":34963
		},
		{
			"buffer":0,
			"byteLength":20460,
			"byteOffset":814904,
			"target":34962
		},
		{
			"buffer":0,
			"byteLength":20460,
			"byteOffset":835364,
			"target":34962
		},
		{
			"buffer":0,
			"byteLength":13640,
			"byteOffset":855824,
			"target":34962
		},
		{
			"buffer":0,
			"byteLength":13640,
			"byteOffset":869464,
			"target":34962
		},
		{
			"buffer":0,
			"byteLength":6816,
			"byteOffset":883104,
			"target":34963
		},
		{
			"buffer":0,
			"byteLength":6336,
			"byteOffset":889920,
			"target":34962
		},
		{
			"buffer":0,
			"byteLength":6336,
			"byteOffset":896256,
			"target":34962
		},
		{
			"buffer":0,
			"byteLength":4224,
			"byteOffset":902592,
			"target":34962
		},
		{
			"buffer":0,
			"byteLength":4224,
			"byteOffset":906816,
			"target":34962
		},
		{
			"buffer":0,
			"byteLength":960,
			"byteOffset":911040,
			"target":34962
		},
		{
			"buffer":0,
			"byteLength":960,
			"byteOffset":912000,
			"target":34962
		},
		{
			"buffer":0,
			"byteLength":640,
			"byteOffset":912960,
			"target":34962
		},
		{
			"buffer":0,
			"byteLength":640,
			"byteOffset":913600,
			"target":34962
		},
		{
			"buffer":0,
			"byteLength":336,
			"byteOffset":914240,
			"target":34963
		},
		{
			"buffer":0,
			"byteLength":14832,
			"byteOffset":914576,
			"target":34962
		},
		{
			"buffer":0,
			"byteLength":14832,
			"byteOffset":929408,
			"target":34962
		},
		{
			"buffer":0,
			"byteLength":9888,
			"byteOffset":944240,
			"target":34962
		},
		{
			"buffer":0,
			"byteLength":9888,
			"byteOffset":954128,
			"target":34962
		},
		{
			"buffer":0,
			"byteLength":6432,
			"byteOffset":964016,
			"target":34963
		},
		{
			"buffer":0,
			"byteLength":864,
			"byteOffset":970448,
			"target":34962
		},
		{
			"buffer":0,
			"byteLength":864,
			"byteOffset":971312,
			"target":34962
		},
		{
			"buffer":0,
			"byteLength":576,
			"byteOffset":972176,
			"target":34962
		},
		{
			"buffer":0,
			"byteLength":576,
			"byteOffset":972752,
			"target":34962
		},
		{
			"buffer":0,
			"byteLength":216,
			"byteOffset":973328,
			"target":34963
		},
		{
			"buffer":0,
			"byteLength":32808,
			"byteOffset":973544,
			"target":34962
		},
		{
			"buffer":0,
			"byteLength":32808,
			"byteOffset":1006352,
			"target":34962
		},
		{
			"buffer":0,
			"byteLength":21872,
			"byteOffset":1039160,
			"target":34962
		},
		{
			"buffer":0,
			"byteLength":21872,
			"byteOffset":1061032,
			"target":34962
		},
		{
			"buffer":0,
			"byteLength":12912,
			"byteOffset":1082904,
			"target":34963
		},
		{
			"buffer":0,
			"byteLength":100404,
			"byteOffset":1095816,
			"target":34962
		},
		{
			"buffer":0,
			"byteLength":100404,
			"byteOffset":1196220,
			"target":34962
		},
		{
			"buffer":0,
			"byteLength":66936,
			"byteOffset":1296624,
			"target":34962
		},
		{
			"buffer":0,
			"byteLength":66936,
			"byteOffset":1363560,
			"target":34962
		},
		{
			"buffer":0,
			"byteLength":26640,
			"byteOffset":1430496,
			"target":34963
		},
		{
			"buffer":0,
			"byteLength":312,
			"byteOffset":1457136,
			"target":34962
		},
		{
			"buffer":0,
			"byteLength":312,
			"byteOffset":1457448,
			"target":34962
		},
		{
			"buffer":0,
			"byteLength":208,
			"byteOffset":1457760,
			"target":34962
		},
		{
			"buffer":0,
			"byteLength":144,
			"byteOffset":1457968,
			"target":34963
		},
		{
			"buffer":0,
			"byteLength":1800,
			"byteOffset":1458112,
			"target":34962
		},
		{
			"buffer":0,
			"byteLength":1800,
			"byteOffset":1459912,
			"target":34962
		},
		{
			"buffer":0,
			"byteLength":1200,
			"byteOffset":1461712,
			"target":34962
		},
		{
			"buffer":0,
			"byteLength":1512,
			"byteOffset":1462912,
			"target":34963
		},
		{
			"buffer":0,
			"byteLength":1800,
			"byteOffset":1464424,
			"target":34962
		},
		{
			"buffer":0,
			"byteLength":1800,
			"byteOffset":1466224,
			"target":34962
		},
		{
			"buffer":0,
			"byteLength":1200,
			"byteOffset":1468024,
			"target":34962
		},
		{
			"buffer":0,
			"byteLength":1800,
			"byteOffset":1469224,
			"target":34962
		},
		{
			"buffer":0,
			"byteLength":1800,
			"byteOffset":1471024,
			"target":34962
		},
		{
			"buffer":0,
			"byteLength":1200,
			"byteOffset":1472824,
			"target":34962
		},
		{
			"buffer":0,
			"byteLength":1800,
			"byteOffset":1474024,
			"target":34962
		},
		{
			"buffer":0,
			"byteLength":1800,
			"byteOffset":1475824,
			"target":34962
		},
		{
			"buffer":0,
			"byteLength":1200,
			"byteOffset":1477624,
			"target":34962
		},
		{
			"buffer":0,
			"byteLength":1800,
			"byteOffset":1478824,
			"target":34962
		},
		{
			"buffer":0,
			"byteLength":1800,
			"byteOffset":1480624,
			"target":34962
		},
		{
			"buffer":0,
			"byteLength":1200,
			"byteOffset":1482424,
			"target":34962
		},
		{
			"buffer":0,
			"byteLength":768,
			"byteOffset":1483624,
			"target":34962
		},
		{
			"buffer":0,
			"byteLength":768,
			"byteOffset":1484392,
			"target":34962
		},
		{
			"buffer":0,
			"byteLength":512,
			"byteOffset":1485160,
			"target":34962
		},
		{
			"buffer":0,
			"byteLength":588,
			"byteOffset":1485672,
			"target":34963
		},
		{
			"buffer":0,
			"byteLength":972,
			"byteOffset":1486260,
			"target":34962
		},
		{
			"buffer":0,
			"byteLength":972,
			"byteOffset":1487232,
			"target":34962
		},
		{
			"buffer":0,
			"byteLength":648,
			"byteOffset":1488204,
			"target":34962
		},
		{
			"buffer":0,
			"byteLength":768,
			"byteOffset":1488852,
			"target":34963
		},
		{
			"buffer":0,
			"byteLength":768,
			"byteOffset":1489620,
			"target":34962
		},
		{
			"buffer":0,
			"byteLength":768,
			"byteOffset":1490388,
			"target":34962
		},
		{
			"buffer":0,
			"byteLength":512,
			"byteOffset":1491156,
			"target":34962
		},
		{
			"buffer":0,
			"byteLength":768,
			"byteOffset":1491668,
			"target":34962
		},
		{
			"buffer":0,
			"byteLength":768,
			"byteOffset":1492436,
			"target":34962
		},
		{
			"buffer":0,
			"byteLength":512,
			"byteOffset":1493204,
			"target":34962
		}
	],
	"samplers":[
		{
			"magFilter":9729,
			"minFilter":9987
		}
	],
	"buffers":[
		{
			"byteLength":1493716,
			"uri":"barque.bin"
		}
	]
}
