{
	"asset":{
		"generator":"Khronos glTF Blender I/O v5.2.40",
		"version":"2.0"
	},
	"extensionsUsed":[
		"KHR_materials_emissive_strength"
	],
	"scene":0,
	"scenes":[
		{
			"name":"Scene",
			"nodes":[
				0,
				1,
				2,
				3,
				4,
				5,
				6,
				7,
				8,
				9,
				10,
				11,
				12,
				13,
				14,
				15,
				16,
				17,
				18,
				19,
				20,
				21,
				22,
				23,
				24,
				25,
				26,
				27,
				28,
				29,
				30,
				31,
				32,
				33,
				34,
				35,
				36,
				37,
				38,
				39,
				40,
				41,
				42,
				43,
				44,
				45,
				46,
				47,
				48,
				49,
				50,
				51,
				52,
				53,
				54,
				55,
				56,
				57,
				58,
				59,
				60,
				61,
				62,
				63,
				64,
				65,
				66,
				67,
				68,
				69,
				70,
				71,
				72,
				73,
				74,
				75,
				76,
				77,
				78,
				79,
				80,
				81
			]
		}
	],
	"nodes":[
		{
			"mesh":0,
			"name":"Flag",
			"translation":[
				0,
				14.67199993133545,
				18.400800704956055
			]
		},
		{
			"mesh":1,
			"name":"Hull"
		},
		{
			"name":"Muzzle_P_00",
			"translation":[
				-4.316198825836182,
				0.7253811955451965,
				-9.83144760131836
			]
		},
		{
			"name":"Muzzle_P_01",
			"translation":[
				-4.863670825958252,
				0.6912375688552856,
				-8.179875373840332
			]
		},
		{
			"name":"Muzzle_P_02",
			"translation":[
				-5.201130390167236,
				0.6653957366943359,
				-6.524800777435303
			]
		},
		{
			"name":"Muzzle_P_03",
			"translation":[
				-5.314309597015381,
				0.6238226890563965,
				-4.888506889343262
			]
		},
		{
			"name":"Muzzle_P_04",
			"translation":[
				-5.319947719573975,
				0.5921968817710876,
				-3.346020221710205
			]
		},
		{
			"name":"Muzzle_P_05",
			"translation":[
				-5.319947719573975,
				0.5881627798080444,
				-1.8231669664382935
			]
		},
		{
			"name":"Muzzle_P_06",
			"translation":[
				-5.319948196411133,
				0.6140955686569214,
				-0.30025145411491394
			]
		},
		{
			"name":"Muzzle_P_07",
			"translation":[
				-5.319949626922607,
				0.6620666980743408,
				1.2226924896240234
			]
		},
		{
			"name":"Muzzle_P_08",
			"translation":[
				-5.319951057434082,
				0.7296366691589355,
				2.7456531524658203
			]
		},
		{
			"name":"Muzzle_P_09",
			"translation":[
				-5.319952964782715,
				0.8154469728469849,
				4.268627166748047
			]
		},
		{
			"name":"Muzzle_P_10",
			"translation":[
				-5.319954872131348,
				0.918567955493927,
				5.7916131019592285
			]
		},
		{
			"name":"Muzzle_P_11",
			"translation":[
				-5.202996730804443,
				1.0321199893951416,
				7.4745588302612305
			]
		},
		{
			"name":"Muzzle_P_12",
			"translation":[
				-4.817920207977295,
				1.1290838718414307,
				9.120613098144531
			]
		},
		{
			"name":"Muzzle_P_13",
			"translation":[
				-4.370935440063477,
				1.931321620941162,
				-9.801724433898926
			]
		},
		{
			"name":"Muzzle_P_14",
			"translation":[
				-4.8438615798950195,
				1.8790260553359985,
				-8.135041236877441
			]
		},
		{
			"name":"Muzzle_P_15",
			"translation":[
				-5.11909294128418,
				1.833845615386963,
				-6.495989799499512
			]
		},
		{
			"name":"Muzzle_P_16",
			"translation":[
				-5.215406894683838,
				1.7808927297592163,
				-4.882787704467773
			]
		},
		{
			"name":"Muzzle_P_17",
			"translation":[
				-5.2206196784973145,
				1.7426693439483643,
				-3.3436317443847656
			]
		},
		{
			"name":"Muzzle_P_18",
			"translation":[
				-5.220597743988037,
				1.737767219543457,
				-1.824776291847229
			]
		},
		{
			"name":"Muzzle_P_19",
			"translation":[
				-5.220739364624023,
				1.7692924737930298,
				-0.3047475218772888
			]
		},
		{
			"name":"Muzzle_P_20",
			"translation":[
				-5.2209978103637695,
				1.8276389837265015,
				1.2158172130584717
			]
		},
		{
			"name":"Muzzle_P_21",
			"translation":[
				-5.221348285675049,
				1.909886360168457,
				2.736693859100342
			]
		},
		{
			"name":"Muzzle_P_22",
			"translation":[
				-5.221772193908691,
				2.0144336223602295,
				4.257821559906006
			]
		},
		{
			"name":"Muzzle_P_23",
			"translation":[
				-5.222250461578369,
				2.140209913253784,
				5.779170989990234
			]
		},
		{
			"name":"Muzzle_P_24",
			"translation":[
				-5.119222640991211,
				2.2782301902770996,
				7.442516803741455
			]
		},
		{
			"name":"Muzzle_P_25",
			"translation":[
				-4.793522834777832,
				2.4062135219573975,
				9.07225227355957
			]
		},
		{
			"name":"Muzzle_P_26",
			"translation":[
				-4.577714920043945,
				3.5922553539276123,
				-4.800000190734863
			]
		},
		{
			"name":"Muzzle_P_27",
			"translation":[
				-4.580463886260986,
				3.5368826389312744,
				-2.759999990463257
			]
		},
		{
			"name":"Muzzle_P_28",
			"translation":[
				-4.580463886260986,
				3.565129518508911,
				-0.7200000286102295
			]
		},
		{
			"name":"Muzzle_P_29",
			"translation":[
				-4.580463886260986,
				3.6610124111175537,
				1.3200000524520874
			]
		},
		{
			"name":"Muzzle_P_30",
			"translation":[
				-4.580463886260986,
				3.811819553375244,
				3.359999895095825
			]
		},
		{
			"name":"Muzzle_S_00",
			"translation":[
				4.316198825836182,
				0.7253811955451965,
				-9.83144760131836
			]
		},
		{
			"name":"Muzzle_S_01",
			"translation":[
				4.863670825958252,
				0.6912375688552856,
				-8.179875373840332
			]
		},
		{
			"name":"Muzzle_S_02",
			"translation":[
				5.201130390167236,
				0.6653957366943359,
				-6.524800777435303
			]
		},
		{
			"name":"Muzzle_S_03",
			"translation":[
				5.314309597015381,
				0.6238226890563965,
				-4.888506889343262
			]
		},
		{
			"name":"Muzzle_S_04",
			"translation":[
				5.319947719573975,
				0.5921968817710876,
				-3.346020221710205
			]
		},
		{
			"name":"Muzzle_S_05",
			"translation":[
				5.319947719573975,
				0.5881627798080444,
				-1.8231669664382935
			]
		},
		{
			"name":"Muzzle_S_06",
			"translation":[
				5.319948196411133,
				0.6140955686569214,
				-0.30025145411491394
			]
		},
		{
			"name":"Muzzle_S_07",
			"translation":[
				5.319949626922607,
				0.6620666980743408,
				1.2226924896240234
			]
		},
		{
			"name":"Muzzle_S_08",
			"translation":[
				5.319951057434082,
				0.7296366691589355,
				2.7456531524658203
			]
		},
		{
			"name":"Muzzle_S_09",
			"translation":[
				5.319952964782715,
				0.8154469728469849,
				4.268627166748047
			]
		},
		{
			"name":"Muzzle_S_10",
			"translation":[
				5.319954872131348,
				0.918567955493927,
				5.7916131019592285
			]
		},
		{
			"name":"Muzzle_S_11",
			"translation":[
				5.202996730804443,
				1.0321199893951416,
				7.4745588302612305
			]
		},
		{
			"name":"Muzzle_S_12",
			"translation":[
				4.817920207977295,
				1.1290838718414307,
				9.120613098144531
			]
		},
		{
			"name":"Muzzle_S_13",
			"translation":[
				4.370935440063477,
				1.931321620941162,
				-9.801724433898926
			]
		},
		{
			"name":"Muzzle_S_14",
			"translation":[
				4.8438615798950195,
				1.8790260553359985,
				-8.135041236877441
			]
		},
		{
			"name":"Muzzle_S_15",
			"translation":[
				5.11909294128418,
				1.833845615386963,
				-6.495989799499512
			]
		},
		{
			"name":"Muzzle_S_16",
			"translation":[
				5.215406894683838,
				1.7808927297592163,
				-4.882787704467773
			]
		},
		{
			"name":"Muzzle_S_17",
			"translation":[
				5.2206196784973145,
				1.7426693439483643,
				-3.3436317443847656
			]
		},
		{
			"name":"Muzzle_S_18",
			"translation":[
				5.220597743988037,
				1.737767219543457,
				-1.824776291847229
			]
		},
		{
			"name":"Muzzle_S_19",
			"translation":[
				5.220739364624023,
				1.7692924737930298,
				-0.3047475218772888
			]
		},
		{
			"name":"Muzzle_S_20",
			"translation":[
				5.2209978103637695,
				1.8276389837265015,
				1.2158172130584717
			]
		},
		{
			"name":"Muzzle_S_21",
			"translation":[
				5.221348285675049,
				1.909886360168457,
				2.736693859100342
			]
		},
		{
			"name":"Muzzle_S_22",
			"translation":[
				5.221772193908691,
				2.0144336223602295,
				4.257821559906006
			]
		},
		{
			"name":"Muzzle_S_23",
			"translation":[
				5.222250461578369,
				2.140209913253784,
				5.779170989990234
			]
		},
		{
			"name":"Muzzle_S_24",
			"translation":[
				5.119222640991211,
				2.2782301902770996,
				7.442516803741455
			]
		},
		{
			"name":"Muzzle_S_25",
			"translation":[
				4.793522834777832,
				2.4062135219573975,
				9.07225227355957
			]
		},
		{
			"name":"Muzzle_S_26",
			"translation":[
				4.577714920043945,
				3.5922553539276123,
				-4.800000190734863
			]
		},
		{
			"name":"Muzzle_S_27",
			"translation":[
				4.580463886260986,
				3.5368826389312744,
				-2.759999990463257
			]
		},
		{
			"name":"Muzzle_S_28",
			"translation":[
				4.580463886260986,
				3.565129518508911,
				-0.7200000286102295
			]
		},
		{
			"name":"Muzzle_S_29",
			"translation":[
				4.580463886260986,
				3.6610124111175537,
				1.3200000524520874
			]
		},
		{
			"name":"Muzzle_S_30",
			"translation":[
				4.580463886260986,
				3.811819553375244,
				3.359999895095825
			]
		},
		{
			"mesh":2,
			"name":"Pennant",
			"translation":[
				0,
				32.68059539794922,
				-0.04891550540924072
			]
		},
		{
			"mesh":3,
			"name":"Sail_0_0",
			"rotation":[
				0.026176918298006058,
				0,
				0,
				0.9996573328971863
			],
			"translation":[
				0,
				12.39688777923584,
				-9.665635108947754
			]
		},
		{
			"mesh":4,
			"name":"Sail_0_1_E",
			"rotation":[
				0.026176918298006058,
				0,
				0,
				0.9996573328971863
			],
			"translation":[
				0,
				18.614913940429688,
				-9.339762687683105
			]
		},
		{
			"mesh":5,
			"name":"Sail_0_2",
			"rotation":[
				0.026176918298006058,
				0,
				0,
				0.9996573328971863
			],
			"translation":[
				0,
				23.27843475341797,
				-9.095357894897461
			]
		},
		{
			"mesh":6,
			"name":"Sail_0_3",
			"rotation":[
				0.026176918298006058,
				0,
				0,
				0.9996573328971863
			],
			"translation":[
				0,
				26.905616760253906,
				-8.905264854431152
			]
		},
		{
			"mesh":7,
			"name":"Sail_1_0",
			"rotation":[
				0.026176918298006058,
				0,
				0,
				0.9996573328971863
			],
			"translation":[
				0,
				13.111166954040527,
				-0.6533726453781128
			]
		},
		{
			"mesh":8,
			"name":"Sail_1_1_E",
			"rotation":[
				0.026176918298006058,
				0,
				0,
				0.9996573328971863
			],
			"translation":[
				0,
				20.056835174560547,
				-0.28936561942100525
			]
		},
		{
			"mesh":9,
			"name":"Sail_1_2",
			"rotation":[
				0.026176918298006058,
				0,
				0,
				0.9996573328971863
			],
			"translation":[
				0,
				25.26608657836914,
				-0.016360312700271606
			]
		},
		{
			"mesh":10,
			"name":"Sail_1_3",
			"rotation":[
				0.026176918298006058,
				0,
				0,
				0.9996573328971863
			],
			"translation":[
				0,
				29.317726135253906,
				0.19597706198692322
			]
		},
		{
			"mesh":11,
			"name":"Sail_2_1",
			"rotation":[
				0.026176918298006058,
				0,
				0,
				0.9996573328971863
			],
			"translation":[
				0,
				16.41351318359375,
				8.521568298339844
			]
		},
		{
			"mesh":12,
			"name":"Sail_2_2",
			"rotation":[
				0.026176918298006058,
				0,
				0,
				0.9996573328971863
			],
			"translation":[
				0,
				20.283245086669922,
				8.724371910095215
			]
		},
		{
			"mesh":13,
			"name":"Sail_2_3",
			"rotation":[
				0.026176918298006058,
				0,
				0,
				0.9996573328971863
			],
			"translation":[
				0,
				23.293033599853516,
				8.882108688354492
			]
		},
		{
			"mesh":14,
			"name":"Sail_jib_0",
			"rotation":[
				-0.3868634104728699,
				0.6494073271751404,
				-0.2797680199146271,
				0.5918924808502197
			],
			"translation":[
				0,
				20.184520721435547,
				-11.702018737792969
			]
		},
		{
			"mesh":15,
			"name":"Sail_jib_1",
			"rotation":[
				-0.38389572501182556,
				0.6475286483764648,
				-0.28408941626548767,
				0.5938215255737305
			],
			"translation":[
				0,
				22.22798728942871,
				-13.83398151397705
			]
		},
		{
			"mesh":16,
			"name":"Sail_spanker",
			"rotation":[
				-0.11990449577569962,
				-0.6898226141929626,
				0.1553860306739807,
				0.6968664526939392
			],
			"translation":[
				0,
				14.457221031188965,
				8.75
			]
		},
		{
			"mesh":17,
			"name":"Sail_sprit",
			"translation":[
				0,
				5.095259666442871,
				-18.035999298095703
			]
		},
		{
			"mesh":18,
			"name":"Sail_stay_1",
			"rotation":[
				-0.291267991065979,
				0.6838741302490234,
				-0.1797669678926468,
				0.6443313956260681
			],
			"translation":[
				0,
				25.74396514892578,
				-0.7117529511451721
			]
		},
		{
			"mesh":19,
			"name":"Sail_stay_2",
			"rotation":[
				-0.43865278363227844,
				0.5673786401748657,
				0.42199769616127014,
				0.5546019673347473
			],
			"translation":[
				0,
				20.863224029541016,
				8.053045272827148
			]
		}
	],
	"materials":[
		{
			"doubleSided":true,
			"name":"battleship_flag",
			"pbrMetallicRoughness":{
				"metallicFactor":0,
				"roughnessFactor":0.8999999761581421
			}
		},
		{
			"doubleSided":true,
			"name":"battleship_hull",
			"pbrMetallicRoughness":{
				"baseColorTexture":{
					"index":0
				},
				"metallicFactor":0,
				"roughnessFactor":0.7200000286102295
			}
		},
		{
			"doubleSided":true,
			"name":"battleship_deck",
			"pbrMetallicRoughness":{
				"baseColorTexture":{
					"index":1
				},
				"metallicFactor":0,
				"roughnessFactor":0.8500000238418579
			}
		},
		{
			"doubleSided":true,
			"name":"battleship_upper",
			"pbrMetallicRoughness":{
				"baseColorTexture":{
					"index":2
				},
				"metallicFactor":0,
				"roughnessFactor":0.75
			}
		},
		{
			"doubleSided":true,
			"name":"battleship_wale",
			"pbrMetallicRoughness":{
				"baseColorFactor":[
					0.0027317428030073643,
					0.002458568662405014,
					0.00218539428897202,
					1
				],
				"metallicFactor":0,
				"roughnessFactor":0.699999988079071
			}
		},
		{
			"doubleSided":true,
			"name":"battleship_dark",
			"pbrMetallicRoughness":{
				"baseColorFactor":[
					0.0036765073891729116,
					0.002428215928375721,
					0.0018211619462817907,
					1
				],
				"metallicFactor":0,
				"roughnessFactor":0.949999988079071
			}
		},
		{
			"doubleSided":true,
			"name":"battleship_trim",
			"pbrMetallicRoughness":{
				"baseColorFactor":[
					0.3998839855194092,
					0.2622506618499756,
					0.02518685907125473,
					1
				],
				"metallicFactor":0.4000000059604645,
				"roughnessFactor":0.44999998807907104
			}
		},
		{
			"doubleSided":true,
			"name":"battleship_rail",
			"pbrMetallicRoughness":{
				"baseColorFactor":[
					0.0423114113509655,
					0.021219009533524513,
					0.008568125776946545,
					1
				],
				"metallicFactor":0,
				"roughnessFactor":0.75
			}
		},
		{
			"doubleSided":true,
			"name":"battleship_lid",
			"pbrMetallicRoughness":{
				"baseColorFactor":[
					0.002428215928375721,
					0.0019425726495683193,
					0.0014569294871762395,
					1
				],
				"metallicFactor":0,
				"roughnessFactor":0.699999988079071
			}
		},
		{
			"doubleSided":true,
			"name":"battleship_portred",
			"pbrMetallicRoughness":{
				"baseColorFactor":[
					0.07618538290262222,
					0.00802319310605526,
					0.005181516520678997,
					1
				],
				"metallicFactor":0,
				"roughnessFactor":0.8500000238418579
			}
		},
		{
			"doubleSided":true,
			"name":"battleship_iron",
			"pbrMetallicRoughness":{
				"baseColorFactor":[
					0.00802319310605526,
					0.007499032188206911,
					0.006995410192757845,
					1
				],
				"metallicFactor":0.550000011920929,
				"roughnessFactor":0.5
			}
		},
		{
			"doubleSided":true,
			"emissiveFactor":[
				0.3499999940395355,
				0.19320399730198723,
				0.05044496420545297
			],
			"name":"battleship_glass",
			"pbrMetallicRoughness":{
				"baseColorFactor":[
					0.016807375475764275,
					0.02955683507025242,
					0.045186202973127365,
					1
				],
				"metallicFactor":0.30000001192092896,
				"roughnessFactor":0.07999999821186066
			}
		},
		{
			"doubleSided":true,
			"emissiveFactor":[
				1,
				0.4564110338687897,
				0.06847816705703735
			],
			"extensions":{
				"KHR_materials_emissive_strength":{
					"emissiveStrength":5
				}
			},
			"name":"battleship_lantern",
			"pbrMetallicRoughness":{
				"baseColorFactor":[
					1,
					0.7605245113372803,
					0.35153260827064514,
					1
				],
				"metallicFactor":0,
				"roughnessFactor":0.30000001192092896
			}
		},
		{
			"doubleSided":true,
			"name":"battleship_spar",
			"pbrMetallicRoughness":{
				"baseColorFactor":[
					0.04817182570695877,
					0.024157632142305374,
					0.01032982300966978,
					1
				],
				"metallicFactor":0,
				"roughnessFactor":0.699999988079071
			}
		},
		{
			"doubleSided":true,
			"name":"battleship_grating",
			"pbrMetallicRoughness":{
				"baseColorFactor":[
					0.06847816705703735,
					0.03560131415724754,
					0.014443843625485897,
					1
				],
				"metallicFactor":0,
				"roughnessFactor":0.8999999761581421
			}
		},
		{
			"doubleSided":true,
			"name":"battleship_spar_black",
			"pbrMetallicRoughness":{
				"baseColorFactor":[
					0.006995410192757845,
					0.005181516520678997,
					0.0036765073891729116,
					1
				],
				"metallicFactor":0,
				"roughnessFactor":0.699999988079071
			}
		},
		{
			"doubleSided":true,
			"name":"battleship_rope",
			"pbrMetallicRoughness":{
				"baseColorFactor":[
					0.008568125776946545,
					0.006048833020031452,
					0.004024717025458813,
					1
				],
				"metallicFactor":0,
				"roughnessFactor":0.8999999761581421
			}
		},
		{
			"doubleSided":true,
			"name":"battleship_sail",
			"pbrMetallicRoughness":{
				"baseColorTexture":{
					"index":3
				},
				"metallicFactor":0,
				"roughnessFactor":0.949999988079071
			}
		}
	],
	"meshes":[
		{
			"name":"Flag",
			"primitives":[
				{
					"attributes":{
						"POSITION":0,
						"NORMAL":1,
						"TEXCOORD_0":2
					},
					"indices":3,
					"material":0
				}
			]
		},
		{
			"name":"Hull",
			"primitives":[
				{
					"attributes":{
						"POSITION":4,
						"NORMAL":5,
						"TEXCOORD_0":6,
						"COLOR_0":7
					},
					"indices":8,
					"material":1
				},
				{
					"attributes":{
						"POSITION":9,
						"NORMAL":10,
						"TEXCOORD_0":11,
						"COLOR_0":12
					},
					"indices":13,
					"material":2
				},
				{
					"attributes":{
						"POSITION":14,
						"NORMAL":15,
						"TEXCOORD_0":16,
						"COLOR_0":17
					},
					"indices":18,
					"material":3
				},
				{
					"attributes":{
						"POSITION":19,
						"NORMAL":20,
						"TEXCOORD_0":21,
						"COLOR_0":22
					},
					"indices":23,
					"material":4
				},
				{
					"attributes":{
						"POSITION":24,
						"NORMAL":25,
						"TEXCOORD_0":26,
						"COLOR_0":27
					},
					"indices":28,
					"material":5
				},
				{
					"attributes":{
						"POSITION":29,
						"NORMAL":30,
						"TEXCOORD_0":31,
						"COLOR_0":32
					},
					"indices":33,
					"material":6
				},
				{
					"attributes":{
						"POSITION":34,
						"NORMAL":35,
						"TEXCOORD_0":36,
						"COLOR_0":37
					},
					"indices":38,
					"material":7
				},
				{
					"attributes":{
						"POSITION":39,
						"NORMAL":40,
						"TEXCOORD_0":41,
						"COLOR_0":42
					},
					"indices":43,
					"material":8
				},
				{
					"attributes":{
						"POSITION":44,
						"NORMAL":45,
						"TEXCOORD_0":46,
						"COLOR_0":47
					},
					"indices":48,
					"material":9
				},
				{
					"attributes":{
						"POSITION":49,
						"NORMAL":50,
						"TEXCOORD_0":51,
						"COLOR_0":52
					},
					"indices":53,
					"material":10
				},
				{
					"attributes":{
						"POSITION":54,
						"NORMAL":55,
						"TEXCOORD_0":56,
						"COLOR_0":57
					},
					"indices":58,
					"material":11
				},
				{
					"attributes":{
						"POSITION":59,
						"NORMAL":60,
						"TEXCOORD_0":61,
						"COLOR_0":62
					},
					"indices":63,
					"material":12
				},
				{
					"attributes":{
						"POSITION":64,
						"NORMAL":65,
						"TEXCOORD_0":66,
						"COLOR_0":67
					},
					"indices":68,
					"material":13
				},
				{
					"attributes":{
						"POSITION":69,
						"NORMAL":70,
						"TEXCOORD_0":71,
						"COLOR_0":72
					},
					"indices":73,
					"material":14
				},
				{
					"attributes":{
						"POSITION":74,
						"NORMAL":75,
						"TEXCOORD_0":76,
						"COLOR_0":77
					},
					"indices":78,
					"material":15
				},
				{
					"attributes":{
						"POSITION":79,
						"NORMAL":80,
						"TEXCOORD_0":81,
						"COLOR_0":82
					},
					"indices":83,
					"material":16
				}
			]
		},
		{
			"name":"Pennant",
			"primitives":[
				{
					"attributes":{
						"POSITION":84,
						"NORMAL":85,
						"TEXCOORD_0":86
					},
					"indices":87,
					"material":0
				}
			]
		},
		{
			"name":"Sail_0_0",
			"primitives":[
				{
					"attributes":{
						"POSITION":88,
						"NORMAL":89,
						"TEXCOORD_0":90
					},
					"indices":91,
					"material":17
				}
			]
		},
		{
			"name":"Sail_0_1_E",
			"primitives":[
				{
					"attributes":{
						"POSITION":92,
						"NORMAL":93,
						"TEXCOORD_0":94
					},
					"indices":91,
					"material":17
				}
			]
		},
		{
			"name":"Sail_0_2",
			"primitives":[
				{
					"attributes":{
						"POSITION":95,
						"NORMAL":96,
						"TEXCOORD_0":97
					},
					"indices":91,
					"material":17
				}
			]
		},
		{
			"name":"Sail_0_3",
			"primitives":[
				{
					"attributes":{
						"POSITION":98,
						"NORMAL":99,
						"TEXCOORD_0":100
					},
					"indices":91,
					"material":17
				}
			]
		},
		{
			"name":"Sail_1_0",
			"primitives":[
				{
					"attributes":{
						"POSITION":101,
						"NORMAL":102,
						"TEXCOORD_0":103
					},
					"indices":91,
					"material":17
				}
			]
		},
		{
			"name":"Sail_1_1_E",
			"primitives":[
				{
					"attributes":{
						"POSITION":104,
						"NORMAL":105,
						"TEXCOORD_0":106
					},
					"indices":91,
					"material":17
				}
			]
		},
		{
			"name":"Sail_1_2",
			"primitives":[
				{
					"attributes":{
						"POSITION":107,
						"NORMAL":108,
						"TEXCOORD_0":109
					},
					"indices":91,
					"material":17
				}
			]
		},
		{
			"name":"Sail_1_3",
			"primitives":[
				{
					"attributes":{
						"POSITION":110,
						"NORMAL":111,
						"TEXCOORD_0":112
					},
					"indices":91,
					"material":17
				}
			]
		},
		{
			"name":"Sail_2_1",
			"primitives":[
				{
					"attributes":{
						"POSITION":113,
						"NORMAL":114,
						"TEXCOORD_0":115
					},
					"indices":91,
					"material":17
				}
			]
		},
		{
			"name":"Sail_2_2",
			"primitives":[
				{
					"attributes":{
						"POSITION":116,
						"NORMAL":117,
						"TEXCOORD_0":118
					},
					"indices":91,
					"material":17
				}
			]
		},
		{
			"name":"Sail_2_3",
			"primitives":[
				{
					"attributes":{
						"POSITION":119,
						"NORMAL":120,
						"TEXCOORD_0":121
					},
					"indices":91,
					"material":17
				}
			]
		},
		{
			"name":"Sail_jib_0",
			"primitives":[
				{
					"attributes":{
						"POSITION":122,
						"NORMAL":123,
						"TEXCOORD_0":124
					},
					"indices":125,
					"material":17
				}
			]
		},
		{
			"name":"Sail_jib_1",
			"primitives":[
				{
					"attributes":{
						"POSITION":126,
						"NORMAL":127,
						"TEXCOORD_0":128
					},
					"indices":125,
					"material":17
				}
			]
		},
		{
			"name":"Sail_spanker",
			"primitives":[
				{
					"attributes":{
						"POSITION":129,
						"NORMAL":130,
						"TEXCOORD_0":131
					},
					"indices":132,
					"material":17
				}
			]
		},
		{
			"name":"Sail_sprit",
			"primitives":[
				{
					"attributes":{
						"POSITION":133,
						"NORMAL":134,
						"TEXCOORD_0":135
					},
					"indices":91,
					"material":17
				}
			]
		},
		{
			"name":"Sail_stay_1",
			"primitives":[
				{
					"attributes":{
						"POSITION":136,
						"NORMAL":137,
						"TEXCOORD_0":138
					},
					"indices":125,
					"material":17
				}
			]
		},
		{
			"name":"Sail_stay_2",
			"primitives":[
				{
					"attributes":{
						"POSITION":139,
						"NORMAL":140,
						"TEXCOORD_0":141
					},
					"indices":125,
					"material":17
				}
			]
		}
	],
	"textures":[
		{
			"sampler":0,
			"source":0
		},
		{
			"sampler":0,
			"source":1
		},
		{
			"sampler":0,
			"source":2
		},
		{
			"sampler":0,
			"source":3
		}
	],
	"images":[
		{
			"mimeType":"image/jpeg",
			"name":"battleship_hull",
			"uri":"textures/battleship_hull.jpg"
		},
		{
			"mimeType":"image/jpeg",
			"name":"deck",
			"uri":"textures/deck.jpg"
		},
		{
			"mimeType":"image/jpeg",
			"name":"battleship_upper",
			"uri":"textures/battleship_upper.jpg"
		},
		{
			"mimeType":"image/jpeg",
			"name":"battleship_sail",
			"uri":"textures/battleship_sail.jpg"
		}
	],
	"accessors":[
		{
			"bufferView":0,
			"componentType":5126,
			"count":45,
			"max":[
				0.06440079212188721,
				0,
				4.199999809265137
			],
			"min":[
				-0.17260636389255524,
				-2.700000047683716,
				0
			],
			"type":"VEC3"
		},
		{
			"bufferView":1,
			"componentType":5126,
			"count":45,
			"type":"VEC3"
		},
		{
			"bufferView":2,
			"componentType":5126,
			"count":45,
			"type":"VEC2"
		},
		{
			"bufferView":3,
			"componentType":5123,
			"count":192,
			"type":"SCALAR"
		},
		{
			"bufferView":4,
			"componentType":5126,
			"count":4051,
			"max":[
				4.320430278778076,
				4.860000133514404,
				16.350000381469727
			],
			"min":[
				-4.320430278778076,
				-3.442500114440918,
				-16.049999237060547
			],
			"type":"VEC3"
		},
		{
			"bufferView":5,
			"componentType":5126,
			"count":4051,
			"type":"VEC3"
		},
		{
			"bufferView":6,
			"componentType":5126,
			"count":4051,
			"type":"VEC2"
		},
		{
			"bufferView":7,
			"componentType":5123,
			"count":4051,
			"normalized":true,
			"type":"VEC4"
		},
		{
			"bufferView":8,
			"componentType":5123,
			"count":22464,
			"type":"SCALAR"
		},
		{
			"bufferView":9,
			"componentType":5126,
			"count":2806,
			"max":[
				3.9312000274658203,
				9.071999549865723,
				17.100801467895508
			],
			"min":[
				-3.9312000274658203,
				2.835681676864624,
				-16.049999237060547
			],
			"type":"VEC3"
		},
		{
			"bufferView":10,
			"componentType":5126,
			"count":2806,
			"type":"VEC3"
		},
		{
			"bufferView":11,
			"componentType":5126,
			"count":2806,
			"type":"VEC2"
		},
		{
			"bufferView":12,
			"componentType":5123,
			"count":2806,
			"normalized":true,
			"type":"VEC4"
		},
		{
			"bufferView":13,
			"componentType":5123,
			"count":5184,
			"type":"SCALAR"
		},
		{
			"bufferView":14,
			"componentType":5126,
			"count":1015,
			"max":[
				3.9312000274658203,
				9.972000122070312,
				17.26123046875
			],
			"min":[
				-3.9312000274658203,
				-2.7135000228881836,
				-16.226945877075195
			],
			"type":"VEC3"
		},
		{
			"bufferView":15,
			"componentType":5126,
			"count":1015,
			"type":"VEC3"
		},
		{
			"bufferView":16,
			"componentType":5126,
			"count":1015,
			"type":"VEC2"
		},
		{
			"bufferView":17,
			"componentType":5123,
			"count":1015,
			"normalized":true,
			"type":"VEC4"
		},
		{
			"bufferView":18,
			"componentType":5123,
			"count":2790,
			"type":"SCALAR"
		},
		{
			"bufferView":19,
			"componentType":5126,
			"count":5831,
			"max":[
				4.90749454498291,
				9.205235481262207,
				17.116008758544922
			],
			"min":[
				-4.90749454498291,
				-4.010499954223633,
				-16.989906311035156
			],
			"type":"VEC3"
		},
		{
			"bufferView":20,
			"componentType":5126,
			"count":5831,
			"type":"VEC3"
		},
		{
			"bufferView":21,
			"componentType":5126,
			"count":5831,
			"type":"VEC2"
		},
		{
			"bufferView":22,
			"componentType":5123,
			"count":5831,
			"normalized":true,
			"type":"VEC4"
		},
		{
			"bufferView":23,
			"componentType":5123,
			"count":18072,
			"type":"SCALAR"
		},
		{
			"bufferView":24,
			"componentType":5126,
			"count":1440,
			"max":[
				4.412649154663086,
				7.855669975280762,
				10.179999351501465
			],
			"min":[
				-4.412649154663086,
				0.12436220794916153,
				-10.018054008483887
			],
			"type":"VEC3"
		},
		{
			"bufferView":25,
			"componentType":5126,
			"count":1440,
			"type":"VEC3"
		},
		{
			"bufferView":26,
			"componentType":5126,
			"count":1440,
			"type":"VEC2"
		},
		{
			"bufferView":27,
			"componentType":5123,
			"count":1440,
			"normalized":true,
			"type":"VEC4"
		},
		{
			"bufferView":28,
			"componentType":5123,
			"count":2160,
			"type":"SCALAR"
		},
		{
			"bufferView":29,
			"componentType":5126,
			"count":4461,
			"max":[
				3.716543674468994,
				33.01042938232422,
				17.693801879882812
			],
			"min":[
				-3.716543674468994,
				0.7741825580596924,
				-17.80999755859375
			],
			"type":"VEC3"
		},
		{
			"bufferView":30,
			"componentType":5126,
			"count":4461,
			"type":"VEC3"
		},
		{
			"bufferView":31,
			"componentType":5126,
			"count":4461,
			"type":"VEC2"
		},
		{
			"bufferView":32,
			"componentType":5123,
			"count":4461,
			"normalized":true,
			"type":"VEC4"
		},
		{
			"bufferView":33,
			"componentType":5123,
			"count":9300,
			"type":"SCALAR"
		},
		{
			"bufferView":34,
			"componentType":5126,
			"count":1728,
			"max":[
				3.68658447265625,
				9.92199993133545,
				17.14080238342285
			],
			"min":[
				-3.68658447265625,
				4.697691440582275,
				-15.762303352355957
			],
			"type":"VEC3"
		},
		{
			"bufferView":35,
			"componentType":5126,
			"count":1728,
			"type":"VEC3"
		},
		{
			"bufferView":36,
			"componentType":5126,
			"count":1728,
			"type":"VEC2"
		},
		{
			"bufferView":37,
			"componentType":5123,
			"count":1728,
			"normalized":true,
			"type":"VEC4"
		},
		{
			"bufferView":38,
			"componentType":5123,
			"count":2592,
			"type":"SCALAR"
		},
		{
			"bufferView":39,
			"componentType":5126,
			"count":1248,
			"max":[
				5.290054798126221,
				3.4812018871307373,
				9.513753890991211
			],
			"min":[
				-5.290054798126221,
				1.065826177597046,
				-10.269865989685059
			],
			"type":"VEC3"
		},
		{
			"bufferView":40,
			"componentType":5126,
			"count":1248,
			"type":"VEC3"
		},
		{
			"bufferView":41,
			"componentType":5126,
			"count":1248,
			"type":"VEC2"
		},
		{
			"bufferView":42,
			"componentType":5123,
			"count":1248,
			"normalized":true,
			"type":"VEC4"
		},
		{
			"bufferView":43,
			"componentType":5123,
			"count":1872,
			"type":"SCALAR"
		},
		{
			"bufferView":44,
			"componentType":5126,
			"count":1488,
			"max":[
				5.236621856689453,
				3.581819772720337,
				9.437816619873047
			],
			"min":[
				-5.236621856689453,
				1.085545301437378,
				-10.188882827758789
			],
			"type":"VEC3"
		},
		{
			"bufferView":45,
			"componentType":5126,
			"count":1488,
			"type":"VEC3"
		},
		{
			"bufferView":46,
			"componentType":5126,
			"count":1488,
			"type":"VEC2"
		},
		{
			"bufferView":47,
			"componentType":5123,
			"count":1488,
			"normalized":true,
			"type":"VEC4"
		},
		{
			"bufferView":48,
			"componentType":5123,
			"count":2232,
			"type":"SCALAR"
		},
		{
			"bufferView":49,
			"componentType":5126,
			"count":4166,
			"max":[
				5.0735955238342285,
				10.17199993133545,
				17.260801315307617
			],
			"min":[
				-5.0735955238342285,
				0.409382164478302,
				-14.4967679977417
			],
			"type":"VEC3"
		},
		{
			"bufferView":50,
			"componentType":5126,
			"count":4166,
			"type":"VEC3"
		},
		{
			"bufferView":51,
			"componentType":5126,
			"count":4166,
			"type":"VEC2"
		},
		{
			"bufferView":52,
			"componentType":5123,
			"count":4166,
			"normalized":true,
			"type":"VEC4"
		},
		{
			"bufferView":53,
			"componentType":5123,
			"count":8388,
			"type":"SCALAR"
		},
		{
			"bufferView":54,
			"componentType":5126,
			"count":864,
			"max":[
				3.084669351577759,
				8.302499771118164,
				16.994224548339844
			],
			"min":[
				-3.084669351577759,
				4.3116302490234375,
				13.320910453796387
			],
			"type":"VEC3"
		},
		{
			"bufferView":55,
			"componentType":5126,
			"count":864,
			"type":"VEC3"
		},
		{
			"bufferView":56,
			"componentType":5126,
			"count":864,
			"type":"VEC2"
		},
		{
			"bufferView":57,
			"componentType":5123,
			"count":864,
			"normalized":true,
			"type":"VEC4"
		},
		{
			"bufferView":58,
			"componentType":5123,
			"count":1296,
			"type":"SCALAR"
		},
		{
			"bufferView":59,
			"componentType":5126,
			"count":121,
			"max":[
				2.0162887573242188,
				11.259499549865723,
				17.635801315307617
			],
			"min":[
				-2.0162887573242188,
				10.17199993133545,
				16.76580238342285
			],
			"type":"VEC3"
		},
		{
			"bufferView":60,
			"componentType":5126,
			"count":121,
			"type":"VEC3"
		},
		{
			"bufferView":61,
			"componentType":5126,
			"count":121,
			"type":"VEC2"
		},
		{
			"bufferView":62,
			"componentType":5123,
			"count":121,
			"normalized":true,
			"type":"VEC4"
		},
		{
			"bufferView":63,
			"componentType":5123,
			"count":252,
			"type":"SCALAR"
		},
		{
			"bufferView":64,
			"componentType":5126,
			"count":1647,
			"max":[
				8.640000343322754,
				32.733734130859375,
				18.44964599609375
			],
			"min":[
				-8.640000343322754,
				1.3515430688858032,
				-23.889768600463867
			],
			"type":"VEC3"
		},
		{
			"bufferView":65,
			"componentType":5126,
			"count":1647,
			"type":"VEC3"
		},
		{
			"bufferView":66,
			"componentType":5126,
			"count":1647,
			"type":"VEC2"
		},
		{
			"bufferView":67,
			"componentType":5123,
			"count":1647,
			"normalized":true,
			"type":"VEC4"
		},
		{
			"bufferView":68,
			"componentType":5123,
			"count":4440,
			"type":"SCALAR"
		},
		{
			"bufferView":69,
			"componentType":5126,
			"count":72,
			"max":[
				1.187999963760376,
				3.5824391841888428,
				4.800000190734863
			],
			"min":[
				-1.187999963760376,
				2.9057767391204834,
				-16.92554473876953
			],
			"type":"VEC3"
		},
		{
			"bufferView":70,
			"componentType":5126,
			"count":72,
			"type":"VEC3"
		},
		{
			"bufferView":71,
			"componentType":5126,
			"count":72,
			"type":"VEC2"
		},
		{
			"bufferView":72,
			"componentType":5123,
			"count":72,
			"normalized":true,
			"type":"VEC4"
		},
		{
			"bufferView":73,
			"componentType":5123,
			"count":108,
			"type":"SCALAR"
		},
		{
			"bufferView":74,
			"componentType":5126,
			"count":2739,
			"max":[
				4.921479225158691,
				26.490036010742188,
				10.190771102905273
			],
			"min":[
				-4.921479225158691,
				2.935760974884033,
				-21.070058822631836
			],
			"type":"VEC3"
		},
		{
			"bufferView":75,
			"componentType":5126,
			"count":2739,
			"type":"VEC3"
		},
		{
			"bufferView":76,
			"componentType":5126,
			"count":2739,
			"type":"VEC2"
		},
		{
			"bufferView":77,
			"componentType":5123,
			"count":2739,
			"normalized":true,
			"type":"VEC4"
		},
		{
			"bufferView":78,
			"componentType":5123,
			"count":6456,
			"type":"SCALAR"
		},
		{
			"bufferView":79,
			"componentType":5126,
			"count":9060,
			"max":[
				8.307793617248535,
				32.15306854248047,
				15.927416801452637
			],
			"min":[
				-8.310779571533203,
				3.0554676055908203,
				-23.898544311523438
			],
			"type":"VEC3"
		},
		{
			"bufferView":80,
			"componentType":5126,
			"count":9060,
			"type":"VEC3"
		},
		{
			"bufferView":81,
			"componentType":5126,
			"count":9060,
			"type":"VEC2"
		},
		{
			"bufferView":82,
			"componentType":5123,
			"count":9060,
			"normalized":true,
			"type":"VEC4"
		},
		{
			"bufferView":83,
			"componentType":5123,
			"count":14400,
			"type":"SCALAR"
		},
		{
			"bufferView":84,
			"componentType":5126,
			"count":26,
			"max":[
				0.16424664855003357,
				0,
				6
			],
			"min":[
				-0.1664924919605255,
				-0.36000001430511475,
				0
			],
			"type":"VEC3"
		},
		{
			"bufferView":85,
			"componentType":5126,
			"count":26,
			"type":"VEC3"
		},
		{
			"bufferView":86,
			"componentType":5126,
			"count":26,
			"type":"VEC2"
		},
		{
			"bufferView":87,
			"componentType":5123,
			"count":72,
			"type":"SCALAR"
		},
		{
			"bufferView":88,
			"componentType":5126,
			"count":150,
			"max":[
				8.640000343322754,
				0,
				0
			],
			"min":[
				-8.640000343322754,
				-5.967120170593262,
				-2.178954839706421
			],
			"type":"VEC3"
		},
		{
			"bufferView":89,
			"componentType":5126,
			"count":150,
			"type":"VEC3"
		},
		{
			"bufferView":90,
			"componentType":5126,
			"count":150,
			"type":"VEC2"
		},
		{
			"bufferView":91,
			"componentType":5123,
			"count":756,
			"type":"SCALAR"
		},
		{
			"bufferView":92,
			"componentType":5126,
			"count":150,
			"max":[
				7.776000022888184,
				0,
				0
			],
			"min":[
				-7.776000022888184,
				-5.676559925079346,
				-1.8977124691009521
			],
			"type":"VEC3"
		},
		{
			"bufferView":93,
			"componentType":5126,
			"count":150,
			"type":"VEC3"
		},
		{
			"bufferView":94,
			"componentType":5126,
			"count":150,
			"type":"VEC2"
		},
		{
			"bufferView":95,
			"componentType":5126,
			"count":150,
			"max":[
				6.531839847564697,
				0,
				0
			],
			"min":[
				-6.531839847564697,
				-4.119919776916504,
				-1.545934796333313
			],
			"type":"VEC3"
		},
		{
			"bufferView":96,
			"componentType":5126,
			"count":150,
			"type":"VEC3"
		},
		{
			"bufferView":97,
			"componentType":5126,
			"count":150,
			"type":"VEC2"
		},
		{
			"bufferView":98,
			"componentType":5126,
			"count":150,
			"max":[
				5.132160186767578,
				0,
				0
			],
			"min":[
				-5.132160186767578,
				-3.082159996032715,
				-1.1739400625228882
			],
			"type":"VEC3"
		},
		{
			"bufferView":99,
			"componentType":5126,
			"count":150,
			"type":"VEC3"
		},
		{
			"bufferView":100,
			"componentType":5126,
			"count":150,
			"type":"VEC2"
		},
		{
			"bufferView":101,
			"componentType":5126,
			"count":150,
			"max":[
				7.948800086975098,
				0,
				0
			],
			"min":[
				-7.948800086975098,
				-6.66540002822876,
				-2.004638433456421
			],
			"type":"VEC3"
		},
		{
			"bufferView":102,
			"componentType":5126,
			"count":150,
			"type":"VEC3"
		},
		{
			"bufferView":103,
			"componentType":5126,
			"count":150,
			"type":"VEC2"
		},
		{
			"bufferView":104,
			"componentType":5126,
			"count":150,
			"max":[
				7.1539201736450195,
				0,
				0
			],
			"min":[
				-7.1539201736450195,
				-6.405200004577637,
				-1.745895504951477
			],
			"type":"VEC3"
		},
		{
			"bufferView":105,
			"componentType":5126,
			"count":150,
			"type":"VEC3"
		},
		{
			"bufferView":106,
			"componentType":5126,
			"count":150,
			"type":"VEC2"
		},
		{
			"bufferView":107,
			"componentType":5126,
			"count":150,
			"max":[
				6.0092926025390625,
				0,
				0
			],
			"min":[
				-6.0092926025390625,
				-4.666399955749512,
				-1.422260046005249
			],
			"type":"VEC3"
		},
		{
			"bufferView":108,
			"componentType":5126,
			"count":150,
			"type":"VEC3"
		},
		{
			"bufferView":109,
			"componentType":5126,
			"count":150,
			"type":"VEC2"
		},
		{
			"bufferView":110,
			"componentType":5126,
			"count":150,
			"max":[
				4.721587181091309,
				0,
				0
			],
			"min":[
				-4.721587181091309,
				-3.507200002670288,
				-1.0800248384475708
			],
			"type":"VEC3"
		},
		{
			"bufferView":111,
			"componentType":5126,
			"count":150,
			"type":"VEC3"
		},
		{
			"bufferView":112,
			"componentType":5126,
			"count":150,
			"type":"VEC2"
		},
		{
			"bufferView":113,
			"componentType":5126,
			"count":150,
			"max":[
				6.531839847564697,
				0,
				0
			],
			"min":[
				-6.531839847564697,
				-4.616720199584961,
				-1.5940784215927124
			],
			"type":"VEC3"
		},
		{
			"bufferView":114,
			"componentType":5126,
			"count":150,
			"type":"VEC3"
		},
		{
			"bufferView":115,
			"componentType":5126,
			"count":150,
			"type":"VEC2"
		},
		{
			"bufferView":116,
			"componentType":5126,
			"count":150,
			"max":[
				5.486745834350586,
				0,
				0
			],
			"min":[
				-5.486745834350586,
				-3.325040102005005,
				-1.298585295677185
			],
			"type":"VEC3"
		},
		{
			"bufferView":117,
			"componentType":5126,
			"count":150,
			"type":"VEC3"
		},
		{
			"bufferView":118,
			"componentType":5126,
			"count":150,
			"type":"VEC2"
		},
		{
			"bufferView":119,
			"componentType":5126,
			"count":150,
			"max":[
				4.311014175415039,
				0,
				0
			],
			"min":[
				-4.311014175415039,
				-2.4639201164245605,
				-0.9861096143722534
			],
			"type":"VEC3"
		},
		{
			"bufferView":120,
			"componentType":5126,
			"count":150,
			"type":"VEC3"
		},
		{
			"bufferView":121,
			"componentType":5126,
			"count":150,
			"type":"VEC2"
		},
		{
			"bufferView":122,
			"componentType":5126,
			"count":64,
			"max":[
				16.18767547607422,
				9.5367431640625e-07,
				0.3884415030479431
			],
			"min":[
				0,
				-3.671494722366333,
				-0.6382806301116943
			],
			"type":"VEC3"
		},
		{
			"bufferView":123,
			"componentType":5126,
			"count":64,
			"type":"VEC3"
		},
		{
			"bufferView":124,
			"componentType":5126,
			"count":64,
			"type":"VEC2"
		},
		{
			"bufferView":125,
			"componentType":5123,
			"count":294,
			"type":"SCALAR"
		},
		{
			"bufferView":126,
			"componentType":5126,
			"count":64,
			"max":[
				17.41228485107422,
				0,
				0.3892034590244293
			],
			"min":[
				0,
				-3.951430082321167,
				-0.6395315527915955
			],
			"type":"VEC3"
		},
		{
			"bufferView":127,
			"componentType":5126,
			"count":64,
			"type":"VEC3"
		},
		{
			"bufferView":128,
			"componentType":5126,
			"count":64,
			"type":"VEC2"
		},
		{
			"bufferView":129,
			"componentType":5126,
			"count":81,
			"max":[
				6.7628583908081055,
				4.76837158203125e-07,
				0.5278650522232056
			],
			"min":[
				-3.289412498474121,
				-10.308244705200195,
				-0.516717791557312
			],
			"type":"VEC3"
		},
		{
			"bufferView":130,
			"componentType":5126,
			"count":81,
			"type":"VEC3"
		},
		{
			"bufferView":131,
			"componentType":5126,
			"count":81,
			"type":"VEC2"
		},
		{
			"bufferView":132,
			"componentType":5123,
			"count":384,
			"type":"SCALAR"
		},
		{
			"bufferView":133,
			"componentType":5126,
			"count":150,
			"max":[
				4.104000091552734,
				0,
				0
			],
			"min":[
				-4.104000091552734,
				-3.6287999153137207,
				-1.050166368484497
			],
			"type":"VEC3"
		},
		{
			"bufferView":134,
			"componentType":5126,
			"count":150,
			"type":"VEC3"
		},
		{
			"bufferView":135,
			"componentType":5126,
			"count":150,
			"type":"VEC2"
		},
		{
			"bufferView":136,
			"componentType":5126,
			"count":64,
			"max":[
				9.718510627746582,
				1.1920928955078125e-07,
				0.34555524587631226
			],
			"min":[
				0,
				-3.3580617904663086,
				-0.5678102374076843
			],
			"type":"VEC3"
		},
		{
			"bufferView":137,
			"componentType":5126,
			"count":64,
			"type":"VEC3"
		},
		{
			"bufferView":138,
			"componentType":5126,
			"count":64,
			"type":"VEC2"
		},
		{
			"bufferView":139,
			"componentType":5126,
			"count":64,
			"max":[
				7.241238117218018,
				0,
				0.0908094048500061
			],
			"min":[
				0,
				-0.45372435450553894,
				-0.14921817183494568
			],
			"type":"VEC3"
		},
		{
			"bufferView":140,
			"componentType":5126,
			"count":64,
			"type":"VEC3"
		},
		{
			"bufferView":141,
			"componentType":5126,
			"count":64,
			"type":"VEC2"
		}
	],
	"bufferViews":[
		{
			"buffer":0,
			"byteLength":540,
			"byteOffset":0,
			"target":34962
		},
		{
			"buffer":0,
			"byteLength":540,
			"byteOffset":540,
			"target":34962
		},
		{
			"buffer":0,
			"byteLength":360,
			"byteOffset":1080,
			"target":34962
		},
		{
			"buffer":0,
			"byteLength":384,
			"byteOffset":1440,
			"target":34963
		},
		{
			"buffer":0,
			"byteLength":48612,
			"byteOffset":1824,
			"target":34962
		},
		{
			"buffer":0,
			"byteLength":48612,
			"byteOffset":50436,
			"target":34962
		},
		{
			"buffer":0,
			"byteLength":32408,
			"byteOffset":99048,
			"target":34962
		},
		{
			"buffer":0,
			"byteLength":32408,
			"byteOffset":131456,
			"target":34962
		},
		{
			"buffer":0,
			"byteLength":44928,
			"byteOffset":163864,
			"target":34963
		},
		{
			"buffer":0,
			"byteLength":33672,
			"byteOffset":208792,
			"target":34962
		},
		{
			"buffer":0,
			"byteLength":33672,
			"byteOffset":242464,
			"target":34962
		},
		{
			"buffer":0,
			"byteLength":22448,
			"byteOffset":276136,
			"target":34962
		},
		{
			"buffer":0,
			"byteLength":22448,
			"byteOffset":298584,
			"target":34962
		},
		{
			"buffer":0,
			"byteLength":10368,
			"byteOffset":321032,
			"target":34963
		},
		{
			"buffer":0,
			"byteLength":12180,
			"byteOffset":331400,
			"target":34962
		},
		{
			"buffer":0,
			"byteLength":12180,
			"byteOffset":343580,
			"target":34962
		},
		{
			"buffer":0,
			"byteLength":8120,
			"byteOffset":355760,
			"target":34962
		},
		{
			"buffer":0,
			"byteLength":8120,
			"byteOffset":363880,
			"target":34962
		},
		{
			"buffer":0,
			"byteLength":5580,
			"byteOffset":372000,
			"target":34963
		},
		{
			"buffer":0,
			"byteLength":69972,
			"byteOffset":377580,
			"target":34962
		},
		{
			"buffer":0,
			"byteLength":69972,
			"byteOffset":447552,
			"target":34962
		},
		{
			"buffer":0,
			"byteLength":46648,
			"byteOffset":517524,
			"target":34962
		},
		{
			"buffer":0,
			"byteLength":46648,
			"byteOffset":564172,
			"target":34962
		},
		{
			"buffer":0,
			"byteLength":36144,
			"byteOffset":610820,
			"target":34963
		},
		{
			"buffer":0,
			"byteLength":17280,
			"byteOffset":646964,
			"target":34962
		},
		{
			"buffer":0,
			"byteLength":17280,
			"byteOffset":664244,
			"target":34962
		},
		{
			"buffer":0,
			"byteLength":11520,
			"byteOffset":681524,
			"target":34962
		},
		{
			"buffer":0,
			"byteLength":11520,
			"byteOffset":693044,
			"target":34962
		},
		{
			"buffer":0,
			"byteLength":4320,
			"byteOffset":704564,
			"target":34963
		},
		{
			"buffer":0,
			"byteLength":53532,
			"byteOffset":708884,
			"target":34962
		},
		{
			"buffer":0,
			"byteLength":53532,
			"byteOffset":762416,
			"target":34962
		},
		{
			"buffer":0,
			"byteLength":35688,
			"byteOffset":815948,
			"target":34962
		},
		{
			"buffer":0,
			"byteLength":35688,
			"byteOffset":851636,
			"target":34962
		},
		{
			"buffer":0,
			"byteLength":18600,
			"byteOffset":887324,
			"target":34963
		},
		{
			"buffer":0,
			"byteLength":20736,
			"byteOffset":905924,
			"target":34962
		},
		{
			"buffer":0,
			"byteLength":20736,
			"byteOffset":926660,
			"target":34962
		},
		{
			"buffer":0,
			"byteLength":13824,
			"byteOffset":947396,
			"target":34962
		},
		{
			"buffer":0,
			"byteLength":13824,
			"byteOffset":961220,
			"target":34962
		},
		{
			"buffer":0,
			"byteLength":5184,
			"byteOffset":975044,
			"target":34963
		},
		{
			"buffer":0,
			"byteLength":14976,
			"byteOffset":980228,
			"target":34962
		},
		{
			"buffer":0,
			"byteLength":14976,
			"byteOffset":995204,
			"target":34962
		},
		{
			"buffer":0,
			"byteLength":9984,
			"byteOffset":1010180,
			"target":34962
		},
		{
			"buffer":0,
			"byteLength":9984,
			"byteOffset":1020164,
			"target":34962
		},
		{
			"buffer":0,
			"byteLength":3744,
			"byteOffset":1030148,
			"target":34963
		},
		{
			"buffer":0,
			"byteLength":17856,
			"byteOffset":1033892,
			"target":34962
		},
		{
			"buffer":0,
			"byteLength":17856,
			"byteOffset":1051748,
			"target":34962
		},
		{
			"buffer":0,
			"byteLength":11904,
			"byteOffset":1069604,
			"target":34962
		},
		{
			"buffer":0,
			"byteLength":11904,
			"byteOffset":1081508,
			"target":34962
		},
		{
			"buffer":0,
			"byteLength":4464,
			"byteOffset":1093412,
			"target":34963
		},
		{
			"buffer":0,
			"byteLength":49992,
			"byteOffset":1097876,
			"target":34962
		},
		{
			"buffer":0,
			"byteLength":49992,
			"byteOffset":1147868,
			"target":34962
		},
		{
			"buffer":0,
			"byteLength":33328,
			"byteOffset":1197860,
			"target":34962
		},
		{
			"buffer":0,
			"byteLength":33328,
			"byteOffset":1231188,
			"target":34962
		},
		{
			"buffer":0,
			"byteLength":16776,
			"byteOffset":1264516,
			"target":34963
		},
		{
			"buffer":0,
			"byteLength":10368,
			"byteOffset":1281292,
			"target":34962
		},
		{
			"buffer":0,
			"byteLength":10368,
			"byteOffset":1291660,
			"target":34962
		},
		{
			"buffer":0,
			"byteLength":6912,
			"byteOffset":1302028,
			"target":34962
		},
		{
			"buffer":0,
			"byteLength":6912,
			"byteOffset":1308940,
			"target":34962
		},
		{
			"buffer":0,
			"byteLength":2592,
			"byteOffset":1315852,
			"target":34963
		},
		{
			"buffer":0,
			"byteLength":1452,
			"byteOffset":1318444,
			"target":34962
		},
		{
			"buffer":0,
			"byteLength":1452,
			"byteOffset":1319896,
			"target":34962
		},
		{
			"buffer":0,
			"byteLength":968,
			"byteOffset":1321348,
			"target":34962
		},
		{
			"buffer":0,
			"byteLength":968,
			"byteOffset":1322316,
			"target":34962
		},
		{
			"buffer":0,
			"byteLength":504,
			"byteOffset":1323284,
			"target":34963
		},
		{
			"buffer":0,
			"byteLength":19764,
			"byteOffset":1323788,
			"target":34962
		},
		{
			"buffer":0,
			"byteLength":19764,
			"byteOffset":1343552,
			"target":34962
		},
		{
			"buffer":0,
			"byteLength":13176,
			"byteOffset":1363316,
			"target":34962
		},
		{
			"buffer":0,
			"byteLength":13176,
			"byteOffset":1376492,
			"target":34962
		},
		{
			"buffer":0,
			"byteLength":8880,
			"byteOffset":1389668,
			"target":34963
		},
		{
			"buffer":0,
			"byteLength":864,
			"byteOffset":1398548,
			"target":34962
		},
		{
			"buffer":0,
			"byteLength":864,
			"byteOffset":1399412,
			"target":34962
		},
		{
			"buffer":0,
			"byteLength":576,
			"byteOffset":1400276,
			"target":34962
		},
		{
			"buffer":0,
			"byteLength":576,
			"byteOffset":1400852,
			"target":34962
		},
		{
			"buffer":0,
			"byteLength":216,
			"byteOffset":1401428,
			"target":34963
		},
		{
			"buffer":0,
			"byteLength":32868,
			"byteOffset":1401644,
			"target":34962
		},
		{
			"buffer":0,
			"byteLength":32868,
			"byteOffset":1434512,
			"target":34962
		},
		{
			"buffer":0,
			"byteLength":21912,
			"byteOffset":1467380,
			"target":34962
		},
		{
			"buffer":0,
			"byteLength":21912,
			"byteOffset":1489292,
			"target":34962
		},
		{
			"buffer":0,
			"byteLength":12912,
			"byteOffset":1511204,
			"target":34963
		},
		{
			"buffer":0,
			"byteLength":108720,
			"byteOffset":1524116,
			"target":34962
		},
		{
			"buffer":0,
			"byteLength":108720,
			"byteOffset":1632836,
			"target":34962
		},
		{
			"buffer":0,
			"byteLength":72480,
			"byteOffset":1741556,
			"target":34962
		},
		{
			"buffer":0,
			"byteLength":72480,
			"byteOffset":1814036,
			"target":34962
		},
		{
			"buffer":0,
			"byteLength":28800,
			"byteOffset":1886516,
			"target":34963
		},
		{
			"buffer":0,
			"byteLength":312,
			"byteOffset":1915316,
			"target":34962
		},
		{
			"buffer":0,
			"byteLength":312,
			"byteOffset":1915628,
			"target":34962
		},
		{
			"buffer":0,
			"byteLength":208,
			"byteOffset":1915940,
			"target":34962
		},
		{
			"buffer":0,
			"byteLength":144,
			"byteOffset":1916148,
			"target":34963
		},
		{
			"buffer":0,
			"byteLength":1800,
			"byteOffset":1916292,
			"target":34962
		},
		{
			"buffer":0,
			"byteLength":1800,
			"byteOffset":1918092,
			"target":34962
		},
		{
			"buffer":0,
			"byteLength":1200,
			"byteOffset":1919892,
			"target":34962
		},
		{
			"buffer":0,
			"byteLength":1512,
			"byteOffset":1921092,
			"target":34963
		},
		{
			"buffer":0,
			"byteLength":1800,
			"byteOffset":1922604,
			"target":34962
		},
		{
			"buffer":0,
			"byteLength":1800,
			"byteOffset":1924404,
			"target":34962
		},
		{
			"buffer":0,
			"byteLength":1200,
			"byteOffset":1926204,
			"target":34962
		},
		{
			"buffer":0,
			"byteLength":1800,
			"byteOffset":1927404,
			"target":34962
		},
		{
			"buffer":0,
			"byteLength":1800,
			"byteOffset":1929204,
			"target":34962
		},
		{
			"buffer":0,
			"byteLength":1200,
			"byteOffset":1931004,
			"target":34962
		},
		{
			"buffer":0,
			"byteLength":1800,
			"byteOffset":1932204,
			"target":34962
		},
		{
			"buffer":0,
			"byteLength":1800,
			"byteOffset":1934004,
			"target":34962
		},
		{
			"buffer":0,
			"byteLength":1200,
			"byteOffset":1935804,
			"target":34962
		},
		{
			"buffer":0,
			"byteLength":1800,
			"byteOffset":1937004,
			"target":34962
		},
		{
			"buffer":0,
			"byteLength":1800,
			"byteOffset":1938804,
			"target":34962
		},
		{
			"buffer":0,
			"byteLength":1200,
			"byteOffset":1940604,
			"target":34962
		},
		{
			"buffer":0,
			"byteLength":1800,
			"byteOffset":1941804,
			"target":34962
		},
		{
			"buffer":0,
			"byteLength":1800,
			"byteOffset":1943604,
			"target":34962
		},
		{
			"buffer":0,
			"byteLength":1200,
			"byteOffset":1945404,
			"target":34962
		},
		{
			"buffer":0,
			"byteLength":1800,
			"byteOffset":1946604,
			"target":34962
		},
		{
			"buffer":0,
			"byteLength":1800,
			"byteOffset":1948404,
			"target":34962
		},
		{
			"buffer":0,
			"byteLength":1200,
			"byteOffset":1950204,
			"target":34962
		},
		{
			"buffer":0,
			"byteLength":1800,
			"byteOffset":1951404,
			"target":34962
		},
		{
			"buffer":0,
			"byteLength":1800,
			"byteOffset":1953204,
			"target":34962
		},
		{
			"buffer":0,
			"byteLength":1200,
			"byteOffset":1955004,
			"target":34962
		},
		{
			"buffer":0,
			"byteLength":1800,
			"byteOffset":1956204,
			"target":34962
		},
		{
			"buffer":0,
			"byteLength":1800,
			"byteOffset":1958004,
			"target":34962
		},
		{
			"buffer":0,
			"byteLength":1200,
			"byteOffset":1959804,
			"target":34962
		},
		{
			"buffer":0,
			"byteLength":1800,
			"byteOffset":1961004,
			"target":34962
		},
		{
			"buffer":0,
			"byteLength":1800,
			"byteOffset":1962804,
			"target":34962
		},
		{
			"buffer":0,
			"byteLength":1200,
			"byteOffset":1964604,
			"target":34962
		},
		{
			"buffer":0,
			"byteLength":1800,
			"byteOffset":1965804,
			"target":34962
		},
		{
			"buffer":0,
			"byteLength":1800,
			"byteOffset":1967604,
			"target":34962
		},
		{
			"buffer":0,
			"byteLength":1200,
			"byteOffset":1969404,
			"target":34962
		},
		{
			"buffer":0,
			"byteLength":768,
			"byteOffset":1970604,
			"target":34962
		},
		{
			"buffer":0,
			"byteLength":768,
			"byteOffset":1971372,
			"target":34962
		},
		{
			"buffer":0,
			"byteLength":512,
			"byteOffset":1972140,
			"target":34962
		},
		{
			"buffer":0,
			"byteLength":588,
			"byteOffset":1972652,
			"target":34963
		},
		{
			"buffer":0,
			"byteLength":768,
			"byteOffset":1973240,
			"target":34962
		},
		{
			"buffer":0,
			"byteLength":768,
			"byteOffset":1974008,
			"target":34962
		},
		{
			"buffer":0,
			"byteLength":512,
			"byteOffset":1974776,
			"target":34962
		},
		{
			"buffer":0,
			"byteLength":972,
			"byteOffset":1975288,
			"target":34962
		},
		{
			"buffer":0,
			"byteLength":972,
			"byteOffset":1976260,
			"target":34962
		},
		{
			"buffer":0,
			"byteLength":648,
			"byteOffset":1977232,
			"target":34962
		},
		{
			"buffer":0,
			"byteLength":768,
			"byteOffset":1977880,
			"target":34963
		},
		{
			"buffer":0,
			"byteLength":1800,
			"byteOffset":1978648,
			"target":34962
		},
		{
			"buffer":0,
			"byteLength":1800,
			"byteOffset":1980448,
			"target":34962
		},
		{
			"buffer":0,
			"byteLength":1200,
			"byteOffset":1982248,
			"target":34962
		},
		{
			"buffer":0,
			"byteLength":768,
			"byteOffset":1983448,
			"target":34962
		},
		{
			"buffer":0,
			"byteLength":768,
			"byteOffset":1984216,
			"target":34962
		},
		{
			"buffer":0,
			"byteLength":512,
			"byteOffset":1984984,
			"target":34962
		},
		{
			"buffer":0,
			"byteLength":768,
			"byteOffset":1985496,
			"target":34962
		},
		{
			"buffer":0,
			"byteLength":768,
			"byteOffset":1986264,
			"target":34962
		},
		{
			"buffer":0,
			"byteLength":512,
			"byteOffset":1987032,
			"target":34962
		}
	],
	"samplers":[
		{
			"magFilter":9729,
			"minFilter":9987
		}
	],
	"buffers":[
		{
			"byteLength":1987544,
			"uri":"battleship.bin"
		}
	]
}
