{
	"asset":{
		"generator":"Khronos glTF Blender I/O v5.2.40",
		"version":"2.0"
	},
	"extensionsUsed":[
		"KHR_materials_emissive_strength"
	],
	"scene":0,
	"scenes":[
		{
			"name":"Scene",
			"nodes":[
				0,
				1,
				2,
				3,
				4,
				5,
				6,
				7,
				8,
				9,
				10,
				11,
				12,
				13,
				14,
				15,
				16,
				17,
				18,
				19,
				20,
				21,
				22,
				23,
				24,
				25,
				26,
				27,
				28,
				29,
				30,
				31,
				32,
				33,
				34,
				35,
				36
			]
		}
	],
	"nodes":[
		{
			"mesh":0,
			"name":"Flag",
			"translation":[
				0,
				12.531499862670898,
				19.787059783935547
			]
		},
		{
			"mesh":1,
			"name":"Hull"
		},
		{
			"name":"Muzzle_P_00",
			"translation":[
				-4.605085372924805,
				1.5163341760635376,
				-10.178352355957031
			]
		},
		{
			"name":"Muzzle_P_01",
			"translation":[
				-5.293019771575928,
				1.468449354171753,
				-7.2733564376831055
			]
		},
		{
			"name":"Muzzle_P_02",
			"translation":[
				-5.457144260406494,
				1.401357889175415,
				-4.410985946655273
			]
		},
		{
			"name":"Muzzle_P_03",
			"translation":[
				-5.457091331481934,
				1.3882935047149658,
				-1.6929305791854858
			]
		},
		{
			"name":"Muzzle_P_04",
			"translation":[
				-5.457354545593262,
				1.4536539316177368,
				1.0263612270355225
			]
		},
		{
			"name":"Muzzle_P_05",
			"translation":[
				-5.457822799682617,
				1.576620101928711,
				3.746333122253418
			]
		},
		{
			"name":"Muzzle_P_06",
			"translation":[
				-5.4584269523620605,
				1.7509230375289917,
				6.466757297515869
			]
		},
		{
			"name":"Muzzle_P_07",
			"translation":[
				-5.124609470367432,
				1.9367001056671143,
				9.408258438110352
			]
		},
		{
			"name":"Muzzle_P_08",
			"translation":[
				-4.707030773162842,
				3.4101505279541016,
				-5.28000020980835
			]
		},
		{
			"name":"Muzzle_P_09",
			"translation":[
				-4.712159156799316,
				3.3568649291992188,
				-2.4749999046325684
			]
		},
		{
			"name":"Muzzle_P_10",
			"translation":[
				-4.712159156799316,
				3.422820568084717,
				0.33000001311302185
			]
		},
		{
			"name":"Muzzle_P_11",
			"translation":[
				-4.712159156799316,
				3.5760228633880615,
				3.134999990463257
			]
		},
		{
			"name":"Muzzle_S_00",
			"translation":[
				4.605085372924805,
				1.5163341760635376,
				-10.178352355957031
			]
		},
		{
			"name":"Muzzle_S_01",
			"translation":[
				5.293019771575928,
				1.468449354171753,
				-7.2733564376831055
			]
		},
		{
			"name":"Muzzle_S_02",
			"translation":[
				5.457144260406494,
				1.401357889175415,
				-4.410985946655273
			]
		},
		{
			"name":"Muzzle_S_03",
			"translation":[
				5.457091331481934,
				1.3882935047149658,
				-1.6929305791854858
			]
		},
		{
			"name":"Muzzle_S_04",
			"translation":[
				5.457354545593262,
				1.4536539316177368,
				1.0263612270355225
			]
		},
		{
			"name":"Muzzle_S_05",
			"translation":[
				5.457822799682617,
				1.576620101928711,
				3.746333122253418
			]
		},
		{
			"name":"Muzzle_S_06",
			"translation":[
				5.4584269523620605,
				1.7509230375289917,
				6.466757297515869
			]
		},
		{
			"name":"Muzzle_S_07",
			"translation":[
				5.124609470367432,
				1.9367001056671143,
				9.408258438110352
			]
		},
		{
			"name":"Muzzle_S_08",
			"translation":[
				4.707030773162842,
				3.4101505279541016,
				-5.28000020980835
			]
		},
		{
			"name":"Muzzle_S_09",
			"translation":[
				4.712159156799316,
				3.3568649291992188,
				-2.4749999046325684
			]
		},
		{
			"name":"Muzzle_S_10",
			"translation":[
				4.712159156799316,
				3.422820568084717,
				0.33000001311302185
			]
		},
		{
			"name":"Muzzle_S_11",
			"translation":[
				4.712159156799316,
				3.5760228633880615,
				3.134999990463257
			]
		},
		{
			"mesh":2,
			"name":"Pennant",
			"translation":[
				0,
				34.12367630004883,
				3.8243634700775146
			]
		},
		{
			"mesh":3,
			"name":"Sail_0_0",
			"rotation":[
				0.026176918298006058,
				0,
				0,
				0.9996573328971863
			],
			"translation":[
				0,
				13.867925643920898,
				-8.590167045593262
			]
		},
		{
			"mesh":4,
			"name":"Sail_0_1_E",
			"rotation":[
				0.026176918298006058,
				0,
				0,
				0.9996573328971863
			],
			"translation":[
				0,
				21.677942276000977,
				-8.180861473083496
			]
		},
		{
			"mesh":5,
			"name":"Sail_0_2",
			"rotation":[
				0.026176918298006058,
				0,
				0,
				0.9996573328971863
			],
			"translation":[
				0,
				27.256526947021484,
				-7.888500690460205
			]
		},
		{
			"mesh":6,
			"name":"Sail_1_0",
			"rotation":[
				0.026176918298006058,
				0,
				0,
				0.9996573328971863
			],
			"translation":[
				0,
				14.840704917907715,
				3.291245937347412
			]
		},
		{
			"mesh":7,
			"name":"Sail_1_1_E",
			"rotation":[
				0.026176918298006058,
				0,
				0,
				0.9996573328971863
			],
			"translation":[
				0,
				23.32985496520996,
				3.7361435890197754
			]
		},
		{
			"mesh":8,
			"name":"Sail_1_2",
			"rotation":[
				0.026176918298006058,
				0,
				0,
				0.9996573328971863
			],
			"translation":[
				0,
				29.39353370666504,
				4.053927421569824
			]
		},
		{
			"mesh":9,
			"name":"Sail_jib_0",
			"rotation":[
				-0.3620249629020691,
				0.6566634178161621,
				-0.262284517288208,
				0.6074026226997375
			],
			"translation":[
				0,
				21.12015724182129,
				-11.344966888427734
			]
		},
		{
			"mesh":10,
			"name":"Sail_jib_1",
			"rotation":[
				-0.3635081946849823,
				0.6537389159202576,
				-0.26949119567871094,
				0.6065160632133484
			],
			"translation":[
				0,
				23.237106323242188,
				-13.905254364013672
			]
		},
		{
			"mesh":11,
			"name":"Sail_spanker",
			"rotation":[
				-0.15551424026489258,
				-0.6827086806297302,
				0.1841433197259903,
				0.6897937655448914
			],
			"translation":[
				0,
				18.067441940307617,
				3.6499998569488525
			]
		},
		{
			"mesh":12,
			"name":"Sail_stay_1",
			"rotation":[
				-0.25520429015159607,
				0.6925535202026367,
				-0.14272212982177734,
				0.6594473719596863
			],
			"translation":[
				0,
				26.89525604248047,
				2.9600839614868164
			]
		}
	],
	"materials":[
		{
			"doubleSided":true,
			"name":"brig_flag",
			"pbrMetallicRoughness":{
				"metallicFactor":0,
				"roughnessFactor":0.8999999761581421
			}
		},
		{
			"doubleSided":true,
			"name":"brig_hull",
			"normalTexture":{
				"index":0
			},
			"pbrMetallicRoughness":{
				"baseColorTexture":{
					"index":1
				},
				"metallicFactor":0,
				"roughnessFactor":0.7200000286102295
			}
		},
		{
			"doubleSided":true,
			"name":"brig_deck",
			"normalTexture":{
				"index":2
			},
			"pbrMetallicRoughness":{
				"baseColorTexture":{
					"index":3
				},
				"metallicFactor":0,
				"roughnessFactor":0.8500000238418579
			}
		},
		{
			"doubleSided":true,
			"name":"brig_upper",
			"normalTexture":{
				"index":4
			},
			"pbrMetallicRoughness":{
				"baseColorTexture":{
					"index":5
				},
				"metallicFactor":0,
				"roughnessFactor":0.75
			}
		},
		{
			"doubleSided":true,
			"name":"brig_wale",
			"pbrMetallicRoughness":{
				"baseColorFactor":[
					0.0038832267746329308,
					0.003004917176440358,
					0.00218539428897202,
					1
				],
				"metallicFactor":0,
				"roughnessFactor":0.699999988079071
			}
		},
		{
			"doubleSided":true,
			"name":"brig_dark",
			"pbrMetallicRoughness":{
				"baseColorFactor":[
					0.0036765073891729116,
					0.002428215928375721,
					0.0018211619462817907,
					1
				],
				"metallicFactor":0,
				"roughnessFactor":0.949999988079071
			}
		},
		{
			"doubleSided":true,
			"name":"brig_trim",
			"pbrMetallicRoughness":{
				"baseColorFactor":[
					0.3593394160270691,
					0.2187901735305786,
					0.0487823523581028,
					1
				],
				"metallicFactor":0.4000000059604645,
				"roughnessFactor":0.44999998807907104
			}
		},
		{
			"doubleSided":true,
			"name":"brig_rail",
			"pbrMetallicRoughness":{
				"baseColorFactor":[
					0.0423114113509655,
					0.021219009533524513,
					0.008568125776946545,
					1
				],
				"metallicFactor":0,
				"roughnessFactor":0.75
			}
		},
		{
			"doubleSided":true,
			"name":"brig_lid",
			"pbrMetallicRoughness":{
				"baseColorFactor":[
					0.0031571893487125635,
					0.002671037567779422,
					0.0019425726495683193,
					1
				],
				"metallicFactor":0,
				"roughnessFactor":0.699999988079071
			}
		},
		{
			"doubleSided":true,
			"name":"brig_portred",
			"pbrMetallicRoughness":{
				"baseColorFactor":[
					0.07618538290262222,
					0.00802319310605526,
					0.005181516520678997,
					1
				],
				"metallicFactor":0,
				"roughnessFactor":0.8500000238418579
			}
		},
		{
			"doubleSided":true,
			"name":"brig_iron",
			"pbrMetallicRoughness":{
				"baseColorFactor":[
					0.00802319310605526,
					0.007499032188206911,
					0.006995410192757845,
					1
				],
				"metallicFactor":0.550000011920929,
				"roughnessFactor":0.5
			}
		},
		{
			"doubleSided":true,
			"emissiveFactor":[
				0.11999999731779099,
				0.06624137015101228,
				0.01729541620696895
			],
			"name":"brig_glass",
			"pbrMetallicRoughness":{
				"baseColorFactor":[
					0.005181516520678997,
					0.00802319310605526,
					0.011612244881689548,
					1
				],
				"metallicFactor":0.30000001192092896,
				"roughnessFactor":0.07999999821186066
			}
		},
		{
			"doubleSided":true,
			"emissiveFactor":[
				1,
				0.4564110338687897,
				0.06847816705703735
			],
			"extensions":{
				"KHR_materials_emissive_strength":{
					"emissiveStrength":5
				}
			},
			"name":"brig_lantern",
			"pbrMetallicRoughness":{
				"baseColorFactor":[
					1,
					0.7605245113372803,
					0.35153260827064514,
					1
				],
				"metallicFactor":0,
				"roughnessFactor":0.30000001192092896
			}
		},
		{
			"doubleSided":true,
			"name":"brig_spar",
			"pbrMetallicRoughness":{
				"baseColorFactor":[
					0.04817182570695877,
					0.024157632142305374,
					0.01032982300966978,
					1
				],
				"metallicFactor":0,
				"roughnessFactor":0.699999988079071
			}
		},
		{
			"doubleSided":true,
			"name":"brig_grating",
			"pbrMetallicRoughness":{
				"baseColorFactor":[
					0.06847816705703735,
					0.03560131415724754,
					0.014443843625485897,
					1
				],
				"metallicFactor":0,
				"roughnessFactor":0.8999999761581421
			}
		},
		{
			"doubleSided":true,
			"name":"brig_spar_black",
			"pbrMetallicRoughness":{
				"baseColorFactor":[
					0.006995410192757845,
					0.005181516520678997,
					0.0036765073891729116,
					1
				],
				"metallicFactor":0,
				"roughnessFactor":0.699999988079071
			}
		},
		{
			"doubleSided":true,
			"name":"brig_rope",
			"pbrMetallicRoughness":{
				"baseColorFactor":[
					0.008568125776946545,
					0.006048833020031452,
					0.004024717025458813,
					1
				],
				"metallicFactor":0,
				"roughnessFactor":0.8999999761581421
			}
		},
		{
			"doubleSided":true,
			"name":"brig_sail",
			"pbrMetallicRoughness":{
				"baseColorTexture":{
					"index":6
				},
				"metallicFactor":0,
				"roughnessFactor":0.949999988079071
			}
		}
	],
	"meshes":[
		{
			"name":"Flag",
			"primitives":[
				{
					"attributes":{
						"POSITION":0,
						"NORMAL":1,
						"TEXCOORD_0":2
					},
					"indices":3,
					"material":0
				}
			]
		},
		{
			"name":"Hull",
			"primitives":[
				{
					"attributes":{
						"POSITION":4,
						"NORMAL":5,
						"TEXCOORD_0":6,
						"COLOR_0":7
					},
					"indices":8,
					"material":1
				},
				{
					"attributes":{
						"POSITION":9,
						"NORMAL":10,
						"TEXCOORD_0":11,
						"COLOR_0":12
					},
					"indices":13,
					"material":2
				},
				{
					"attributes":{
						"POSITION":14,
						"NORMAL":15,
						"TEXCOORD_0":16,
						"COLOR_0":17
					},
					"indices":18,
					"material":3
				},
				{
					"attributes":{
						"POSITION":19,
						"NORMAL":20,
						"TEXCOORD_0":21,
						"COLOR_0":22
					},
					"indices":23,
					"material":4
				},
				{
					"attributes":{
						"POSITION":24,
						"NORMAL":25,
						"TEXCOORD_0":26,
						"COLOR_0":27
					},
					"indices":28,
					"material":5
				},
				{
					"attributes":{
						"POSITION":29,
						"NORMAL":30,
						"TEXCOORD_0":31,
						"COLOR_0":32
					},
					"indices":33,
					"material":6
				},
				{
					"attributes":{
						"POSITION":34,
						"NORMAL":35,
						"TEXCOORD_0":36,
						"COLOR_0":37
					},
					"indices":38,
					"material":7
				},
				{
					"attributes":{
						"POSITION":39,
						"NORMAL":40,
						"TEXCOORD_0":41,
						"COLOR_0":42
					},
					"indices":43,
					"material":8
				},
				{
					"attributes":{
						"POSITION":44,
						"NORMAL":45,
						"TEXCOORD_0":46,
						"COLOR_0":47
					},
					"indices":48,
					"material":9
				},
				{
					"attributes":{
						"POSITION":49,
						"NORMAL":50,
						"TEXCOORD_0":51,
						"COLOR_0":52
					},
					"indices":53,
					"material":10
				},
				{
					"attributes":{
						"POSITION":54,
						"NORMAL":55,
						"TEXCOORD_0":56,
						"COLOR_0":57
					},
					"indices":58,
					"material":11
				},
				{
					"attributes":{
						"POSITION":59,
						"NORMAL":60,
						"TEXCOORD_0":61,
						"COLOR_0":62
					},
					"indices":63,
					"material":12
				},
				{
					"attributes":{
						"POSITION":64,
						"NORMAL":65,
						"TEXCOORD_0":66,
						"COLOR_0":67
					},
					"indices":68,
					"material":13
				},
				{
					"attributes":{
						"POSITION":69,
						"NORMAL":70,
						"TEXCOORD_0":71,
						"COLOR_0":72
					},
					"indices":73,
					"material":14
				},
				{
					"attributes":{
						"POSITION":74,
						"NORMAL":75,
						"TEXCOORD_0":76,
						"COLOR_0":77
					},
					"indices":78,
					"material":15
				},
				{
					"attributes":{
						"POSITION":79,
						"NORMAL":80,
						"TEXCOORD_0":81,
						"COLOR_0":82
					},
					"indices":83,
					"material":16
				}
			]
		},
		{
			"name":"Pennant",
			"primitives":[
				{
					"attributes":{
						"POSITION":84,
						"NORMAL":85,
						"TEXCOORD_0":86
					},
					"indices":87,
					"material":0
				}
			]
		},
		{
			"name":"Sail_0_0",
			"primitives":[
				{
					"attributes":{
						"POSITION":88,
						"NORMAL":89,
						"TEXCOORD_0":90
					},
					"indices":91,
					"material":17
				}
			]
		},
		{
			"name":"Sail_0_1_E",
			"primitives":[
				{
					"attributes":{
						"POSITION":92,
						"NORMAL":93,
						"TEXCOORD_0":94
					},
					"indices":91,
					"material":17
				}
			]
		},
		{
			"name":"Sail_0_2",
			"primitives":[
				{
					"attributes":{
						"POSITION":95,
						"NORMAL":96,
						"TEXCOORD_0":97
					},
					"indices":91,
					"material":17
				}
			]
		},
		{
			"name":"Sail_1_0",
			"primitives":[
				{
					"attributes":{
						"POSITION":98,
						"NORMAL":99,
						"TEXCOORD_0":100
					},
					"indices":91,
					"material":17
				}
			]
		},
		{
			"name":"Sail_1_1_E",
			"primitives":[
				{
					"attributes":{
						"POSITION":101,
						"NORMAL":102,
						"TEXCOORD_0":103
					},
					"indices":91,
					"material":17
				}
			]
		},
		{
			"name":"Sail_1_2",
			"primitives":[
				{
					"attributes":{
						"POSITION":104,
						"NORMAL":105,
						"TEXCOORD_0":106
					},
					"indices":91,
					"material":17
				}
			]
		},
		{
			"name":"Sail_jib_0",
			"primitives":[
				{
					"attributes":{
						"POSITION":107,
						"NORMAL":108,
						"TEXCOORD_0":109
					},
					"indices":110,
					"material":17
				}
			]
		},
		{
			"name":"Sail_jib_1",
			"primitives":[
				{
					"attributes":{
						"POSITION":111,
						"NORMAL":112,
						"TEXCOORD_0":113
					},
					"indices":114,
					"material":17
				}
			]
		},
		{
			"name":"Sail_spanker",
			"primitives":[
				{
					"attributes":{
						"POSITION":115,
						"NORMAL":116,
						"TEXCOORD_0":117
					},
					"indices":118,
					"material":17
				}
			]
		},
		{
			"name":"Sail_stay_1",
			"primitives":[
				{
					"attributes":{
						"POSITION":119,
						"NORMAL":120,
						"TEXCOORD_0":121
					},
					"indices":114,
					"material":17
				}
			]
		}
	],
	"textures":[
		{
			"sampler":0,
			"source":0
		},
		{
			"sampler":0,
			"source":1
		},
		{
			"sampler":0,
			"source":2
		},
		{
			"sampler":0,
			"source":3
		},
		{
			"sampler":0,
			"source":4
		},
		{
			"sampler":0,
			"source":5
		},
		{
			"sampler":0,
			"source":6
		}
	],
	"images":[
		{
			"mimeType":"image/jpeg",
			"name":"brig_hull_n",
			"uri":"textures/brig_hull_n.jpg"
		},
		{
			"mimeType":"image/jpeg",
			"name":"brig_hull",
			"uri":"textures/brig_hull.jpg"
		},
		{
			"mimeType":"image/jpeg",
			"name":"deck_n",
			"uri":"textures/deck_n.jpg"
		},
		{
			"mimeType":"image/jpeg",
			"name":"deck",
			"uri":"textures/deck.jpg"
		},
		{
			"mimeType":"image/jpeg",
			"name":"brig_upper_n",
			"uri":"textures/brig_upper_n.jpg"
		},
		{
			"mimeType":"image/jpeg",
			"name":"brig_upper",
			"uri":"textures/brig_upper.jpg"
		},
		{
			"mimeType":"image/jpeg",
			"name":"brig_sail",
			"uri":"textures/brig_sail.jpg"
		}
	],
	"accessors":[
		{
			"bufferView":0,
			"componentType":5126,
			"count":45,
			"max":[
				0.06440079212188721,
				0,
				4.619999885559082
			],
			"min":[
				-0.17260636389255524,
				-2.9700000286102295,
				0
			],
			"type":"VEC3"
		},
		{
			"bufferView":1,
			"componentType":5126,
			"count":45,
			"type":"VEC3"
		},
		{
			"bufferView":2,
			"componentType":5126,
			"count":45,
			"type":"VEC2"
		},
		{
			"bufferView":3,
			"componentType":5123,
			"count":192,
			"type":"SCALAR"
		},
		{
			"bufferView":4,
			"componentType":5126,
			"count":5858,
			"max":[
				4.521450519561768,
				4.553999900817871,
				17.985000610351562
			],
			"min":[
				-4.521450519561768,
				-3.225749969482422,
				-17.655000686645508
			],
			"type":"VEC3"
		},
		{
			"bufferView":5,
			"componentType":5126,
			"count":5858,
			"type":"VEC3"
		},
		{
			"bufferView":6,
			"componentType":5126,
			"count":5858,
			"type":"VEC2"
		},
		{
			"bufferView":7,
			"componentType":5123,
			"count":5858,
			"normalized":true,
			"type":"VEC4"
		},
		{
			"bufferView":8,
			"componentType":5123,
			"count":22464,
			"type":"SCALAR"
		},
		{
			"bufferView":9,
			"componentType":5126,
			"count":2422,
			"max":[
				4.114109992980957,
				6.451499938964844,
				18.38205909729004
			],
			"min":[
				-4.114109992980957,
				2.6571385860443115,
				-17.655000686645508
			],
			"type":"VEC3"
		},
		{
			"bufferView":10,
			"componentType":5126,
			"count":2422,
			"type":"VEC3"
		},
		{
			"bufferView":11,
			"componentType":5126,
			"count":2422,
			"type":"VEC2"
		},
		{
			"bufferView":12,
			"componentType":5123,
			"count":2422,
			"normalized":true,
			"type":"VEC4"
		},
		{
			"bufferView":13,
			"componentType":5123,
			"count":4608,
			"type":"SCALAR"
		},
		{
			"bufferView":14,
			"componentType":5126,
			"count":1007,
			"max":[
				4.114109992980957,
				7.351500034332275,
				18.57038688659668
			],
			"min":[
				-4.114109992980957,
				-2.542649984359741,
				-17.655000686645508
			],
			"type":"VEC3"
		},
		{
			"bufferView":15,
			"componentType":5126,
			"count":1007,
			"type":"VEC3"
		},
		{
			"bufferView":16,
			"componentType":5126,
			"count":1007,
			"type":"VEC2"
		},
		{
			"bufferView":17,
			"componentType":5123,
			"count":1007,
			"normalized":true,
			"type":"VEC4"
		},
		{
			"bufferView":18,
			"componentType":5123,
			"count":2592,
			"type":"SCALAR"
		},
		{
			"bufferView":19,
			"componentType":5126,
			"count":4623,
			"max":[
				5.094015121459961,
				6.583677768707275,
				18.394746780395508
			],
			"min":[
				-5.094015121459961,
				-3.793750047683716,
				-18.186939239501953
			],
			"type":"VEC3"
		},
		{
			"bufferView":20,
			"componentType":5126,
			"count":4623,
			"type":"VEC3"
		},
		{
			"bufferView":21,
			"componentType":5126,
			"count":4623,
			"type":"VEC2"
		},
		{
			"bufferView":22,
			"componentType":5123,
			"count":4623,
			"normalized":true,
			"type":"VEC4"
		},
		{
			"bufferView":23,
			"componentType":5123,
			"count":14064,
			"type":"SCALAR"
		},
		{
			"bufferView":24,
			"componentType":5126,
			"count":504,
			"max":[
				4.59596586227417,
				4.591184139251709,
				9.572249412536621
			],
			"min":[
				-4.59596586227417,
				0.9251137971878052,
				-11.021859169006348
			],
			"type":"VEC3"
		},
		{
			"bufferView":25,
			"componentType":5126,
			"count":504,
			"type":"VEC3"
		},
		{
			"bufferView":26,
			"componentType":5126,
			"count":504,
			"type":"VEC2"
		},
		{
			"bufferView":27,
			"componentType":5123,
			"count":504,
			"normalized":true,
			"type":"VEC4"
		},
		{
			"bufferView":28,
			"componentType":5123,
			"count":756,
			"type":"SCALAR"
		},
		{
			"bufferView":29,
			"componentType":5126,
			"count":2199,
			"max":[
				3.7626988887786865,
				34.45350646972656,
				18.822059631347656
			],
			"min":[
				-3.7626988887786865,
				0.7703766226768494,
				-11.01685905456543
			],
			"type":"VEC3"
		},
		{
			"bufferView":30,
			"componentType":5126,
			"count":2199,
			"type":"VEC3"
		},
		{
			"bufferView":31,
			"componentType":5126,
			"count":2199,
			"type":"VEC2"
		},
		{
			"bufferView":32,
			"componentType":5123,
			"count":2199,
			"normalized":true,
			"type":"VEC4"
		},
		{
			"bufferView":33,
			"componentType":5123,
			"count":4440,
			"type":"SCALAR"
		},
		{
			"bufferView":34,
			"componentType":5126,
			"count":1679,
			"max":[
				3.9499101638793945,
				7.371500015258789,
				18.452058792114258
			],
			"min":[
				-3.9499101638793945,
				4.401910781860352,
				-17.008100509643555
			],
			"type":"VEC3"
		},
		{
			"bufferView":35,
			"componentType":5126,
			"count":1679,
			"type":"VEC3"
		},
		{
			"bufferView":36,
			"componentType":5126,
			"count":1679,
			"type":"VEC2"
		},
		{
			"bufferView":37,
			"componentType":5123,
			"count":1679,
			"normalized":true,
			"type":"VEC4"
		},
		{
			"bufferView":38,
			"componentType":5123,
			"count":3180,
			"type":"SCALAR"
		},
		{
			"bufferView":39,
			"componentType":5126,
			"count":384,
			"max":[
				5.114930629730225,
				2.7079944610595703,
				9.634050369262695
			],
			"min":[
				-5.114930629730225,
				1.6069737672805786,
				-10.403826713562012
			],
			"type":"VEC3"
		},
		{
			"bufferView":40,
			"componentType":5126,
			"count":384,
			"type":"VEC3"
		},
		{
			"bufferView":41,
			"componentType":5126,
			"count":384,
			"type":"VEC2"
		},
		{
			"bufferView":42,
			"componentType":5123,
			"count":384,
			"normalized":true,
			"type":"VEC4"
		},
		{
			"bufferView":43,
			"componentType":5123,
			"count":576,
			"type":"SCALAR"
		},
		{
			"bufferView":44,
			"componentType":5126,
			"count":576,
			"max":[
				5.0831990242004395,
				3.3460230827331543,
				9.582111358642578
			],
			"min":[
				-5.0831990242004395,
				1.6244362592697144,
				-10.347840309143066
			],
			"type":"VEC3"
		},
		{
			"bufferView":45,
			"componentType":5126,
			"count":576,
			"type":"VEC3"
		},
		{
			"bufferView":46,
			"componentType":5126,
			"count":576,
			"type":"VEC2"
		},
		{
			"bufferView":47,
			"componentType":5123,
			"count":576,
			"normalized":true,
			"type":"VEC4"
		},
		{
			"bufferView":48,
			"componentType":5123,
			"count":864,
			"type":"SCALAR"
		},
		{
			"bufferView":49,
			"componentType":5126,
			"count":1704,
			"max":[
				5.233438968658447,
				7.551499843597412,
				18.54205894470215
			],
			"min":[
				-5.233438968658447,
				1.0943992137908936,
				-15.663264274597168
			],
			"type":"VEC3"
		},
		{
			"bufferView":50,
			"componentType":5126,
			"count":1704,
			"type":"VEC3"
		},
		{
			"bufferView":51,
			"componentType":5126,
			"count":1704,
			"type":"VEC2"
		},
		{
			"bufferView":52,
			"componentType":5123,
			"count":1704,
			"normalized":true,
			"type":"VEC4"
		},
		{
			"bufferView":53,
			"componentType":5123,
			"count":3408,
			"type":"SCALAR"
		},
		{
			"bufferView":54,
			"componentType":5126,
			"count":528,
			"max":[
				3.3116042613983154,
				5.73045015335083,
				18.25382423400879
			],
			"min":[
				-3.3116042613983154,
				3.349846601486206,
				14.4771089553833
			],
			"type":"VEC3"
		},
		{
			"bufferView":55,
			"componentType":5126,
			"count":528,
			"type":"VEC3"
		},
		{
			"bufferView":56,
			"componentType":5126,
			"count":528,
			"type":"VEC2"
		},
		{
			"bufferView":57,
			"componentType":5123,
			"count":528,
			"normalized":true,
			"type":"VEC4"
		},
		{
			"bufferView":58,
			"componentType":5123,
			"count":792,
			"type":"SCALAR"
		},
		{
			"bufferView":59,
			"componentType":5126,
			"count":80,
			"max":[
				2.156850814819336,
				8.30150032043457,
				18.782058715820312
			],
			"min":[
				-2.156850814819336,
				7.551499843597412,
				18.18206024169922
			],
			"type":"VEC3"
		},
		{
			"bufferView":60,
			"componentType":5126,
			"count":80,
			"type":"VEC3"
		},
		{
			"bufferView":61,
			"componentType":5126,
			"count":80,
			"type":"VEC2"
		},
		{
			"bufferView":62,
			"componentType":5123,
			"count":80,
			"normalized":true,
			"type":"VEC4"
		},
		{
			"bufferView":63,
			"componentType":5123,
			"count":168,
			"type":"SCALAR"
		},
		{
			"bufferView":64,
			"componentType":5126,
			"count":1090,
			"max":[
				9.041999816894531,
				34.177127838134766,
				19.835905075073242
			],
			"min":[
				-9.041999816894531,
				1.3679084777832031,
				-26.311437606811523
			],
			"type":"VEC3"
		},
		{
			"bufferView":65,
			"componentType":5126,
			"count":1090,
			"type":"VEC3"
		},
		{
			"bufferView":66,
			"componentType":5126,
			"count":1090,
			"type":"VEC2"
		},
		{
			"bufferView":67,
			"componentType":5123,
			"count":1090,
			"normalized":true,
			"type":"VEC4"
		},
		{
			"bufferView":68,
			"componentType":5123,
			"count":2856,
			"type":"SCALAR"
		},
		{
			"bufferView":69,
			"componentType":5126,
			"count":24,
			"max":[
				1.2432750463485718,
				2.9565000534057617,
				-1.6500000953674316
			],
			"min":[
				-1.2432750463485718,
				2.6564998626708984,
				-3.630000114440918
			],
			"type":"VEC3"
		},
		{
			"bufferView":70,
			"componentType":5126,
			"count":24,
			"type":"VEC3"
		},
		{
			"bufferView":71,
			"componentType":5126,
			"count":24,
			"type":"VEC2"
		},
		{
			"bufferView":72,
			"componentType":5123,
			"count":24,
			"normalized":true,
			"type":"VEC4"
		},
		{
			"bufferView":73,
			"componentType":5123,
			"count":36,
			"type":"SCALAR"
		},
		{
			"bufferView":74,
			"componentType":5126,
			"count":1868,
			"max":[
				5.107080936431885,
				27.671979904174805,
				5.760000228881836
			],
			"min":[
				-5.107080936431885,
				2.8849077224731445,
				-23.160390853881836
			],
			"type":"VEC3"
		},
		{
			"bufferView":75,
			"componentType":5126,
			"count":1868,
			"type":"VEC3"
		},
		{
			"bufferView":76,
			"componentType":5126,
			"count":1868,
			"type":"VEC2"
		},
		{
			"bufferView":77,
			"componentType":5123,
			"count":1868,
			"normalized":true,
			"type":"VEC4"
		},
		{
			"bufferView":78,
			"componentType":5123,
			"count":4368,
			"type":"SCALAR"
		},
		{
			"bufferView":79,
			"componentType":5126,
			"count":6466,
			"max":[
				8.69544506072998,
				33.598426818847656,
				17.151418685913086
			],
			"min":[
				-8.698225975036621,
				2.9449985027313232,
				-26.3218994140625
			],
			"type":"VEC3"
		},
		{
			"bufferView":80,
			"componentType":5126,
			"count":6466,
			"type":"VEC3"
		},
		{
			"bufferView":81,
			"componentType":5126,
			"count":6466,
			"type":"VEC2"
		},
		{
			"bufferView":82,
			"componentType":5123,
			"count":6466,
			"normalized":true,
			"type":"VEC4"
		},
		{
			"bufferView":83,
			"componentType":5123,
			"count":10452,
			"type":"SCALAR"
		},
		{
			"bufferView":84,
			"componentType":5126,
			"count":26,
			"max":[
				0.16424664855003357,
				0,
				6.599999904632568
			],
			"min":[
				-0.1664924919605255,
				-0.3959999978542328,
				0
			],
			"type":"VEC3"
		},
		{
			"bufferView":85,
			"componentType":5126,
			"count":26,
			"type":"VEC3"
		},
		{
			"bufferView":86,
			"componentType":5126,
			"count":26,
			"type":"VEC2"
		},
		{
			"bufferView":87,
			"componentType":5123,
			"count":72,
			"type":"SCALAR"
		},
		{
			"bufferView":88,
			"componentType":5126,
			"count":150,
			"max":[
				9.041999816894531,
				0,
				0
			],
			"min":[
				-9.041999816894531,
				-7.541423797607422,
				-2.280336856842041
			],
			"type":"VEC3"
		},
		{
			"bufferView":89,
			"componentType":5126,
			"count":150,
			"type":"VEC3"
		},
		{
			"bufferView":90,
			"componentType":5126,
			"count":150,
			"type":"VEC2"
		},
		{
			"bufferView":91,
			"componentType":5123,
			"count":756,
			"type":"SCALAR"
		},
		{
			"bufferView":92,
			"componentType":5126,
			"count":150,
			"max":[
				8.137800216674805,
				0,
				0
			],
			"min":[
				-8.137800216674805,
				-7.270736217498779,
				-1.963910698890686
			],
			"type":"VEC3"
		},
		{
			"bufferView":93,
			"componentType":5126,
			"count":150,
			"type":"VEC3"
		},
		{
			"bufferView":94,
			"componentType":5126,
			"count":150,
			"type":"VEC2"
		},
		{
			"bufferView":95,
			"componentType":5126,
			"count":150,
			"max":[
				6.6729960441589355,
				0,
				0
			],
			"min":[
				-6.6729960441589355,
				-5.036240100860596,
				-1.5304116010665894
			],
			"type":"VEC3"
		},
		{
			"bufferView":96,
			"componentType":5126,
			"count":150,
			"type":"VEC3"
		},
		{
			"bufferView":97,
			"componentType":5126,
			"count":150,
			"type":"VEC2"
		},
		{
			"bufferView":98,
			"componentType":5126,
			"count":150,
			"max":[
				8.318639755249023,
				0,
				0
			],
			"min":[
				-8.318639755249023,
				-8.197199821472168,
				-2.097909927368164
			],
			"type":"VEC3"
		},
		{
			"bufferView":99,
			"componentType":5126,
			"count":150,
			"type":"VEC3"
		},
		{
			"bufferView":100,
			"componentType":5126,
			"count":150,
			"type":"VEC2"
		},
		{
			"bufferView":101,
			"componentType":5126,
			"count":150,
			"max":[
				7.486775875091553,
				0,
				0
			],
			"min":[
				-7.486775875091553,
				-7.950799942016602,
				-1.8067978620529175
			],
			"type":"VEC3"
		},
		{
			"bufferView":102,
			"componentType":5126,
			"count":150,
			"type":"VEC3"
		},
		{
			"bufferView":103,
			"componentType":5126,
			"count":150,
			"type":"VEC2"
		},
		{
			"bufferView":104,
			"componentType":5126,
			"count":150,
			"max":[
				6.139156341552734,
				0,
				0
			],
			"min":[
				-6.139156341552734,
				-5.521999835968018,
				-1.4079786539077759
			],
			"type":"VEC3"
		},
		{
			"bufferView":105,
			"componentType":5126,
			"count":150,
			"type":"VEC3"
		},
		{
			"bufferView":106,
			"componentType":5126,
			"count":150,
			"type":"VEC2"
		},
		{
			"bufferView":107,
			"componentType":5126,
			"count":64,
			"max":[
				18.596094131469727,
				1.33514404296875e-05,
				0.4283280372619629
			],
			"min":[
				-1.5145901670621242e-06,
				-4.432173728942871,
				-0.7038204073905945
			],
			"type":"VEC3"
		},
		{
			"bufferView":108,
			"componentType":5126,
			"count":64,
			"type":"VEC3"
		},
		{
			"bufferView":109,
			"componentType":5126,
			"count":64,
			"type":"VEC2"
		},
		{
			"bufferView":110,
			"componentType":5123,
			"count":294,
			"type":"SCALAR"
		},
		{
			"bufferView":111,
			"componentType":5126,
			"count":64,
			"max":[
				19.833160400390625,
				0,
				0.4288942515850067
			],
			"min":[
				0,
				-4.697146415710449,
				-0.7047507762908936
			],
			"type":"VEC3"
		},
		{
			"bufferView":112,
			"componentType":5126,
			"count":64,
			"type":"VEC3"
		},
		{
			"bufferView":113,
			"componentType":5126,
			"count":64,
			"type":"VEC2"
		},
		{
			"bufferView":114,
			"componentType":5123,
			"count":294,
			"type":"SCALAR"
		},
		{
			"bufferView":115,
			"componentType":5126,
			"count":81,
			"max":[
				7.8115949630737305,
				1.1920928955078125e-06,
				0.58083575963974
			],
			"min":[
				-5.663763523101807,
				-13.916820526123047,
				-0.5686391592025757
			],
			"type":"VEC3"
		},
		{
			"bufferView":116,
			"componentType":5126,
			"count":81,
			"type":"VEC3"
		},
		{
			"bufferView":117,
			"componentType":5126,
			"count":81,
			"type":"VEC2"
		},
		{
			"bufferView":118,
			"componentType":5123,
			"count":384,
			"type":"SCALAR"
		},
		{
			"bufferView":119,
			"componentType":5126,
			"count":64,
			"max":[
				11.85828971862793,
				8.940696716308594e-07,
				0.3802066147327423
			],
			"min":[
				0,
				-3.72865629196167,
				-0.6247484683990479
			],
			"type":"VEC3"
		},
		{
			"bufferView":120,
			"componentType":5126,
			"count":64,
			"type":"VEC3"
		},
		{
			"bufferView":121,
			"componentType":5126,
			"count":64,
			"type":"VEC2"
		}
	],
	"bufferViews":[
		{
			"buffer":0,
			"byteLength":540,
			"byteOffset":0,
			"target":34962
		},
		{
			"buffer":0,
			"byteLength":540,
			"byteOffset":540,
			"target":34962
		},
		{
			"buffer":0,
			"byteLength":360,
			"byteOffset":1080,
			"target":34962
		},
		{
			"buffer":0,
			"byteLength":384,
			"byteOffset":1440,
			"target":34963
		},
		{
			"buffer":0,
			"byteLength":70296,
			"byteOffset":1824,
			"target":34962
		},
		{
			"buffer":0,
			"byteLength":70296,
			"byteOffset":72120,
			"target":34962
		},
		{
			"buffer":0,
			"byteLength":46864,
			"byteOffset":142416,
			"target":34962
		},
		{
			"buffer":0,
			"byteLength":46864,
			"byteOffset":189280,
			"target":34962
		},
		{
			"buffer":0,
			"byteLength":44928,
			"byteOffset":236144,
			"target":34963
		},
		{
			"buffer":0,
			"byteLength":29064,
			"byteOffset":281072,
			"target":34962
		},
		{
			"buffer":0,
			"byteLength":29064,
			"byteOffset":310136,
			"target":34962
		},
		{
			"buffer":0,
			"byteLength":19376,
			"byteOffset":339200,
			"target":34962
		},
		{
			"buffer":0,
			"byteLength":19376,
			"byteOffset":358576,
			"target":34962
		},
		{
			"buffer":0,
			"byteLength":9216,
			"byteOffset":377952,
			"target":34963
		},
		{
			"buffer":0,
			"byteLength":12084,
			"byteOffset":387168,
			"target":34962
		},
		{
			"buffer":0,
			"byteLength":12084,
			"byteOffset":399252,
			"target":34962
		},
		{
			"buffer":0,
			"byteLength":8056,
			"byteOffset":411336,
			"target":34962
		},
		{
			"buffer":0,
			"byteLength":8056,
			"byteOffset":419392,
			"target":34962
		},
		{
			"buffer":0,
			"byteLength":5184,
			"byteOffset":427448,
			"target":34963
		},
		{
			"buffer":0,
			"byteLength":55476,
			"byteOffset":432632,
			"target":34962
		},
		{
			"buffer":0,
			"byteLength":55476,
			"byteOffset":488108,
			"target":34962
		},
		{
			"buffer":0,
			"byteLength":36984,
			"byteOffset":543584,
			"target":34962
		},
		{
			"buffer":0,
			"byteLength":36984,
			"byteOffset":580568,
			"target":34962
		},
		{
			"buffer":0,
			"byteLength":28128,
			"byteOffset":617552,
			"target":34963
		},
		{
			"buffer":0,
			"byteLength":6048,
			"byteOffset":645680,
			"target":34962
		},
		{
			"buffer":0,
			"byteLength":6048,
			"byteOffset":651728,
			"target":34962
		},
		{
			"buffer":0,
			"byteLength":4032,
			"byteOffset":657776,
			"target":34962
		},
		{
			"buffer":0,
			"byteLength":4032,
			"byteOffset":661808,
			"target":34962
		},
		{
			"buffer":0,
			"byteLength":1512,
			"byteOffset":665840,
			"target":34963
		},
		{
			"buffer":0,
			"byteLength":26388,
			"byteOffset":667352,
			"target":34962
		},
		{
			"buffer":0,
			"byteLength":26388,
			"byteOffset":693740,
			"target":34962
		},
		{
			"buffer":0,
			"byteLength":17592,
			"byteOffset":720128,
			"target":34962
		},
		{
			"buffer":0,
			"byteLength":17592,
			"byteOffset":737720,
			"target":34962
		},
		{
			"buffer":0,
			"byteLength":8880,
			"byteOffset":755312,
			"target":34963
		},
		{
			"buffer":0,
			"byteLength":20148,
			"byteOffset":764192,
			"target":34962
		},
		{
			"buffer":0,
			"byteLength":20148,
			"byteOffset":784340,
			"target":34962
		},
		{
			"buffer":0,
			"byteLength":13432,
			"byteOffset":804488,
			"target":34962
		},
		{
			"buffer":0,
			"byteLength":13432,
			"byteOffset":817920,
			"target":34962
		},
		{
			"buffer":0,
			"byteLength":6360,
			"byteOffset":831352,
			"target":34963
		},
		{
			"buffer":0,
			"byteLength":4608,
			"byteOffset":837712,
			"target":34962
		},
		{
			"buffer":0,
			"byteLength":4608,
			"byteOffset":842320,
			"target":34962
		},
		{
			"buffer":0,
			"byteLength":3072,
			"byteOffset":846928,
			"target":34962
		},
		{
			"buffer":0,
			"byteLength":3072,
			"byteOffset":850000,
			"target":34962
		},
		{
			"buffer":0,
			"byteLength":1152,
			"byteOffset":853072,
			"target":34963
		},
		{
			"buffer":0,
			"byteLength":6912,
			"byteOffset":854224,
			"target":34962
		},
		{
			"buffer":0,
			"byteLength":6912,
			"byteOffset":861136,
			"target":34962
		},
		{
			"buffer":0,
			"byteLength":4608,
			"byteOffset":868048,
			"target":34962
		},
		{
			"buffer":0,
			"byteLength":4608,
			"byteOffset":872656,
			"target":34962
		},
		{
			"buffer":0,
			"byteLength":1728,
			"byteOffset":877264,
			"target":34963
		},
		{
			"buffer":0,
			"byteLength":20448,
			"byteOffset":878992,
			"target":34962
		},
		{
			"buffer":0,
			"byteLength":20448,
			"byteOffset":899440,
			"target":34962
		},
		{
			"buffer":0,
			"byteLength":13632,
			"byteOffset":919888,
			"target":34962
		},
		{
			"buffer":0,
			"byteLength":13632,
			"byteOffset":933520,
			"target":34962
		},
		{
			"buffer":0,
			"byteLength":6816,
			"byteOffset":947152,
			"target":34963
		},
		{
			"buffer":0,
			"byteLength":6336,
			"byteOffset":953968,
			"target":34962
		},
		{
			"buffer":0,
			"byteLength":6336,
			"byteOffset":960304,
			"target":34962
		},
		{
			"buffer":0,
			"byteLength":4224,
			"byteOffset":966640,
			"target":34962
		},
		{
			"buffer":0,
			"byteLength":4224,
			"byteOffset":970864,
			"target":34962
		},
		{
			"buffer":0,
			"byteLength":1584,
			"byteOffset":975088,
			"target":34963
		},
		{
			"buffer":0,
			"byteLength":960,
			"byteOffset":976672,
			"target":34962
		},
		{
			"buffer":0,
			"byteLength":960,
			"byteOffset":977632,
			"target":34962
		},
		{
			"buffer":0,
			"byteLength":640,
			"byteOffset":978592,
			"target":34962
		},
		{
			"buffer":0,
			"byteLength":640,
			"byteOffset":979232,
			"target":34962
		},
		{
			"buffer":0,
			"byteLength":336,
			"byteOffset":979872,
			"target":34963
		},
		{
			"buffer":0,
			"byteLength":13080,
			"byteOffset":980208,
			"target":34962
		},
		{
			"buffer":0,
			"byteLength":13080,
			"byteOffset":993288,
			"target":34962
		},
		{
			"buffer":0,
			"byteLength":8720,
			"byteOffset":1006368,
			"target":34962
		},
		{
			"buffer":0,
			"byteLength":8720,
			"byteOffset":1015088,
			"target":34962
		},
		{
			"buffer":0,
			"byteLength":5712,
			"byteOffset":1023808,
			"target":34963
		},
		{
			"buffer":0,
			"byteLength":288,
			"byteOffset":1029520,
			"target":34962
		},
		{
			"buffer":0,
			"byteLength":288,
			"byteOffset":1029808,
			"target":34962
		},
		{
			"buffer":0,
			"byteLength":192,
			"byteOffset":1030096,
			"target":34962
		},
		{
			"buffer":0,
			"byteLength":192,
			"byteOffset":1030288,
			"target":34962
		},
		{
			"buffer":0,
			"byteLength":72,
			"byteOffset":1030480,
			"target":34963
		},
		{
			"buffer":0,
			"byteLength":22416,
			"byteOffset":1030552,
			"target":34962
		},
		{
			"buffer":0,
			"byteLength":22416,
			"byteOffset":1052968,
			"target":34962
		},
		{
			"buffer":0,
			"byteLength":14944,
			"byteOffset":1075384,
			"target":34962
		},
		{
			"buffer":0,
			"byteLength":14944,
			"byteOffset":1090328,
			"target":34962
		},
		{
			"buffer":0,
			"byteLength":8736,
			"byteOffset":1105272,
			"target":34963
		},
		{
			"buffer":0,
			"byteLength":77592,
			"byteOffset":1114008,
			"target":34962
		},
		{
			"buffer":0,
			"byteLength":77592,
			"byteOffset":1191600,
			"target":34962
		},
		{
			"buffer":0,
			"byteLength":51728,
			"byteOffset":1269192,
			"target":34962
		},
		{
			"buffer":0,
			"byteLength":51728,
			"byteOffset":1320920,
			"target":34962
		},
		{
			"buffer":0,
			"byteLength":20904,
			"byteOffset":1372648,
			"target":34963
		},
		{
			"buffer":0,
			"byteLength":312,
			"byteOffset":1393552,
			"target":34962
		},
		{
			"buffer":0,
			"byteLength":312,
			"byteOffset":1393864,
			"target":34962
		},
		{
			"buffer":0,
			"byteLength":208,
			"byteOffset":1394176,
			"target":34962
		},
		{
			"buffer":0,
			"byteLength":144,
			"byteOffset":1394384,
			"target":34963
		},
		{
			"buffer":0,
			"byteLength":1800,
			"byteOffset":1394528,
			"target":34962
		},
		{
			"buffer":0,
			"byteLength":1800,
			"byteOffset":1396328,
			"target":34962
		},
		{
			"buffer":0,
			"byteLength":1200,
			"byteOffset":1398128,
			"target":34962
		},
		{
			"buffer":0,
			"byteLength":1512,
			"byteOffset":1399328,
			"target":34963
		},
		{
			"buffer":0,
			"byteLength":1800,
			"byteOffset":1400840,
			"target":34962
		},
		{
			"buffer":0,
			"byteLength":1800,
			"byteOffset":1402640,
			"target":34962
		},
		{
			"buffer":0,
			"byteLength":1200,
			"byteOffset":1404440,
			"target":34962
		},
		{
			"buffer":0,
			"byteLength":1800,
			"byteOffset":1405640,
			"target":34962
		},
		{
			"buffer":0,
			"byteLength":1800,
			"byteOffset":1407440,
			"target":34962
		},
		{
			"buffer":0,
			"byteLength":1200,
			"byteOffset":1409240,
			"target":34962
		},
		{
			"buffer":0,
			"byteLength":1800,
			"byteOffset":1410440,
			"target":34962
		},
		{
			"buffer":0,
			"byteLength":1800,
			"byteOffset":1412240,
			"target":34962
		},
		{
			"buffer":0,
			"byteLength":1200,
			"byteOffset":1414040,
			"target":34962
		},
		{
			"buffer":0,
			"byteLength":1800,
			"byteOffset":1415240,
			"target":34962
		},
		{
			"buffer":0,
			"byteLength":1800,
			"byteOffset":1417040,
			"target":34962
		},
		{
			"buffer":0,
			"byteLength":1200,
			"byteOffset":1418840,
			"target":34962
		},
		{
			"buffer":0,
			"byteLength":1800,
			"byteOffset":1420040,
			"target":34962
		},
		{
			"buffer":0,
			"byteLength":1800,
			"byteOffset":1421840,
			"target":34962
		},
		{
			"buffer":0,
			"byteLength":1200,
			"byteOffset":1423640,
			"target":34962
		},
		{
			"buffer":0,
			"byteLength":768,
			"byteOffset":1424840,
			"target":34962
		},
		{
			"buffer":0,
			"byteLength":768,
			"byteOffset":1425608,
			"target":34962
		},
		{
			"buffer":0,
			"byteLength":512,
			"byteOffset":1426376,
			"target":34962
		},
		{
			"buffer":0,
			"byteLength":588,
			"byteOffset":1426888,
			"target":34963
		},
		{
			"buffer":0,
			"byteLength":768,
			"byteOffset":1427476,
			"target":34962
		},
		{
			"buffer":0,
			"byteLength":768,
			"byteOffset":1428244,
			"target":34962
		},
		{
			"buffer":0,
			"byteLength":512,
			"byteOffset":1429012,
			"target":34962
		},
		{
			"buffer":0,
			"byteLength":588,
			"byteOffset":1429524,
			"target":34963
		},
		{
			"buffer":0,
			"byteLength":972,
			"byteOffset":1430112,
			"target":34962
		},
		{
			"buffer":0,
			"byteLength":972,
			"byteOffset":1431084,
			"target":34962
		},
		{
			"buffer":0,
			"byteLength":648,
			"byteOffset":1432056,
			"target":34962
		},
		{
			"buffer":0,
			"byteLength":768,
			"byteOffset":1432704,
			"target":34963
		},
		{
			"buffer":0,
			"byteLength":768,
			"byteOffset":1433472,
			"target":34962
		},
		{
			"buffer":0,
			"byteLength":768,
			"byteOffset":1434240,
			"target":34962
		},
		{
			"buffer":0,
			"byteLength":512,
			"byteOffset":1435008,
			"target":34962
		}
	],
	"samplers":[
		{
			"magFilter":9729,
			"minFilter":9987
		}
	],
	"buffers":[
		{
			"byteLength":1435520,
			"uri":"brig.bin"
		}
	]
}
