{
	"asset":{
		"generator":"Khronos glTF Blender I/O v5.2.40",
		"version":"2.0"
	},
	"extensionsUsed":[
		"KHR_materials_emissive_strength"
	],
	"scene":0,
	"scenes":[
		{
			"name":"Scene",
			"nodes":[
				0,
				1,
				2,
				3,
				4,
				5,
				6,
				7,
				8,
				9,
				10,
				11,
				12,
				13,
				14,
				15,
				16,
				17,
				18,
				19,
				20,
				21,
				22,
				23,
				24,
				25,
				26,
				27,
				28,
				29,
				30,
				31,
				32,
				33,
				34,
				35,
				36,
				37,
				38,
				39,
				40,
				41,
				42,
				43,
				44,
				45,
				46,
				47
			]
		}
	],
	"nodes":[
		{
			"mesh":0,
			"name":"Flag",
			"translation":[
				0,
				11.46500015258789,
				18.010961532592773
			]
		},
		{
			"mesh":1,
			"name":"Hull"
		},
		{
			"name":"Muzzle_P_00",
			"translation":[
				-4.262044906616211,
				1.386894702911377,
				-9.639046669006348
			]
		},
		{
			"name":"Muzzle_P_01",
			"translation":[
				-4.771775245666504,
				1.3612638711929321,
				-7.688627243041992
			]
		},
		{
			"name":"Muzzle_P_02",
			"translation":[
				-5.01368522644043,
				1.330164909362793,
				-5.756520748138428
			]
		},
		{
			"name":"Muzzle_P_03",
			"translation":[
				-5.051087379455566,
				1.2842402458190918,
				-3.897390127182007
			]
		},
		{
			"name":"Muzzle_P_04",
			"translation":[
				-5.051022052764893,
				1.2697068452835083,
				-2.100722312927246
			]
		},
		{
			"name":"Muzzle_P_05",
			"translation":[
				-5.051145076751709,
				1.2970463037490845,
				-0.3034053146839142
			]
		},
		{
			"name":"Muzzle_P_06",
			"translation":[
				-5.051398277282715,
				1.354798674583435,
				1.4944912195205688
			]
		},
		{
			"name":"Muzzle_P_07",
			"translation":[
				-5.051750659942627,
				1.4391322135925293,
				3.2926876544952393
			]
		},
		{
			"name":"Muzzle_P_08",
			"translation":[
				-5.052176475524902,
				1.5481388568878174,
				5.091123580932617
			]
		},
		{
			"name":"Muzzle_P_09",
			"translation":[
				-5.005181312561035,
				1.677843689918518,
				6.986987113952637
			]
		},
		{
			"name":"Muzzle_P_10",
			"translation":[
				-4.665459156036377,
				1.7877745628356934,
				8.928206443786621
			]
		},
		{
			"name":"Muzzle_P_11",
			"translation":[
				-4.440256595611572,
				3.1637730598449707,
				-4.800000190734863
			]
		},
		{
			"name":"Muzzle_P_12",
			"translation":[
				-4.442872047424316,
				3.1166038513183594,
				-2.759999990463257
			]
		},
		{
			"name":"Muzzle_P_13",
			"translation":[
				-4.442872047424316,
				3.1406660079956055,
				-0.7200000286102295
			]
		},
		{
			"name":"Muzzle_P_14",
			"translation":[
				-4.442872047424316,
				3.222343921661377,
				1.3200000524520874
			]
		},
		{
			"name":"Muzzle_P_15",
			"translation":[
				-4.442872047424316,
				3.350809335708618,
				3.359999895095825
			]
		},
		{
			"name":"Muzzle_S_00",
			"translation":[
				4.262044906616211,
				1.386894702911377,
				-9.639046669006348
			]
		},
		{
			"name":"Muzzle_S_01",
			"translation":[
				4.771775245666504,
				1.3612638711929321,
				-7.688627243041992
			]
		},
		{
			"name":"Muzzle_S_02",
			"translation":[
				5.01368522644043,
				1.330164909362793,
				-5.756520748138428
			]
		},
		{
			"name":"Muzzle_S_03",
			"translation":[
				5.051087379455566,
				1.2842402458190918,
				-3.897390127182007
			]
		},
		{
			"name":"Muzzle_S_04",
			"translation":[
				5.051022052764893,
				1.2697068452835083,
				-2.100722312927246
			]
		},
		{
			"name":"Muzzle_S_05",
			"translation":[
				5.051145076751709,
				1.2970463037490845,
				-0.3034053146839142
			]
		},
		{
			"name":"Muzzle_S_06",
			"translation":[
				5.051398277282715,
				1.354798674583435,
				1.4944912195205688
			]
		},
		{
			"name":"Muzzle_S_07",
			"translation":[
				5.051750659942627,
				1.4391322135925293,
				3.2926876544952393
			]
		},
		{
			"name":"Muzzle_S_08",
			"translation":[
				5.052176475524902,
				1.5481388568878174,
				5.091123580932617
			]
		},
		{
			"name":"Muzzle_S_09",
			"translation":[
				5.005181312561035,
				1.677843689918518,
				6.986987113952637
			]
		},
		{
			"name":"Muzzle_S_10",
			"translation":[
				4.665459156036377,
				1.7877745628356934,
				8.928206443786621
			]
		},
		{
			"name":"Muzzle_S_11",
			"translation":[
				4.440256595611572,
				3.1637730598449707,
				-4.800000190734863
			]
		},
		{
			"name":"Muzzle_S_12",
			"translation":[
				4.442872047424316,
				3.1166038513183594,
				-2.759999990463257
			]
		},
		{
			"name":"Muzzle_S_13",
			"translation":[
				4.442872047424316,
				3.1406660079956055,
				-0.7200000286102295
			]
		},
		{
			"name":"Muzzle_S_14",
			"translation":[
				4.442872047424316,
				3.222343921661377,
				1.3200000524520874
			]
		},
		{
			"name":"Muzzle_S_15",
			"translation":[
				4.442872047424316,
				3.350809335708618,
				3.359999895095825
			]
		},
		{
			"mesh":2,
			"name":"Pennant",
			"translation":[
				0,
				32.25554656982422,
				-0.04891538619995117
			]
		},
		{
			"mesh":3,
			"name":"Sail_0_0",
			"rotation":[
				0.026176918298006058,
				0,
				0,
				0.9996573328971863
			],
			"translation":[
				0,
				12.951944351196289,
				-9.611323356628418
			]
		},
		{
			"mesh":4,
			"name":"Sail_0_1_E",
			"rotation":[
				0.026176918298006058,
				0,
				0,
				0.9996573328971863
			],
			"translation":[
				0,
				20.206308364868164,
				-9.231138229370117
			]
		},
		{
			"mesh":5,
			"name":"Sail_0_2",
			"rotation":[
				0.026176918298006058,
				0,
				0,
				0.9996573328971863
			],
			"translation":[
				0,
				25.387998580932617,
				-8.959577560424805
			]
		},
		{
			"mesh":6,
			"name":"Sail_1_0",
			"rotation":[
				0.026176918298006058,
				0,
				0,
				0.9996573328971863
			],
			"translation":[
				0,
				13.843724250793457,
				-0.5927048921585083
			]
		},
		{
			"mesh":7,
			"name":"Sail_1_1_E",
			"rotation":[
				0.026176918298006058,
				0,
				0,
				0.9996573328971863
			],
			"translation":[
				0,
				21.947002410888672,
				-0.1680299937725067
			]
		},
		{
			"mesh":8,
			"name":"Sail_1_2",
			"rotation":[
				0.026176918298006058,
				0,
				0,
				0.9996573328971863
			],
			"translation":[
				0,
				27.73505973815918,
				0.13530918955802917
			]
		},
		{
			"mesh":9,
			"name":"Sail_2_1",
			"rotation":[
				0.026176918298006058,
				0,
				0,
				0.9996573328971863
			],
			"translation":[
				0,
				17.58625030517578,
				8.611702919006348
			]
		},
		{
			"mesh":10,
			"name":"Sail_2_2",
			"rotation":[
				0.026176918298006058,
				0,
				0,
				0.9996573328971863
			],
			"translation":[
				0,
				21.88595199584961,
				8.837040901184082
			]
		},
		{
			"mesh":11,
			"name":"Sail_jib_0",
			"rotation":[
				-0.389708012342453,
				0.6477158069610596,
				-0.2836623787879944,
				0.590023398399353
			],
			"translation":[
				0,
				19.608678817749023,
				-11.702018737792969
			]
		},
		{
			"mesh":12,
			"name":"Sail_jib_1",
			"rotation":[
				-0.3864706754684448,
				0.645887553691864,
				-0.2878008484840393,
				0.592149019241333
			],
			"translation":[
				0,
				21.57048988342285,
				-13.844905853271484
			]
		},
		{
			"mesh":13,
			"name":"Sail_spanker",
			"rotation":[
				-0.11990449577569962,
				-0.6898226141929626,
				0.1553860306739807,
				0.6968664526939392
			],
			"translation":[
				0,
				13.910077095031738,
				8.75
			]
		},
		{
			"mesh":14,
			"name":"Sail_stay_1",
			"rotation":[
				-0.29225873947143555,
				0.6834563612937927,
				-0.18134889006614685,
				0.6438826322555542
			],
			"translation":[
				0,
				25.314411163330078,
				-0.7117529511451721
			]
		},
		{
			"mesh":15,
			"name":"Sail_stay_2",
			"rotation":[
				-0.46879157423973083,
				0.5364310145378113,
				0.46069708466529846,
				0.5293717384338379
			],
			"translation":[
				0,
				20.325849533081055,
				8.053045272827148
			]
		}
	],
	"materials":[
		{
			"doubleSided":true,
			"name":"corvette_flag",
			"pbrMetallicRoughness":{
				"metallicFactor":0,
				"roughnessFactor":0.8999999761581421
			}
		},
		{
			"doubleSided":true,
			"name":"corvette_hull",
			"pbrMetallicRoughness":{
				"baseColorTexture":{
					"index":0
				},
				"metallicFactor":0,
				"roughnessFactor":0.7200000286102295
			}
		},
		{
			"doubleSided":true,
			"name":"corvette_deck",
			"pbrMetallicRoughness":{
				"baseColorTexture":{
					"index":1
				},
				"metallicFactor":0,
				"roughnessFactor":0.8500000238418579
			}
		},
		{
			"doubleSided":true,
			"name":"corvette_upper",
			"pbrMetallicRoughness":{
				"baseColorTexture":{
					"index":2
				},
				"metallicFactor":0,
				"roughnessFactor":0.75
			}
		},
		{
			"doubleSided":true,
			"name":"corvette_wale",
			"pbrMetallicRoughness":{
				"baseColorFactor":[
					0.004543377086520195,
					0.005264738574624062,
					0.00734579935669899,
					1
				],
				"metallicFactor":0,
				"roughnessFactor":0.699999988079071
			}
		},
		{
			"doubleSided":true,
			"name":"corvette_dark",
			"pbrMetallicRoughness":{
				"baseColorFactor":[
					0.0036765073891729116,
					0.002428215928375721,
					0.0018211619462817907,
					1
				],
				"metallicFactor":0,
				"roughnessFactor":0.949999988079071
			}
		},
		{
			"doubleSided":true,
			"name":"corvette_trim",
			"pbrMetallicRoughness":{
				"baseColorFactor":[
					0.3998839855194092,
					0.2622506618499756,
					0.02518685907125473,
					1
				],
				"metallicFactor":0.4000000059604645,
				"roughnessFactor":0.44999998807907104
			}
		},
		{
			"doubleSided":true,
			"name":"corvette_rail",
			"pbrMetallicRoughness":{
				"baseColorFactor":[
					0.0423114113509655,
					0.021219009533524513,
					0.008568125776946545,
					1
				],
				"metallicFactor":0,
				"roughnessFactor":0.75
			}
		},
		{
			"doubleSided":true,
			"name":"corvette_lid",
			"pbrMetallicRoughness":{
				"baseColorFactor":[
					0.004543377086520195,
					0.005181516520678997,
					0.008238660171627998,
					1
				],
				"metallicFactor":0,
				"roughnessFactor":0.699999988079071
			}
		},
		{
			"doubleSided":true,
			"name":"corvette_portred",
			"pbrMetallicRoughness":{
				"baseColorFactor":[
					0.07618538290262222,
					0.00802319310605526,
					0.005181516520678997,
					1
				],
				"metallicFactor":0,
				"roughnessFactor":0.8500000238418579
			}
		},
		{
			"doubleSided":true,
			"name":"corvette_iron",
			"pbrMetallicRoughness":{
				"baseColorFactor":[
					0.00802319310605526,
					0.007499032188206911,
					0.006995410192757845,
					1
				],
				"metallicFactor":0.550000011920929,
				"roughnessFactor":0.5
			}
		},
		{
			"doubleSided":true,
			"emissiveFactor":[
				0.3499999940395355,
				0.19320399730198723,
				0.05044496420545297
			],
			"name":"corvette_glass",
			"pbrMetallicRoughness":{
				"baseColorFactor":[
					0.016807375475764275,
					0.02955683507025242,
					0.045186202973127365,
					1
				],
				"metallicFactor":0.30000001192092896,
				"roughnessFactor":0.07999999821186066
			}
		},
		{
			"doubleSided":true,
			"emissiveFactor":[
				1,
				0.4564110338687897,
				0.06847816705703735
			],
			"extensions":{
				"KHR_materials_emissive_strength":{
					"emissiveStrength":5
				}
			},
			"name":"corvette_lantern",
			"pbrMetallicRoughness":{
				"baseColorFactor":[
					1,
					0.7605245113372803,
					0.35153260827064514,
					1
				],
				"metallicFactor":0,
				"roughnessFactor":0.30000001192092896
			}
		},
		{
			"doubleSided":true,
			"name":"corvette_spar",
			"pbrMetallicRoughness":{
				"baseColorFactor":[
					0.04817182570695877,
					0.024157632142305374,
					0.01032982300966978,
					1
				],
				"metallicFactor":0,
				"roughnessFactor":0.699999988079071
			}
		},
		{
			"doubleSided":true,
			"name":"corvette_grating",
			"pbrMetallicRoughness":{
				"baseColorFactor":[
					0.06847816705703735,
					0.03560131415724754,
					0.014443843625485897,
					1
				],
				"metallicFactor":0,
				"roughnessFactor":0.8999999761581421
			}
		},
		{
			"doubleSided":true,
			"name":"corvette_spar_black",
			"pbrMetallicRoughness":{
				"baseColorFactor":[
					0.006995410192757845,
					0.005181516520678997,
					0.0036765073891729116,
					1
				],
				"metallicFactor":0,
				"roughnessFactor":0.699999988079071
			}
		},
		{
			"doubleSided":true,
			"name":"corvette_rope",
			"pbrMetallicRoughness":{
				"baseColorFactor":[
					0.008568125776946545,
					0.006048833020031452,
					0.004024717025458813,
					1
				],
				"metallicFactor":0,
				"roughnessFactor":0.8999999761581421
			}
		},
		{
			"doubleSided":true,
			"name":"corvette_sail",
			"pbrMetallicRoughness":{
				"baseColorTexture":{
					"index":3
				},
				"metallicFactor":0,
				"roughnessFactor":0.949999988079071
			}
		}
	],
	"meshes":[
		{
			"name":"Flag",
			"primitives":[
				{
					"attributes":{
						"POSITION":0,
						"NORMAL":1,
						"TEXCOORD_0":2
					},
					"indices":3,
					"material":0
				}
			]
		},
		{
			"name":"Hull",
			"primitives":[
				{
					"attributes":{
						"POSITION":4,
						"NORMAL":5,
						"TEXCOORD_0":6,
						"COLOR_0":7
					},
					"indices":8,
					"material":1
				},
				{
					"attributes":{
						"POSITION":9,
						"NORMAL":10,
						"TEXCOORD_0":11,
						"COLOR_0":12
					},
					"indices":13,
					"material":2
				},
				{
					"attributes":{
						"POSITION":14,
						"NORMAL":15,
						"TEXCOORD_0":16,
						"COLOR_0":17
					},
					"indices":18,
					"material":3
				},
				{
					"attributes":{
						"POSITION":19,
						"NORMAL":20,
						"TEXCOORD_0":21,
						"COLOR_0":22
					},
					"indices":23,
					"material":4
				},
				{
					"attributes":{
						"POSITION":24,
						"NORMAL":25,
						"TEXCOORD_0":26,
						"COLOR_0":27
					},
					"indices":28,
					"material":5
				},
				{
					"attributes":{
						"POSITION":29,
						"NORMAL":30,
						"TEXCOORD_0":31,
						"COLOR_0":32
					},
					"indices":33,
					"material":6
				},
				{
					"attributes":{
						"POSITION":34,
						"NORMAL":35,
						"TEXCOORD_0":36,
						"COLOR_0":37
					},
					"indices":38,
					"material":7
				},
				{
					"attributes":{
						"POSITION":39,
						"NORMAL":40,
						"TEXCOORD_0":41,
						"COLOR_0":42
					},
					"indices":43,
					"material":8
				},
				{
					"attributes":{
						"POSITION":44,
						"NORMAL":45,
						"TEXCOORD_0":46,
						"COLOR_0":47
					},
					"indices":48,
					"material":9
				},
				{
					"attributes":{
						"POSITION":49,
						"NORMAL":50,
						"TEXCOORD_0":51,
						"COLOR_0":52
					},
					"indices":53,
					"material":10
				},
				{
					"attributes":{
						"POSITION":54,
						"NORMAL":55,
						"TEXCOORD_0":56,
						"COLOR_0":57
					},
					"indices":43,
					"material":11
				},
				{
					"attributes":{
						"POSITION":58,
						"NORMAL":59,
						"TEXCOORD_0":60,
						"COLOR_0":61
					},
					"indices":62,
					"material":12
				},
				{
					"attributes":{
						"POSITION":63,
						"NORMAL":64,
						"TEXCOORD_0":65,
						"COLOR_0":66
					},
					"indices":67,
					"material":13
				},
				{
					"attributes":{
						"POSITION":68,
						"NORMAL":69,
						"TEXCOORD_0":70,
						"COLOR_0":71
					},
					"indices":72,
					"material":14
				},
				{
					"attributes":{
						"POSITION":73,
						"NORMAL":74,
						"TEXCOORD_0":75,
						"COLOR_0":76
					},
					"indices":77,
					"material":15
				},
				{
					"attributes":{
						"POSITION":78,
						"NORMAL":79,
						"TEXCOORD_0":80,
						"COLOR_0":81
					},
					"indices":82,
					"material":16
				}
			]
		},
		{
			"name":"Pennant",
			"primitives":[
				{
					"attributes":{
						"POSITION":83,
						"NORMAL":84,
						"TEXCOORD_0":85
					},
					"indices":86,
					"material":0
				}
			]
		},
		{
			"name":"Sail_0_0",
			"primitives":[
				{
					"attributes":{
						"POSITION":87,
						"NORMAL":88,
						"TEXCOORD_0":89
					},
					"indices":90,
					"material":17
				}
			]
		},
		{
			"name":"Sail_0_1_E",
			"primitives":[
				{
					"attributes":{
						"POSITION":91,
						"NORMAL":92,
						"TEXCOORD_0":93
					},
					"indices":90,
					"material":17
				}
			]
		},
		{
			"name":"Sail_0_2",
			"primitives":[
				{
					"attributes":{
						"POSITION":94,
						"NORMAL":95,
						"TEXCOORD_0":96
					},
					"indices":90,
					"material":17
				}
			]
		},
		{
			"name":"Sail_1_0",
			"primitives":[
				{
					"attributes":{
						"POSITION":97,
						"NORMAL":98,
						"TEXCOORD_0":99
					},
					"indices":90,
					"material":17
				}
			]
		},
		{
			"name":"Sail_1_1_E",
			"primitives":[
				{
					"attributes":{
						"POSITION":100,
						"NORMAL":101,
						"TEXCOORD_0":102
					},
					"indices":90,
					"material":17
				}
			]
		},
		{
			"name":"Sail_1_2",
			"primitives":[
				{
					"attributes":{
						"POSITION":103,
						"NORMAL":104,
						"TEXCOORD_0":105
					},
					"indices":90,
					"material":17
				}
			]
		},
		{
			"name":"Sail_2_1",
			"primitives":[
				{
					"attributes":{
						"POSITION":106,
						"NORMAL":107,
						"TEXCOORD_0":108
					},
					"indices":90,
					"material":17
				}
			]
		},
		{
			"name":"Sail_2_2",
			"primitives":[
				{
					"attributes":{
						"POSITION":109,
						"NORMAL":110,
						"TEXCOORD_0":111
					},
					"indices":90,
					"material":17
				}
			]
		},
		{
			"name":"Sail_jib_0",
			"primitives":[
				{
					"attributes":{
						"POSITION":112,
						"NORMAL":113,
						"TEXCOORD_0":114
					},
					"indices":115,
					"material":17
				}
			]
		},
		{
			"name":"Sail_jib_1",
			"primitives":[
				{
					"attributes":{
						"POSITION":116,
						"NORMAL":117,
						"TEXCOORD_0":118
					},
					"indices":115,
					"material":17
				}
			]
		},
		{
			"name":"Sail_spanker",
			"primitives":[
				{
					"attributes":{
						"POSITION":119,
						"NORMAL":120,
						"TEXCOORD_0":121
					},
					"indices":122,
					"material":17
				}
			]
		},
		{
			"name":"Sail_stay_1",
			"primitives":[
				{
					"attributes":{
						"POSITION":123,
						"NORMAL":124,
						"TEXCOORD_0":125
					},
					"indices":115,
					"material":17
				}
			]
		},
		{
			"name":"Sail_stay_2",
			"primitives":[
				{
					"attributes":{
						"POSITION":126,
						"NORMAL":127,
						"TEXCOORD_0":128
					},
					"indices":115,
					"material":17
				}
			]
		}
	],
	"textures":[
		{
			"sampler":0,
			"source":0
		},
		{
			"sampler":0,
			"source":1
		},
		{
			"sampler":0,
			"source":2
		},
		{
			"sampler":0,
			"source":3
		}
	],
	"images":[
		{
			"mimeType":"image/jpeg",
			"name":"corvette_hull",
			"uri":"textures/corvette_hull.jpg"
		},
		{
			"mimeType":"image/jpeg",
			"name":"deck",
			"uri":"textures/deck.jpg"
		},
		{
			"mimeType":"image/jpeg",
			"name":"corvette_upper",
			"uri":"textures/corvette_upper.jpg"
		},
		{
			"mimeType":"image/jpeg",
			"name":"corvette_sail",
			"uri":"textures/corvette_sail.jpg"
		}
	],
	"accessors":[
		{
			"bufferView":0,
			"componentType":5126,
			"count":45,
			"max":[
				0.06440079212188721,
				0,
				4.199999809265137
			],
			"min":[
				-0.17260636389255524,
				-2.700000047683716,
				0
			],
			"type":"VEC3"
		},
		{
			"bufferView":1,
			"componentType":5126,
			"count":45,
			"type":"VEC3"
		},
		{
			"bufferView":2,
			"componentType":5126,
			"count":45,
			"type":"VEC2"
		},
		{
			"bufferView":3,
			"componentType":5123,
			"count":192,
			"type":"SCALAR"
		},
		{
			"bufferView":4,
			"componentType":5126,
			"count":4049,
			"max":[
				4.110409259796143,
				4.139999866485596,
				16.350000381469727
			],
			"min":[
				-4.110409259796143,
				-2.932499885559082,
				-16.049999237060547
			],
			"type":"VEC3"
		},
		{
			"bufferView":5,
			"componentType":5126,
			"count":4049,
			"type":"VEC3"
		},
		{
			"bufferView":6,
			"componentType":5126,
			"count":4049,
			"type":"VEC2"
		},
		{
			"bufferView":7,
			"componentType":5123,
			"count":4049,
			"normalized":true,
			"type":"VEC4"
		},
		{
			"bufferView":8,
			"componentType":5123,
			"count":22464,
			"type":"SCALAR"
		},
		{
			"bufferView":9,
			"componentType":5126,
			"count":2421,
			"max":[
				3.7400999069213867,
				5.864999771118164,
				16.710962295532227
			],
			"min":[
				-3.7400999069213867,
				2.4155805110931396,
				-16.049999237060547
			],
			"type":"VEC3"
		},
		{
			"bufferView":10,
			"componentType":5126,
			"count":2421,
			"type":"VEC3"
		},
		{
			"bufferView":11,
			"componentType":5126,
			"count":2421,
			"type":"VEC2"
		},
		{
			"bufferView":12,
			"componentType":5123,
			"count":2421,
			"normalized":true,
			"type":"VEC4"
		},
		{
			"bufferView":13,
			"componentType":5123,
			"count":4608,
			"type":"SCALAR"
		},
		{
			"bufferView":14,
			"componentType":5126,
			"count":941,
			"max":[
				3.7400999069213867,
				6.764999866485596,
				16.899290084838867
			],
			"min":[
				-3.7400999069213867,
				-2.311500072479248,
				-16.25835609436035
			],
			"type":"VEC3"
		},
		{
			"bufferView":15,
			"componentType":5126,
			"count":941,
			"type":"VEC3"
		},
		{
			"bufferView":16,
			"componentType":5126,
			"count":941,
			"type":"VEC2"
		},
		{
			"bufferView":17,
			"componentType":5123,
			"count":941,
			"normalized":true,
			"type":"VEC4"
		},
		{
			"bufferView":18,
			"componentType":5123,
			"count":2592,
			"type":"SCALAR"
		},
		{
			"bufferView":19,
			"componentType":5126,
			"count":4704,
			"max":[
				4.72206974029541,
				5.997177600860596,
				16.723649978637695
			],
			"min":[
				-4.72206974029541,
				-3.500499963760376,
				-16.98314094543457
			],
			"type":"VEC3"
		},
		{
			"bufferView":20,
			"componentType":5126,
			"count":4704,
			"type":"VEC3"
		},
		{
			"bufferView":21,
			"componentType":5126,
			"count":4704,
			"type":"VEC2"
		},
		{
			"bufferView":22,
			"componentType":5123,
			"count":4704,
			"normalized":true,
			"type":"VEC4"
		},
		{
			"bufferView":23,
			"componentType":5123,
			"count":14232,
			"type":"SCALAR"
		},
		{
			"bufferView":24,
			"componentType":5126,
			"count":672,
			"max":[
				4.206432819366455,
				4.173803806304932,
				9.20258903503418
			],
			"min":[
				-4.206432819366455,
				0.6891752481460571,
				-10.018054008483887
			],
			"type":"VEC3"
		},
		{
			"bufferView":25,
			"componentType":5126,
			"count":672,
			"type":"VEC3"
		},
		{
			"bufferView":26,
			"componentType":5126,
			"count":672,
			"type":"VEC2"
		},
		{
			"bufferView":27,
			"componentType":5123,
			"count":672,
			"normalized":true,
			"type":"VEC4"
		},
		{
			"bufferView":28,
			"componentType":5123,
			"count":1008,
			"type":"SCALAR"
		},
		{
			"bufferView":29,
			"componentType":5126,
			"count":2654,
			"max":[
				3.4260897636413574,
				32.58538055419922,
				17.150962829589844
			],
			"min":[
				-3.4260897636413574,
				0.7709321975708008,
				-17.80999755859375
			],
			"type":"VEC3"
		},
		{
			"bufferView":30,
			"componentType":5126,
			"count":2654,
			"type":"VEC3"
		},
		{
			"bufferView":31,
			"componentType":5126,
			"count":2654,
			"type":"VEC2"
		},
		{
			"bufferView":32,
			"componentType":5123,
			"count":2654,
			"normalized":true,
			"type":"VEC4"
		},
		{
			"bufferView":33,
			"componentType":5123,
			"count":5688,
			"type":"SCALAR"
		},
		{
			"bufferView":34,
			"componentType":5126,
			"count":1507,
			"max":[
				3.5880866050720215,
				6.785000324249268,
				16.780961990356445
			],
			"min":[
				-3.5880866050720215,
				4.001737117767334,
				-15.762303352355957
			],
			"type":"VEC3"
		},
		{
			"bufferView":35,
			"componentType":5126,
			"count":1507,
			"type":"VEC3"
		},
		{
			"bufferView":36,
			"componentType":5126,
			"count":1507,
			"type":"VEC2"
		},
		{
			"bufferView":37,
			"componentType":5123,
			"count":1507,
			"normalized":true,
			"type":"VEC4"
		},
		{
			"bufferView":38,
			"componentType":5123,
			"count":2820,
			"type":"SCALAR"
		},
		{
			"bufferView":39,
			"componentType":5126,
			"count":528,
			"max":[
				4.920199871063232,
				2.856687068939209,
				9.300363540649414
			],
			"min":[
				-4.920199871063232,
				1.6303620338439941,
				-10.048540115356445
			],
			"type":"VEC3"
		},
		{
			"bufferView":40,
			"componentType":5126,
			"count":528,
			"type":"VEC3"
		},
		{
			"bufferView":41,
			"componentType":5126,
			"count":528,
			"type":"VEC2"
		},
		{
			"bufferView":42,
			"componentType":5123,
			"count":528,
			"normalized":true,
			"type":"VEC4"
		},
		{
			"bufferView":43,
			"componentType":5123,
			"count":792,
			"type":"SCALAR"
		},
		{
			"bufferView":44,
			"componentType":5126,
			"count":768,
			"max":[
				4.866774559020996,
				3.120809316635132,
				9.227801322937012
			],
			"min":[
				-4.866774559020996,
				1.658132791519165,
				-9.97098445892334
			],
			"type":"VEC3"
		},
		{
			"bufferView":45,
			"componentType":5126,
			"count":768,
			"type":"VEC3"
		},
		{
			"bufferView":46,
			"componentType":5126,
			"count":768,
			"type":"VEC2"
		},
		{
			"bufferView":47,
			"componentType":5123,
			"count":768,
			"normalized":true,
			"type":"VEC4"
		},
		{
			"bufferView":48,
			"componentType":5123,
			"count":1152,
			"type":"SCALAR"
		},
		{
			"bufferView":49,
			"componentType":5126,
			"count":2180,
			"max":[
				4.827402591705322,
				6.965000152587891,
				16.870962142944336
			],
			"min":[
				-4.827402591705322,
				0.9756255149841309,
				-14.4967679977417
			],
			"type":"VEC3"
		},
		{
			"bufferView":50,
			"componentType":5126,
			"count":2180,
			"type":"VEC3"
		},
		{
			"bufferView":51,
			"componentType":5126,
			"count":2180,
			"type":"VEC2"
		},
		{
			"bufferView":52,
			"componentType":5123,
			"count":2180,
			"normalized":true,
			"type":"VEC4"
		},
		{
			"bufferView":53,
			"componentType":5123,
			"count":4368,
			"type":"SCALAR"
		},
		{
			"bufferView":54,
			"componentType":5126,
			"count":528,
			"max":[
				3.015549421310425,
				5.209499835968018,
				16.604385375976562
			],
			"min":[
				-3.015549421310425,
				3.0453150272369385,
				13.156811714172363
			],
			"type":"VEC3"
		},
		{
			"bufferView":55,
			"componentType":5126,
			"count":528,
			"type":"VEC3"
		},
		{
			"bufferView":56,
			"componentType":5126,
			"count":528,
			"type":"VEC2"
		},
		{
			"bufferView":57,
			"componentType":5123,
			"count":528,
			"normalized":true,
			"type":"VEC4"
		},
		{
			"bufferView":58,
			"componentType":5126,
			"count":81,
			"max":[
				1.9880461692810059,
				7.715000152587891,
				17.1109619140625
			],
			"min":[
				-1.9880461692810059,
				6.965000152587891,
				16.510963439941406
			],
			"type":"VEC3"
		},
		{
			"bufferView":59,
			"componentType":5126,
			"count":81,
			"type":"VEC3"
		},
		{
			"bufferView":60,
			"componentType":5126,
			"count":81,
			"type":"VEC2"
		},
		{
			"bufferView":61,
			"componentType":5123,
			"count":81,
			"normalized":true,
			"type":"VEC4"
		},
		{
			"bufferView":62,
			"componentType":5123,
			"count":168,
			"type":"SCALAR"
		},
		{
			"bufferView":63,
			"componentType":5126,
			"count":1430,
			"max":[
				8.220000267028809,
				32.308685302734375,
				18.05980682373047
			],
			"min":[
				-8.220000267028809,
				0.9264892935752869,
				-23.92108917236328
			],
			"type":"VEC3"
		},
		{
			"bufferView":64,
			"componentType":5126,
			"count":1430,
			"type":"VEC3"
		},
		{
			"bufferView":65,
			"componentType":5126,
			"count":1430,
			"type":"VEC2"
		},
		{
			"bufferView":66,
			"componentType":5123,
			"count":1430,
			"normalized":true,
			"type":"VEC4"
		},
		{
			"bufferView":67,
			"componentType":5123,
			"count":3792,
			"type":"SCALAR"
		},
		{
			"bufferView":68,
			"componentType":5126,
			"count":72,
			"max":[
				1.1302499771118164,
				3.008744478225708,
				4.800000190734863
			],
			"min":[
				-1.1302499771118164,
				2.4752912521362305,
				-16.92554473876953
			],
			"type":"VEC3"
		},
		{
			"bufferView":69,
			"componentType":5126,
			"count":72,
			"type":"VEC3"
		},
		{
			"bufferView":70,
			"componentType":5126,
			"count":72,
			"type":"VEC2"
		},
		{
			"bufferView":71,
			"componentType":5123,
			"count":72,
			"normalized":true,
			"type":"VEC4"
		},
		{
			"bufferView":72,
			"componentType":5123,
			"count":108,
			"type":"SCALAR"
		},
		{
			"bufferView":73,
			"componentType":5126,
			"count":2734,
			"max":[
				4.734769344329834,
				26.06498146057129,
				10.190771102905273
			],
			"min":[
				-4.734769344329834,
				2.5388760566711426,
				-21.06039047241211
			],
			"type":"VEC3"
		},
		{
			"bufferView":74,
			"componentType":5126,
			"count":2734,
			"type":"VEC3"
		},
		{
			"bufferView":75,
			"componentType":5126,
			"count":2734,
			"type":"VEC2"
		},
		{
			"bufferView":76,
			"componentType":5123,
			"count":2734,
			"normalized":true,
			"type":"VEC4"
		},
		{
			"bufferView":77,
			"componentType":5123,
			"count":6456,
			"type":"SCALAR"
		},
		{
			"bufferView":78,
			"componentType":5126,
			"count":8714,
			"max":[
				7.9064741134643555,
				31.727947235107422,
				15.595983505249023
			],
			"min":[
				-7.907907485961914,
				2.6589672565460205,
				-23.932876586914062
			],
			"type":"VEC3"
		},
		{
			"bufferView":79,
			"componentType":5126,
			"count":8714,
			"type":"VEC3"
		},
		{
			"bufferView":80,
			"componentType":5126,
			"count":8714,
			"type":"VEC2"
		},
		{
			"bufferView":81,
			"componentType":5123,
			"count":8714,
			"normalized":true,
			"type":"VEC4"
		},
		{
			"bufferView":82,
			"componentType":5123,
			"count":13860,
			"type":"SCALAR"
		},
		{
			"bufferView":83,
			"componentType":5126,
			"count":26,
			"max":[
				0.16424664855003357,
				0,
				6
			],
			"min":[
				-0.1664924919605255,
				-0.36000001430511475,
				0
			],
			"type":"VEC3"
		},
		{
			"bufferView":84,
			"componentType":5126,
			"count":26,
			"type":"VEC3"
		},
		{
			"bufferView":85,
			"componentType":5126,
			"count":26,
			"type":"VEC2"
		},
		{
			"bufferView":86,
			"componentType":5123,
			"count":72,
			"type":"SCALAR"
		},
		{
			"bufferView":87,
			"componentType":5126,
			"count":150,
			"max":[
				8.220000267028809,
				0,
				0
			],
			"min":[
				-8.220000267028809,
				-7.004879951477051,
				-2.073033571243286
			],
			"type":"VEC3"
		},
		{
			"bufferView":88,
			"componentType":5126,
			"count":150,
			"type":"VEC3"
		},
		{
			"bufferView":89,
			"componentType":5126,
			"count":150,
			"type":"VEC2"
		},
		{
			"bufferView":90,
			"componentType":5123,
			"count":756,
			"type":"SCALAR"
		},
		{
			"bufferView":91,
			"componentType":5126,
			"count":150,
			"max":[
				7.3979997634887695,
				0,
				0
			],
			"min":[
				-7.3979997634887695,
				-6.714320182800293,
				-1.785373330116272
			],
			"type":"VEC3"
		},
		{
			"bufferView":92,
			"componentType":5126,
			"count":150,
			"type":"VEC3"
		},
		{
			"bufferView":93,
			"componentType":5126,
			"count":150,
			"type":"VEC2"
		},
		{
			"bufferView":94,
			"componentType":5126,
			"count":150,
			"max":[
				6.066359996795654,
				0,
				0
			],
			"min":[
				-6.066359996795654,
				-4.638800144195557,
				-1.3912832736968994
			],
			"type":"VEC3"
		},
		{
			"bufferView":95,
			"componentType":5126,
			"count":150,
			"type":"VEC3"
		},
		{
			"bufferView":96,
			"componentType":5126,
			"count":150,
			"type":"VEC2"
		},
		{
			"bufferView":97,
			"componentType":5126,
			"count":150,
			"max":[
				7.562399864196777,
				0,
				0
			],
			"min":[
				-7.562399864196777,
				-7.8246002197265625,
				-1.9071907997131348
			],
			"type":"VEC3"
		},
		{
			"bufferView":98,
			"componentType":5126,
			"count":150,
			"type":"VEC3"
		},
		{
			"bufferView":99,
			"componentType":5126,
			"count":150,
			"type":"VEC2"
		},
		{
			"bufferView":100,
			"componentType":5126,
			"count":150,
			"max":[
				6.806159973144531,
				0,
				0
			],
			"min":[
				-6.806159973144531,
				-7.5644001960754395,
				-1.6425435543060303
			],
			"type":"VEC3"
		},
		{
			"bufferView":101,
			"componentType":5126,
			"count":150,
			"type":"VEC3"
		},
		{
			"bufferView":102,
			"componentType":5126,
			"count":150,
			"type":"VEC2"
		},
		{
			"bufferView":103,
			"componentType":5126,
			"count":150,
			"max":[
				5.581051349639893,
				0,
				0
			],
			"min":[
				-5.581051349639893,
				-5.245999813079834,
				-1.2799806594848633
			],
			"type":"VEC3"
		},
		{
			"bufferView":104,
			"componentType":5126,
			"count":150,
			"type":"VEC3"
		},
		{
			"bufferView":105,
			"componentType":5126,
			"count":150,
			"type":"VEC2"
		},
		{
			"bufferView":106,
			"componentType":5126,
			"count":150,
			"max":[
				6.214320182800293,
				0,
				0
			],
			"min":[
				-6.214320182800293,
				-5.477839946746826,
				-1.499713659286499
			],
			"type":"VEC3"
		},
		{
			"bufferView":107,
			"componentType":5126,
			"count":150,
			"type":"VEC3"
		},
		{
			"bufferView":108,
			"componentType":5126,
			"count":150,
			"type":"VEC2"
		},
		{
			"bufferView":109,
			"componentType":5126,
			"count":150,
			"max":[
				5.095742225646973,
				0,
				0
			],
			"min":[
				-5.095742225646973,
				-3.7555999755859375,
				-1.1686779260635376
			],
			"type":"VEC3"
		},
		{
			"bufferView":110,
			"componentType":5126,
			"count":150,
			"type":"VEC3"
		},
		{
			"bufferView":111,
			"componentType":5126,
			"count":150,
			"type":"VEC2"
		},
		{
			"bufferView":112,
			"componentType":5126,
			"count":64,
			"max":[
				16.45737075805664,
				0,
				0.3885217010974884
			],
			"min":[
				0,
				-3.698364019393921,
				-0.6384130716323853
			],
			"type":"VEC3"
		},
		{
			"bufferView":113,
			"componentType":5126,
			"count":64,
			"type":"VEC3"
		},
		{
			"bufferView":114,
			"componentType":5126,
			"count":64,
			"type":"VEC2"
		},
		{
			"bufferView":115,
			"componentType":5123,
			"count":294,
			"type":"SCALAR"
		},
		{
			"bufferView":116,
			"componentType":5126,
			"count":64,
			"max":[
				17.724136352539062,
				0,
				0.38929080963134766
			],
			"min":[
				0,
				-3.9876163005828857,
				-0.6396751403808594
			],
			"type":"VEC3"
		},
		{
			"bufferView":117,
			"componentType":5126,
			"count":64,
			"type":"VEC3"
		},
		{
			"bufferView":118,
			"componentType":5126,
			"count":64,
			"type":"VEC2"
		},
		{
			"bufferView":119,
			"componentType":5126,
			"count":81,
			"max":[
				6.7628583908081055,
				7.152557373046875e-07,
				0.5278650522232056
			],
			"min":[
				-3.289412498474121,
				-10.308244705200195,
				-0.516717791557312
			],
			"type":"VEC3"
		},
		{
			"bufferView":120,
			"componentType":5126,
			"count":81,
			"type":"VEC3"
		},
		{
			"bufferView":121,
			"componentType":5126,
			"count":81,
			"type":"VEC2"
		},
		{
			"bufferView":122,
			"componentType":5123,
			"count":384,
			"type":"SCALAR"
		},
		{
			"bufferView":123,
			"componentType":5126,
			"count":64,
			"max":[
				9.74905014038086,
				4.76837158203125e-07,
				0.3456006348133087
			],
			"min":[
				0,
				-3.374419927597046,
				-0.567884624004364
			],
			"type":"VEC3"
		},
		{
			"bufferView":124,
			"componentType":5126,
			"count":64,
			"type":"VEC3"
		},
		{
			"bufferView":125,
			"componentType":5126,
			"count":64,
			"type":"VEC2"
		},
		{
			"bufferView":126,
			"componentType":5126,
			"count":64,
			"max":[
				7.238882541656494,
				0,
				0.047661617398262024
			],
			"min":[
				0,
				-0.4555043876171112,
				-0.07831946015357971
			],
			"type":"VEC3"
		},
		{
			"bufferView":127,
			"componentType":5126,
			"count":64,
			"type":"VEC3"
		},
		{
			"bufferView":128,
			"componentType":5126,
			"count":64,
			"type":"VEC2"
		}
	],
	"bufferViews":[
		{
			"buffer":0,
			"byteLength":540,
			"byteOffset":0,
			"target":34962
		},
		{
			"buffer":0,
			"byteLength":540,
			"byteOffset":540,
			"target":34962
		},
		{
			"buffer":0,
			"byteLength":360,
			"byteOffset":1080,
			"target":34962
		},
		{
			"buffer":0,
			"byteLength":384,
			"byteOffset":1440,
			"target":34963
		},
		{
			"buffer":0,
			"byteLength":48588,
			"byteOffset":1824,
			"target":34962
		},
		{
			"buffer":0,
			"byteLength":48588,
			"byteOffset":50412,
			"target":34962
		},
		{
			"buffer":0,
			"byteLength":32392,
			"byteOffset":99000,
			"target":34962
		},
		{
			"buffer":0,
			"byteLength":32392,
			"byteOffset":131392,
			"target":34962
		},
		{
			"buffer":0,
			"byteLength":44928,
			"byteOffset":163784,
			"target":34963
		},
		{
			"buffer":0,
			"byteLength":29052,
			"byteOffset":208712,
			"target":34962
		},
		{
			"buffer":0,
			"byteLength":29052,
			"byteOffset":237764,
			"target":34962
		},
		{
			"buffer":0,
			"byteLength":19368,
			"byteOffset":266816,
			"target":34962
		},
		{
			"buffer":0,
			"byteLength":19368,
			"byteOffset":286184,
			"target":34962
		},
		{
			"buffer":0,
			"byteLength":9216,
			"byteOffset":305552,
			"target":34963
		},
		{
			"buffer":0,
			"byteLength":11292,
			"byteOffset":314768,
			"target":34962
		},
		{
			"buffer":0,
			"byteLength":11292,
			"byteOffset":326060,
			"target":34962
		},
		{
			"buffer":0,
			"byteLength":7528,
			"byteOffset":337352,
			"target":34962
		},
		{
			"buffer":0,
			"byteLength":7528,
			"byteOffset":344880,
			"target":34962
		},
		{
			"buffer":0,
			"byteLength":5184,
			"byteOffset":352408,
			"target":34963
		},
		{
			"buffer":0,
			"byteLength":56448,
			"byteOffset":357592,
			"target":34962
		},
		{
			"buffer":0,
			"byteLength":56448,
			"byteOffset":414040,
			"target":34962
		},
		{
			"buffer":0,
			"byteLength":37632,
			"byteOffset":470488,
			"target":34962
		},
		{
			"buffer":0,
			"byteLength":37632,
			"byteOffset":508120,
			"target":34962
		},
		{
			"buffer":0,
			"byteLength":28464,
			"byteOffset":545752,
			"target":34963
		},
		{
			"buffer":0,
			"byteLength":8064,
			"byteOffset":574216,
			"target":34962
		},
		{
			"buffer":0,
			"byteLength":8064,
			"byteOffset":582280,
			"target":34962
		},
		{
			"buffer":0,
			"byteLength":5376,
			"byteOffset":590344,
			"target":34962
		},
		{
			"buffer":0,
			"byteLength":5376,
			"byteOffset":595720,
			"target":34962
		},
		{
			"buffer":0,
			"byteLength":2016,
			"byteOffset":601096,
			"target":34963
		},
		{
			"buffer":0,
			"byteLength":31848,
			"byteOffset":603112,
			"target":34962
		},
		{
			"buffer":0,
			"byteLength":31848,
			"byteOffset":634960,
			"target":34962
		},
		{
			"buffer":0,
			"byteLength":21232,
			"byteOffset":666808,
			"target":34962
		},
		{
			"buffer":0,
			"byteLength":21232,
			"byteOffset":688040,
			"target":34962
		},
		{
			"buffer":0,
			"byteLength":11376,
			"byteOffset":709272,
			"target":34963
		},
		{
			"buffer":0,
			"byteLength":18084,
			"byteOffset":720648,
			"target":34962
		},
		{
			"buffer":0,
			"byteLength":18084,
			"byteOffset":738732,
			"target":34962
		},
		{
			"buffer":0,
			"byteLength":12056,
			"byteOffset":756816,
			"target":34962
		},
		{
			"buffer":0,
			"byteLength":12056,
			"byteOffset":768872,
			"target":34962
		},
		{
			"buffer":0,
			"byteLength":5640,
			"byteOffset":780928,
			"target":34963
		},
		{
			"buffer":0,
			"byteLength":6336,
			"byteOffset":786568,
			"target":34962
		},
		{
			"buffer":0,
			"byteLength":6336,
			"byteOffset":792904,
			"target":34962
		},
		{
			"buffer":0,
			"byteLength":4224,
			"byteOffset":799240,
			"target":34962
		},
		{
			"buffer":0,
			"byteLength":4224,
			"byteOffset":803464,
			"target":34962
		},
		{
			"buffer":0,
			"byteLength":1584,
			"byteOffset":807688,
			"target":34963
		},
		{
			"buffer":0,
			"byteLength":9216,
			"byteOffset":809272,
			"target":34962
		},
		{
			"buffer":0,
			"byteLength":9216,
			"byteOffset":818488,
			"target":34962
		},
		{
			"buffer":0,
			"byteLength":6144,
			"byteOffset":827704,
			"target":34962
		},
		{
			"buffer":0,
			"byteLength":6144,
			"byteOffset":833848,
			"target":34962
		},
		{
			"buffer":0,
			"byteLength":2304,
			"byteOffset":839992,
			"target":34963
		},
		{
			"buffer":0,
			"byteLength":26160,
			"byteOffset":842296,
			"target":34962
		},
		{
			"buffer":0,
			"byteLength":26160,
			"byteOffset":868456,
			"target":34962
		},
		{
			"buffer":0,
			"byteLength":17440,
			"byteOffset":894616,
			"target":34962
		},
		{
			"buffer":0,
			"byteLength":17440,
			"byteOffset":912056,
			"target":34962
		},
		{
			"buffer":0,
			"byteLength":8736,
			"byteOffset":929496,
			"target":34963
		},
		{
			"buffer":0,
			"byteLength":6336,
			"byteOffset":938232,
			"target":34962
		},
		{
			"buffer":0,
			"byteLength":6336,
			"byteOffset":944568,
			"target":34962
		},
		{
			"buffer":0,
			"byteLength":4224,
			"byteOffset":950904,
			"target":34962
		},
		{
			"buffer":0,
			"byteLength":4224,
			"byteOffset":955128,
			"target":34962
		},
		{
			"buffer":0,
			"byteLength":972,
			"byteOffset":959352,
			"target":34962
		},
		{
			"buffer":0,
			"byteLength":972,
			"byteOffset":960324,
			"target":34962
		},
		{
			"buffer":0,
			"byteLength":648,
			"byteOffset":961296,
			"target":34962
		},
		{
			"buffer":0,
			"byteLength":648,
			"byteOffset":961944,
			"target":34962
		},
		{
			"buffer":0,
			"byteLength":336,
			"byteOffset":962592,
			"target":34963
		},
		{
			"buffer":0,
			"byteLength":17160,
			"byteOffset":962928,
			"target":34962
		},
		{
			"buffer":0,
			"byteLength":17160,
			"byteOffset":980088,
			"target":34962
		},
		{
			"buffer":0,
			"byteLength":11440,
			"byteOffset":997248,
			"target":34962
		},
		{
			"buffer":0,
			"byteLength":11440,
			"byteOffset":1008688,
			"target":34962
		},
		{
			"buffer":0,
			"byteLength":7584,
			"byteOffset":1020128,
			"target":34963
		},
		{
			"buffer":0,
			"byteLength":864,
			"byteOffset":1027712,
			"target":34962
		},
		{
			"buffer":0,
			"byteLength":864,
			"byteOffset":1028576,
			"target":34962
		},
		{
			"buffer":0,
			"byteLength":576,
			"byteOffset":1029440,
			"target":34962
		},
		{
			"buffer":0,
			"byteLength":576,
			"byteOffset":1030016,
			"target":34962
		},
		{
			"buffer":0,
			"byteLength":216,
			"byteOffset":1030592,
			"target":34963
		},
		{
			"buffer":0,
			"byteLength":32808,
			"byteOffset":1030808,
			"target":34962
		},
		{
			"buffer":0,
			"byteLength":32808,
			"byteOffset":1063616,
			"target":34962
		},
		{
			"buffer":0,
			"byteLength":21872,
			"byteOffset":1096424,
			"target":34962
		},
		{
			"buffer":0,
			"byteLength":21872,
			"byteOffset":1118296,
			"target":34962
		},
		{
			"buffer":0,
			"byteLength":12912,
			"byteOffset":1140168,
			"target":34963
		},
		{
			"buffer":0,
			"byteLength":104568,
			"byteOffset":1153080,
			"target":34962
		},
		{
			"buffer":0,
			"byteLength":104568,
			"byteOffset":1257648,
			"target":34962
		},
		{
			"buffer":0,
			"byteLength":69712,
			"byteOffset":1362216,
			"target":34962
		},
		{
			"buffer":0,
			"byteLength":69712,
			"byteOffset":1431928,
			"target":34962
		},
		{
			"buffer":0,
			"byteLength":27720,
			"byteOffset":1501640,
			"target":34963
		},
		{
			"buffer":0,
			"byteLength":312,
			"byteOffset":1529360,
			"target":34962
		},
		{
			"buffer":0,
			"byteLength":312,
			"byteOffset":1529672,
			"target":34962
		},
		{
			"buffer":0,
			"byteLength":208,
			"byteOffset":1529984,
			"target":34962
		},
		{
			"buffer":0,
			"byteLength":144,
			"byteOffset":1530192,
			"target":34963
		},
		{
			"buffer":0,
			"byteLength":1800,
			"byteOffset":1530336,
			"target":34962
		},
		{
			"buffer":0,
			"byteLength":1800,
			"byteOffset":1532136,
			"target":34962
		},
		{
			"buffer":0,
			"byteLength":1200,
			"byteOffset":1533936,
			"target":34962
		},
		{
			"buffer":0,
			"byteLength":1512,
			"byteOffset":1535136,
			"target":34963
		},
		{
			"buffer":0,
			"byteLength":1800,
			"byteOffset":1536648,
			"target":34962
		},
		{
			"buffer":0,
			"byteLength":1800,
			"byteOffset":1538448,
			"target":34962
		},
		{
			"buffer":0,
			"byteLength":1200,
			"byteOffset":1540248,
			"target":34962
		},
		{
			"buffer":0,
			"byteLength":1800,
			"byteOffset":1541448,
			"target":34962
		},
		{
			"buffer":0,
			"byteLength":1800,
			"byteOffset":1543248,
			"target":34962
		},
		{
			"buffer":0,
			"byteLength":1200,
			"byteOffset":1545048,
			"target":34962
		},
		{
			"buffer":0,
			"byteLength":1800,
			"byteOffset":1546248,
			"target":34962
		},
		{
			"buffer":0,
			"byteLength":1800,
			"byteOffset":1548048,
			"target":34962
		},
		{
			"buffer":0,
			"byteLength":1200,
			"byteOffset":1549848,
			"target":34962
		},
		{
			"buffer":0,
			"byteLength":1800,
			"byteOffset":1551048,
			"target":34962
		},
		{
			"buffer":0,
			"byteLength":1800,
			"byteOffset":1552848,
			"target":34962
		},
		{
			"buffer":0,
			"byteLength":1200,
			"byteOffset":1554648,
			"target":34962
		},
		{
			"buffer":0,
			"byteLength":1800,
			"byteOffset":1555848,
			"target":34962
		},
		{
			"buffer":0,
			"byteLength":1800,
			"byteOffset":1557648,
			"target":34962
		},
		{
			"buffer":0,
			"byteLength":1200,
			"byteOffset":1559448,
			"target":34962
		},
		{
			"buffer":0,
			"byteLength":1800,
			"byteOffset":1560648,
			"target":34962
		},
		{
			"buffer":0,
			"byteLength":1800,
			"byteOffset":1562448,
			"target":34962
		},
		{
			"buffer":0,
			"byteLength":1200,
			"byteOffset":1564248,
			"target":34962
		},
		{
			"buffer":0,
			"byteLength":1800,
			"byteOffset":1565448,
			"target":34962
		},
		{
			"buffer":0,
			"byteLength":1800,
			"byteOffset":1567248,
			"target":34962
		},
		{
			"buffer":0,
			"byteLength":1200,
			"byteOffset":1569048,
			"target":34962
		},
		{
			"buffer":0,
			"byteLength":768,
			"byteOffset":1570248,
			"target":34962
		},
		{
			"buffer":0,
			"byteLength":768,
			"byteOffset":1571016,
			"target":34962
		},
		{
			"buffer":0,
			"byteLength":512,
			"byteOffset":1571784,
			"target":34962
		},
		{
			"buffer":0,
			"byteLength":588,
			"byteOffset":1572296,
			"target":34963
		},
		{
			"buffer":0,
			"byteLength":768,
			"byteOffset":1572884,
			"target":34962
		},
		{
			"buffer":0,
			"byteLength":768,
			"byteOffset":1573652,
			"target":34962
		},
		{
			"buffer":0,
			"byteLength":512,
			"byteOffset":1574420,
			"target":34962
		},
		{
			"buffer":0,
			"byteLength":972,
			"byteOffset":1574932,
			"target":34962
		},
		{
			"buffer":0,
			"byteLength":972,
			"byteOffset":1575904,
			"target":34962
		},
		{
			"buffer":0,
			"byteLength":648,
			"byteOffset":1576876,
			"target":34962
		},
		{
			"buffer":0,
			"byteLength":768,
			"byteOffset":1577524,
			"target":34963
		},
		{
			"buffer":0,
			"byteLength":768,
			"byteOffset":1578292,
			"target":34962
		},
		{
			"buffer":0,
			"byteLength":768,
			"byteOffset":1579060,
			"target":34962
		},
		{
			"buffer":0,
			"byteLength":512,
			"byteOffset":1579828,
			"target":34962
		},
		{
			"buffer":0,
			"byteLength":768,
			"byteOffset":1580340,
			"target":34962
		},
		{
			"buffer":0,
			"byteLength":768,
			"byteOffset":1581108,
			"target":34962
		},
		{
			"buffer":0,
			"byteLength":512,
			"byteOffset":1581876,
			"target":34962
		}
	],
	"samplers":[
		{
			"magFilter":9729,
			"minFilter":9987
		}
	],
	"buffers":[
		{
			"byteLength":1582388,
			"uri":"corvette.bin"
		}
	]
}
