{
	"asset":{
		"generator":"Khronos glTF Blender I/O v5.2.40",
		"version":"2.0"
	},
	"scene":0,
	"scenes":[
		{
			"name":"Scene",
			"nodes":[
				0,
				1,
				2,
				3,
				4,
				5,
				6,
				7
			]
		}
	],
	"nodes":[
		{
			"mesh":0,
			"name":"dutch_ship_large_02_hull"
		},
		{
			"mesh":1,
			"name":"dutch_ship_large_02_rigging"
		},
		{
			"mesh":2,
			"name":"Flag",
			"translation":[
				0.19197334349155426,
				20.88037109375,
				14.94903564453125
			]
		},
		{
			"mesh":3,
			"name":"Pennant",
			"translation":[
				0.007495679426938295,
				30.062889099121094,
				3.1060166358947754
			]
		},
		{
			"mesh":4,
			"name":"Sail_0",
			"translation":[
				-0.3723527193069458,
				9.43042278289795,
				-8.90359115600586
			]
		},
		{
			"mesh":5,
			"name":"Sail_1",
			"translation":[
				-0.3590203523635864,
				19.31395721435547,
				-8.392029762268066
			]
		},
		{
			"mesh":6,
			"name":"Sail_2",
			"translation":[
				-0.2901424169540405,
				12.918231010437012,
				1.4969840049743652
			]
		},
		{
			"mesh":7,
			"name":"Sail_3",
			"translation":[
				-0.08052980899810791,
				23.06194496154785,
				2.9417271614074707
			]
		}
	],
	"materials":[
		{
			"doubleSided":true,
			"name":"dutch_ship_large_02_hull",
			"normalTexture":{
				"index":0
			},
			"pbrMetallicRoughness":{
				"baseColorTexture":{
					"index":1
				},
				"metallicRoughnessTexture":{
					"index":2
				}
			}
		},
		{
			"doubleSided":true,
			"name":"dutch_ship_large_02_rigging",
			"normalTexture":{
				"index":3
			},
			"pbrMetallicRoughness":{
				"baseColorTexture":{
					"index":4
				},
				"metallicRoughnessTexture":{
					"index":5
				}
			}
		},
		{
			"doubleSided":true,
			"name":"flag",
			"pbrMetallicRoughness":{
				"baseColorFactor":[
					0.800000011920929,
					0.800000011920929,
					0.800000011920929,
					1
				],
				"metallicFactor":0,
				"roughnessFactor":0.5
			}
		},
		{
			"alphaMode":"MASK",
			"doubleSided":true,
			"name":"dutch_ship_large_02_sails",
			"normalTexture":{
				"index":6
			},
			"pbrMetallicRoughness":{
				"baseColorTexture":{
					"index":7
				},
				"metallicFactor":0,
				"metallicRoughnessTexture":{
					"index":8
				}
			}
		}
	],
	"meshes":[
		{
			"name":"x-Boats-Dutch-large-baseB-joined.001",
			"primitives":[
				{
					"attributes":{
						"POSITION":0,
						"NORMAL":1,
						"TEXCOORD_0":2
					},
					"indices":3,
					"material":0
				}
			]
		},
		{
			"name":"x-Boats-Dutch-large-rigging-joined.001",
			"primitives":[
				{
					"attributes":{
						"POSITION":4,
						"NORMAL":5,
						"TEXCOORD_0":6
					},
					"indices":7,
					"material":1
				}
			]
		},
		{
			"name":"Flag",
			"primitives":[
				{
					"attributes":{
						"POSITION":8,
						"NORMAL":9,
						"TEXCOORD_0":10
					},
					"indices":11,
					"material":2
				}
			]
		},
		{
			"name":"Pennant",
			"primitives":[
				{
					"attributes":{
						"POSITION":12,
						"NORMAL":13,
						"TEXCOORD_0":14
					},
					"indices":15,
					"material":2
				}
			]
		},
		{
			"name":"Plane.002",
			"primitives":[
				{
					"attributes":{
						"POSITION":16,
						"NORMAL":17,
						"TEXCOORD_0":18
					},
					"indices":19,
					"material":3
				}
			]
		},
		{
			"name":"Plane.003",
			"primitives":[
				{
					"attributes":{
						"POSITION":20,
						"NORMAL":21,
						"TEXCOORD_0":22
					},
					"indices":23,
					"material":3
				}
			]
		},
		{
			"name":"Plane.001",
			"primitives":[
				{
					"attributes":{
						"POSITION":24,
						"NORMAL":25,
						"TEXCOORD_0":26
					},
					"indices":27,
					"material":3
				}
			]
		},
		{
			"name":"Plane.038",
			"primitives":[
				{
					"attributes":{
						"POSITION":28,
						"NORMAL":29,
						"TEXCOORD_0":30
					},
					"indices":31,
					"material":3
				}
			]
		}
	],
	"textures":[
		{
			"sampler":0,
			"source":0
		},
		{
			"sampler":0,
			"source":1
		},
		{
			"sampler":0,
			"source":2
		},
		{
			"sampler":0,
			"source":3
		},
		{
			"sampler":0,
			"source":4
		},
		{
			"sampler":0,
			"source":5
		},
		{
			"sampler":0,
			"source":6
		},
		{
			"sampler":0,
			"source":7
		},
		{
			"sampler":0,
			"source":8
		}
	],
	"images":[
		{
			"mimeType":"image/jpeg",
			"name":"dutch_ship_large_02_hull_nor_gl_2k",
			"uri":"textures/dutch_ship_large_02_hull_nor_gl_2k.jpg"
		},
		{
			"mimeType":"image/jpeg",
			"name":"dutch_ship_large_02_hull_diff_2k",
			"uri":"textures/dutch_ship_large_02_hull_diff_2k.jpg"
		},
		{
			"mimeType":"image/jpeg",
			"name":"dutch_ship_large_02_hull_arm_2k",
			"uri":"textures/dutch_ship_large_02_hull_arm_2k.jpg"
		},
		{
			"mimeType":"image/jpeg",
			"name":"dutch_ship_large_02_rigging_nor_gl_2k",
			"uri":"textures/dutch_ship_large_02_rigging_nor_gl_2k.jpg"
		},
		{
			"mimeType":"image/jpeg",
			"name":"dutch_ship_large_02_rigging_diff_2k",
			"uri":"textures/dutch_ship_large_02_rigging_diff_2k.jpg"
		},
		{
			"mimeType":"image/jpeg",
			"name":"dutch_ship_large_02_rigging_arm_2k",
			"uri":"textures/dutch_ship_large_02_rigging_arm_2k.jpg"
		},
		{
			"mimeType":"image/jpeg",
			"name":"dutch_ship_large_02_sails_nor_gl_2k",
			"uri":"textures/dutch_ship_large_02_sails_nor_gl_2k.jpg"
		},
		{
			"mimeType":"image/png",
			"name":"dutch_ship_large_02_sails_diff_2k",
			"uri":"textures/dutch_ship_large_02_sails_diff_2k.png"
		},
		{
			"mimeType":"image/jpeg",
			"name":"dutch_ship_large_02_sails_arm_2k",
			"uri":"textures/dutch_ship_large_02_sails_arm_2k.jpg"
		}
	],
	"accessors":[
		{
			"bufferView":0,
			"componentType":5126,
			"count":52518,
			"max":[
				4.193708419799805,
				10.068502426147461,
				15.187860488891602
			],
			"min":[
				-4.193708896636963,
				-1.9159564971923828,
				-15.187860488891602
			],
			"type":"VEC3"
		},
		{
			"bufferView":1,
			"componentType":5126,
			"count":52518,
			"type":"VEC3"
		},
		{
			"bufferView":2,
			"componentType":5126,
			"count":52518,
			"type":"VEC2"
		},
		{
			"bufferView":3,
			"componentType":5123,
			"count":166164,
			"type":"SCALAR"
		},
		{
			"bufferView":4,
			"componentType":5126,
			"count":39176,
			"max":[
				4.1750335693359375,
				30.16288948059082,
				15.993560791015625
			],
			"min":[
				-4.184925079345703,
				2.9227380752563477,
				-18.257654190063477
			],
			"type":"VEC3"
		},
		{
			"bufferView":5,
			"componentType":5126,
			"count":39176,
			"type":"VEC3"
		},
		{
			"bufferView":6,
			"componentType":5126,
			"count":39176,
			"type":"VEC2"
		},
		{
			"bufferView":7,
			"componentType":5123,
			"count":100710,
			"type":"SCALAR"
		},
		{
			"bufferView":8,
			"componentType":5126,
			"count":128,
			"max":[
				0.09563744068145752,
				0,
				3.341329336166382
			],
			"min":[
				-0.2563265562057495,
				-2.126300573348999,
				0
			],
			"type":"VEC3"
		},
		{
			"bufferView":9,
			"componentType":5126,
			"count":128,
			"type":"VEC3"
		},
		{
			"bufferView":10,
			"componentType":5126,
			"count":128,
			"type":"VEC2"
		},
		{
			"bufferView":11,
			"componentType":5123,
			"count":192,
			"type":"SCALAR"
		},
		{
			"bufferView":12,
			"componentType":5126,
			"count":128,
			"max":[
				0.13910901546478271,
				0,
				4.8601155281066895
			],
			"min":[
				-0.3728386163711548,
				-0.36450865864753723,
				0
			],
			"type":"VEC3"
		},
		{
			"bufferView":13,
			"componentType":5126,
			"count":128,
			"type":"VEC3"
		},
		{
			"bufferView":14,
			"componentType":5126,
			"count":128,
			"type":"VEC2"
		},
		{
			"bufferView":15,
			"componentType":5123,
			"count":192,
			"type":"SCALAR"
		},
		{
			"bufferView":16,
			"componentType":5126,
			"count":791,
			"max":[
				3.4139370918273926,
				0,
				1.5215892791748047
			],
			"min":[
				-3.4139370918273926,
				-3.148625373840332,
				-1.5215892791748047
			],
			"type":"VEC3"
		},
		{
			"bufferView":17,
			"componentType":5126,
			"count":791,
			"type":"VEC3"
		},
		{
			"bufferView":18,
			"componentType":5126,
			"count":791,
			"type":"VEC2"
		},
		{
			"bufferView":19,
			"componentType":5123,
			"count":4434,
			"type":"SCALAR"
		},
		{
			"bufferView":20,
			"componentType":5126,
			"count":1283,
			"max":[
				2.6903457641601562,
				0,
				0.7621946334838867
			],
			"min":[
				-2.6903457641601562,
				-1.023275375366211,
				-0.7621946334838867
			],
			"type":"VEC3"
		},
		{
			"bufferView":21,
			"componentType":5126,
			"count":1283,
			"type":"VEC3"
		},
		{
			"bufferView":22,
			"componentType":5126,
			"count":1283,
			"type":"VEC2"
		},
		{
			"bufferView":23,
			"componentType":5123,
			"count":7272,
			"type":"SCALAR"
		},
		{
			"bufferView":24,
			"componentType":5126,
			"count":691,
			"max":[
				4.053852081298828,
				0,
				2.1874961853027344
			],
			"min":[
				-4.053852081298828,
				-5.354137420654297,
				-2.1874961853027344
			],
			"type":"VEC3"
		},
		{
			"bufferView":25,
			"componentType":5126,
			"count":691,
			"type":"VEC3"
		},
		{
			"bufferView":26,
			"componentType":5126,
			"count":691,
			"type":"VEC2"
		},
		{
			"bufferView":27,
			"componentType":5123,
			"count":3822,
			"type":"SCALAR"
		},
		{
			"bufferView":28,
			"componentType":5126,
			"count":1255,
			"max":[
				2.6870827674865723,
				0,
				0.8646941184997559
			],
			"min":[
				-2.6870827674865723,
				-1.641693115234375,
				-0.8646938800811768
			],
			"type":"VEC3"
		},
		{
			"bufferView":29,
			"componentType":5126,
			"count":1255,
			"type":"VEC3"
		},
		{
			"bufferView":30,
			"componentType":5126,
			"count":1255,
			"type":"VEC2"
		},
		{
			"bufferView":31,
			"componentType":5123,
			"count":7116,
			"type":"SCALAR"
		}
	],
	"bufferViews":[
		{
			"buffer":0,
			"byteLength":630216,
			"byteOffset":0,
			"target":34962
		},
		{
			"buffer":0,
			"byteLength":630216,
			"byteOffset":630216,
			"target":34962
		},
		{
			"buffer":0,
			"byteLength":420144,
			"byteOffset":1260432,
			"target":34962
		},
		{
			"buffer":0,
			"byteLength":332328,
			"byteOffset":1680576,
			"target":34963
		},
		{
			"buffer":0,
			"byteLength":470112,
			"byteOffset":2012904,
			"target":34962
		},
		{
			"buffer":0,
			"byteLength":470112,
			"byteOffset":2483016,
			"target":34962
		},
		{
			"buffer":0,
			"byteLength":313408,
			"byteOffset":2953128,
			"target":34962
		},
		{
			"buffer":0,
			"byteLength":201420,
			"byteOffset":3266536,
			"target":34963
		},
		{
			"buffer":0,
			"byteLength":1536,
			"byteOffset":3467956,
			"target":34962
		},
		{
			"buffer":0,
			"byteLength":1536,
			"byteOffset":3469492,
			"target":34962
		},
		{
			"buffer":0,
			"byteLength":1024,
			"byteOffset":3471028,
			"target":34962
		},
		{
			"buffer":0,
			"byteLength":384,
			"byteOffset":3472052,
			"target":34963
		},
		{
			"buffer":0,
			"byteLength":1536,
			"byteOffset":3472436,
			"target":34962
		},
		{
			"buffer":0,
			"byteLength":1536,
			"byteOffset":3473972,
			"target":34962
		},
		{
			"buffer":0,
			"byteLength":1024,
			"byteOffset":3475508,
			"target":34962
		},
		{
			"buffer":0,
			"byteLength":384,
			"byteOffset":3476532,
			"target":34963
		},
		{
			"buffer":0,
			"byteLength":9492,
			"byteOffset":3476916,
			"target":34962
		},
		{
			"buffer":0,
			"byteLength":9492,
			"byteOffset":3486408,
			"target":34962
		},
		{
			"buffer":0,
			"byteLength":6328,
			"byteOffset":3495900,
			"target":34962
		},
		{
			"buffer":0,
			"byteLength":8868,
			"byteOffset":3502228,
			"target":34963
		},
		{
			"buffer":0,
			"byteLength":15396,
			"byteOffset":3511096,
			"target":34962
		},
		{
			"buffer":0,
			"byteLength":15396,
			"byteOffset":3526492,
			"target":34962
		},
		{
			"buffer":0,
			"byteLength":10264,
			"byteOffset":3541888,
			"target":34962
		},
		{
			"buffer":0,
			"byteLength":14544,
			"byteOffset":3552152,
			"target":34963
		},
		{
			"buffer":0,
			"byteLength":8292,
			"byteOffset":3566696,
			"target":34962
		},
		{
			"buffer":0,
			"byteLength":8292,
			"byteOffset":3574988,
			"target":34962
		},
		{
			"buffer":0,
			"byteLength":5528,
			"byteOffset":3583280,
			"target":34962
		},
		{
			"buffer":0,
			"byteLength":7644,
			"byteOffset":3588808,
			"target":34963
		},
		{
			"buffer":0,
			"byteLength":15060,
			"byteOffset":3596452,
			"target":34962
		},
		{
			"buffer":0,
			"byteLength":15060,
			"byteOffset":3611512,
			"target":34962
		},
		{
			"buffer":0,
			"byteLength":10040,
			"byteOffset":3626572,
			"target":34962
		},
		{
			"buffer":0,
			"byteLength":14232,
			"byteOffset":3636612,
			"target":34963
		}
	],
	"samplers":[
		{
			"magFilter":9729,
			"minFilter":9987
		}
	],
	"buffers":[
		{
			"byteLength":3650844,
			"uri":"dutch_ship_large_02.bin"
		}
	]
}
