{
	"asset":{
		"generator":"Khronos glTF Blender I/O v5.2.40",
		"version":"2.0"
	},
	"scene":0,
	"scenes":[
		{
			"name":"Scene",
			"nodes":[
				0,
				1,
				2,
				3,
				4,
				5,
				6,
				7
			]
		}
	],
	"nodes":[
		{
			"mesh":0,
			"name":"dutch_ship_medium_hull"
		},
		{
			"mesh":1,
			"name":"dutch_ship_medium_rigging"
		},
		{
			"mesh":2,
			"name":"Flag",
			"translation":[
				0.14376941323280334,
				12.119654655456543,
				9.73361587524414
			]
		},
		{
			"mesh":3,
			"name":"Pennant",
			"translation":[
				-0.005425845738500357,
				22.557126998901367,
				1.9069985151290894
			]
		},
		{
			"mesh":4,
			"name":"Sail_0",
			"translation":[
				-0.128484845161438,
				7.776052474975586,
				-6.464632511138916
			]
		},
		{
			"mesh":5,
			"name":"Sail_1",
			"translation":[
				-0.17042362689971924,
				15.828924179077148,
				-6.007696151733398
			]
		},
		{
			"mesh":6,
			"name":"Sail_2",
			"translation":[
				-0.22430241107940674,
				8.64118766784668,
				-0.10759353637695312
			]
		},
		{
			"mesh":7,
			"name":"Sail_3",
			"translation":[
				-0.004617929458618164,
				16.878726959228516,
				1.542067527770996
			]
		}
	],
	"materials":[
		{
			"doubleSided":true,
			"name":"dutch_ship_medium_hull",
			"normalTexture":{
				"index":0
			},
			"pbrMetallicRoughness":{
				"baseColorTexture":{
					"index":1
				},
				"metallicRoughnessTexture":{
					"index":2
				}
			}
		},
		{
			"doubleSided":true,
			"name":"dutch_ship_medium_rigging",
			"normalTexture":{
				"index":3
			},
			"pbrMetallicRoughness":{
				"baseColorTexture":{
					"index":4
				},
				"metallicRoughnessTexture":{
					"index":5
				}
			}
		},
		{
			"doubleSided":true,
			"name":"flag",
			"pbrMetallicRoughness":{
				"baseColorFactor":[
					0.800000011920929,
					0.800000011920929,
					0.800000011920929,
					1
				],
				"metallicFactor":0,
				"roughnessFactor":0.5
			}
		},
		{
			"alphaMode":"MASK",
			"doubleSided":true,
			"name":"dutch_ship_medium_sails",
			"normalTexture":{
				"index":6
			},
			"pbrMetallicRoughness":{
				"baseColorTexture":{
					"index":7
				},
				"metallicFactor":0,
				"metallicRoughnessTexture":{
					"index":8
				}
			}
		}
	],
	"meshes":[
		{
			"name":"x-Boats-Dutch-medium-baseB-joined",
			"primitives":[
				{
					"attributes":{
						"POSITION":0,
						"NORMAL":1,
						"TEXCOORD_0":2
					},
					"indices":3,
					"material":0
				}
			]
		},
		{
			"name":"x-Boats-Dutch-medium-rigging-joined",
			"primitives":[
				{
					"attributes":{
						"POSITION":4,
						"NORMAL":5,
						"TEXCOORD_0":6
					},
					"indices":7,
					"material":1
				}
			]
		},
		{
			"name":"Flag",
			"primitives":[
				{
					"attributes":{
						"POSITION":8,
						"NORMAL":9,
						"TEXCOORD_0":10
					},
					"indices":11,
					"material":2
				}
			]
		},
		{
			"name":"Pennant",
			"primitives":[
				{
					"attributes":{
						"POSITION":12,
						"NORMAL":13,
						"TEXCOORD_0":14
					},
					"indices":15,
					"material":2
				}
			]
		},
		{
			"name":"Plane.002",
			"primitives":[
				{
					"attributes":{
						"POSITION":16,
						"NORMAL":17,
						"TEXCOORD_0":18
					},
					"indices":19,
					"material":3
				}
			]
		},
		{
			"name":"Plane.003",
			"primitives":[
				{
					"attributes":{
						"POSITION":20,
						"NORMAL":21,
						"TEXCOORD_0":22
					},
					"indices":23,
					"material":3
				}
			]
		},
		{
			"name":"Plane.001",
			"primitives":[
				{
					"attributes":{
						"POSITION":24,
						"NORMAL":25,
						"TEXCOORD_0":26
					},
					"indices":27,
					"material":3
				}
			]
		},
		{
			"name":"Plane.072",
			"primitives":[
				{
					"attributes":{
						"POSITION":28,
						"NORMAL":29,
						"TEXCOORD_0":30
					},
					"indices":31,
					"material":3
				}
			]
		}
	],
	"textures":[
		{
			"sampler":0,
			"source":0
		},
		{
			"sampler":0,
			"source":1
		},
		{
			"sampler":0,
			"source":2
		},
		{
			"sampler":0,
			"source":3
		},
		{
			"sampler":0,
			"source":4
		},
		{
			"sampler":0,
			"source":5
		},
		{
			"sampler":0,
			"source":6
		},
		{
			"sampler":0,
			"source":7
		},
		{
			"sampler":0,
			"source":8
		}
	],
	"images":[
		{
			"mimeType":"image/jpeg",
			"name":"dutch_ship_medium_hull_nor_gl_2k",
			"uri":"textures/dutch_ship_medium_hull_nor_gl_2k.jpg"
		},
		{
			"mimeType":"image/jpeg",
			"name":"dutch_ship_medium_hull_diff_2k",
			"uri":"textures/dutch_ship_medium_hull_diff_2k.jpg"
		},
		{
			"mimeType":"image/jpeg",
			"name":"dutch_ship_medium_hull_arm_2k",
			"uri":"textures/dutch_ship_medium_hull_arm_2k.jpg"
		},
		{
			"mimeType":"image/jpeg",
			"name":"dutch_ship_medium_rigging_nor_gl_2k",
			"uri":"textures/dutch_ship_medium_rigging_nor_gl_2k.jpg"
		},
		{
			"mimeType":"image/jpeg",
			"name":"dutch_ship_medium_rigging_diff_2k",
			"uri":"textures/dutch_ship_medium_rigging_diff_2k.jpg"
		},
		{
			"mimeType":"image/jpeg",
			"name":"dutch_ship_medium_rigging_arm_2k",
			"uri":"textures/dutch_ship_medium_rigging_arm_2k.jpg"
		},
		{
			"mimeType":"image/jpeg",
			"name":"dutch_ship_medium_sails_nor_gl_2k",
			"uri":"textures/dutch_ship_medium_sails_nor_gl_2k.jpg"
		},
		{
			"mimeType":"image/png",
			"name":"dutch_ship_medium_sails_diff_2k",
			"uri":"textures/dutch_ship_medium_sails_diff_2k.png"
		},
		{
			"mimeType":"image/jpeg",
			"name":"dutch_ship_medium_sails_arm_2k",
			"uri":"textures/dutch_ship_medium_sails_arm_2k.jpg"
		}
	],
	"accessors":[
		{
			"bufferView":0,
			"componentType":5126,
			"count":25348,
			"max":[
				2.6010658740997314,
				5.971731662750244,
				10.979244232177734
			],
			"min":[
				-2.6010661125183105,
				-1.9999947547912598,
				-10.979244232177734
			],
			"type":"VEC3"
		},
		{
			"bufferView":1,
			"componentType":5126,
			"count":25348,
			"type":"VEC3"
		},
		{
			"bufferView":2,
			"componentType":5126,
			"count":25348,
			"type":"VEC2"
		},
		{
			"bufferView":3,
			"componentType":5123,
			"count":83694,
			"type":"SCALAR"
		},
		{
			"bufferView":4,
			"componentType":5126,
			"count":36554,
			"max":[
				3.3224728107452393,
				22.657127380371094,
				10.636932373046875
			],
			"min":[
				-3.48634934425354,
				1.1995306015014648,
				-13.091108322143555
			],
			"type":"VEC3"
		},
		{
			"bufferView":5,
			"componentType":5126,
			"count":36554,
			"type":"VEC3"
		},
		{
			"bufferView":6,
			"componentType":5126,
			"count":36554,
			"type":"VEC2"
		},
		{
			"bufferView":7,
			"componentType":5123,
			"count":101148,
			"type":"SCALAR"
		},
		{
			"bufferView":8,
			"componentType":5126,
			"count":128,
			"max":[
				0.06913592666387558,
				0,
				2.415433645248413
			],
			"min":[
				-0.18529744446277618,
				-1.537094235420227,
				0
			],
			"type":"VEC3"
		},
		{
			"bufferView":9,
			"componentType":5126,
			"count":128,
			"type":"VEC3"
		},
		{
			"bufferView":10,
			"componentType":5126,
			"count":128,
			"type":"VEC2"
		},
		{
			"bufferView":11,
			"componentType":5123,
			"count":192,
			"type":"SCALAR"
		},
		{
			"bufferView":12,
			"componentType":5126,
			"count":128,
			"max":[
				0.10056135058403015,
				0,
				3.5133581161499023
			],
			"min":[
				-0.269523561000824,
				-0.2635018527507782,
				0
			],
			"type":"VEC3"
		},
		{
			"bufferView":13,
			"componentType":5126,
			"count":128,
			"type":"VEC3"
		},
		{
			"bufferView":14,
			"componentType":5126,
			"count":128,
			"type":"VEC2"
		},
		{
			"bufferView":15,
			"componentType":5123,
			"count":192,
			"type":"SCALAR"
		},
		{
			"bufferView":16,
			"componentType":5126,
			"count":791,
			"max":[
				2.770881175994873,
				0,
				1.2576346397399902
			],
			"min":[
				-2.770881175994873,
				-2.538792610168457,
				-1.2576346397399902
			],
			"type":"VEC3"
		},
		{
			"bufferView":17,
			"componentType":5126,
			"count":791,
			"type":"VEC3"
		},
		{
			"bufferView":18,
			"componentType":5126,
			"count":791,
			"type":"VEC2"
		},
		{
			"bufferView":19,
			"componentType":5123,
			"count":4434,
			"type":"SCALAR"
		},
		{
			"bufferView":20,
			"componentType":5126,
			"count":1283,
			"max":[
				2.233729839324951,
				0,
				0.6061758995056152
			],
			"min":[
				-2.233729839324951,
				-0.8470821380615234,
				-0.6061763763427734
			],
			"type":"VEC3"
		},
		{
			"bufferView":21,
			"componentType":5126,
			"count":1283,
			"type":"VEC3"
		},
		{
			"bufferView":22,
			"componentType":5126,
			"count":1283,
			"type":"VEC2"
		},
		{
			"bufferView":23,
			"componentType":5123,
			"count":7272,
			"type":"SCALAR"
		},
		{
			"bufferView":24,
			"componentType":5126,
			"count":691,
			"max":[
				3.0230326652526855,
				0,
				1.635847806930542
			],
			"min":[
				-3.0230326652526855,
				-3.909238815307617,
				-1.635847806930542
			],
			"type":"VEC3"
		},
		{
			"bufferView":25,
			"componentType":5126,
			"count":691,
			"type":"VEC3"
		},
		{
			"bufferView":26,
			"componentType":5126,
			"count":691,
			"type":"VEC2"
		},
		{
			"bufferView":27,
			"componentType":5123,
			"count":3822,
			"type":"SCALAR"
		},
		{
			"bufferView":28,
			"componentType":5126,
			"count":1255,
			"max":[
				2.0094478130340576,
				0,
				0.6466329097747803
			],
			"min":[
				-2.0094478130340576,
				-1.227686882019043,
				-0.6466330289840698
			],
			"type":"VEC3"
		},
		{
			"bufferView":29,
			"componentType":5126,
			"count":1255,
			"type":"VEC3"
		},
		{
			"bufferView":30,
			"componentType":5126,
			"count":1255,
			"type":"VEC2"
		},
		{
			"bufferView":31,
			"componentType":5123,
			"count":7116,
			"type":"SCALAR"
		}
	],
	"bufferViews":[
		{
			"buffer":0,
			"byteLength":304176,
			"byteOffset":0,
			"target":34962
		},
		{
			"buffer":0,
			"byteLength":304176,
			"byteOffset":304176,
			"target":34962
		},
		{
			"buffer":0,
			"byteLength":202784,
			"byteOffset":608352,
			"target":34962
		},
		{
			"buffer":0,
			"byteLength":167388,
			"byteOffset":811136,
			"target":34963
		},
		{
			"buffer":0,
			"byteLength":438648,
			"byteOffset":978524,
			"target":34962
		},
		{
			"buffer":0,
			"byteLength":438648,
			"byteOffset":1417172,
			"target":34962
		},
		{
			"buffer":0,
			"byteLength":292432,
			"byteOffset":1855820,
			"target":34962
		},
		{
			"buffer":0,
			"byteLength":202296,
			"byteOffset":2148252,
			"target":34963
		},
		{
			"buffer":0,
			"byteLength":1536,
			"byteOffset":2350548,
			"target":34962
		},
		{
			"buffer":0,
			"byteLength":1536,
			"byteOffset":2352084,
			"target":34962
		},
		{
			"buffer":0,
			"byteLength":1024,
			"byteOffset":2353620,
			"target":34962
		},
		{
			"buffer":0,
			"byteLength":384,
			"byteOffset":2354644,
			"target":34963
		},
		{
			"buffer":0,
			"byteLength":1536,
			"byteOffset":2355028,
			"target":34962
		},
		{
			"buffer":0,
			"byteLength":1536,
			"byteOffset":2356564,
			"target":34962
		},
		{
			"buffer":0,
			"byteLength":1024,
			"byteOffset":2358100,
			"target":34962
		},
		{
			"buffer":0,
			"byteLength":384,
			"byteOffset":2359124,
			"target":34963
		},
		{
			"buffer":0,
			"byteLength":9492,
			"byteOffset":2359508,
			"target":34962
		},
		{
			"buffer":0,
			"byteLength":9492,
			"byteOffset":2369000,
			"target":34962
		},
		{
			"buffer":0,
			"byteLength":6328,
			"byteOffset":2378492,
			"target":34962
		},
		{
			"buffer":0,
			"byteLength":8868,
			"byteOffset":2384820,
			"target":34963
		},
		{
			"buffer":0,
			"byteLength":15396,
			"byteOffset":2393688,
			"target":34962
		},
		{
			"buffer":0,
			"byteLength":15396,
			"byteOffset":2409084,
			"target":34962
		},
		{
			"buffer":0,
			"byteLength":10264,
			"byteOffset":2424480,
			"target":34962
		},
		{
			"buffer":0,
			"byteLength":14544,
			"byteOffset":2434744,
			"target":34963
		},
		{
			"buffer":0,
			"byteLength":8292,
			"byteOffset":2449288,
			"target":34962
		},
		{
			"buffer":0,
			"byteLength":8292,
			"byteOffset":2457580,
			"target":34962
		},
		{
			"buffer":0,
			"byteLength":5528,
			"byteOffset":2465872,
			"target":34962
		},
		{
			"buffer":0,
			"byteLength":7644,
			"byteOffset":2471400,
			"target":34963
		},
		{
			"buffer":0,
			"byteLength":15060,
			"byteOffset":2479044,
			"target":34962
		},
		{
			"buffer":0,
			"byteLength":15060,
			"byteOffset":2494104,
			"target":34962
		},
		{
			"buffer":0,
			"byteLength":10040,
			"byteOffset":2509164,
			"target":34962
		},
		{
			"buffer":0,
			"byteLength":14232,
			"byteOffset":2519204,
			"target":34963
		}
	],
	"samplers":[
		{
			"magFilter":9729,
			"minFilter":9987
		}
	],
	"buffers":[
		{
			"byteLength":2533436,
			"uri":"dutch_ship_medium.bin"
		}
	]
}
