{
	"asset":{
		"generator":"Khronos glTF Blender I/O v5.2.40",
		"version":"2.0"
	},
	"scene":0,
	"scenes":[
		{
			"name":"Scene",
			"nodes":[
				0,
				1,
				2,
				3,
				4,
				5,
				6,
				7
			]
		}
	],
	"nodes":[
		{
			"mesh":0,
			"name":"dutch_ship_large_01_hull"
		},
		{
			"mesh":1,
			"name":"dutch_ship_large_01_rigging"
		},
		{
			"mesh":2,
			"name":"Flag",
			"translation":[
				0.19197089970111847,
				20.88037109375,
				14.949034690856934
			]
		},
		{
			"mesh":3,
			"name":"Pennant",
			"translation":[
				0.007495515048503876,
				30.062889099121094,
				3.106016159057617
			]
		},
		{
			"mesh":4,
			"name":"Sail_0",
			"translation":[
				-0.21952080726623535,
				9.43042278289795,
				-8.903593063354492
			]
		},
		{
			"mesh":5,
			"name":"Sail_1",
			"translation":[
				-0.2061917781829834,
				19.31395721435547,
				-8.39202880859375
			]
		},
		{
			"mesh":6,
			"name":"Sail_2",
			"translation":[
				-0.1373121738433838,
				12.918231010437012,
				1.4969830513000488
			]
		},
		{
			"mesh":7,
			"name":"Sail_3",
			"translation":[
				0.07230210304260254,
				23.06194496154785,
				2.9417266845703125
			]
		}
	],
	"materials":[
		{
			"doubleSided":true,
			"name":"dutch_ship_large_01_hull",
			"normalTexture":{
				"index":0
			},
			"pbrMetallicRoughness":{
				"baseColorTexture":{
					"index":1
				},
				"metallicRoughnessTexture":{
					"index":2
				}
			}
		},
		{
			"doubleSided":true,
			"name":"dutch_ship_large_01_rigging",
			"normalTexture":{
				"index":3
			},
			"pbrMetallicRoughness":{
				"baseColorTexture":{
					"index":4
				},
				"metallicRoughnessTexture":{
					"index":5
				}
			}
		},
		{
			"doubleSided":true,
			"name":"flag",
			"pbrMetallicRoughness":{
				"baseColorFactor":[
					0.800000011920929,
					0.800000011920929,
					0.800000011920929,
					1
				],
				"metallicFactor":0,
				"roughnessFactor":0.5
			}
		},
		{
			"alphaMode":"MASK",
			"doubleSided":true,
			"name":"dutch_ship_large_01_sails",
			"normalTexture":{
				"index":6
			},
			"pbrMetallicRoughness":{
				"baseColorTexture":{
					"index":7
				},
				"metallicFactor":0,
				"metallicRoughnessTexture":{
					"index":8
				}
			}
		}
	],
	"meshes":[
		{
			"name":"x-Boats-Dutch-large-baseA-joined",
			"primitives":[
				{
					"attributes":{
						"POSITION":0,
						"NORMAL":1,
						"TEXCOORD_0":2
					},
					"indices":3,
					"material":0
				}
			]
		},
		{
			"name":"x-Boats-Dutch-large-sails-closed-joined",
			"primitives":[
				{
					"attributes":{
						"POSITION":4,
						"NORMAL":5,
						"TEXCOORD_0":6
					},
					"indices":7,
					"material":1
				}
			]
		},
		{
			"name":"Flag",
			"primitives":[
				{
					"attributes":{
						"POSITION":8,
						"NORMAL":9,
						"TEXCOORD_0":10
					},
					"indices":11,
					"material":2
				}
			]
		},
		{
			"name":"Pennant",
			"primitives":[
				{
					"attributes":{
						"POSITION":12,
						"NORMAL":13,
						"TEXCOORD_0":14
					},
					"indices":15,
					"material":2
				}
			]
		},
		{
			"name":"Plane.002",
			"primitives":[
				{
					"attributes":{
						"POSITION":16,
						"NORMAL":17,
						"TEXCOORD_0":18
					},
					"indices":19,
					"material":3
				}
			]
		},
		{
			"name":"Plane.003",
			"primitives":[
				{
					"attributes":{
						"POSITION":20,
						"NORMAL":21,
						"TEXCOORD_0":22
					},
					"indices":23,
					"material":3
				}
			]
		},
		{
			"name":"Plane.001",
			"primitives":[
				{
					"attributes":{
						"POSITION":24,
						"NORMAL":25,
						"TEXCOORD_0":26
					},
					"indices":27,
					"material":3
				}
			]
		},
		{
			"name":"Plane.067",
			"primitives":[
				{
					"attributes":{
						"POSITION":28,
						"NORMAL":29,
						"TEXCOORD_0":30
					},
					"indices":31,
					"material":3
				}
			]
		}
	],
	"textures":[
		{
			"sampler":0,
			"source":0
		},
		{
			"sampler":0,
			"source":1
		},
		{
			"sampler":0,
			"source":2
		},
		{
			"sampler":0,
			"source":3
		},
		{
			"sampler":0,
			"source":4
		},
		{
			"sampler":0,
			"source":5
		},
		{
			"sampler":0,
			"source":6
		},
		{
			"sampler":0,
			"source":7
		},
		{
			"sampler":0,
			"source":8
		}
	],
	"images":[
		{
			"mimeType":"image/jpeg",
			"name":"dutch_ship_large_01_hull_nor_gl_2k",
			"uri":"textures/dutch_ship_large_01_hull_nor_gl_2k.jpg"
		},
		{
			"mimeType":"image/jpeg",
			"name":"dutch_ship_large_01_hull_diff_2k",
			"uri":"textures/dutch_ship_large_01_hull_diff_2k.jpg"
		},
		{
			"mimeType":"image/jpeg",
			"name":"dutch_ship_large_01_hull_arm_2k",
			"uri":"textures/dutch_ship_large_01_hull_arm_2k.jpg"
		},
		{
			"mimeType":"image/jpeg",
			"name":"dutch_ship_large_01_rigging_nor_gl_2k",
			"uri":"textures/dutch_ship_large_01_rigging_nor_gl_2k.jpg"
		},
		{
			"mimeType":"image/jpeg",
			"name":"dutch_ship_large_01_rigging_diff_2k",
			"uri":"textures/dutch_ship_large_01_rigging_diff_2k.jpg"
		},
		{
			"mimeType":"image/jpeg",
			"name":"dutch_ship_large_01_rigging_arm_2k",
			"uri":"textures/dutch_ship_large_01_rigging_arm_2k.jpg"
		},
		{
			"mimeType":"image/jpeg",
			"name":"dutch_ship_large_01_sails_nor_gl_2k",
			"uri":"textures/dutch_ship_large_01_sails_nor_gl_2k.jpg"
		},
		{
			"mimeType":"image/png",
			"name":"dutch_ship_large_01_sails_diff_2k",
			"uri":"textures/dutch_ship_large_01_sails_diff_2k.png"
		},
		{
			"mimeType":"image/jpeg",
			"name":"dutch_ship_large_01_sails_arm_2k",
			"uri":"textures/dutch_ship_large_01_sails_arm_2k.jpg"
		}
	],
	"accessors":[
		{
			"bufferView":0,
			"componentType":5126,
			"count":67683,
			"max":[
				4.193708419799805,
				10.068502426147461,
				15.187859535217285
			],
			"min":[
				-4.1937079429626465,
				-1.9159564971923828,
				-15.187858581542969
			],
			"type":"VEC3"
		},
		{
			"bufferView":1,
			"componentType":5126,
			"count":67683,
			"type":"VEC3"
		},
		{
			"bufferView":2,
			"componentType":5126,
			"count":67683,
			"type":"VEC2"
		},
		{
			"bufferView":3,
			"componentType":5125,
			"count":206952,
			"type":"SCALAR"
		},
		{
			"bufferView":4,
			"componentType":5126,
			"count":39666,
			"max":[
				4.175033092498779,
				30.16288948059082,
				15.993559837341309
			],
			"min":[
				-4.184925079345703,
				2.9227380752563477,
				-18.257652282714844
			],
			"type":"VEC3"
		},
		{
			"bufferView":5,
			"componentType":5126,
			"count":39666,
			"type":"VEC3"
		},
		{
			"bufferView":6,
			"componentType":5126,
			"count":39666,
			"type":"VEC2"
		},
		{
			"bufferView":7,
			"componentType":5123,
			"count":102252,
			"type":"SCALAR"
		},
		{
			"bufferView":8,
			"componentType":5126,
			"count":128,
			"max":[
				0.09563743323087692,
				0,
				3.3413290977478027
			],
			"min":[
				-0.2563265264034271,
				-2.12630033493042,
				0
			],
			"type":"VEC3"
		},
		{
			"bufferView":9,
			"componentType":5126,
			"count":128,
			"type":"VEC3"
		},
		{
			"bufferView":10,
			"componentType":5126,
			"count":128,
			"type":"VEC2"
		},
		{
			"bufferView":11,
			"componentType":5123,
			"count":192,
			"type":"SCALAR"
		},
		{
			"bufferView":12,
			"componentType":5126,
			"count":128,
			"max":[
				0.13910900056362152,
				0,
				4.860115051269531
			],
			"min":[
				-0.3728385865688324,
				-0.36450862884521484,
				0
			],
			"type":"VEC3"
		},
		{
			"bufferView":13,
			"componentType":5126,
			"count":128,
			"type":"VEC3"
		},
		{
			"bufferView":14,
			"componentType":5126,
			"count":128,
			"type":"VEC2"
		},
		{
			"bufferView":15,
			"componentType":5123,
			"count":192,
			"type":"SCALAR"
		},
		{
			"bufferView":16,
			"componentType":5126,
			"count":791,
			"max":[
				3.4139373302459717,
				0,
				1.5215883255004883
			],
			"min":[
				-3.4139373302459717,
				-3.148625373840332,
				-1.5215883255004883
			],
			"type":"VEC3"
		},
		{
			"bufferView":17,
			"componentType":5126,
			"count":791,
			"type":"VEC3"
		},
		{
			"bufferView":18,
			"componentType":5126,
			"count":791,
			"type":"VEC2"
		},
		{
			"bufferView":19,
			"componentType":5123,
			"count":4434,
			"type":"SCALAR"
		},
		{
			"bufferView":20,
			"componentType":5126,
			"count":1283,
			"max":[
				2.690345525741577,
				0,
				0.7621927261352539
			],
			"min":[
				-2.690345525741577,
				-1.023275375366211,
				-0.7621936798095703
			],
			"type":"VEC3"
		},
		{
			"bufferView":21,
			"componentType":5126,
			"count":1283,
			"type":"VEC3"
		},
		{
			"bufferView":22,
			"componentType":5126,
			"count":1283,
			"type":"VEC2"
		},
		{
			"bufferView":23,
			"componentType":5123,
			"count":7272,
			"type":"SCALAR"
		},
		{
			"bufferView":24,
			"componentType":5126,
			"count":691,
			"max":[
				4.053852081298828,
				0,
				2.187495231628418
			],
			"min":[
				-4.053852081298828,
				-5.354137420654297,
				-2.187495231628418
			],
			"type":"VEC3"
		},
		{
			"bufferView":25,
			"componentType":5126,
			"count":691,
			"type":"VEC3"
		},
		{
			"bufferView":26,
			"componentType":5126,
			"count":691,
			"type":"VEC2"
		},
		{
			"bufferView":27,
			"componentType":5123,
			"count":3822,
			"type":"SCALAR"
		},
		{
			"bufferView":28,
			"componentType":5126,
			"count":1255,
			"max":[
				2.6870827674865723,
				0,
				0.8646936416625977
			],
			"min":[
				-2.6870827674865723,
				-1.641693115234375,
				-0.8646934032440186
			],
			"type":"VEC3"
		},
		{
			"bufferView":29,
			"componentType":5126,
			"count":1255,
			"type":"VEC3"
		},
		{
			"bufferView":30,
			"componentType":5126,
			"count":1255,
			"type":"VEC2"
		},
		{
			"bufferView":31,
			"componentType":5123,
			"count":7116,
			"type":"SCALAR"
		}
	],
	"bufferViews":[
		{
			"buffer":0,
			"byteLength":812196,
			"byteOffset":0,
			"target":34962
		},
		{
			"buffer":0,
			"byteLength":812196,
			"byteOffset":812196,
			"target":34962
		},
		{
			"buffer":0,
			"byteLength":541464,
			"byteOffset":1624392,
			"target":34962
		},
		{
			"buffer":0,
			"byteLength":827808,
			"byteOffset":2165856,
			"target":34963
		},
		{
			"buffer":0,
			"byteLength":475992,
			"byteOffset":2993664,
			"target":34962
		},
		{
			"buffer":0,
			"byteLength":475992,
			"byteOffset":3469656,
			"target":34962
		},
		{
			"buffer":0,
			"byteLength":317328,
			"byteOffset":3945648,
			"target":34962
		},
		{
			"buffer":0,
			"byteLength":204504,
			"byteOffset":4262976,
			"target":34963
		},
		{
			"buffer":0,
			"byteLength":1536,
			"byteOffset":4467480,
			"target":34962
		},
		{
			"buffer":0,
			"byteLength":1536,
			"byteOffset":4469016,
			"target":34962
		},
		{
			"buffer":0,
			"byteLength":1024,
			"byteOffset":4470552,
			"target":34962
		},
		{
			"buffer":0,
			"byteLength":384,
			"byteOffset":4471576,
			"target":34963
		},
		{
			"buffer":0,
			"byteLength":1536,
			"byteOffset":4471960,
			"target":34962
		},
		{
			"buffer":0,
			"byteLength":1536,
			"byteOffset":4473496,
			"target":34962
		},
		{
			"buffer":0,
			"byteLength":1024,
			"byteOffset":4475032,
			"target":34962
		},
		{
			"buffer":0,
			"byteLength":384,
			"byteOffset":4476056,
			"target":34963
		},
		{
			"buffer":0,
			"byteLength":9492,
			"byteOffset":4476440,
			"target":34962
		},
		{
			"buffer":0,
			"byteLength":9492,
			"byteOffset":4485932,
			"target":34962
		},
		{
			"buffer":0,
			"byteLength":6328,
			"byteOffset":4495424,
			"target":34962
		},
		{
			"buffer":0,
			"byteLength":8868,
			"byteOffset":4501752,
			"target":34963
		},
		{
			"buffer":0,
			"byteLength":15396,
			"byteOffset":4510620,
			"target":34962
		},
		{
			"buffer":0,
			"byteLength":15396,
			"byteOffset":4526016,
			"target":34962
		},
		{
			"buffer":0,
			"byteLength":10264,
			"byteOffset":4541412,
			"target":34962
		},
		{
			"buffer":0,
			"byteLength":14544,
			"byteOffset":4551676,
			"target":34963
		},
		{
			"buffer":0,
			"byteLength":8292,
			"byteOffset":4566220,
			"target":34962
		},
		{
			"buffer":0,
			"byteLength":8292,
			"byteOffset":4574512,
			"target":34962
		},
		{
			"buffer":0,
			"byteLength":5528,
			"byteOffset":4582804,
			"target":34962
		},
		{
			"buffer":0,
			"byteLength":7644,
			"byteOffset":4588332,
			"target":34963
		},
		{
			"buffer":0,
			"byteLength":15060,
			"byteOffset":4595976,
			"target":34962
		},
		{
			"buffer":0,
			"byteLength":15060,
			"byteOffset":4611036,
			"target":34962
		},
		{
			"buffer":0,
			"byteLength":10040,
			"byteOffset":4626096,
			"target":34962
		},
		{
			"buffer":0,
			"byteLength":14232,
			"byteOffset":4636136,
			"target":34963
		}
	],
	"samplers":[
		{
			"magFilter":9729,
			"minFilter":9987
		}
	],
	"buffers":[
		{
			"byteLength":4650368,
			"uri":"dutch_ship_large_01.bin"
		}
	]
}
