{
	"asset":{
		"generator":"Khronos glTF Blender I/O v5.2.40",
		"version":"2.0"
	},
	"extensionsUsed":[
		"KHR_materials_emissive_strength"
	],
	"scene":0,
	"scenes":[
		{
			"name":"Scene",
			"nodes":[
				0,
				1,
				2,
				3,
				4,
				5,
				6,
				7,
				8,
				9,
				10,
				11,
				12,
				13,
				14,
				15,
				16,
				17,
				18,
				19,
				20,
				21,
				22,
				23,
				24,
				25,
				26,
				27,
				28,
				29,
				30,
				31,
				32,
				33,
				34,
				35,
				36,
				37,
				38,
				39,
				40,
				41,
				42,
				43,
				44,
				45,
				46,
				47,
				48,
				49,
				50,
				51,
				52,
				53,
				54,
				55,
				56,
				57,
				58,
				59,
				60,
				61,
				62,
				63,
				64,
				65,
				66,
				67,
				68,
				69,
				70,
				71,
				72,
				73,
				74
			]
		}
	],
	"nodes":[
		{
			"mesh":0,
			"name":"Flag",
			"translation":[
				0,
				19.496000289916992,
				28.667539596557617
			]
		},
		{
			"mesh":1,
			"name":"Hull"
		},
		{
			"name":"Muzzle_P_00",
			"translation":[
				-6.2065558433532715,
				1.2222946882247925,
				-15.420082092285156
			]
		},
		{
			"name":"Muzzle_P_01",
			"translation":[
				-7.166080474853516,
				1.1263632774353027,
				-12.63379955291748
			]
		},
		{
			"name":"Muzzle_P_02",
			"translation":[
				-7.744844913482666,
				1.0509490966796875,
				-9.848099708557129
			]
		},
		{
			"name":"Muzzle_P_03",
			"translation":[
				-7.910531044006348,
				0.9735271334648132,
				-7.088213920593262
			]
		},
		{
			"name":"Muzzle_P_04",
			"translation":[
				-7.911947250366211,
				0.9325093030929565,
				-4.43993616104126
			]
		},
		{
			"name":"Muzzle_P_05",
			"translation":[
				-7.911947727203369,
				0.9491860866546631,
				-1.8001697063446045
			]
		},
		{
			"name":"Muzzle_P_06",
			"translation":[
				-7.9119486808776855,
				1.0140129327774048,
				0.8396733403205872
			]
		},
		{
			"name":"Muzzle_P_07",
			"translation":[
				-7.91195011138916,
				1.117404818534851,
				3.4795401096343994
			]
		},
		{
			"name":"Muzzle_P_08",
			"translation":[
				-7.911952018737793,
				1.2559188604354858,
				6.1194233894348145
			]
		},
		{
			"name":"Muzzle_P_09",
			"translation":[
				-7.911954402923584,
				1.4274218082427979,
				8.759322166442871
			]
		},
		{
			"name":"Muzzle_P_10",
			"translation":[
				-7.7815260887146,
				1.6268869638442993,
				11.53684139251709
			]
		},
		{
			"name":"Muzzle_P_11",
			"translation":[
				-7.1638288497924805,
				1.8205745220184326,
				14.318897247314453
			]
		},
		{
			"name":"Muzzle_P_12",
			"translation":[
				-6.2756733894348145,
				3.0624513626098633,
				-15.39739990234375
			]
		},
		{
			"name":"Muzzle_P_13",
			"translation":[
				-7.118185520172119,
				2.9338932037353516,
				-12.590985298156738
			]
		},
		{
			"name":"Muzzle_P_14",
			"translation":[
				-7.607725620269775,
				2.829334259033203,
				-9.824967384338379
			]
		},
		{
			"name":"Muzzle_P_15",
			"translation":[
				-7.758973121643066,
				2.7349698543548584,
				-7.0835795402526855
			]
		},
		{
			"name":"Muzzle_P_16",
			"translation":[
				-7.760180473327637,
				2.684568166732788,
				-4.438795566558838
			]
		},
		{
			"name":"Muzzle_P_17",
			"translation":[
				-7.760237693786621,
				2.7050552368164062,
				-1.8031972646713257
			]
		},
		{
			"name":"Muzzle_P_18",
			"translation":[
				-7.760457515716553,
				2.78471302986145,
				0.8338476419448853
			]
		},
		{
			"name":"Muzzle_P_19",
			"translation":[
				-7.76079797744751,
				2.911808967590332,
				3.471334934234619
			]
		},
		{
			"name":"Muzzle_P_20",
			"translation":[
				-7.761232376098633,
				3.082181453704834,
				6.109137535095215
			]
		},
		{
			"name":"Muzzle_P_21",
			"translation":[
				-7.76173734664917,
				3.293278932571411,
				8.747207641601562
			]
		},
		{
			"name":"Muzzle_P_22",
			"translation":[
				-7.643436908721924,
				3.538020610809326,
				11.508708953857422
			]
		},
		{
			"name":"Muzzle_P_23",
			"translation":[
				-7.1147236824035645,
				3.786579132080078,
				14.270752906799316
			]
		},
		{
			"name":"Muzzle_P_24",
			"translation":[
				-6.270901203155518,
				5.327608585357666,
				-7.679999828338623
			]
		},
		{
			"name":"Muzzle_P_25",
			"translation":[
				-6.27874231338501,
				5.239012241363525,
				-4.415999889373779
			]
		},
		{
			"name":"Muzzle_P_26",
			"translation":[
				-6.27874231338501,
				5.284207344055176,
				-1.1519999504089355
			]
		},
		{
			"name":"Muzzle_P_27",
			"translation":[
				-6.27874231338501,
				5.437620162963867,
				2.111999988555908
			]
		},
		{
			"name":"Muzzle_P_28",
			"translation":[
				-6.27874231338501,
				5.678911209106445,
				5.375999927520752
			]
		},
		{
			"name":"Muzzle_S_00",
			"translation":[
				6.2065558433532715,
				1.2222946882247925,
				-15.420082092285156
			]
		},
		{
			"name":"Muzzle_S_01",
			"translation":[
				7.166080474853516,
				1.1263632774353027,
				-12.63379955291748
			]
		},
		{
			"name":"Muzzle_S_02",
			"translation":[
				7.744844913482666,
				1.0509490966796875,
				-9.848099708557129
			]
		},
		{
			"name":"Muzzle_S_03",
			"translation":[
				7.910531044006348,
				0.9735271334648132,
				-7.088213920593262
			]
		},
		{
			"name":"Muzzle_S_04",
			"translation":[
				7.911947250366211,
				0.9325093030929565,
				-4.43993616104126
			]
		},
		{
			"name":"Muzzle_S_05",
			"translation":[
				7.911947727203369,
				0.9491860866546631,
				-1.8001697063446045
			]
		},
		{
			"name":"Muzzle_S_06",
			"translation":[
				7.9119486808776855,
				1.0140129327774048,
				0.8396733403205872
			]
		},
		{
			"name":"Muzzle_S_07",
			"translation":[
				7.91195011138916,
				1.117404818534851,
				3.4795401096343994
			]
		},
		{
			"name":"Muzzle_S_08",
			"translation":[
				7.911952018737793,
				1.2559188604354858,
				6.1194233894348145
			]
		},
		{
			"name":"Muzzle_S_09",
			"translation":[
				7.911954402923584,
				1.4274218082427979,
				8.759322166442871
			]
		},
		{
			"name":"Muzzle_S_10",
			"translation":[
				7.7815260887146,
				1.6268869638442993,
				11.53684139251709
			]
		},
		{
			"name":"Muzzle_S_11",
			"translation":[
				7.1638288497924805,
				1.8205745220184326,
				14.318897247314453
			]
		},
		{
			"name":"Muzzle_S_12",
			"translation":[
				6.2756733894348145,
				3.0624513626098633,
				-15.39739990234375
			]
		},
		{
			"name":"Muzzle_S_13",
			"translation":[
				7.118185520172119,
				2.9338932037353516,
				-12.590985298156738
			]
		},
		{
			"name":"Muzzle_S_14",
			"translation":[
				7.607725620269775,
				2.829334259033203,
				-9.824967384338379
			]
		},
		{
			"name":"Muzzle_S_15",
			"translation":[
				7.758973121643066,
				2.7349698543548584,
				-7.0835795402526855
			]
		},
		{
			"name":"Muzzle_S_16",
			"translation":[
				7.760180473327637,
				2.684568166732788,
				-4.438795566558838
			]
		},
		{
			"name":"Muzzle_S_17",
			"translation":[
				7.760237693786621,
				2.7050552368164062,
				-1.8031972646713257
			]
		},
		{
			"name":"Muzzle_S_18",
			"translation":[
				7.760457515716553,
				2.78471302986145,
				0.8338476419448853
			]
		},
		{
			"name":"Muzzle_S_19",
			"translation":[
				7.76079797744751,
				2.911808967590332,
				3.471334934234619
			]
		},
		{
			"name":"Muzzle_S_20",
			"translation":[
				7.761232376098633,
				3.082181453704834,
				6.109137535095215
			]
		},
		{
			"name":"Muzzle_S_21",
			"translation":[
				7.76173734664917,
				3.293278932571411,
				8.747207641601562
			]
		},
		{
			"name":"Muzzle_S_22",
			"translation":[
				7.643436908721924,
				3.538020610809326,
				11.508708953857422
			]
		},
		{
			"name":"Muzzle_S_23",
			"translation":[
				7.1147236824035645,
				3.786579132080078,
				14.270752906799316
			]
		},
		{
			"name":"Muzzle_S_24",
			"translation":[
				6.270901203155518,
				5.327608585357666,
				-7.679999828338623
			]
		},
		{
			"name":"Muzzle_S_25",
			"translation":[
				6.27874231338501,
				5.239012241363525,
				-4.415999889373779
			]
		},
		{
			"name":"Muzzle_S_26",
			"translation":[
				6.27874231338501,
				5.284207344055176,
				-1.1519999504089355
			]
		},
		{
			"name":"Muzzle_S_27",
			"translation":[
				6.27874231338501,
				5.437620162963867,
				2.111999988555908
			]
		},
		{
			"name":"Muzzle_S_28",
			"translation":[
				6.27874231338501,
				5.678911209106445,
				5.375999927520752
			]
		},
		{
			"mesh":2,
			"name":"Pennant",
			"translation":[
				0,
				52.3189582824707,
				-0.07826465368270874
			]
		},
		{
			"mesh":3,
			"name":"Sail_0_0",
			"rotation":[
				0.026176918298006058,
				0,
				0,
				0.9996573328971863
			],
			"translation":[
				0,
				21.6131591796875,
				-15.288116455078125
			]
		},
		{
			"mesh":4,
			"name":"Sail_0_1_E",
			"rotation":[
				0.026176918298006058,
				0,
				0,
				0.9996573328971863
			],
			"translation":[
				0,
				33.22014617919922,
				-14.67982006072998
			]
		},
		{
			"mesh":5,
			"name":"Sail_0_2",
			"rotation":[
				0.026176918298006058,
				0,
				0,
				0.9996573328971863
			],
			"translation":[
				0,
				41.51084518432617,
				-14.245323181152344
			]
		},
		{
			"mesh":6,
			"name":"Sail_1_0",
			"rotation":[
				0.026176918298006058,
				0,
				0,
				0.9996573328971863
			],
			"translation":[
				0,
				22.950044631958008,
				-0.8583278656005859
			]
		},
		{
			"mesh":7,
			"name":"Sail_1_1_E",
			"rotation":[
				0.026176918298006058,
				0,
				0,
				0.9996573328971863
			],
			"translation":[
				0,
				35.915287017822266,
				-0.1788482367992401
			]
		},
		{
			"mesh":8,
			"name":"Sail_1_2",
			"rotation":[
				0.026176918298006058,
				0,
				0,
				0.9996573328971863
			],
			"translation":[
				0,
				45.17618179321289,
				0.3064946234226227
			]
		},
		{
			"mesh":9,
			"name":"Sail_2_1",
			"rotation":[
				0.026176918298006058,
				0,
				0,
				0.9996573328971863
			],
			"translation":[
				0,
				29.13343048095703,
				13.868725776672363
			]
		},
		{
			"mesh":10,
			"name":"Sail_2_2",
			"rotation":[
				0.026176918298006058,
				0,
				0,
				0.9996573328971863
			],
			"translation":[
				0,
				36.0129508972168,
				14.229265213012695
			]
		},
		{
			"mesh":11,
			"name":"Sail_jib_0",
			"rotation":[
				-0.3888503313064575,
				0.6481486558914185,
				-0.2826717495918274,
				0.5905890464782715
			],
			"translation":[
				0,
				32.71585464477539,
				-18.70118522644043
			]
		},
		{
			"mesh":12,
			"name":"Sail_jib_1",
			"rotation":[
				-0.3851182162761688,
				0.6468061804771423,
				-0.2857303321361542,
				0.5930294394493103
			],
			"translation":[
				0,
				35.80958557128906,
				-22.134368896484375
			]
		},
		{
			"mesh":13,
			"name":"Sail_spanker",
			"rotation":[
				-0.11740764230489731,
				-0.6903929710388184,
				0.15283203125,
				0.6972915530204773
			],
			"translation":[
				0,
				23.131553649902344,
				13.789999961853027
			]
		},
		{
			"mesh":14,
			"name":"Sail_sprit",
			"translation":[
				0,
				8.242416381835938,
				-28.85759925842285
			]
		},
		{
			"mesh":15,
			"name":"Sail_stay_1",
			"rotation":[
				-0.30117958784103394,
				0.6808836460113525,
				-0.19078104197978973,
				0.6397584676742554
			],
			"translation":[
				0,
				41.667259216308594,
				-1.1128041744232178
			]
		},
		{
			"mesh":16,
			"name":"Sail_stay_2",
			"rotation":[
				-0.34152913093566895,
				0.6465385556221008,
				0.2863351106643677,
				0.6191591620445251
			],
			"translation":[
				0,
				33.85807800292969,
				12.910872459411621
			]
		}
	],
	"materials":[
		{
			"doubleSided":true,
			"name":"frigate_flag",
			"pbrMetallicRoughness":{
				"metallicFactor":0,
				"roughnessFactor":0.8999999761581421
			}
		},
		{
			"doubleSided":true,
			"name":"frigate_hull",
			"normalTexture":{
				"index":0
			},
			"pbrMetallicRoughness":{
				"baseColorTexture":{
					"index":1
				},
				"metallicFactor":0,
				"roughnessFactor":0.7200000286102295
			}
		},
		{
			"doubleSided":true,
			"name":"frigate_deck",
			"normalTexture":{
				"index":2
			},
			"pbrMetallicRoughness":{
				"baseColorTexture":{
					"index":3
				},
				"metallicFactor":0,
				"roughnessFactor":0.8500000238418579
			}
		},
		{
			"doubleSided":true,
			"name":"frigate_upper",
			"normalTexture":{
				"index":4
			},
			"pbrMetallicRoughness":{
				"baseColorTexture":{
					"index":5
				},
				"metallicFactor":0,
				"roughnessFactor":0.75
			}
		},
		{
			"doubleSided":true,
			"name":"frigate_wale",
			"pbrMetallicRoughness":{
				"baseColorFactor":[
					0.0027317428030073643,
					0.002458568662405014,
					0.00218539428897202,
					1
				],
				"metallicFactor":0,
				"roughnessFactor":0.699999988079071
			}
		},
		{
			"doubleSided":true,
			"name":"frigate_dark",
			"pbrMetallicRoughness":{
				"baseColorFactor":[
					0.0036765073891729116,
					0.002428215928375721,
					0.0018211619462817907,
					1
				],
				"metallicFactor":0,
				"roughnessFactor":0.949999988079071
			}
		},
		{
			"doubleSided":true,
			"name":"frigate_trim",
			"pbrMetallicRoughness":{
				"baseColorFactor":[
					0.3554235100746155,
					0.23074005544185638,
					0.05001688748598099,
					1
				],
				"metallicFactor":0.4000000059604645,
				"roughnessFactor":0.44999998807907104
			}
		},
		{
			"doubleSided":true,
			"name":"frigate_rail",
			"pbrMetallicRoughness":{
				"baseColorFactor":[
					0.0423114113509655,
					0.021219009533524513,
					0.008568125776946545,
					1
				],
				"metallicFactor":0,
				"roughnessFactor":0.75
			}
		},
		{
			"doubleSided":true,
			"name":"frigate_lid",
			"pbrMetallicRoughness":{
				"baseColorFactor":[
					0.002671037567779422,
					0.00218539428897202,
					0.0014569294871762395,
					1
				],
				"metallicFactor":0,
				"roughnessFactor":0.699999988079071
			}
		},
		{
			"doubleSided":true,
			"name":"frigate_portred",
			"pbrMetallicRoughness":{
				"baseColorFactor":[
					0.07618538290262222,
					0.00802319310605526,
					0.005181516520678997,
					1
				],
				"metallicFactor":0,
				"roughnessFactor":0.8500000238418579
			}
		},
		{
			"doubleSided":true,
			"name":"frigate_iron",
			"pbrMetallicRoughness":{
				"baseColorFactor":[
					0.00802319310605526,
					0.007499032188206911,
					0.006995410192757845,
					1
				],
				"metallicFactor":0.550000011920929,
				"roughnessFactor":0.5
			}
		},
		{
			"doubleSided":true,
			"emissiveFactor":[
				0.11999999731779099,
				0.06624137015101228,
				0.01729541620696895
			],
			"name":"frigate_glass",
			"pbrMetallicRoughness":{
				"baseColorFactor":[
					0.005181516520678997,
					0.00802319310605526,
					0.011612244881689548,
					1
				],
				"metallicFactor":0.30000001192092896,
				"roughnessFactor":0.07999999821186066
			}
		},
		{
			"doubleSided":true,
			"emissiveFactor":[
				1,
				0.4564110338687897,
				0.06847816705703735
			],
			"extensions":{
				"KHR_materials_emissive_strength":{
					"emissiveStrength":5
				}
			},
			"name":"frigate_lantern",
			"pbrMetallicRoughness":{
				"baseColorFactor":[
					1,
					0.7605245113372803,
					0.35153260827064514,
					1
				],
				"metallicFactor":0,
				"roughnessFactor":0.30000001192092896
			}
		},
		{
			"doubleSided":true,
			"name":"frigate_spar",
			"pbrMetallicRoughness":{
				"baseColorFactor":[
					0.04817182570695877,
					0.024157632142305374,
					0.01032982300966978,
					1
				],
				"metallicFactor":0,
				"roughnessFactor":0.699999988079071
			}
		},
		{
			"doubleSided":true,
			"name":"frigate_grating",
			"pbrMetallicRoughness":{
				"baseColorFactor":[
					0.06847816705703735,
					0.03560131415724754,
					0.014443843625485897,
					1
				],
				"metallicFactor":0,
				"roughnessFactor":0.8999999761581421
			}
		},
		{
			"doubleSided":true,
			"name":"frigate_spar_black",
			"pbrMetallicRoughness":{
				"baseColorFactor":[
					0.006995410192757845,
					0.005181516520678997,
					0.0036765073891729116,
					1
				],
				"metallicFactor":0,
				"roughnessFactor":0.699999988079071
			}
		},
		{
			"doubleSided":true,
			"name":"frigate_rope",
			"pbrMetallicRoughness":{
				"baseColorFactor":[
					0.008568125776946545,
					0.006048833020031452,
					0.004024717025458813,
					1
				],
				"metallicFactor":0,
				"roughnessFactor":0.8999999761581421
			}
		},
		{
			"doubleSided":true,
			"name":"frigate_sail",
			"pbrMetallicRoughness":{
				"baseColorTexture":{
					"index":6
				},
				"metallicFactor":0,
				"roughnessFactor":0.949999988079071
			}
		}
	],
	"meshes":[
		{
			"name":"Flag",
			"primitives":[
				{
					"attributes":{
						"POSITION":0,
						"NORMAL":1,
						"TEXCOORD_0":2
					},
					"indices":3,
					"material":0
				}
			]
		},
		{
			"name":"Hull",
			"primitives":[
				{
					"attributes":{
						"POSITION":4,
						"NORMAL":5,
						"TEXCOORD_0":6,
						"COLOR_0":7
					},
					"indices":8,
					"material":1
				},
				{
					"attributes":{
						"POSITION":9,
						"NORMAL":10,
						"TEXCOORD_0":11,
						"COLOR_0":12
					},
					"indices":13,
					"material":2
				},
				{
					"attributes":{
						"POSITION":14,
						"NORMAL":15,
						"TEXCOORD_0":16,
						"COLOR_0":17
					},
					"indices":18,
					"material":3
				},
				{
					"attributes":{
						"POSITION":19,
						"NORMAL":20,
						"TEXCOORD_0":21,
						"COLOR_0":22
					},
					"indices":23,
					"material":4
				},
				{
					"attributes":{
						"POSITION":24,
						"NORMAL":25,
						"TEXCOORD_0":26,
						"COLOR_0":27
					},
					"indices":28,
					"material":5
				},
				{
					"attributes":{
						"POSITION":29,
						"NORMAL":30,
						"TEXCOORD_0":31,
						"COLOR_0":32
					},
					"indices":33,
					"material":6
				},
				{
					"attributes":{
						"POSITION":34,
						"NORMAL":35,
						"TEXCOORD_0":36,
						"COLOR_0":37
					},
					"indices":38,
					"material":7
				},
				{
					"attributes":{
						"POSITION":39,
						"NORMAL":40,
						"TEXCOORD_0":41,
						"COLOR_0":42
					},
					"indices":43,
					"material":8
				},
				{
					"attributes":{
						"POSITION":44,
						"NORMAL":45,
						"TEXCOORD_0":46,
						"COLOR_0":47
					},
					"indices":48,
					"material":9
				},
				{
					"attributes":{
						"POSITION":49,
						"NORMAL":50,
						"TEXCOORD_0":51,
						"COLOR_0":52
					},
					"indices":53,
					"material":10
				},
				{
					"attributes":{
						"POSITION":54,
						"NORMAL":55,
						"TEXCOORD_0":56,
						"COLOR_0":57
					},
					"indices":58,
					"material":11
				},
				{
					"attributes":{
						"POSITION":59,
						"NORMAL":60,
						"TEXCOORD_0":61,
						"COLOR_0":62
					},
					"indices":63,
					"material":12
				},
				{
					"attributes":{
						"POSITION":64,
						"NORMAL":65,
						"TEXCOORD_0":66,
						"COLOR_0":67
					},
					"indices":68,
					"material":13
				},
				{
					"attributes":{
						"POSITION":69,
						"NORMAL":70,
						"TEXCOORD_0":71,
						"COLOR_0":72
					},
					"indices":73,
					"material":14
				},
				{
					"attributes":{
						"POSITION":74,
						"NORMAL":75,
						"TEXCOORD_0":76,
						"COLOR_0":77
					},
					"indices":78,
					"material":15
				},
				{
					"attributes":{
						"POSITION":79,
						"NORMAL":80,
						"TEXCOORD_0":81,
						"COLOR_0":82
					},
					"indices":83,
					"material":16
				}
			]
		},
		{
			"name":"Pennant",
			"primitives":[
				{
					"attributes":{
						"POSITION":84,
						"NORMAL":85,
						"TEXCOORD_0":86
					},
					"indices":87,
					"material":0
				}
			]
		},
		{
			"name":"Sail_0_0",
			"primitives":[
				{
					"attributes":{
						"POSITION":88,
						"NORMAL":89,
						"TEXCOORD_0":90
					},
					"indices":91,
					"material":17
				}
			]
		},
		{
			"name":"Sail_0_1_E",
			"primitives":[
				{
					"attributes":{
						"POSITION":92,
						"NORMAL":93,
						"TEXCOORD_0":94
					},
					"indices":91,
					"material":17
				}
			]
		},
		{
			"name":"Sail_0_2",
			"primitives":[
				{
					"attributes":{
						"POSITION":95,
						"NORMAL":96,
						"TEXCOORD_0":97
					},
					"indices":91,
					"material":17
				}
			]
		},
		{
			"name":"Sail_1_0",
			"primitives":[
				{
					"attributes":{
						"POSITION":98,
						"NORMAL":99,
						"TEXCOORD_0":100
					},
					"indices":91,
					"material":17
				}
			]
		},
		{
			"name":"Sail_1_1_E",
			"primitives":[
				{
					"attributes":{
						"POSITION":101,
						"NORMAL":102,
						"TEXCOORD_0":103
					},
					"indices":91,
					"material":17
				}
			]
		},
		{
			"name":"Sail_1_2",
			"primitives":[
				{
					"attributes":{
						"POSITION":104,
						"NORMAL":105,
						"TEXCOORD_0":106
					},
					"indices":91,
					"material":17
				}
			]
		},
		{
			"name":"Sail_2_1",
			"primitives":[
				{
					"attributes":{
						"POSITION":107,
						"NORMAL":108,
						"TEXCOORD_0":109
					},
					"indices":91,
					"material":17
				}
			]
		},
		{
			"name":"Sail_2_2",
			"primitives":[
				{
					"attributes":{
						"POSITION":110,
						"NORMAL":111,
						"TEXCOORD_0":112
					},
					"indices":91,
					"material":17
				}
			]
		},
		{
			"name":"Sail_jib_0",
			"primitives":[
				{
					"attributes":{
						"POSITION":113,
						"NORMAL":114,
						"TEXCOORD_0":115
					},
					"indices":116,
					"material":17
				}
			]
		},
		{
			"name":"Sail_jib_1",
			"primitives":[
				{
					"attributes":{
						"POSITION":117,
						"NORMAL":118,
						"TEXCOORD_0":119
					},
					"indices":116,
					"material":17
				}
			]
		},
		{
			"name":"Sail_spanker",
			"primitives":[
				{
					"attributes":{
						"POSITION":120,
						"NORMAL":121,
						"TEXCOORD_0":122
					},
					"indices":123,
					"material":17
				}
			]
		},
		{
			"name":"Sail_sprit",
			"primitives":[
				{
					"attributes":{
						"POSITION":124,
						"NORMAL":125,
						"TEXCOORD_0":126
					},
					"indices":91,
					"material":17
				}
			]
		},
		{
			"name":"Sail_stay_1",
			"primitives":[
				{
					"attributes":{
						"POSITION":127,
						"NORMAL":128,
						"TEXCOORD_0":129
					},
					"indices":116,
					"material":17
				}
			]
		},
		{
			"name":"Sail_stay_2",
			"primitives":[
				{
					"attributes":{
						"POSITION":130,
						"NORMAL":131,
						"TEXCOORD_0":132
					},
					"indices":116,
					"material":17
				}
			]
		}
	],
	"textures":[
		{
			"sampler":0,
			"source":0
		},
		{
			"sampler":0,
			"source":1
		},
		{
			"sampler":0,
			"source":2
		},
		{
			"sampler":0,
			"source":3
		},
		{
			"sampler":0,
			"source":4
		},
		{
			"sampler":0,
			"source":5
		},
		{
			"sampler":0,
			"source":6
		}
	],
	"images":[
		{
			"mimeType":"image/jpeg",
			"name":"frigate_hull_n",
			"uri":"textures/frigate_hull_n.jpg"
		},
		{
			"mimeType":"image/jpeg",
			"name":"frigate_hull",
			"uri":"textures/frigate_hull.jpg"
		},
		{
			"mimeType":"image/jpeg",
			"name":"deck_n",
			"uri":"textures/deck_n.jpg"
		},
		{
			"mimeType":"image/jpeg",
			"name":"deck",
			"uri":"textures/deck.jpg"
		},
		{
			"mimeType":"image/jpeg",
			"name":"frigate_upper_n",
			"uri":"textures/frigate_upper_n.jpg"
		},
		{
			"mimeType":"image/jpeg",
			"name":"frigate_upper",
			"uri":"textures/frigate_upper.jpg"
		},
		{
			"mimeType":"image/jpeg",
			"name":"frigate_sail",
			"uri":"textures/frigate_sail.jpg"
		}
	],
	"accessors":[
		{
			"bufferView":0,
			"componentType":5126,
			"count":45,
			"max":[
				0.06440079212188721,
				0,
				6.71999979019165
			],
			"min":[
				-0.17260636389255524,
				-4.320000171661377,
				0
			],
			"type":"VEC3"
		},
		{
			"bufferView":1,
			"componentType":5126,
			"count":45,
			"type":"VEC3"
		},
		{
			"bufferView":2,
			"componentType":5126,
			"count":45,
			"type":"VEC2"
		},
		{
			"bufferView":3,
			"componentType":5123,
			"count":192,
			"type":"SCALAR"
		},
		{
			"bufferView":4,
			"componentType":5126,
			"count":5664,
			"max":[
				6.912688732147217,
				7.776000022888184,
				26.15999984741211
			],
			"min":[
				-6.912688732147217,
				-5.507999897003174,
				-25.68000030517578
			],
			"type":"VEC3"
		},
		{
			"bufferView":5,
			"componentType":5126,
			"count":5664,
			"type":"VEC3"
		},
		{
			"bufferView":6,
			"componentType":5126,
			"count":5664,
			"type":"VEC2"
		},
		{
			"bufferView":7,
			"componentType":5123,
			"count":5664,
			"normalized":true,
			"type":"VEC4"
		},
		{
			"bufferView":8,
			"componentType":5123,
			"count":22464,
			"type":"SCALAR"
		},
		{
			"bufferView":9,
			"componentType":5126,
			"count":2262,
			"max":[
				6.289919853210449,
				11.015999794006348,
				26.737539291381836
			],
			"min":[
				-6.289919853210449,
				4.53709077835083,
				-25.68000030517578
			],
			"type":"VEC3"
		},
		{
			"bufferView":10,
			"componentType":5126,
			"count":2262,
			"type":"VEC3"
		},
		{
			"bufferView":11,
			"componentType":5126,
			"count":2262,
			"type":"VEC2"
		},
		{
			"bufferView":12,
			"componentType":5123,
			"count":2262,
			"normalized":true,
			"type":"VEC4"
		},
		{
			"bufferView":13,
			"componentType":5123,
			"count":4608,
			"type":"SCALAR"
		},
		{
			"bufferView":14,
			"componentType":5126,
			"count":1029,
			"max":[
				6.289919853210449,
				11.916000366210938,
				26.897968292236328
			],
			"min":[
				-6.289919853210449,
				-4.341599941253662,
				-25.96311378479004
			],
			"type":"VEC3"
		},
		{
			"bufferView":15,
			"componentType":5126,
			"count":1029,
			"type":"VEC3"
		},
		{
			"bufferView":16,
			"componentType":5126,
			"count":1029,
			"type":"VEC2"
		},
		{
			"bufferView":17,
			"componentType":5123,
			"count":1029,
			"normalized":true,
			"type":"VEC4"
		},
		{
			"bufferView":18,
			"componentType":5123,
			"count":2592,
			"type":"SCALAR"
		},
		{
			"bufferView":19,
			"componentType":5126,
			"count":5702,
			"max":[
				7.2653985023498535,
				11.147788047790527,
				26.752336502075195
			],
			"min":[
				-7.2653985023498535,
				-6.075999736785889,
				-27.910144805908203
			],
			"type":"VEC3"
		},
		{
			"bufferView":20,
			"componentType":5126,
			"count":5702,
			"type":"VEC3"
		},
		{
			"bufferView":21,
			"componentType":5126,
			"count":5702,
			"type":"VEC2"
		},
		{
			"bufferView":22,
			"componentType":5123,
			"count":5702,
			"normalized":true,
			"type":"VEC4"
		},
		{
			"bufferView":23,
			"componentType":5123,
			"count":17355,
			"type":"SCALAR"
		},
		{
			"bufferView":24,
			"componentType":5126,
			"count":1296,
			"max":[
				7.001694679260254,
				7.309492111206055,
				14.421228408813477
			],
			"min":[
				-7.001694679260254,
				0.5905645489692688,
				-16.0408878326416
			],
			"type":"VEC3"
		},
		{
			"bufferView":25,
			"componentType":5126,
			"count":1296,
			"type":"VEC3"
		},
		{
			"bufferView":26,
			"componentType":5126,
			"count":1296,
			"type":"VEC2"
		},
		{
			"bufferView":27,
			"componentType":5123,
			"count":1296,
			"normalized":true,
			"type":"VEC4"
		},
		{
			"bufferView":28,
			"componentType":5123,
			"count":1944,
			"type":"SCALAR"
		},
		{
			"bufferView":29,
			"componentType":5126,
			"count":3214,
			"max":[
				5.737831115722656,
				52.64878463745117,
				27.177539825439453
			],
			"min":[
				-5.737831115722656,
				0.772270679473877,
				-28.460145950317383
			],
			"type":"VEC3"
		},
		{
			"bufferView":30,
			"componentType":5126,
			"count":3214,
			"type":"VEC3"
		},
		{
			"bufferView":31,
			"componentType":5126,
			"count":3214,
			"type":"VEC2"
		},
		{
			"bufferView":32,
			"componentType":5123,
			"count":3214,
			"normalized":true,
			"type":"VEC4"
		},
		{
			"bufferView":33,
			"componentType":5123,
			"count":6396,
			"type":"SCALAR"
		},
		{
			"bufferView":34,
			"componentType":5126,
			"count":2466,
			"max":[
				6.054776191711426,
				11.935999870300293,
				26.807538986206055
			],
			"min":[
				-6.054776191711426,
				3.9805004596710205,
				-27.597782135009766
			],
			"type":"VEC3"
		},
		{
			"bufferView":35,
			"componentType":5126,
			"count":2466,
			"type":"VEC3"
		},
		{
			"bufferView":36,
			"componentType":5126,
			"count":2466,
			"type":"VEC2"
		},
		{
			"bufferView":37,
			"componentType":5123,
			"count":2466,
			"normalized":true,
			"type":"VEC4"
		},
		{
			"bufferView":38,
			"componentType":5123,
			"count":4860,
			"type":"SCALAR"
		},
		{
			"bufferView":39,
			"componentType":5126,
			"count":1152,
			"max":[
				7.648874282836914,
				4.562119960784912,
				14.541251182556152
			],
			"min":[
				-7.648874282836914,
				1.270656943321228,
				-15.652427673339844
			],
			"type":"VEC3"
		},
		{
			"bufferView":40,
			"componentType":5126,
			"count":1152,
			"type":"VEC3"
		},
		{
			"bufferView":41,
			"componentType":5126,
			"count":1152,
			"type":"VEC2"
		},
		{
			"bufferView":42,
			"componentType":5123,
			"count":1152,
			"normalized":true,
			"type":"VEC4"
		},
		{
			"bufferView":43,
			"componentType":5123,
			"count":1728,
			"type":"SCALAR"
		},
		{
			"bufferView":44,
			"componentType":5126,
			"count":1392,
			"max":[
				7.6121602058410645,
				5.448911666870117,
				14.486454963684082
			],
			"min":[
				-7.6121602058410645,
				1.281480312347412,
				-15.593588829040527
			],
			"type":"VEC3"
		},
		{
			"bufferView":45,
			"componentType":5126,
			"count":1392,
			"type":"VEC3"
		},
		{
			"bufferView":46,
			"componentType":5126,
			"count":1392,
			"type":"VEC2"
		},
		{
			"bufferView":47,
			"componentType":5123,
			"count":1392,
			"normalized":true,
			"type":"VEC4"
		},
		{
			"bufferView":48,
			"componentType":5123,
			"count":2088,
			"type":"SCALAR"
		},
		{
			"bufferView":49,
			"componentType":5126,
			"count":3854,
			"max":[
				7.665591239929199,
				12.116000175476074,
				26.897539138793945
			],
			"min":[
				-7.665591239929199,
				0.7537177801132202,
				-22.354829788208008
			],
			"type":"VEC3"
		},
		{
			"bufferView":50,
			"componentType":5126,
			"count":3854,
			"type":"VEC3"
		},
		{
			"bufferView":51,
			"componentType":5126,
			"count":3854,
			"type":"VEC2"
		},
		{
			"bufferView":52,
			"componentType":5123,
			"count":3854,
			"normalized":true,
			"type":"VEC4"
		},
		{
			"bufferView":53,
			"componentType":5123,
			"count":7800,
			"type":"SCALAR"
		},
		{
			"bufferView":54,
			"componentType":5126,
			"count":864,
			"max":[
				5.101631164550781,
				9.784799575805664,
				26.50101661682129
			],
			"min":[
				-5.101631164550781,
				3.3994078636169434,
				20.947317123413086
			],
			"type":"VEC3"
		},
		{
			"bufferView":55,
			"componentType":5126,
			"count":864,
			"type":"VEC3"
		},
		{
			"bufferView":56,
			"componentType":5126,
			"count":864,
			"type":"VEC2"
		},
		{
			"bufferView":57,
			"componentType":5123,
			"count":864,
			"normalized":true,
			"type":"VEC4"
		},
		{
			"bufferView":58,
			"componentType":5123,
			"count":1296,
			"type":"SCALAR"
		},
		{
			"bufferView":59,
			"componentType":5126,
			"count":80,
			"max":[
				3.1388747692108154,
				12.866000175476074,
				27.13753890991211
			],
			"min":[
				-3.1388747692108154,
				12.116000175476074,
				26.537540435791016
			],
			"type":"VEC3"
		},
		{
			"bufferView":60,
			"componentType":5126,
			"count":80,
			"type":"VEC3"
		},
		{
			"bufferView":61,
			"componentType":5126,
			"count":80,
			"type":"VEC2"
		},
		{
			"bufferView":62,
			"componentType":5123,
			"count":80,
			"normalized":true,
			"type":"VEC4"
		},
		{
			"bufferView":63,
			"componentType":5123,
			"count":168,
			"type":"SCALAR"
		},
		{
			"bufferView":64,
			"componentType":5126,
			"count":1494,
			"max":[
				13.824000358581543,
				52.37398147583008,
				28.716384887695312
			],
			"min":[
				-13.824000358581543,
				3.0612359046936035,
				-38.211368560791016
			],
			"type":"VEC3"
		},
		{
			"bufferView":65,
			"componentType":5126,
			"count":1494,
			"type":"VEC3"
		},
		{
			"bufferView":66,
			"componentType":5126,
			"count":1494,
			"type":"VEC2"
		},
		{
			"bufferView":67,
			"componentType":5123,
			"count":1494,
			"normalized":true,
			"type":"VEC4"
		},
		{
			"bufferView":68,
			"componentType":5123,
			"count":3864,
			"type":"SCALAR"
		},
		{
			"bufferView":69,
			"componentType":5126,
			"count":51,
			"max":[
				1.9007999897003174,
				5.356438636779785,
				7.679999828338623
			],
			"min":[
				-1.9007999897003174,
				4.649242877960205,
				-27.610145568847656
			],
			"type":"VEC3"
		},
		{
			"bufferView":70,
			"componentType":5126,
			"count":51,
			"type":"VEC3"
		},
		{
			"bufferView":71,
			"componentType":5126,
			"count":51,
			"type":"VEC2"
		},
		{
			"bufferView":72,
			"componentType":5123,
			"count":51,
			"normalized":true,
			"type":"VEC4"
		},
		{
			"bufferView":73,
			"componentType":5123,
			"count":75,
			"type":"SCALAR"
		},
		{
			"bufferView":74,
			"componentType":5126,
			"count":2717,
			"max":[
				7.279565811157227,
				42.833438873291016,
				16.211589813232422
			],
			"min":[
				-7.279565811157227,
				4.6369218826293945,
				-33.67005920410156
			],
			"type":"VEC3"
		},
		{
			"bufferView":75,
			"componentType":5126,
			"count":2717,
			"type":"VEC3"
		},
		{
			"bufferView":76,
			"componentType":5126,
			"count":2717,
			"type":"VEC2"
		},
		{
			"bufferView":77,
			"componentType":5123,
			"count":2717,
			"normalized":true,
			"type":"VEC4"
		},
		{
			"bufferView":78,
			"componentType":5123,
			"count":6456,
			"type":"SCALAR"
		},
		{
			"bufferView":79,
			"componentType":5126,
			"count":13544,
			"max":[
				13.286046981811523,
				51.79154968261719,
				24.941417694091797
			],
			"min":[
				-13.287271499633789,
				4.757506370544434,
				-38.22023010253906
			],
			"type":"VEC3"
		},
		{
			"bufferView":80,
			"componentType":5126,
			"count":13544,
			"type":"VEC3"
		},
		{
			"bufferView":81,
			"componentType":5126,
			"count":13544,
			"type":"VEC2"
		},
		{
			"bufferView":82,
			"componentType":5123,
			"count":13544,
			"normalized":true,
			"type":"VEC4"
		},
		{
			"bufferView":83,
			"componentType":5123,
			"count":21492,
			"type":"SCALAR"
		},
		{
			"bufferView":84,
			"componentType":5126,
			"count":26,
			"max":[
				0.16424664855003357,
				0,
				9.600000381469727
			],
			"min":[
				-0.1664924919605255,
				-0.5759999752044678,
				0
			],
			"type":"VEC3"
		},
		{
			"bufferView":85,
			"componentType":5126,
			"count":26,
			"type":"VEC3"
		},
		{
			"bufferView":86,
			"componentType":5126,
			"count":26,
			"type":"VEC2"
		},
		{
			"bufferView":87,
			"componentType":5123,
			"count":72,
			"type":"SCALAR"
		},
		{
			"bufferView":88,
			"componentType":5126,
			"count":150,
			"max":[
				13.824000358581543,
				0,
				0
			],
			"min":[
				-13.824000358581543,
				-11.207807540893555,
				-3.486327886581421
			],
			"type":"VEC3"
		},
		{
			"bufferView":89,
			"componentType":5126,
			"count":150,
			"type":"VEC3"
		},
		{
			"bufferView":90,
			"componentType":5126,
			"count":150,
			"type":"VEC2"
		},
		{
			"bufferView":91,
			"componentType":5123,
			"count":756,
			"type":"SCALAR"
		},
		{
			"bufferView":92,
			"componentType":5126,
			"count":150,
			"max":[
				12.44159984588623,
				0,
				0
			],
			"min":[
				-12.44159984588623,
				-11.072912216186523,
				-3.0025548934936523
			],
			"type":"VEC3"
		},
		{
			"bufferView":93,
			"componentType":5126,
			"count":150,
			"type":"VEC3"
		},
		{
			"bufferView":94,
			"componentType":5126,
			"count":150,
			"type":"VEC2"
		},
		{
			"bufferView":95,
			"componentType":5126,
			"count":150,
			"max":[
				10.202112197875977,
				0,
				0
			],
			"min":[
				-10.202112197875977,
				-7.752079963684082,
				-2.3397932052612305
			],
			"type":"VEC3"
		},
		{
			"bufferView":96,
			"componentType":5126,
			"count":150,
			"type":"VEC3"
		},
		{
			"bufferView":97,
			"componentType":5126,
			"count":150,
			"type":"VEC2"
		},
		{
			"bufferView":98,
			"componentType":5126,
			"count":150,
			"max":[
				12.718079566955566,
				0,
				0
			],
			"min":[
				-12.718079566955566,
				-12.519359588623047,
				-3.2074215412139893
			],
			"type":"VEC3"
		},
		{
			"bufferView":99,
			"componentType":5126,
			"count":150,
			"type":"VEC3"
		},
		{
			"bufferView":100,
			"componentType":5126,
			"count":150,
			"type":"VEC2"
		},
		{
			"bufferView":101,
			"componentType":5126,
			"count":150,
			"max":[
				11.446271896362305,
				0,
				0
			],
			"min":[
				-11.446271896362305,
				-12.433039665222168,
				-2.762350559234619
			],
			"type":"VEC3"
		},
		{
			"bufferView":102,
			"componentType":5126,
			"count":150,
			"type":"VEC3"
		},
		{
			"bufferView":103,
			"componentType":5126,
			"count":150,
			"type":"VEC2"
		},
		{
			"bufferView":104,
			"componentType":5126,
			"count":150,
			"max":[
				9.385943412780762,
				0,
				0
			],
			"min":[
				-9.385943412780762,
				-8.723600387573242,
				-2.1526098251342773
			],
			"type":"VEC3"
		},
		{
			"bufferView":105,
			"componentType":5126,
			"count":150,
			"type":"VEC3"
		},
		{
			"bufferView":106,
			"componentType":5126,
			"count":150,
			"type":"VEC2"
		},
		{
			"bufferView":107,
			"componentType":5126,
			"count":150,
			"max":[
				10.450943946838379,
				0,
				0
			],
			"min":[
				-10.450943946838379,
				-9.094544410705566,
				-2.522146224975586
			],
			"type":"VEC3"
		},
		{
			"bufferView":108,
			"componentType":5126,
			"count":150,
			"type":"VEC3"
		},
		{
			"bufferView":109,
			"componentType":5126,
			"count":150,
			"type":"VEC2"
		},
		{
			"bufferView":110,
			"componentType":5126,
			"count":150,
			"max":[
				8.56977367401123,
				0,
				0
			],
			"min":[
				-8.56977367401123,
				-6.33896017074585,
				-1.9654263257980347
			],
			"type":"VEC3"
		},
		{
			"bufferView":111,
			"componentType":5126,
			"count":150,
			"type":"VEC3"
		},
		{
			"bufferView":112,
			"componentType":5126,
			"count":150,
			"type":"VEC2"
		},
		{
			"bufferView":113,
			"componentType":5126,
			"count":64,
			"max":[
				26.249956130981445,
				0,
				0.6216266751289368
			],
			"min":[
				0,
				-5.914604663848877,
				-1.0214459896087646
			],
			"type":"VEC3"
		},
		{
			"bufferView":114,
			"componentType":5126,
			"count":64,
			"type":"VEC3"
		},
		{
			"bufferView":115,
			"componentType":5126,
			"count":64,
			"type":"VEC2"
		},
		{
			"bufferView":116,
			"componentType":5123,
			"count":294,
			"type":"SCALAR"
		},
		{
			"bufferView":117,
			"componentType":5126,
			"count":64,
			"max":[
				28.055248260498047,
				0,
				0.6227731704711914
			],
			"min":[
				0,
				-6.341858863830566,
				-1.0233285427093506
			],
			"type":"VEC3"
		},
		{
			"bufferView":118,
			"componentType":5126,
			"count":64,
			"type":"VEC3"
		},
		{
			"bufferView":119,
			"componentType":5126,
			"count":64,
			"type":"VEC2"
		},
		{
			"bufferView":120,
			"componentType":5126,
			"count":81,
			"max":[
				11.014939308166504,
				1.0132789611816406e-06,
				0.8441692590713501
			],
			"min":[
				-5.1701884269714355,
				-16.52361488342285,
				-0.8267534375190735
			],
			"type":"VEC3"
		},
		{
			"bufferView":121,
			"componentType":5126,
			"count":81,
			"type":"VEC3"
		},
		{
			"bufferView":122,
			"componentType":5126,
			"count":81,
			"type":"VEC2"
		},
		{
			"bufferView":123,
			"componentType":5123,
			"count":384,
			"type":"SCALAR"
		},
		{
			"bufferView":124,
			"componentType":5126,
			"count":150,
			"max":[
				6.566400051116943,
				0,
				0
			],
			"min":[
				-6.566400051116943,
				-5.806079864501953,
				-1.680266261100769
			],
			"type":"VEC3"
		},
		{
			"bufferView":125,
			"componentType":5126,
			"count":150,
			"type":"VEC3"
		},
		{
			"bufferView":126,
			"componentType":5126,
			"count":150,
			"type":"VEC2"
		},
		{
			"bufferView":127,
			"componentType":5126,
			"count":64,
			"max":[
				15.998695373535156,
				4.291534423828125e-06,
				0.5529546141624451
			],
			"min":[
				0,
				-5.396603107452393,
				-0.9086035490036011
			],
			"type":"VEC3"
		},
		{
			"bufferView":128,
			"componentType":5126,
			"count":64,
			"type":"VEC3"
		},
		{
			"bufferView":129,
			"componentType":5126,
			"count":64,
			"type":"VEC2"
		},
		{
			"bufferView":130,
			"componentType":5126,
			"count":64,
			"max":[
				11.649401664733887,
				7.271766662597656e-06,
				0.3392661213874817
			],
			"min":[
				0,
				-0.7195266485214233,
				-0.5574742555618286
			],
			"type":"VEC3"
		},
		{
			"bufferView":131,
			"componentType":5126,
			"count":64,
			"type":"VEC3"
		},
		{
			"bufferView":132,
			"componentType":5126,
			"count":64,
			"type":"VEC2"
		}
	],
	"bufferViews":[
		{
			"buffer":0,
			"byteLength":540,
			"byteOffset":0,
			"target":34962
		},
		{
			"buffer":0,
			"byteLength":540,
			"byteOffset":540,
			"target":34962
		},
		{
			"buffer":0,
			"byteLength":360,
			"byteOffset":1080,
			"target":34962
		},
		{
			"buffer":0,
			"byteLength":384,
			"byteOffset":1440,
			"target":34963
		},
		{
			"buffer":0,
			"byteLength":67968,
			"byteOffset":1824,
			"target":34962
		},
		{
			"buffer":0,
			"byteLength":67968,
			"byteOffset":69792,
			"target":34962
		},
		{
			"buffer":0,
			"byteLength":45312,
			"byteOffset":137760,
			"target":34962
		},
		{
			"buffer":0,
			"byteLength":45312,
			"byteOffset":183072,
			"target":34962
		},
		{
			"buffer":0,
			"byteLength":44928,
			"byteOffset":228384,
			"target":34963
		},
		{
			"buffer":0,
			"byteLength":27144,
			"byteOffset":273312,
			"target":34962
		},
		{
			"buffer":0,
			"byteLength":27144,
			"byteOffset":300456,
			"target":34962
		},
		{
			"buffer":0,
			"byteLength":18096,
			"byteOffset":327600,
			"target":34962
		},
		{
			"buffer":0,
			"byteLength":18096,
			"byteOffset":345696,
			"target":34962
		},
		{
			"buffer":0,
			"byteLength":9216,
			"byteOffset":363792,
			"target":34963
		},
		{
			"buffer":0,
			"byteLength":12348,
			"byteOffset":373008,
			"target":34962
		},
		{
			"buffer":0,
			"byteLength":12348,
			"byteOffset":385356,
			"target":34962
		},
		{
			"buffer":0,
			"byteLength":8232,
			"byteOffset":397704,
			"target":34962
		},
		{
			"buffer":0,
			"byteLength":8232,
			"byteOffset":405936,
			"target":34962
		},
		{
			"buffer":0,
			"byteLength":5184,
			"byteOffset":414168,
			"target":34963
		},
		{
			"buffer":0,
			"byteLength":68424,
			"byteOffset":419352,
			"target":34962
		},
		{
			"buffer":0,
			"byteLength":68424,
			"byteOffset":487776,
			"target":34962
		},
		{
			"buffer":0,
			"byteLength":45616,
			"byteOffset":556200,
			"target":34962
		},
		{
			"buffer":0,
			"byteLength":45616,
			"byteOffset":601816,
			"target":34962
		},
		{
			"buffer":0,
			"byteLength":34710,
			"byteOffset":647432,
			"target":34963
		},
		{
			"buffer":0,
			"byteLength":15552,
			"byteOffset":682144,
			"target":34962
		},
		{
			"buffer":0,
			"byteLength":15552,
			"byteOffset":697696,
			"target":34962
		},
		{
			"buffer":0,
			"byteLength":10368,
			"byteOffset":713248,
			"target":34962
		},
		{
			"buffer":0,
			"byteLength":10368,
			"byteOffset":723616,
			"target":34962
		},
		{
			"buffer":0,
			"byteLength":3888,
			"byteOffset":733984,
			"target":34963
		},
		{
			"buffer":0,
			"byteLength":38568,
			"byteOffset":737872,
			"target":34962
		},
		{
			"buffer":0,
			"byteLength":38568,
			"byteOffset":776440,
			"target":34962
		},
		{
			"buffer":0,
			"byteLength":25712,
			"byteOffset":815008,
			"target":34962
		},
		{
			"buffer":0,
			"byteLength":25712,
			"byteOffset":840720,
			"target":34962
		},
		{
			"buffer":0,
			"byteLength":12792,
			"byteOffset":866432,
			"target":34963
		},
		{
			"buffer":0,
			"byteLength":29592,
			"byteOffset":879224,
			"target":34962
		},
		{
			"buffer":0,
			"byteLength":29592,
			"byteOffset":908816,
			"target":34962
		},
		{
			"buffer":0,
			"byteLength":19728,
			"byteOffset":938408,
			"target":34962
		},
		{
			"buffer":0,
			"byteLength":19728,
			"byteOffset":958136,
			"target":34962
		},
		{
			"buffer":0,
			"byteLength":9720,
			"byteOffset":977864,
			"target":34963
		},
		{
			"buffer":0,
			"byteLength":13824,
			"byteOffset":987584,
			"target":34962
		},
		{
			"buffer":0,
			"byteLength":13824,
			"byteOffset":1001408,
			"target":34962
		},
		{
			"buffer":0,
			"byteLength":9216,
			"byteOffset":1015232,
			"target":34962
		},
		{
			"buffer":0,
			"byteLength":9216,
			"byteOffset":1024448,
			"target":34962
		},
		{
			"buffer":0,
			"byteLength":3456,
			"byteOffset":1033664,
			"target":34963
		},
		{
			"buffer":0,
			"byteLength":16704,
			"byteOffset":1037120,
			"target":34962
		},
		{
			"buffer":0,
			"byteLength":16704,
			"byteOffset":1053824,
			"target":34962
		},
		{
			"buffer":0,
			"byteLength":11136,
			"byteOffset":1070528,
			"target":34962
		},
		{
			"buffer":0,
			"byteLength":11136,
			"byteOffset":1081664,
			"target":34962
		},
		{
			"buffer":0,
			"byteLength":4176,
			"byteOffset":1092800,
			"target":34963
		},
		{
			"buffer":0,
			"byteLength":46248,
			"byteOffset":1096976,
			"target":34962
		},
		{
			"buffer":0,
			"byteLength":46248,
			"byteOffset":1143224,
			"target":34962
		},
		{
			"buffer":0,
			"byteLength":30832,
			"byteOffset":1189472,
			"target":34962
		},
		{
			"buffer":0,
			"byteLength":30832,
			"byteOffset":1220304,
			"target":34962
		},
		{
			"buffer":0,
			"byteLength":15600,
			"byteOffset":1251136,
			"target":34963
		},
		{
			"buffer":0,
			"byteLength":10368,
			"byteOffset":1266736,
			"target":34962
		},
		{
			"buffer":0,
			"byteLength":10368,
			"byteOffset":1277104,
			"target":34962
		},
		{
			"buffer":0,
			"byteLength":6912,
			"byteOffset":1287472,
			"target":34962
		},
		{
			"buffer":0,
			"byteLength":6912,
			"byteOffset":1294384,
			"target":34962
		},
		{
			"buffer":0,
			"byteLength":2592,
			"byteOffset":1301296,
			"target":34963
		},
		{
			"buffer":0,
			"byteLength":960,
			"byteOffset":1303888,
			"target":34962
		},
		{
			"buffer":0,
			"byteLength":960,
			"byteOffset":1304848,
			"target":34962
		},
		{
			"buffer":0,
			"byteLength":640,
			"byteOffset":1305808,
			"target":34962
		},
		{
			"buffer":0,
			"byteLength":640,
			"byteOffset":1306448,
			"target":34962
		},
		{
			"buffer":0,
			"byteLength":336,
			"byteOffset":1307088,
			"target":34963
		},
		{
			"buffer":0,
			"byteLength":17928,
			"byteOffset":1307424,
			"target":34962
		},
		{
			"buffer":0,
			"byteLength":17928,
			"byteOffset":1325352,
			"target":34962
		},
		{
			"buffer":0,
			"byteLength":11952,
			"byteOffset":1343280,
			"target":34962
		},
		{
			"buffer":0,
			"byteLength":11952,
			"byteOffset":1355232,
			"target":34962
		},
		{
			"buffer":0,
			"byteLength":7728,
			"byteOffset":1367184,
			"target":34963
		},
		{
			"buffer":0,
			"byteLength":612,
			"byteOffset":1374912,
			"target":34962
		},
		{
			"buffer":0,
			"byteLength":612,
			"byteOffset":1375524,
			"target":34962
		},
		{
			"buffer":0,
			"byteLength":408,
			"byteOffset":1376136,
			"target":34962
		},
		{
			"buffer":0,
			"byteLength":408,
			"byteOffset":1376544,
			"target":34962
		},
		{
			"buffer":0,
			"byteLength":150,
			"byteOffset":1376952,
			"target":34963
		},
		{
			"buffer":0,
			"byteLength":32604,
			"byteOffset":1377104,
			"target":34962
		},
		{
			"buffer":0,
			"byteLength":32604,
			"byteOffset":1409708,
			"target":34962
		},
		{
			"buffer":0,
			"byteLength":21736,
			"byteOffset":1442312,
			"target":34962
		},
		{
			"buffer":0,
			"byteLength":21736,
			"byteOffset":1464048,
			"target":34962
		},
		{
			"buffer":0,
			"byteLength":12912,
			"byteOffset":1485784,
			"target":34963
		},
		{
			"buffer":0,
			"byteLength":162528,
			"byteOffset":1498696,
			"target":34962
		},
		{
			"buffer":0,
			"byteLength":162528,
			"byteOffset":1661224,
			"target":34962
		},
		{
			"buffer":0,
			"byteLength":108352,
			"byteOffset":1823752,
			"target":34962
		},
		{
			"buffer":0,
			"byteLength":108352,
			"byteOffset":1932104,
			"target":34962
		},
		{
			"buffer":0,
			"byteLength":42984,
			"byteOffset":2040456,
			"target":34963
		},
		{
			"buffer":0,
			"byteLength":312,
			"byteOffset":2083440,
			"target":34962
		},
		{
			"buffer":0,
			"byteLength":312,
			"byteOffset":2083752,
			"target":34962
		},
		{
			"buffer":0,
			"byteLength":208,
			"byteOffset":2084064,
			"target":34962
		},
		{
			"buffer":0,
			"byteLength":144,
			"byteOffset":2084272,
			"target":34963
		},
		{
			"buffer":0,
			"byteLength":1800,
			"byteOffset":2084416,
			"target":34962
		},
		{
			"buffer":0,
			"byteLength":1800,
			"byteOffset":2086216,
			"target":34962
		},
		{
			"buffer":0,
			"byteLength":1200,
			"byteOffset":2088016,
			"target":34962
		},
		{
			"buffer":0,
			"byteLength":1512,
			"byteOffset":2089216,
			"target":34963
		},
		{
			"buffer":0,
			"byteLength":1800,
			"byteOffset":2090728,
			"target":34962
		},
		{
			"buffer":0,
			"byteLength":1800,
			"byteOffset":2092528,
			"target":34962
		},
		{
			"buffer":0,
			"byteLength":1200,
			"byteOffset":2094328,
			"target":34962
		},
		{
			"buffer":0,
			"byteLength":1800,
			"byteOffset":2095528,
			"target":34962
		},
		{
			"buffer":0,
			"byteLength":1800,
			"byteOffset":2097328,
			"target":34962
		},
		{
			"buffer":0,
			"byteLength":1200,
			"byteOffset":2099128,
			"target":34962
		},
		{
			"buffer":0,
			"byteLength":1800,
			"byteOffset":2100328,
			"target":34962
		},
		{
			"buffer":0,
			"byteLength":1800,
			"byteOffset":2102128,
			"target":34962
		},
		{
			"buffer":0,
			"byteLength":1200,
			"byteOffset":2103928,
			"target":34962
		},
		{
			"buffer":0,
			"byteLength":1800,
			"byteOffset":2105128,
			"target":34962
		},
		{
			"buffer":0,
			"byteLength":1800,
			"byteOffset":2106928,
			"target":34962
		},
		{
			"buffer":0,
			"byteLength":1200,
			"byteOffset":2108728,
			"target":34962
		},
		{
			"buffer":0,
			"byteLength":1800,
			"byteOffset":2109928,
			"target":34962
		},
		{
			"buffer":0,
			"byteLength":1800,
			"byteOffset":2111728,
			"target":34962
		},
		{
			"buffer":0,
			"byteLength":1200,
			"byteOffset":2113528,
			"target":34962
		},
		{
			"buffer":0,
			"byteLength":1800,
			"byteOffset":2114728,
			"target":34962
		},
		{
			"buffer":0,
			"byteLength":1800,
			"byteOffset":2116528,
			"target":34962
		},
		{
			"buffer":0,
			"byteLength":1200,
			"byteOffset":2118328,
			"target":34962
		},
		{
			"buffer":0,
			"byteLength":1800,
			"byteOffset":2119528,
			"target":34962
		},
		{
			"buffer":0,
			"byteLength":1800,
			"byteOffset":2121328,
			"target":34962
		},
		{
			"buffer":0,
			"byteLength":1200,
			"byteOffset":2123128,
			"target":34962
		},
		{
			"buffer":0,
			"byteLength":768,
			"byteOffset":2124328,
			"target":34962
		},
		{
			"buffer":0,
			"byteLength":768,
			"byteOffset":2125096,
			"target":34962
		},
		{
			"buffer":0,
			"byteLength":512,
			"byteOffset":2125864,
			"target":34962
		},
		{
			"buffer":0,
			"byteLength":588,
			"byteOffset":2126376,
			"target":34963
		},
		{
			"buffer":0,
			"byteLength":768,
			"byteOffset":2126964,
			"target":34962
		},
		{
			"buffer":0,
			"byteLength":768,
			"byteOffset":2127732,
			"target":34962
		},
		{
			"buffer":0,
			"byteLength":512,
			"byteOffset":2128500,
			"target":34962
		},
		{
			"buffer":0,
			"byteLength":972,
			"byteOffset":2129012,
			"target":34962
		},
		{
			"buffer":0,
			"byteLength":972,
			"byteOffset":2129984,
			"target":34962
		},
		{
			"buffer":0,
			"byteLength":648,
			"byteOffset":2130956,
			"target":34962
		},
		{
			"buffer":0,
			"byteLength":768,
			"byteOffset":2131604,
			"target":34963
		},
		{
			"buffer":0,
			"byteLength":1800,
			"byteOffset":2132372,
			"target":34962
		},
		{
			"buffer":0,
			"byteLength":1800,
			"byteOffset":2134172,
			"target":34962
		},
		{
			"buffer":0,
			"byteLength":1200,
			"byteOffset":2135972,
			"target":34962
		},
		{
			"buffer":0,
			"byteLength":768,
			"byteOffset":2137172,
			"target":34962
		},
		{
			"buffer":0,
			"byteLength":768,
			"byteOffset":2137940,
			"target":34962
		},
		{
			"buffer":0,
			"byteLength":512,
			"byteOffset":2138708,
			"target":34962
		},
		{
			"buffer":0,
			"byteLength":768,
			"byteOffset":2139220,
			"target":34962
		},
		{
			"buffer":0,
			"byteLength":768,
			"byteOffset":2139988,
			"target":34962
		},
		{
			"buffer":0,
			"byteLength":512,
			"byteOffset":2140756,
			"target":34962
		}
	],
	"samplers":[
		{
			"magFilter":9729,
			"minFilter":9987
		}
	],
	"buffers":[
		{
			"byteLength":2141268,
			"uri":"frigate.bin"
		}
	]
}
