{
	"asset":{
		"generator":"Khronos glTF Blender I/O v5.2.40",
		"version":"2.0"
	},
	"extensionsUsed":[
		"KHR_materials_emissive_strength"
	],
	"scene":0,
	"scenes":[
		{
			"name":"Scene",
			"nodes":[
				0,
				1,
				2,
				3,
				4,
				5,
				6,
				7,
				8,
				9,
				10,
				11,
				12,
				13,
				14,
				15,
				16,
				17,
				18,
				19,
				20,
				21,
				22,
				23,
				24,
				25,
				26,
				27,
				28,
				29,
				30,
				31,
				32,
				33,
				34,
				35,
				36,
				37,
				38,
				39,
				40,
				41,
				42,
				43,
				44,
				45,
				46,
				47,
				48,
				49,
				50,
				51,
				52,
				53,
				54,
				55,
				56,
				57,
				58,
				59,
				60,
				61,
				62,
				63,
				64
			]
		}
	],
	"nodes":[
		{
			"mesh":0,
			"name":"Flag",
			"translation":[
				0,
				18.371198654174805,
				23.241016387939453
			]
		},
		{
			"mesh":1,
			"name":"Hull"
		},
		{
			"name":"Muzzle_P_00",
			"translation":[
				-5.194680213928223,
				0.9398234486579895,
				-12.055112838745117
			]
		},
		{
			"name":"Muzzle_P_01",
			"translation":[
				-6.048124313354492,
				0.8682713508605957,
				-9.391227722167969
			]
		},
		{
			"name":"Muzzle_P_02",
			"translation":[
				-6.438077926635742,
				0.8017853498458862,
				-6.703278541564941
			]
		},
		{
			"name":"Muzzle_P_03",
			"translation":[
				-6.47194766998291,
				0.7462005019187927,
				-4.14187479019165
			]
		},
		{
			"name":"Muzzle_P_04",
			"translation":[
				-6.47194766998291,
				0.7503046989440918,
				-1.6341521739959717
			]
		},
		{
			"name":"Muzzle_P_05",
			"translation":[
				-6.471948623657227,
				0.8117465376853943,
				0.8736589550971985
			]
		},
		{
			"name":"Muzzle_P_06",
			"translation":[
				-6.471950531005859,
				0.9167539477348328,
				3.3815033435821533
			]
		},
		{
			"name":"Muzzle_P_07",
			"translation":[
				-6.471953392028809,
				1.0609941482543945,
				5.889370441436768
			]
		},
		{
			"name":"Muzzle_P_08",
			"translation":[
				-6.4402360916137695,
				1.2418386936187744,
				8.46948528289795
			]
		},
		{
			"name":"Muzzle_P_09",
			"translation":[
				-5.933125019073486,
				1.4197582006454468,
				11.175715446472168
			]
		},
		{
			"name":"Muzzle_P_10",
			"translation":[
				-5.244513988494873,
				2.4220378398895264,
				-12.023384094238281
			]
		},
		{
			"name":"Muzzle_P_11",
			"translation":[
				-5.984625816345215,
				2.320744752883911,
				-9.351434707641602
			]
		},
		{
			"name":"Muzzle_P_12",
			"translation":[
				-6.316877365112305,
				2.2316854000091553,
				-6.695940971374512
			]
		},
		{
			"name":"Muzzle_P_13",
			"translation":[
				-6.349322319030762,
				2.16465425491333,
				-4.139641284942627
			]
		},
		{
			"name":"Muzzle_P_14",
			"translation":[
				-6.349339962005615,
				2.169672727584839,
				-1.6368638277053833
			]
		},
		{
			"name":"Muzzle_P_15",
			"translation":[
				-6.349603176116943,
				2.244826078414917,
				0.8675789833068848
			]
		},
		{
			"name":"Muzzle_P_16",
			"translation":[
				-6.350036144256592,
				2.373356342315674,
				3.3726446628570557
			]
		},
		{
			"name":"Muzzle_P_17",
			"translation":[
				-6.350594520568848,
				2.5500707626342773,
				5.878139972686768
			]
		},
		{
			"name":"Muzzle_P_18",
			"translation":[
				-6.321352481842041,
				2.771040678024292,
				8.453544616699219
			]
		},
		{
			"name":"Muzzle_P_19",
			"translation":[
				-5.886983871459961,
				2.9976210594177246,
				11.128307342529297
			]
		},
		{
			"name":"Muzzle_P_20",
			"translation":[
				-5.329046726226807,
				4.363523483276367,
				-6.079999923706055
			]
		},
		{
			"name":"Muzzle_P_21",
			"translation":[
				-5.335254669189453,
				4.2914934158325195,
				-2.8499999046325684
			]
		},
		{
			"name":"Muzzle_P_22",
			"translation":[
				-5.335254669189453,
				4.380650520324707,
				0.3799999952316284
			]
		},
		{
			"name":"Muzzle_P_23",
			"translation":[
				-5.335254669189453,
				4.587746620178223,
				3.609999895095825
			]
		},
		{
			"name":"Muzzle_S_00",
			"translation":[
				5.194680213928223,
				0.9398234486579895,
				-12.055112838745117
			]
		},
		{
			"name":"Muzzle_S_01",
			"translation":[
				6.048124313354492,
				0.8682713508605957,
				-9.391227722167969
			]
		},
		{
			"name":"Muzzle_S_02",
			"translation":[
				6.438077926635742,
				0.8017853498458862,
				-6.703278541564941
			]
		},
		{
			"name":"Muzzle_S_03",
			"translation":[
				6.47194766998291,
				0.7462005019187927,
				-4.14187479019165
			]
		},
		{
			"name":"Muzzle_S_04",
			"translation":[
				6.47194766998291,
				0.7503046989440918,
				-1.6341521739959717
			]
		},
		{
			"name":"Muzzle_S_05",
			"translation":[
				6.471948623657227,
				0.8117465376853943,
				0.8736589550971985
			]
		},
		{
			"name":"Muzzle_S_06",
			"translation":[
				6.471950531005859,
				0.9167539477348328,
				3.3815033435821533
			]
		},
		{
			"name":"Muzzle_S_07",
			"translation":[
				6.471953392028809,
				1.0609941482543945,
				5.889370441436768
			]
		},
		{
			"name":"Muzzle_S_08",
			"translation":[
				6.4402360916137695,
				1.2418386936187744,
				8.46948528289795
			]
		},
		{
			"name":"Muzzle_S_09",
			"translation":[
				5.933125019073486,
				1.4197582006454468,
				11.175715446472168
			]
		},
		{
			"name":"Muzzle_S_10",
			"translation":[
				5.244513988494873,
				2.4220378398895264,
				-12.023384094238281
			]
		},
		{
			"name":"Muzzle_S_11",
			"translation":[
				5.984625816345215,
				2.320744752883911,
				-9.351434707641602
			]
		},
		{
			"name":"Muzzle_S_12",
			"translation":[
				6.316877365112305,
				2.2316854000091553,
				-6.695940971374512
			]
		},
		{
			"name":"Muzzle_S_13",
			"translation":[
				6.349322319030762,
				2.16465425491333,
				-4.139641284942627
			]
		},
		{
			"name":"Muzzle_S_14",
			"translation":[
				6.349339962005615,
				2.169672727584839,
				-1.6368638277053833
			]
		},
		{
			"name":"Muzzle_S_15",
			"translation":[
				6.349603176116943,
				2.244826078414917,
				0.8675789833068848
			]
		},
		{
			"name":"Muzzle_S_16",
			"translation":[
				6.350036144256592,
				2.373356342315674,
				3.3726446628570557
			]
		},
		{
			"name":"Muzzle_S_17",
			"translation":[
				6.350594520568848,
				2.5500707626342773,
				5.878139972686768
			]
		},
		{
			"name":"Muzzle_S_18",
			"translation":[
				6.321352481842041,
				2.771040678024292,
				8.453544616699219
			]
		},
		{
			"name":"Muzzle_S_19",
			"translation":[
				5.886983871459961,
				2.9976210594177246,
				11.128307342529297
			]
		},
		{
			"name":"Muzzle_S_20",
			"translation":[
				5.329046726226807,
				4.363523483276367,
				-6.079999923706055
			]
		},
		{
			"name":"Muzzle_S_21",
			"translation":[
				5.335254669189453,
				4.2914934158325195,
				-2.8499999046325684
			]
		},
		{
			"name":"Muzzle_S_22",
			"translation":[
				5.335254669189453,
				4.380650520324707,
				0.3799999952316284
			]
		},
		{
			"name":"Muzzle_S_23",
			"translation":[
				5.335254669189453,
				4.587746620178223,
				3.609999895095825
			]
		},
		{
			"mesh":2,
			"name":"Pennant",
			"translation":[
				0,
				41.408756256103516,
				-0.06195956468582153
			]
		},
		{
			"mesh":3,
			"name":"Sail_0_0",
			"rotation":[
				0.026176918298006058,
				0,
				0,
				0.9996573328971863
			],
			"translation":[
				0,
				17.06875228881836,
				-12.134343147277832
			]
		},
		{
			"mesh":4,
			"name":"Sail_0_1_E",
			"rotation":[
				0.026176918298006058,
				0,
				0,
				0.9996573328971863
			],
			"translation":[
				0,
				26.257614135742188,
				-11.652774810791016
			]
		},
		{
			"mesh":5,
			"name":"Sail_0_2",
			"rotation":[
				0.026176918298006058,
				0,
				0,
				0.9996573328971863
			],
			"translation":[
				0,
				32.82108688354492,
				-11.308797836303711
			]
		},
		{
			"mesh":6,
			"name":"Sail_1_0",
			"rotation":[
				0.026176918298006058,
				0,
				0,
				0.9996573328971863
			],
			"translation":[
				0,
				18.127117156982422,
				-0.7107595205307007
			]
		},
		{
			"mesh":7,
			"name":"Sail_1_1_E",
			"rotation":[
				0.026176918298006058,
				0,
				0,
				0.9996573328971863
			],
			"translation":[
				0,
				28.391271591186523,
				-0.1728380024433136
			]
		},
		{
			"mesh":8,
			"name":"Sail_1_2",
			"rotation":[
				0.026176918298006058,
				0,
				0,
				0.9996573328971863
			],
			"translation":[
				0,
				35.72281265258789,
				0.2113916575908661
			]
		},
		{
			"mesh":9,
			"name":"Sail_2_1",
			"rotation":[
				0.026176918298006058,
				0,
				0,
				0.9996573328971863
			],
			"translation":[
				0,
				23.02229881286621,
				10.948158264160156
			]
		},
		{
			"mesh":10,
			"name":"Sail_2_2",
			"rotation":[
				0.026176918298006058,
				0,
				0,
				0.9996573328971863
			],
			"translation":[
				0,
				28.468584060668945,
				11.233586311340332
			]
		},
		{
			"mesh":11,
			"name":"Sail_jib_0",
			"rotation":[
				-0.3879852592945099,
				0.6486980319023132,
				-0.2814089357852936,
				0.5911577343940735
			],
			"translation":[
				0,
				25.754005432128906,
				-14.812759399414062
			]
		},
		{
			"mesh":12,
			"name":"Sail_jib_1",
			"rotation":[
				-0.38458430767059326,
				0.6471219658851624,
				-0.28501424193382263,
				0.5933759212493896
			],
			"translation":[
				0,
				28.264251708984375,
				-17.52304458618164
			]
		},
		{
			"mesh":13,
			"name":"Sail_spanker",
			"rotation":[
				-0.11849213391542435,
				-0.6901464462280273,
				0.15394113957881927,
				0.6971081495285034
			],
			"translation":[
				0,
				18.312480926513672,
				10.99000072479248
			]
		},
		{
			"mesh":14,
			"name":"Sail_sprit",
			"translation":[
				0,
				6.493995189666748,
				-22.845600128173828
			]
		},
		{
			"mesh":15,
			"name":"Sail_stay_1",
			"rotation":[
				-0.2968752682209015,
				0.68218594789505,
				-0.18607082962989807,
				0.641767144203186
			],
			"translation":[
				0,
				32.82098388671875,
				-0.8899979591369629
			]
		},
		{
			"mesh":16,
			"name":"Sail_stay_2",
			"rotation":[
				-0.37869560718536377,
				0.6194786429405212,
				0.3409484326839447,
				0.5971516370773315
			],
			"translation":[
				0,
				26.638715744018555,
				10.212080001831055
			]
		}
	],
	"materials":[
		{
			"doubleSided":true,
			"name":"galleon_flag",
			"pbrMetallicRoughness":{
				"metallicFactor":0,
				"roughnessFactor":0.8999999761581421
			}
		},
		{
			"doubleSided":true,
			"name":"galleon_hull",
			"normalTexture":{
				"index":0
			},
			"pbrMetallicRoughness":{
				"baseColorTexture":{
					"index":1
				},
				"metallicFactor":0,
				"roughnessFactor":0.7200000286102295
			}
		},
		{
			"doubleSided":true,
			"name":"galleon_deck",
			"normalTexture":{
				"index":2
			},
			"pbrMetallicRoughness":{
				"baseColorTexture":{
					"index":3
				},
				"metallicFactor":0,
				"roughnessFactor":0.8500000238418579
			}
		},
		{
			"doubleSided":true,
			"name":"galleon_upper",
			"normalTexture":{
				"index":4
			},
			"pbrMetallicRoughness":{
				"baseColorTexture":{
					"index":5
				},
				"metallicFactor":0,
				"roughnessFactor":0.75
			}
		},
		{
			"doubleSided":true,
			"name":"galleon_wale",
			"pbrMetallicRoughness":{
				"baseColorFactor":[
					0.015797171741724014,
					0.009047821164131165,
					0.005078575573861599,
					1
				],
				"metallicFactor":0,
				"roughnessFactor":0.699999988079071
			}
		},
		{
			"doubleSided":true,
			"name":"galleon_dark",
			"pbrMetallicRoughness":{
				"baseColorFactor":[
					0.0036765073891729116,
					0.002428215928375721,
					0.0018211619462817907,
					1
				],
				"metallicFactor":0,
				"roughnessFactor":0.949999988079071
			}
		},
		{
			"doubleSided":true,
			"name":"galleon_trim",
			"pbrMetallicRoughness":{
				"baseColorFactor":[
					0.3287096917629242,
					0.2158605009317398,
					0.05126945674419403,
					1
				],
				"metallicFactor":0.4000000059604645,
				"roughnessFactor":0.44999998807907104
			}
		},
		{
			"doubleSided":true,
			"name":"galleon_rail",
			"pbrMetallicRoughness":{
				"baseColorFactor":[
					0.0423114113509655,
					0.021219009533524513,
					0.008568125776946545,
					1
				],
				"metallicFactor":0,
				"roughnessFactor":0.75
			}
		},
		{
			"doubleSided":true,
			"name":"galleon_lid",
			"pbrMetallicRoughness":{
				"baseColorFactor":[
					0.027759883552789688,
					0.012149862013757229,
					0.005869092419743538,
					1
				],
				"metallicFactor":0,
				"roughnessFactor":0.699999988079071
			}
		},
		{
			"doubleSided":true,
			"name":"galleon_portred",
			"pbrMetallicRoughness":{
				"baseColorFactor":[
					0.07618538290262222,
					0.00802319310605526,
					0.005181516520678997,
					1
				],
				"metallicFactor":0,
				"roughnessFactor":0.8500000238418579
			}
		},
		{
			"doubleSided":true,
			"name":"galleon_iron",
			"pbrMetallicRoughness":{
				"baseColorFactor":[
					0.00802319310605526,
					0.007499032188206911,
					0.006995410192757845,
					1
				],
				"metallicFactor":0.550000011920929,
				"roughnessFactor":0.5
			}
		},
		{
			"doubleSided":true,
			"emissiveFactor":[
				0.11999999731779099,
				0.06624137015101228,
				0.01729541620696895
			],
			"name":"galleon_glass",
			"pbrMetallicRoughness":{
				"baseColorFactor":[
					0.005181516520678997,
					0.00802319310605526,
					0.011612244881689548,
					1
				],
				"metallicFactor":0.30000001192092896,
				"roughnessFactor":0.07999999821186066
			}
		},
		{
			"doubleSided":true,
			"emissiveFactor":[
				1,
				0.4564110338687897,
				0.06847816705703735
			],
			"extensions":{
				"KHR_materials_emissive_strength":{
					"emissiveStrength":5
				}
			},
			"name":"galleon_lantern",
			"pbrMetallicRoughness":{
				"baseColorFactor":[
					1,
					0.7605245113372803,
					0.35153260827064514,
					1
				],
				"metallicFactor":0,
				"roughnessFactor":0.30000001192092896
			}
		},
		{
			"doubleSided":true,
			"name":"galleon_spar",
			"pbrMetallicRoughness":{
				"baseColorFactor":[
					0.04817182570695877,
					0.024157632142305374,
					0.01032982300966978,
					1
				],
				"metallicFactor":0,
				"roughnessFactor":0.699999988079071
			}
		},
		{
			"doubleSided":true,
			"name":"galleon_grating",
			"pbrMetallicRoughness":{
				"baseColorFactor":[
					0.06847816705703735,
					0.03560131415724754,
					0.014443843625485897,
					1
				],
				"metallicFactor":0,
				"roughnessFactor":0.8999999761581421
			}
		},
		{
			"doubleSided":true,
			"name":"galleon_spar_black",
			"pbrMetallicRoughness":{
				"baseColorFactor":[
					0.006995410192757845,
					0.005181516520678997,
					0.0036765073891729116,
					1
				],
				"metallicFactor":0,
				"roughnessFactor":0.699999988079071
			}
		},
		{
			"doubleSided":true,
			"name":"galleon_rope",
			"pbrMetallicRoughness":{
				"baseColorFactor":[
					0.008568125776946545,
					0.006048833020031452,
					0.004024717025458813,
					1
				],
				"metallicFactor":0,
				"roughnessFactor":0.8999999761581421
			}
		},
		{
			"doubleSided":true,
			"name":"galleon_sail",
			"pbrMetallicRoughness":{
				"baseColorTexture":{
					"index":6
				},
				"metallicFactor":0,
				"roughnessFactor":0.949999988079071
			}
		}
	],
	"meshes":[
		{
			"name":"Flag",
			"primitives":[
				{
					"attributes":{
						"POSITION":0,
						"NORMAL":1,
						"TEXCOORD_0":2
					},
					"indices":3,
					"material":0
				}
			]
		},
		{
			"name":"Hull",
			"primitives":[
				{
					"attributes":{
						"POSITION":4,
						"NORMAL":5,
						"TEXCOORD_0":6,
						"COLOR_0":7
					},
					"indices":8,
					"material":1
				},
				{
					"attributes":{
						"POSITION":9,
						"NORMAL":10,
						"TEXCOORD_0":11,
						"COLOR_0":12
					},
					"indices":13,
					"material":2
				},
				{
					"attributes":{
						"POSITION":14,
						"NORMAL":15,
						"TEXCOORD_0":16,
						"COLOR_0":17
					},
					"indices":18,
					"material":3
				},
				{
					"attributes":{
						"POSITION":19,
						"NORMAL":20,
						"TEXCOORD_0":21,
						"COLOR_0":22
					},
					"indices":23,
					"material":4
				},
				{
					"attributes":{
						"POSITION":24,
						"NORMAL":25,
						"TEXCOORD_0":26,
						"COLOR_0":27
					},
					"indices":28,
					"material":5
				},
				{
					"attributes":{
						"POSITION":29,
						"NORMAL":30,
						"TEXCOORD_0":31,
						"COLOR_0":32
					},
					"indices":33,
					"material":6
				},
				{
					"attributes":{
						"POSITION":34,
						"NORMAL":35,
						"TEXCOORD_0":36,
						"COLOR_0":37
					},
					"indices":38,
					"material":7
				},
				{
					"attributes":{
						"POSITION":39,
						"NORMAL":40,
						"TEXCOORD_0":41,
						"COLOR_0":42
					},
					"indices":43,
					"material":8
				},
				{
					"attributes":{
						"POSITION":44,
						"NORMAL":45,
						"TEXCOORD_0":46,
						"COLOR_0":47
					},
					"indices":28,
					"material":9
				},
				{
					"attributes":{
						"POSITION":48,
						"NORMAL":49,
						"TEXCOORD_0":50,
						"COLOR_0":51
					},
					"indices":52,
					"material":10
				},
				{
					"attributes":{
						"POSITION":53,
						"NORMAL":54,
						"TEXCOORD_0":55,
						"COLOR_0":56
					},
					"indices":57,
					"material":11
				},
				{
					"attributes":{
						"POSITION":58,
						"NORMAL":59,
						"TEXCOORD_0":60,
						"COLOR_0":61
					},
					"indices":62,
					"material":12
				},
				{
					"attributes":{
						"POSITION":63,
						"NORMAL":64,
						"TEXCOORD_0":65,
						"COLOR_0":66
					},
					"indices":67,
					"material":13
				},
				{
					"attributes":{
						"POSITION":68,
						"NORMAL":69,
						"TEXCOORD_0":70,
						"COLOR_0":71
					},
					"indices":72,
					"material":14
				},
				{
					"attributes":{
						"POSITION":73,
						"NORMAL":74,
						"TEXCOORD_0":75,
						"COLOR_0":76
					},
					"indices":77,
					"material":15
				},
				{
					"attributes":{
						"POSITION":78,
						"NORMAL":79,
						"TEXCOORD_0":80,
						"COLOR_0":81
					},
					"indices":82,
					"material":16
				}
			]
		},
		{
			"name":"Pennant",
			"primitives":[
				{
					"attributes":{
						"POSITION":83,
						"NORMAL":84,
						"TEXCOORD_0":85
					},
					"indices":86,
					"material":0
				}
			]
		},
		{
			"name":"Sail_0_0",
			"primitives":[
				{
					"attributes":{
						"POSITION":87,
						"NORMAL":88,
						"TEXCOORD_0":89
					},
					"indices":90,
					"material":17
				}
			]
		},
		{
			"name":"Sail_0_1_E",
			"primitives":[
				{
					"attributes":{
						"POSITION":91,
						"NORMAL":92,
						"TEXCOORD_0":93
					},
					"indices":90,
					"material":17
				}
			]
		},
		{
			"name":"Sail_0_2",
			"primitives":[
				{
					"attributes":{
						"POSITION":94,
						"NORMAL":95,
						"TEXCOORD_0":96
					},
					"indices":90,
					"material":17
				}
			]
		},
		{
			"name":"Sail_1_0",
			"primitives":[
				{
					"attributes":{
						"POSITION":97,
						"NORMAL":98,
						"TEXCOORD_0":99
					},
					"indices":90,
					"material":17
				}
			]
		},
		{
			"name":"Sail_1_1_E",
			"primitives":[
				{
					"attributes":{
						"POSITION":100,
						"NORMAL":101,
						"TEXCOORD_0":102
					},
					"indices":90,
					"material":17
				}
			]
		},
		{
			"name":"Sail_1_2",
			"primitives":[
				{
					"attributes":{
						"POSITION":103,
						"NORMAL":104,
						"TEXCOORD_0":105
					},
					"indices":90,
					"material":17
				}
			]
		},
		{
			"name":"Sail_2_1",
			"primitives":[
				{
					"attributes":{
						"POSITION":106,
						"NORMAL":107,
						"TEXCOORD_0":108
					},
					"indices":90,
					"material":17
				}
			]
		},
		{
			"name":"Sail_2_2",
			"primitives":[
				{
					"attributes":{
						"POSITION":109,
						"NORMAL":110,
						"TEXCOORD_0":111
					},
					"indices":90,
					"material":17
				}
			]
		},
		{
			"name":"Sail_jib_0",
			"primitives":[
				{
					"attributes":{
						"POSITION":112,
						"NORMAL":113,
						"TEXCOORD_0":114
					},
					"indices":115,
					"material":17
				}
			]
		},
		{
			"name":"Sail_jib_1",
			"primitives":[
				{
					"attributes":{
						"POSITION":116,
						"NORMAL":117,
						"TEXCOORD_0":118
					},
					"indices":115,
					"material":17
				}
			]
		},
		{
			"name":"Sail_spanker",
			"primitives":[
				{
					"attributes":{
						"POSITION":119,
						"NORMAL":120,
						"TEXCOORD_0":121
					},
					"indices":122,
					"material":17
				}
			]
		},
		{
			"name":"Sail_sprit",
			"primitives":[
				{
					"attributes":{
						"POSITION":123,
						"NORMAL":124,
						"TEXCOORD_0":125
					},
					"indices":90,
					"material":17
				}
			]
		},
		{
			"name":"Sail_stay_1",
			"primitives":[
				{
					"attributes":{
						"POSITION":126,
						"NORMAL":127,
						"TEXCOORD_0":128
					},
					"indices":115,
					"material":17
				}
			]
		},
		{
			"name":"Sail_stay_2",
			"primitives":[
				{
					"attributes":{
						"POSITION":129,
						"NORMAL":130,
						"TEXCOORD_0":131
					},
					"indices":115,
					"material":17
				}
			]
		}
	],
	"textures":[
		{
			"sampler":0,
			"source":0
		},
		{
			"sampler":0,
			"source":1
		},
		{
			"sampler":0,
			"source":2
		},
		{
			"sampler":0,
			"source":3
		},
		{
			"sampler":0,
			"source":4
		},
		{
			"sampler":0,
			"source":5
		},
		{
			"sampler":0,
			"source":6
		}
	],
	"images":[
		{
			"mimeType":"image/jpeg",
			"name":"galleon_hull_n",
			"uri":"textures/galleon_hull_n.jpg"
		},
		{
			"mimeType":"image/jpeg",
			"name":"galleon_hull",
			"uri":"textures/galleon_hull.jpg"
		},
		{
			"mimeType":"image/jpeg",
			"name":"deck_n",
			"uri":"textures/deck_n.jpg"
		},
		{
			"mimeType":"image/jpeg",
			"name":"deck",
			"uri":"textures/deck.jpg"
		},
		{
			"mimeType":"image/jpeg",
			"name":"galleon_upper_n",
			"uri":"textures/galleon_upper_n.jpg"
		},
		{
			"mimeType":"image/jpeg",
			"name":"galleon_upper",
			"uri":"textures/galleon_upper.jpg"
		},
		{
			"mimeType":"image/jpeg",
			"name":"galleon_sail",
			"uri":"textures/galleon_sail.jpg"
		}
	],
	"accessors":[
		{
			"bufferView":0,
			"componentType":5126,
			"count":45,
			"max":[
				0.06440079212188721,
				0,
				5.320000171661377
			],
			"min":[
				-0.17260636389255524,
				-3.4200000762939453,
				0
			],
			"type":"VEC3"
		},
		{
			"bufferView":1,
			"componentType":5126,
			"count":45,
			"type":"VEC3"
		},
		{
			"bufferView":2,
			"componentType":5126,
			"count":45,
			"type":"VEC2"
		},
		{
			"bufferView":3,
			"componentType":5123,
			"count":192,
			"type":"SCALAR"
		},
		{
			"bufferView":4,
			"componentType":5126,
			"count":6195,
			"max":[
				5.472545146942139,
				6.156000137329102,
				20.709999084472656
			],
			"min":[
				-5.472545146942139,
				-4.360499858856201,
				-20.329999923706055
			],
			"type":"VEC3"
		},
		{
			"bufferView":5,
			"componentType":5126,
			"count":6195,
			"type":"VEC3"
		},
		{
			"bufferView":6,
			"componentType":5126,
			"count":6195,
			"type":"VEC2"
		},
		{
			"bufferView":7,
			"componentType":5123,
			"count":6195,
			"normalized":true,
			"type":"VEC4"
		},
		{
			"bufferView":8,
			"componentType":5123,
			"count":22464,
			"type":"SCALAR"
		},
		{
			"bufferView":9,
			"componentType":5126,
			"count":2716,
			"max":[
				4.979519844055176,
				11.49120044708252,
				21.6610164642334
			],
			"min":[
				-4.979519844055176,
				3.5918633937835693,
				-20.329999923706055
			],
			"type":"VEC3"
		},
		{
			"bufferView":10,
			"componentType":5126,
			"count":2716,
			"type":"VEC3"
		},
		{
			"bufferView":11,
			"componentType":5126,
			"count":2716,
			"type":"VEC2"
		},
		{
			"bufferView":12,
			"componentType":5123,
			"count":2716,
			"normalized":true,
			"type":"VEC4"
		},
		{
			"bufferView":13,
			"componentType":5123,
			"count":5184,
			"type":"SCALAR"
		},
		{
			"bufferView":14,
			"componentType":5126,
			"count":1113,
			"max":[
				4.979519844055176,
				12.391200065612793,
				21.821443557739258
			],
			"min":[
				-4.979519844055176,
				-3.4370999336242676,
				-20.329999923706055
			],
			"type":"VEC3"
		},
		{
			"bufferView":15,
			"componentType":5126,
			"count":1113,
			"type":"VEC3"
		},
		{
			"bufferView":16,
			"componentType":5126,
			"count":1113,
			"type":"VEC2"
		},
		{
			"bufferView":17,
			"componentType":5123,
			"count":1113,
			"normalized":true,
			"type":"VEC4"
		},
		{
			"bufferView":18,
			"componentType":5123,
			"count":2790,
			"type":"SCALAR"
		},
		{
			"bufferView":19,
			"componentType":5126,
			"count":5774,
			"max":[
				5.955324172973633,
				11.624436378479004,
				21.676225662231445
			],
			"min":[
				-5.955324172973633,
				-4.928500175476074,
				-20.904743194580078
			],
			"type":"VEC3"
		},
		{
			"bufferView":20,
			"componentType":5126,
			"count":5774,
			"type":"VEC3"
		},
		{
			"bufferView":21,
			"componentType":5126,
			"count":5774,
			"type":"VEC2"
		},
		{
			"bufferView":22,
			"componentType":5123,
			"count":5774,
			"normalized":true,
			"type":"VEC4"
		},
		{
			"bufferView":23,
			"componentType":5123,
			"count":17976,
			"type":"SCALAR"
		},
		{
			"bufferView":24,
			"componentType":5126,
			"count":1152,
			"max":[
				5.560384273529053,
				9.950514793395996,
				12.899999618530273
			],
			"min":[
				-5.560384273529053,
				0.40230587124824524,
				-12.694868087768555
			],
			"type":"VEC3"
		},
		{
			"bufferView":25,
			"componentType":5126,
			"count":1152,
			"type":"VEC3"
		},
		{
			"bufferView":26,
			"componentType":5126,
			"count":1152,
			"type":"VEC2"
		},
		{
			"bufferView":27,
			"componentType":5123,
			"count":1152,
			"normalized":true,
			"type":"VEC4"
		},
		{
			"bufferView":28,
			"componentType":5123,
			"count":1728,
			"type":"SCALAR"
		},
		{
			"bufferView":29,
			"componentType":5126,
			"count":4203,
			"max":[
				4.715651512145996,
				41.738590240478516,
				22.254016876220703
			],
			"min":[
				-4.715651512145996,
				0.7733694911003113,
				-19.576601028442383
			],
			"type":"VEC3"
		},
		{
			"bufferView":30,
			"componentType":5126,
			"count":4203,
			"type":"VEC3"
		},
		{
			"bufferView":31,
			"componentType":5126,
			"count":4203,
			"type":"VEC2"
		},
		{
			"bufferView":32,
			"componentType":5123,
			"count":4203,
			"normalized":true,
			"type":"VEC4"
		},
		{
			"bufferView":33,
			"componentType":5123,
			"count":8628,
			"type":"SCALAR"
		},
		{
			"bufferView":34,
			"componentType":5126,
			"count":2112,
			"max":[
				4.685673713684082,
				12.341200828552246,
				21.701017379760742
			],
			"min":[
				-4.685673713684082,
				5.950408935546875,
				-19.579023361206055
			],
			"type":"VEC3"
		},
		{
			"bufferView":35,
			"componentType":5126,
			"count":2112,
			"type":"VEC3"
		},
		{
			"bufferView":36,
			"componentType":5126,
			"count":2112,
			"type":"VEC2"
		},
		{
			"bufferView":37,
			"componentType":5123,
			"count":2112,
			"normalized":true,
			"type":"VEC4"
		},
		{
			"bufferView":38,
			"componentType":5123,
			"count":3168,
			"type":"SCALAR"
		},
		{
			"bufferView":39,
			"componentType":5126,
			"count":960,
			"max":[
				6.207419395446777,
				3.7708661556243896,
				11.400588989257812
			],
			"min":[
				-6.207419395446777,
				1.0821632146835327,
				-12.28824520111084
			],
			"type":"VEC3"
		},
		{
			"bufferView":40,
			"componentType":5126,
			"count":960,
			"type":"VEC3"
		},
		{
			"bufferView":41,
			"componentType":5126,
			"count":960,
			"type":"VEC2"
		},
		{
			"bufferView":42,
			"componentType":5123,
			"count":960,
			"normalized":true,
			"type":"VEC4"
		},
		{
			"bufferView":43,
			"componentType":5123,
			"count":1440,
			"type":"SCALAR"
		},
		{
			"bufferView":44,
			"componentType":5126,
			"count":1152,
			"max":[
				6.171111583709717,
				4.357746601104736,
				11.346043586730957
			],
			"min":[
				-6.171111583709717,
				1.0932817459106445,
				-12.229609489440918
			],
			"type":"VEC3"
		},
		{
			"bufferView":45,
			"componentType":5126,
			"count":1152,
			"type":"VEC3"
		},
		{
			"bufferView":46,
			"componentType":5126,
			"count":1152,
			"type":"VEC2"
		},
		{
			"bufferView":47,
			"componentType":5123,
			"count":1152,
			"normalized":true,
			"type":"VEC4"
		},
		{
			"bufferView":48,
			"componentType":5126,
			"count":3292,
			"max":[
				6.225584030151367,
				12.59119987487793,
				21.821016311645508
			],
			"min":[
				-6.225584030151367,
				0.5674132108688354,
				-17.824365615844727
			],
			"type":"VEC3"
		},
		{
			"bufferView":49,
			"componentType":5126,
			"count":3292,
			"type":"VEC3"
		},
		{
			"bufferView":50,
			"componentType":5126,
			"count":3292,
			"type":"VEC2"
		},
		{
			"bufferView":51,
			"componentType":5123,
			"count":3292,
			"normalized":true,
			"type":"VEC4"
		},
		{
			"bufferView":52,
			"componentType":5123,
			"count":6636,
			"type":"SCALAR"
		},
		{
			"bufferView":53,
			"componentType":5126,
			"count":864,
			"max":[
				3.8925812244415283,
				10.516499519348145,
				21.496685028076172
			],
			"min":[
				-3.8925812244415283,
				5.461398124694824,
				16.885461807250977
			],
			"type":"VEC3"
		},
		{
			"bufferView":54,
			"componentType":5126,
			"count":864,
			"type":"VEC3"
		},
		{
			"bufferView":55,
			"componentType":5126,
			"count":864,
			"type":"VEC2"
		},
		{
			"bufferView":56,
			"componentType":5123,
			"count":864,
			"normalized":true,
			"type":"VEC4"
		},
		{
			"bufferView":57,
			"componentType":5123,
			"count":1296,
			"type":"SCALAR"
		},
		{
			"bufferView":58,
			"componentType":5126,
			"count":121,
			"max":[
				2.473965644836426,
				13.678699493408203,
				22.196016311645508
			],
			"min":[
				-2.473965644836426,
				12.59119987487793,
				21.326017379760742
			],
			"type":"VEC3"
		},
		{
			"bufferView":59,
			"componentType":5126,
			"count":121,
			"type":"VEC3"
		},
		{
			"bufferView":60,
			"componentType":5126,
			"count":121,
			"type":"VEC2"
		},
		{
			"bufferView":61,
			"componentType":5123,
			"count":121,
			"normalized":true,
			"type":"VEC4"
		},
		{
			"bufferView":62,
			"componentType":5123,
			"count":252,
			"type":"SCALAR"
		},
		{
			"bufferView":63,
			"componentType":5126,
			"count":1469,
			"max":[
				10.944000244140625,
				41.46273422241211,
				23.28986167907715
			],
			"min":[
				-10.944000244140625,
				2.1114065647125244,
				-30.254924774169922
			],
			"type":"VEC3"
		},
		{
			"bufferView":64,
			"componentType":5126,
			"count":1469,
			"type":"VEC3"
		},
		{
			"bufferView":65,
			"componentType":5126,
			"count":1469,
			"type":"VEC2"
		},
		{
			"bufferView":66,
			"componentType":5123,
			"count":1469,
			"normalized":true,
			"type":"VEC4"
		},
		{
			"bufferView":67,
			"componentType":5123,
			"count":3864,
			"type":"SCALAR"
		},
		{
			"bufferView":68,
			"componentType":5126,
			"count":48,
			"max":[
				1.5047999620437622,
				4.303013801574707,
				6.079999923706055
			],
			"min":[
				-1.5047999620437622,
				3.680650472640991,
				-7.599999904632568
			],
			"type":"VEC3"
		},
		{
			"bufferView":69,
			"componentType":5126,
			"count":48,
			"type":"VEC3"
		},
		{
			"bufferView":70,
			"componentType":5126,
			"count":48,
			"type":"VEC2"
		},
		{
			"bufferView":71,
			"componentType":5123,
			"count":48,
			"normalized":true,
			"type":"VEC4"
		},
		{
			"bufferView":72,
			"componentType":5123,
			"count":72,
			"type":"SCALAR"
		},
		{
			"bufferView":73,
			"componentType":5126,
			"count":2756,
			"max":[
				5.969379901885986,
				33.7537727355957,
				12.866691589355469
			],
			"min":[
				-5.969379901885986,
				3.6920061111450195,
				-26.670059204101562
			],
			"type":"VEC3"
		},
		{
			"bufferView":74,
			"componentType":5126,
			"count":2756,
			"type":"VEC3"
		},
		{
			"bufferView":75,
			"componentType":5126,
			"count":2756,
			"type":"VEC2"
		},
		{
			"bufferView":76,
			"componentType":5123,
			"count":2756,
			"normalized":true,
			"type":"VEC4"
		},
		{
			"bufferView":77,
			"componentType":5123,
			"count":6456,
			"type":"SCALAR"
		},
		{
			"bufferView":78,
			"componentType":5126,
			"count":10875,
			"max":[
				10.52116584777832,
				40.88129425048828,
				20.17037010192871
			],
			"min":[
				-10.522517204284668,
				3.8122074604034424,
				-30.263750076293945
			],
			"type":"VEC3"
		},
		{
			"bufferView":79,
			"componentType":5126,
			"count":10875,
			"type":"VEC3"
		},
		{
			"bufferView":80,
			"componentType":5126,
			"count":10875,
			"type":"VEC2"
		},
		{
			"bufferView":81,
			"componentType":5123,
			"count":10875,
			"normalized":true,
			"type":"VEC4"
		},
		{
			"bufferView":82,
			"componentType":5123,
			"count":17316,
			"type":"SCALAR"
		},
		{
			"bufferView":83,
			"componentType":5126,
			"count":26,
			"max":[
				0.16424664855003357,
				0,
				7.599999904632568
			],
			"min":[
				-0.1664924919605255,
				-0.4560000002384186,
				0
			],
			"type":"VEC3"
		},
		{
			"bufferView":84,
			"componentType":5126,
			"count":26,
			"type":"VEC3"
		},
		{
			"bufferView":85,
			"componentType":5126,
			"count":26,
			"type":"VEC2"
		},
		{
			"bufferView":86,
			"componentType":5123,
			"count":72,
			"type":"SCALAR"
		},
		{
			"bufferView":87,
			"componentType":5126,
			"count":150,
			"max":[
				10.944000244140625,
				0,
				0
			],
			"min":[
				-10.944000244140625,
				-8.872847557067871,
				-2.760009527206421
			],
			"type":"VEC3"
		},
		{
			"bufferView":88,
			"componentType":5126,
			"count":150,
			"type":"VEC3"
		},
		{
			"bufferView":89,
			"componentType":5126,
			"count":150,
			"type":"VEC2"
		},
		{
			"bufferView":90,
			"componentType":5123,
			"count":756,
			"type":"SCALAR"
		},
		{
			"bufferView":91,
			"componentType":5126,
			"count":150,
			"max":[
				9.849599838256836,
				0,
				0
			],
			"min":[
				-9.849599838256836,
				-8.651472091674805,
				-2.3770227432250977
			],
			"type":"VEC3"
		},
		{
			"bufferView":92,
			"componentType":5126,
			"count":150,
			"type":"VEC3"
		},
		{
			"bufferView":93,
			"componentType":5126,
			"count":150,
			"type":"VEC2"
		},
		{
			"bufferView":94,
			"componentType":5126,
			"count":150,
			"max":[
				8.076671600341797,
				0,
				0
			],
			"min":[
				-8.076671600341797,
				-6.022480010986328,
				-1.8523362874984741
			],
			"type":"VEC3"
		},
		{
			"bufferView":95,
			"componentType":5126,
			"count":150,
			"type":"VEC3"
		},
		{
			"bufferView":96,
			"componentType":5126,
			"count":150,
			"type":"VEC2"
		},
		{
			"bufferView":97,
			"componentType":5126,
			"count":150,
			"max":[
				10.068479537963867,
				0,
				0
			],
			"min":[
				-10.068479537963867,
				-9.911160469055176,
				-2.5392088890075684
			],
			"type":"VEC3"
		},
		{
			"bufferView":98,
			"componentType":5126,
			"count":150,
			"type":"VEC3"
		},
		{
			"bufferView":99,
			"componentType":5126,
			"count":150,
			"type":"VEC2"
		},
		{
			"bufferView":100,
			"componentType":5126,
			"count":150,
			"max":[
				9.06163215637207,
				0,
				0
			],
			"min":[
				-9.06163215637207,
				-9.728240013122559,
				-2.1868607997894287
			],
			"type":"VEC3"
		},
		{
			"bufferView":101,
			"componentType":5126,
			"count":150,
			"type":"VEC3"
		},
		{
			"bufferView":102,
			"componentType":5126,
			"count":150,
			"type":"VEC2"
		},
		{
			"bufferView":103,
			"componentType":5126,
			"count":150,
			"max":[
				7.430538177490234,
				0,
				0
			],
			"min":[
				-7.430538177490234,
				-6.791600227355957,
				-1.7041493654251099
			],
			"type":"VEC3"
		},
		{
			"bufferView":104,
			"componentType":5126,
			"count":150,
			"type":"VEC3"
		},
		{
			"bufferView":105,
			"componentType":5126,
			"count":150,
			"type":"VEC2"
		},
		{
			"bufferView":106,
			"componentType":5126,
			"count":150,
			"max":[
				8.273664474487305,
				0,
				0
			],
			"min":[
				-8.273664474487305,
				-7.085264205932617,
				-1.9966989755630493
			],
			"type":"VEC3"
		},
		{
			"bufferView":107,
			"componentType":5126,
			"count":150,
			"type":"VEC3"
		},
		{
			"bufferView":108,
			"componentType":5126,
			"count":150,
			"type":"VEC2"
		},
		{
			"bufferView":109,
			"componentType":5126,
			"count":150,
			"max":[
				6.784404277801514,
				0,
				0
			],
			"min":[
				-6.784404277801514,
				-4.903759956359863,
				-1.5559624433517456
			],
			"type":"VEC3"
		},
		{
			"bufferView":110,
			"componentType":5126,
			"count":150,
			"type":"VEC3"
		},
		{
			"bufferView":111,
			"componentType":5126,
			"count":150,
			"type":"VEC2"
		},
		{
			"bufferView":112,
			"componentType":5126,
			"count":64,
			"max":[
				20.65964698791504,
				0,
				0.4920802712440491
			],
			"min":[
				0,
				-4.668561935424805,
				-0.8085764646530151
			],
			"type":"VEC3"
		},
		{
			"bufferView":113,
			"componentType":5126,
			"count":64,
			"type":"VEC3"
		},
		{
			"bufferView":114,
			"componentType":5126,
			"count":64,
			"type":"VEC2"
		},
		{
			"bufferView":115,
			"componentType":5123,
			"count":294,
			"type":"SCALAR"
		},
		{
			"bufferView":116,
			"componentType":5126,
			"count":64,
			"max":[
				22.14243507385254,
				1.33514404296875e-05,
				0.49301236867904663
			],
			"min":[
				0,
				-5.013856410980225,
				-0.8101081848144531
			],
			"type":"VEC3"
		},
		{
			"bufferView":117,
			"componentType":5126,
			"count":64,
			"type":"VEC3"
		},
		{
			"bufferView":118,
			"componentType":5126,
			"count":64,
			"type":"VEC2"
		},
		{
			"bufferView":119,
			"componentType":5126,
			"count":81,
			"max":[
				8.65261459350586,
				2.384185791015625e-06,
				0.6684430837631226
			],
			"min":[
				-4.1250176429748535,
				-13.070821762084961,
				-0.6545113921165466
			],
			"type":"VEC3"
		},
		{
			"bufferView":120,
			"componentType":5126,
			"count":81,
			"type":"VEC3"
		},
		{
			"bufferView":121,
			"componentType":5126,
			"count":81,
			"type":"VEC2"
		},
		{
			"bufferView":122,
			"componentType":5123,
			"count":384,
			"type":"SCALAR"
		},
		{
			"bufferView":123,
			"componentType":5126,
			"count":150,
			"max":[
				5.198400020599365,
				0,
				0
			],
			"min":[
				-5.198400020599365,
				-4.596479892730713,
				-1.33021080493927
			],
			"type":"VEC3"
		},
		{
			"bufferView":124,
			"componentType":5126,
			"count":150,
			"type":"VEC3"
		},
		{
			"bufferView":125,
			"componentType":5126,
			"count":150,
			"type":"VEC2"
		},
		{
			"bufferView":126,
			"componentType":5126,
			"count":64,
			"max":[
				12.508173942565918,
				0,
				0.43774107098579407
			],
			"min":[
				0,
				-4.2671308517456055,
				-0.7192878723144531
			],
			"type":"VEC3"
		},
		{
			"bufferView":127,
			"componentType":5126,
			"count":64,
			"type":"VEC3"
		},
		{
			"bufferView":128,
			"componentType":5126,
			"count":64,
			"type":"VEC2"
		},
		{
			"bufferView":129,
			"componentType":5126,
			"count":64,
			"max":[
				9.196684837341309,
				1.2576580047607422e-05,
				0.21379563212394714
			],
			"min":[
				0,
				-0.5694937109947205,
				-0.35130536556243896
			],
			"type":"VEC3"
		},
		{
			"bufferView":130,
			"componentType":5126,
			"count":64,
			"type":"VEC3"
		},
		{
			"bufferView":131,
			"componentType":5126,
			"count":64,
			"type":"VEC2"
		}
	],
	"bufferViews":[
		{
			"buffer":0,
			"byteLength":540,
			"byteOffset":0,
			"target":34962
		},
		{
			"buffer":0,
			"byteLength":540,
			"byteOffset":540,
			"target":34962
		},
		{
			"buffer":0,
			"byteLength":360,
			"byteOffset":1080,
			"target":34962
		},
		{
			"buffer":0,
			"byteLength":384,
			"byteOffset":1440,
			"target":34963
		},
		{
			"buffer":0,
			"byteLength":74340,
			"byteOffset":1824,
			"target":34962
		},
		{
			"buffer":0,
			"byteLength":74340,
			"byteOffset":76164,
			"target":34962
		},
		{
			"buffer":0,
			"byteLength":49560,
			"byteOffset":150504,
			"target":34962
		},
		{
			"buffer":0,
			"byteLength":49560,
			"byteOffset":200064,
			"target":34962
		},
		{
			"buffer":0,
			"byteLength":44928,
			"byteOffset":249624,
			"target":34963
		},
		{
			"buffer":0,
			"byteLength":32592,
			"byteOffset":294552,
			"target":34962
		},
		{
			"buffer":0,
			"byteLength":32592,
			"byteOffset":327144,
			"target":34962
		},
		{
			"buffer":0,
			"byteLength":21728,
			"byteOffset":359736,
			"target":34962
		},
		{
			"buffer":0,
			"byteLength":21728,
			"byteOffset":381464,
			"target":34962
		},
		{
			"buffer":0,
			"byteLength":10368,
			"byteOffset":403192,
			"target":34963
		},
		{
			"buffer":0,
			"byteLength":13356,
			"byteOffset":413560,
			"target":34962
		},
		{
			"buffer":0,
			"byteLength":13356,
			"byteOffset":426916,
			"target":34962
		},
		{
			"buffer":0,
			"byteLength":8904,
			"byteOffset":440272,
			"target":34962
		},
		{
			"buffer":0,
			"byteLength":8904,
			"byteOffset":449176,
			"target":34962
		},
		{
			"buffer":0,
			"byteLength":5580,
			"byteOffset":458080,
			"target":34963
		},
		{
			"buffer":0,
			"byteLength":69288,
			"byteOffset":463660,
			"target":34962
		},
		{
			"buffer":0,
			"byteLength":69288,
			"byteOffset":532948,
			"target":34962
		},
		{
			"buffer":0,
			"byteLength":46192,
			"byteOffset":602236,
			"target":34962
		},
		{
			"buffer":0,
			"byteLength":46192,
			"byteOffset":648428,
			"target":34962
		},
		{
			"buffer":0,
			"byteLength":35952,
			"byteOffset":694620,
			"target":34963
		},
		{
			"buffer":0,
			"byteLength":13824,
			"byteOffset":730572,
			"target":34962
		},
		{
			"buffer":0,
			"byteLength":13824,
			"byteOffset":744396,
			"target":34962
		},
		{
			"buffer":0,
			"byteLength":9216,
			"byteOffset":758220,
			"target":34962
		},
		{
			"buffer":0,
			"byteLength":9216,
			"byteOffset":767436,
			"target":34962
		},
		{
			"buffer":0,
			"byteLength":3456,
			"byteOffset":776652,
			"target":34963
		},
		{
			"buffer":0,
			"byteLength":50436,
			"byteOffset":780108,
			"target":34962
		},
		{
			"buffer":0,
			"byteLength":50436,
			"byteOffset":830544,
			"target":34962
		},
		{
			"buffer":0,
			"byteLength":33624,
			"byteOffset":880980,
			"target":34962
		},
		{
			"buffer":0,
			"byteLength":33624,
			"byteOffset":914604,
			"target":34962
		},
		{
			"buffer":0,
			"byteLength":17256,
			"byteOffset":948228,
			"target":34963
		},
		{
			"buffer":0,
			"byteLength":25344,
			"byteOffset":965484,
			"target":34962
		},
		{
			"buffer":0,
			"byteLength":25344,
			"byteOffset":990828,
			"target":34962
		},
		{
			"buffer":0,
			"byteLength":16896,
			"byteOffset":1016172,
			"target":34962
		},
		{
			"buffer":0,
			"byteLength":16896,
			"byteOffset":1033068,
			"target":34962
		},
		{
			"buffer":0,
			"byteLength":6336,
			"byteOffset":1049964,
			"target":34963
		},
		{
			"buffer":0,
			"byteLength":11520,
			"byteOffset":1056300,
			"target":34962
		},
		{
			"buffer":0,
			"byteLength":11520,
			"byteOffset":1067820,
			"target":34962
		},
		{
			"buffer":0,
			"byteLength":7680,
			"byteOffset":1079340,
			"target":34962
		},
		{
			"buffer":0,
			"byteLength":7680,
			"byteOffset":1087020,
			"target":34962
		},
		{
			"buffer":0,
			"byteLength":2880,
			"byteOffset":1094700,
			"target":34963
		},
		{
			"buffer":0,
			"byteLength":13824,
			"byteOffset":1097580,
			"target":34962
		},
		{
			"buffer":0,
			"byteLength":13824,
			"byteOffset":1111404,
			"target":34962
		},
		{
			"buffer":0,
			"byteLength":9216,
			"byteOffset":1125228,
			"target":34962
		},
		{
			"buffer":0,
			"byteLength":9216,
			"byteOffset":1134444,
			"target":34962
		},
		{
			"buffer":0,
			"byteLength":39504,
			"byteOffset":1143660,
			"target":34962
		},
		{
			"buffer":0,
			"byteLength":39504,
			"byteOffset":1183164,
			"target":34962
		},
		{
			"buffer":0,
			"byteLength":26336,
			"byteOffset":1222668,
			"target":34962
		},
		{
			"buffer":0,
			"byteLength":26336,
			"byteOffset":1249004,
			"target":34962
		},
		{
			"buffer":0,
			"byteLength":13272,
			"byteOffset":1275340,
			"target":34963
		},
		{
			"buffer":0,
			"byteLength":10368,
			"byteOffset":1288612,
			"target":34962
		},
		{
			"buffer":0,
			"byteLength":10368,
			"byteOffset":1298980,
			"target":34962
		},
		{
			"buffer":0,
			"byteLength":6912,
			"byteOffset":1309348,
			"target":34962
		},
		{
			"buffer":0,
			"byteLength":6912,
			"byteOffset":1316260,
			"target":34962
		},
		{
			"buffer":0,
			"byteLength":2592,
			"byteOffset":1323172,
			"target":34963
		},
		{
			"buffer":0,
			"byteLength":1452,
			"byteOffset":1325764,
			"target":34962
		},
		{
			"buffer":0,
			"byteLength":1452,
			"byteOffset":1327216,
			"target":34962
		},
		{
			"buffer":0,
			"byteLength":968,
			"byteOffset":1328668,
			"target":34962
		},
		{
			"buffer":0,
			"byteLength":968,
			"byteOffset":1329636,
			"target":34962
		},
		{
			"buffer":0,
			"byteLength":504,
			"byteOffset":1330604,
			"target":34963
		},
		{
			"buffer":0,
			"byteLength":17628,
			"byteOffset":1331108,
			"target":34962
		},
		{
			"buffer":0,
			"byteLength":17628,
			"byteOffset":1348736,
			"target":34962
		},
		{
			"buffer":0,
			"byteLength":11752,
			"byteOffset":1366364,
			"target":34962
		},
		{
			"buffer":0,
			"byteLength":11752,
			"byteOffset":1378116,
			"target":34962
		},
		{
			"buffer":0,
			"byteLength":7728,
			"byteOffset":1389868,
			"target":34963
		},
		{
			"buffer":0,
			"byteLength":576,
			"byteOffset":1397596,
			"target":34962
		},
		{
			"buffer":0,
			"byteLength":576,
			"byteOffset":1398172,
			"target":34962
		},
		{
			"buffer":0,
			"byteLength":384,
			"byteOffset":1398748,
			"target":34962
		},
		{
			"buffer":0,
			"byteLength":384,
			"byteOffset":1399132,
			"target":34962
		},
		{
			"buffer":0,
			"byteLength":144,
			"byteOffset":1399516,
			"target":34963
		},
		{
			"buffer":0,
			"byteLength":33072,
			"byteOffset":1399660,
			"target":34962
		},
		{
			"buffer":0,
			"byteLength":33072,
			"byteOffset":1432732,
			"target":34962
		},
		{
			"buffer":0,
			"byteLength":22048,
			"byteOffset":1465804,
			"target":34962
		},
		{
			"buffer":0,
			"byteLength":22048,
			"byteOffset":1487852,
			"target":34962
		},
		{
			"buffer":0,
			"byteLength":12912,
			"byteOffset":1509900,
			"target":34963
		},
		{
			"buffer":0,
			"byteLength":130500,
			"byteOffset":1522812,
			"target":34962
		},
		{
			"buffer":0,
			"byteLength":130500,
			"byteOffset":1653312,
			"target":34962
		},
		{
			"buffer":0,
			"byteLength":87000,
			"byteOffset":1783812,
			"target":34962
		},
		{
			"buffer":0,
			"byteLength":87000,
			"byteOffset":1870812,
			"target":34962
		},
		{
			"buffer":0,
			"byteLength":34632,
			"byteOffset":1957812,
			"target":34963
		},
		{
			"buffer":0,
			"byteLength":312,
			"byteOffset":1992444,
			"target":34962
		},
		{
			"buffer":0,
			"byteLength":312,
			"byteOffset":1992756,
			"target":34962
		},
		{
			"buffer":0,
			"byteLength":208,
			"byteOffset":1993068,
			"target":34962
		},
		{
			"buffer":0,
			"byteLength":144,
			"byteOffset":1993276,
			"target":34963
		},
		{
			"buffer":0,
			"byteLength":1800,
			"byteOffset":1993420,
			"target":34962
		},
		{
			"buffer":0,
			"byteLength":1800,
			"byteOffset":1995220,
			"target":34962
		},
		{
			"buffer":0,
			"byteLength":1200,
			"byteOffset":1997020,
			"target":34962
		},
		{
			"buffer":0,
			"byteLength":1512,
			"byteOffset":1998220,
			"target":34963
		},
		{
			"buffer":0,
			"byteLength":1800,
			"byteOffset":1999732,
			"target":34962
		},
		{
			"buffer":0,
			"byteLength":1800,
			"byteOffset":2001532,
			"target":34962
		},
		{
			"buffer":0,
			"byteLength":1200,
			"byteOffset":2003332,
			"target":34962
		},
		{
			"buffer":0,
			"byteLength":1800,
			"byteOffset":2004532,
			"target":34962
		},
		{
			"buffer":0,
			"byteLength":1800,
			"byteOffset":2006332,
			"target":34962
		},
		{
			"buffer":0,
			"byteLength":1200,
			"byteOffset":2008132,
			"target":34962
		},
		{
			"buffer":0,
			"byteLength":1800,
			"byteOffset":2009332,
			"target":34962
		},
		{
			"buffer":0,
			"byteLength":1800,
			"byteOffset":2011132,
			"target":34962
		},
		{
			"buffer":0,
			"byteLength":1200,
			"byteOffset":2012932,
			"target":34962
		},
		{
			"buffer":0,
			"byteLength":1800,
			"byteOffset":2014132,
			"target":34962
		},
		{
			"buffer":0,
			"byteLength":1800,
			"byteOffset":2015932,
			"target":34962
		},
		{
			"buffer":0,
			"byteLength":1200,
			"byteOffset":2017732,
			"target":34962
		},
		{
			"buffer":0,
			"byteLength":1800,
			"byteOffset":2018932,
			"target":34962
		},
		{
			"buffer":0,
			"byteLength":1800,
			"byteOffset":2020732,
			"target":34962
		},
		{
			"buffer":0,
			"byteLength":1200,
			"byteOffset":2022532,
			"target":34962
		},
		{
			"buffer":0,
			"byteLength":1800,
			"byteOffset":2023732,
			"target":34962
		},
		{
			"buffer":0,
			"byteLength":1800,
			"byteOffset":2025532,
			"target":34962
		},
		{
			"buffer":0,
			"byteLength":1200,
			"byteOffset":2027332,
			"target":34962
		},
		{
			"buffer":0,
			"byteLength":1800,
			"byteOffset":2028532,
			"target":34962
		},
		{
			"buffer":0,
			"byteLength":1800,
			"byteOffset":2030332,
			"target":34962
		},
		{
			"buffer":0,
			"byteLength":1200,
			"byteOffset":2032132,
			"target":34962
		},
		{
			"buffer":0,
			"byteLength":768,
			"byteOffset":2033332,
			"target":34962
		},
		{
			"buffer":0,
			"byteLength":768,
			"byteOffset":2034100,
			"target":34962
		},
		{
			"buffer":0,
			"byteLength":512,
			"byteOffset":2034868,
			"target":34962
		},
		{
			"buffer":0,
			"byteLength":588,
			"byteOffset":2035380,
			"target":34963
		},
		{
			"buffer":0,
			"byteLength":768,
			"byteOffset":2035968,
			"target":34962
		},
		{
			"buffer":0,
			"byteLength":768,
			"byteOffset":2036736,
			"target":34962
		},
		{
			"buffer":0,
			"byteLength":512,
			"byteOffset":2037504,
			"target":34962
		},
		{
			"buffer":0,
			"byteLength":972,
			"byteOffset":2038016,
			"target":34962
		},
		{
			"buffer":0,
			"byteLength":972,
			"byteOffset":2038988,
			"target":34962
		},
		{
			"buffer":0,
			"byteLength":648,
			"byteOffset":2039960,
			"target":34962
		},
		{
			"buffer":0,
			"byteLength":768,
			"byteOffset":2040608,
			"target":34963
		},
		{
			"buffer":0,
			"byteLength":1800,
			"byteOffset":2041376,
			"target":34962
		},
		{
			"buffer":0,
			"byteLength":1800,
			"byteOffset":2043176,
			"target":34962
		},
		{
			"buffer":0,
			"byteLength":1200,
			"byteOffset":2044976,
			"target":34962
		},
		{
			"buffer":0,
			"byteLength":768,
			"byteOffset":2046176,
			"target":34962
		},
		{
			"buffer":0,
			"byteLength":768,
			"byteOffset":2046944,
			"target":34962
		},
		{
			"buffer":0,
			"byteLength":512,
			"byteOffset":2047712,
			"target":34962
		},
		{
			"buffer":0,
			"byteLength":768,
			"byteOffset":2048224,
			"target":34962
		},
		{
			"buffer":0,
			"byteLength":768,
			"byteOffset":2048992,
			"target":34962
		},
		{
			"buffer":0,
			"byteLength":512,
			"byteOffset":2049760,
			"target":34962
		}
	],
	"samplers":[
		{
			"magFilter":9729,
			"minFilter":9987
		}
	],
	"buffers":[
		{
			"byteLength":2050272,
			"uri":"galleon.bin"
		}
	]
}
