{
	"asset":{
		"generator":"Khronos glTF Blender I/O v5.2.40",
		"version":"2.0"
	},
	"extensionsUsed":[
		"KHR_materials_emissive_strength"
	],
	"scene":0,
	"scenes":[
		{
			"name":"Scene",
			"nodes":[
				0,
				1,
				2,
				3,
				4,
				5,
				6,
				7,
				8,
				9,
				10,
				11,
				12,
				13,
				14,
				15,
				16,
				17,
				18,
				19,
				20
			]
		}
	],
	"nodes":[
		{
			"mesh":0,
			"name":"Flag",
			"translation":[
				0,
				8.235899925231934,
				13.71176528930664
			]
		},
		{
			"mesh":1,
			"name":"Hull"
		},
		{
			"name":"Muzzle_P_00",
			"translation":[
				-3.604480266571045,
				1.0627766847610474,
				-6.841422080993652
			]
		},
		{
			"name":"Muzzle_P_01",
			"translation":[
				-4.084414482116699,
				1.0409464836120605,
				-4.070648670196533
			]
		},
		{
			"name":"Muzzle_P_02",
			"translation":[
				-4.103582382202148,
				1.0061383247375488,
				-1.4959993362426758
			]
		},
		{
			"name":"Muzzle_P_03",
			"translation":[
				-4.103929042816162,
				1.0655677318572998,
				1.0296541452407837
			]
		},
		{
			"name":"Muzzle_P_04",
			"translation":[
				-4.104619979858398,
				1.1944299936294556,
				3.556495189666748
			]
		},
		{
			"name":"Muzzle_P_05",
			"translation":[
				-3.9374008178710938,
				1.360223650932312,
				6.276844501495361
			]
		},
		{
			"name":"Muzzle_P_06",
			"translation":[
				-3.8109607696533203,
				2.588892698287964,
				-3.680000066757202
			]
		},
		{
			"name":"Muzzle_P_07",
			"translation":[
				-3.81453537940979,
				2.5977234840393066,
				0.23000000417232513
			]
		},
		{
			"name":"Muzzle_S_00",
			"translation":[
				3.604480266571045,
				1.0627766847610474,
				-6.841422080993652
			]
		},
		{
			"name":"Muzzle_S_01",
			"translation":[
				4.084414482116699,
				1.0409464836120605,
				-4.070648670196533
			]
		},
		{
			"name":"Muzzle_S_02",
			"translation":[
				4.103582382202148,
				1.0061383247375488,
				-1.4959993362426758
			]
		},
		{
			"name":"Muzzle_S_03",
			"translation":[
				4.103929042816162,
				1.0655677318572998,
				1.0296541452407837
			]
		},
		{
			"name":"Muzzle_S_04",
			"translation":[
				4.104619979858398,
				1.1944299936294556,
				3.556495189666748
			]
		},
		{
			"name":"Muzzle_S_05",
			"translation":[
				3.9374008178710938,
				1.360223650932312,
				6.276844501495361
			]
		},
		{
			"name":"Muzzle_S_06",
			"translation":[
				3.8109607696533203,
				2.588892698287964,
				-3.680000066757202
			]
		},
		{
			"name":"Muzzle_S_07",
			"translation":[
				3.81453537940979,
				2.5977234840393066,
				0.23000000417232513
			]
		},
		{
			"mesh":2,
			"name":"Pennant",
			"translation":[
				0,
				20.160058975219727,
				2.299999952316284
			]
		},
		{
			"mesh":3,
			"name":"Sail_0_lateen",
			"rotation":[
				-0.31918248534202576,
				-0.5948070883750916,
				0.3823670446872711,
				0.6309695839881897
			],
			"translation":[
				0,
				7.852619171142578,
				-10.763999938964844
			]
		},
		{
			"mesh":4,
			"name":"Sail_1_lateen",
			"rotation":[
				-0.33101627230644226,
				-0.5882956981658936,
				0.39231133460998535,
				0.6248425841331482
			],
			"translation":[
				0,
				8.360459327697754,
				-2.4839999675750732
			]
		}
	],
	"materials":[
		{
			"doubleSided":true,
			"name":"lugger_flag",
			"pbrMetallicRoughness":{
				"metallicFactor":0,
				"roughnessFactor":0.8999999761581421
			}
		},
		{
			"doubleSided":true,
			"name":"lugger_hull",
			"normalTexture":{
				"index":0
			},
			"pbrMetallicRoughness":{
				"baseColorTexture":{
					"index":1
				},
				"metallicFactor":0,
				"roughnessFactor":0.7200000286102295
			}
		},
		{
			"doubleSided":true,
			"name":"lugger_deck",
			"normalTexture":{
				"index":2
			},
			"pbrMetallicRoughness":{
				"baseColorTexture":{
					"index":3
				},
				"metallicFactor":0,
				"roughnessFactor":0.8500000238418579
			}
		},
		{
			"doubleSided":true,
			"name":"lugger_upper",
			"normalTexture":{
				"index":4
			},
			"pbrMetallicRoughness":{
				"baseColorTexture":{
					"index":5
				},
				"metallicFactor":0,
				"roughnessFactor":0.75
			}
		},
		{
			"doubleSided":true,
			"name":"lugger_wale",
			"pbrMetallicRoughness":{
				"baseColorFactor":[
					0.00734579935669899,
					0.005264738574624062,
					0.003727569244801998,
					1
				],
				"metallicFactor":0,
				"roughnessFactor":0.699999988079071
			}
		},
		{
			"doubleSided":true,
			"name":"lugger_trim",
			"pbrMetallicRoughness":{
				"baseColorFactor":[
					0.15713611245155334,
					0.09040199965238571,
					0.033349666744470596,
					1
				],
				"metallicFactor":0.4000000059604645,
				"roughnessFactor":0.44999998807907104
			}
		},
		{
			"doubleSided":true,
			"name":"lugger_rail",
			"pbrMetallicRoughness":{
				"baseColorFactor":[
					0.0423114113509655,
					0.021219009533524513,
					0.008568125776946545,
					1
				],
				"metallicFactor":0,
				"roughnessFactor":0.75
			}
		},
		{
			"doubleSided":true,
			"name":"lugger_dark",
			"pbrMetallicRoughness":{
				"baseColorFactor":[
					0.0036765073891729116,
					0.002428215928375721,
					0.0018211619462817907,
					1
				],
				"metallicFactor":0,
				"roughnessFactor":0.949999988079071
			}
		},
		{
			"doubleSided":true,
			"name":"lugger_lid",
			"pbrMetallicRoughness":{
				"baseColorFactor":[
					0.005869092419743538,
					0.004242512863129377,
					0.002913858974352479,
					1
				],
				"metallicFactor":0,
				"roughnessFactor":0.699999988079071
			}
		},
		{
			"doubleSided":true,
			"name":"lugger_portred",
			"pbrMetallicRoughness":{
				"baseColorFactor":[
					0.07618538290262222,
					0.00802319310605526,
					0.005181516520678997,
					1
				],
				"metallicFactor":0,
				"roughnessFactor":0.8500000238418579
			}
		},
		{
			"doubleSided":true,
			"name":"lugger_iron",
			"pbrMetallicRoughness":{
				"baseColorFactor":[
					0.00802319310605526,
					0.007499032188206911,
					0.006995410192757845,
					1
				],
				"metallicFactor":0.550000011920929,
				"roughnessFactor":0.5
			}
		},
		{
			"doubleSided":true,
			"emissiveFactor":[
				0.11999999731779099,
				0.06624137015101228,
				0.01729541620696895
			],
			"name":"lugger_glass",
			"pbrMetallicRoughness":{
				"baseColorFactor":[
					0.005181516520678997,
					0.00802319310605526,
					0.011612244881689548,
					1
				],
				"metallicFactor":0.30000001192092896,
				"roughnessFactor":0.07999999821186066
			}
		},
		{
			"doubleSided":true,
			"emissiveFactor":[
				1,
				0.4564110338687897,
				0.06847816705703735
			],
			"extensions":{
				"KHR_materials_emissive_strength":{
					"emissiveStrength":5
				}
			},
			"name":"lugger_lantern",
			"pbrMetallicRoughness":{
				"baseColorFactor":[
					1,
					0.7605245113372803,
					0.35153260827064514,
					1
				],
				"metallicFactor":0,
				"roughnessFactor":0.30000001192092896
			}
		},
		{
			"doubleSided":true,
			"name":"lugger_spar",
			"pbrMetallicRoughness":{
				"baseColorFactor":[
					0.04817182570695877,
					0.024157632142305374,
					0.01032982300966978,
					1
				],
				"metallicFactor":0,
				"roughnessFactor":0.699999988079071
			}
		},
		{
			"doubleSided":true,
			"name":"lugger_grating",
			"pbrMetallicRoughness":{
				"baseColorFactor":[
					0.06847816705703735,
					0.03560131415724754,
					0.014443843625485897,
					1
				],
				"metallicFactor":0,
				"roughnessFactor":0.8999999761581421
			}
		},
		{
			"doubleSided":true,
			"name":"lugger_spar_black",
			"pbrMetallicRoughness":{
				"baseColorFactor":[
					0.006995410192757845,
					0.005181516520678997,
					0.0036765073891729116,
					1
				],
				"metallicFactor":0,
				"roughnessFactor":0.699999988079071
			}
		},
		{
			"doubleSided":true,
			"name":"lugger_rope",
			"pbrMetallicRoughness":{
				"baseColorFactor":[
					0.008568125776946545,
					0.006048833020031452,
					0.004024717025458813,
					1
				],
				"metallicFactor":0,
				"roughnessFactor":0.8999999761581421
			}
		},
		{
			"doubleSided":true,
			"name":"lugger_sail",
			"pbrMetallicRoughness":{
				"baseColorTexture":{
					"index":6
				},
				"metallicFactor":0,
				"roughnessFactor":0.949999988079071
			}
		}
	],
	"meshes":[
		{
			"name":"Flag",
			"primitives":[
				{
					"attributes":{
						"POSITION":0,
						"NORMAL":1,
						"TEXCOORD_0":2
					},
					"indices":3,
					"material":0
				}
			]
		},
		{
			"name":"Hull",
			"primitives":[
				{
					"attributes":{
						"POSITION":4,
						"NORMAL":5,
						"TEXCOORD_0":6,
						"COLOR_0":7
					},
					"indices":8,
					"material":1
				},
				{
					"attributes":{
						"POSITION":9,
						"NORMAL":10,
						"TEXCOORD_0":11,
						"COLOR_0":12
					},
					"indices":13,
					"material":2
				},
				{
					"attributes":{
						"POSITION":14,
						"NORMAL":15,
						"TEXCOORD_0":16,
						"COLOR_0":17
					},
					"indices":18,
					"material":3
				},
				{
					"attributes":{
						"POSITION":19,
						"NORMAL":20,
						"TEXCOORD_0":21,
						"COLOR_0":22
					},
					"indices":23,
					"material":4
				},
				{
					"attributes":{
						"POSITION":24,
						"NORMAL":25,
						"TEXCOORD_0":26,
						"COLOR_0":27
					},
					"indices":28,
					"material":5
				},
				{
					"attributes":{
						"POSITION":29,
						"NORMAL":30,
						"TEXCOORD_0":31,
						"COLOR_0":32
					},
					"indices":33,
					"material":6
				},
				{
					"attributes":{
						"POSITION":34,
						"NORMAL":35,
						"TEXCOORD_0":36,
						"COLOR_0":37
					},
					"indices":38,
					"material":7
				},
				{
					"attributes":{
						"POSITION":39,
						"NORMAL":40,
						"TEXCOORD_0":41,
						"COLOR_0":42
					},
					"indices":43,
					"material":8
				},
				{
					"attributes":{
						"POSITION":44,
						"NORMAL":45,
						"TEXCOORD_0":46,
						"COLOR_0":47
					},
					"indices":48,
					"material":9
				},
				{
					"attributes":{
						"POSITION":49,
						"NORMAL":50,
						"TEXCOORD_0":51,
						"COLOR_0":52
					},
					"indices":53,
					"material":10
				},
				{
					"attributes":{
						"POSITION":54,
						"NORMAL":55,
						"TEXCOORD_0":56,
						"COLOR_0":57
					},
					"indices":58,
					"material":11
				},
				{
					"attributes":{
						"POSITION":59,
						"NORMAL":60,
						"TEXCOORD_0":61,
						"COLOR_0":62
					},
					"indices":63,
					"material":12
				},
				{
					"attributes":{
						"POSITION":64,
						"NORMAL":65,
						"TEXCOORD_0":66,
						"COLOR_0":67
					},
					"indices":68,
					"material":13
				},
				{
					"attributes":{
						"POSITION":69,
						"NORMAL":70,
						"TEXCOORD_0":71,
						"COLOR_0":72
					},
					"indices":73,
					"material":14
				},
				{
					"attributes":{
						"POSITION":74,
						"NORMAL":75,
						"TEXCOORD_0":76,
						"COLOR_0":77
					},
					"indices":78,
					"material":15
				},
				{
					"attributes":{
						"POSITION":79,
						"NORMAL":80,
						"TEXCOORD_0":81,
						"COLOR_0":82
					},
					"indices":83,
					"material":16
				}
			]
		},
		{
			"name":"Pennant",
			"primitives":[
				{
					"attributes":{
						"POSITION":84,
						"NORMAL":85,
						"TEXCOORD_0":86
					},
					"indices":87,
					"material":0
				}
			]
		},
		{
			"name":"Sail_0_lateen",
			"primitives":[
				{
					"attributes":{
						"POSITION":88,
						"NORMAL":89,
						"TEXCOORD_0":90
					},
					"indices":91,
					"material":17
				}
			]
		},
		{
			"name":"Sail_1_lateen",
			"primitives":[
				{
					"attributes":{
						"POSITION":92,
						"NORMAL":93,
						"TEXCOORD_0":94
					},
					"indices":91,
					"material":17
				}
			]
		}
	],
	"textures":[
		{
			"sampler":0,
			"source":0
		},
		{
			"sampler":0,
			"source":1
		},
		{
			"sampler":0,
			"source":2
		},
		{
			"sampler":0,
			"source":3
		},
		{
			"sampler":0,
			"source":4
		},
		{
			"sampler":0,
			"source":5
		},
		{
			"sampler":0,
			"source":6
		}
	],
	"images":[
		{
			"mimeType":"image/jpeg",
			"name":"lugger_hull_n",
			"uri":"textures/lugger_hull_n.jpg"
		},
		{
			"mimeType":"image/jpeg",
			"name":"lugger_hull",
			"uri":"textures/lugger_hull.jpg"
		},
		{
			"mimeType":"image/jpeg",
			"name":"deck_n",
			"uri":"textures/deck_n.jpg"
		},
		{
			"mimeType":"image/jpeg",
			"name":"deck",
			"uri":"textures/deck.jpg"
		},
		{
			"mimeType":"image/jpeg",
			"name":"lugger_upper_n",
			"uri":"textures/lugger_upper_n.jpg"
		},
		{
			"mimeType":"image/jpeg",
			"name":"lugger_upper",
			"uri":"textures/lugger_upper.jpg"
		},
		{
			"mimeType":"image/jpeg",
			"name":"lugger_sail",
			"uri":"textures/lugger_sail.jpg"
		}
	],
	"accessors":[
		{
			"bufferView":0,
			"componentType":5126,
			"count":45,
			"max":[
				0.06440079212188721,
				0,
				3.2200000286102295
			],
			"min":[
				-0.17260636389255524,
				-2.069999933242798,
				0
			],
			"type":"VEC3"
		},
		{
			"bufferView":1,
			"componentType":5126,
			"count":45,
			"type":"VEC3"
		},
		{
			"bufferView":2,
			"componentType":5126,
			"count":45,
			"type":"VEC2"
		},
		{
			"bufferView":3,
			"componentType":5123,
			"count":192,
			"type":"SCALAR"
		},
		{
			"bufferView":4,
			"componentType":5126,
			"count":6145,
			"max":[
				3.1513140201568604,
				3.1740000247955322,
				12.53499984741211
			],
			"min":[
				-3.1513140201568604,
				-2.2482500076293945,
				-12.305000305175781
			],
			"type":"VEC3"
		},
		{
			"bufferView":5,
			"componentType":5126,
			"count":6145,
			"type":"VEC3"
		},
		{
			"bufferView":6,
			"componentType":5126,
			"count":6145,
			"type":"VEC2"
		},
		{
			"bufferView":7,
			"componentType":5123,
			"count":6145,
			"normalized":true,
			"type":"VEC4"
		},
		{
			"bufferView":8,
			"componentType":5123,
			"count":22464,
			"type":"SCALAR"
		},
		{
			"bufferView":9,
			"componentType":5126,
			"count":2205,
			"max":[
				2.8674099445343018,
				3.7558999061584473,
				12.65676498413086
			],
			"min":[
				-2.8674099445343018,
				1.851945161819458,
				-12.305000305175781
			],
			"type":"VEC3"
		},
		{
			"bufferView":10,
			"componentType":5126,
			"count":2205,
			"type":"VEC3"
		},
		{
			"bufferView":11,
			"componentType":5126,
			"count":2205,
			"type":"VEC2"
		},
		{
			"bufferView":12,
			"componentType":5123,
			"count":2205,
			"normalized":true,
			"type":"VEC4"
		},
		{
			"bufferView":13,
			"componentType":5123,
			"count":4032,
			"type":"SCALAR"
		},
		{
			"bufferView":14,
			"componentType":5126,
			"count":825,
			"max":[
				2.8674099445343018,
				4.399899959564209,
				12.791523933410645
			],
			"min":[
				-2.8674099445343018,
				-1.7721500396728516,
				-12.464739799499512
			],
			"type":"VEC3"
		},
		{
			"bufferView":15,
			"componentType":5126,
			"count":825,
			"type":"VEC3"
		},
		{
			"bufferView":16,
			"componentType":5126,
			"count":825,
			"type":"VEC2"
		},
		{
			"bufferView":17,
			"componentType":5123,
			"count":825,
			"normalized":true,
			"type":"VEC4"
		},
		{
			"bufferView":18,
			"componentType":5123,
			"count":2190,
			"type":"SCALAR"
		},
		{
			"bufferView":19,
			"componentType":5126,
			"count":3998,
			"max":[
				3.848876714706421,
				3.9526419639587402,
				12.683049201965332
			],
			"min":[
				-3.848876714706421,
				-2.8162498474121094,
				-13.517219543457031
			],
			"type":"VEC3"
		},
		{
			"bufferView":20,
			"componentType":5126,
			"count":3998,
			"type":"VEC3"
		},
		{
			"bufferView":21,
			"componentType":5126,
			"count":3998,
			"type":"VEC2"
		},
		{
			"bufferView":22,
			"componentType":5123,
			"count":3998,
			"normalized":true,
			"type":"VEC4"
		},
		{
			"bufferView":23,
			"componentType":5123,
			"count":12432,
			"type":"SCALAR"
		},
		{
			"bufferView":24,
			"componentType":5126,
			"count":1064,
			"max":[
				2.4686548709869385,
				6.005899906158447,
				13.096765518188477
			],
			"min":[
				-2.4686548709869385,
				0.7724211812019348,
				-14.067219734191895
			],
			"type":"VEC3"
		},
		{
			"bufferView":25,
			"componentType":5126,
			"count":1064,
			"type":"VEC3"
		},
		{
			"bufferView":26,
			"componentType":5126,
			"count":1064,
			"type":"VEC2"
		},
		{
			"bufferView":27,
			"componentType":5123,
			"count":1064,
			"normalized":true,
			"type":"VEC4"
		},
		{
			"bufferView":28,
			"componentType":5123,
			"count":2244,
			"type":"SCALAR"
		},
		{
			"bufferView":29,
			"componentType":5126,
			"count":1019,
			"max":[
				2.608185052871704,
				4.675899982452393,
				12.726764678955078
			],
			"min":[
				-2.608185052871704,
				1.457679271697998,
				-13.208935737609863
			],
			"type":"VEC3"
		},
		{
			"bufferView":30,
			"componentType":5126,
			"count":1019,
			"type":"VEC3"
		},
		{
			"bufferView":31,
			"componentType":5126,
			"count":1019,
			"type":"VEC2"
		},
		{
			"bufferView":32,
			"componentType":5123,
			"count":1019,
			"normalized":true,
			"type":"VEC4"
		},
		{
			"bufferView":33,
			"componentType":5123,
			"count":2028,
			"type":"SCALAR"
		},
		{
			"bufferView":34,
			"componentType":5126,
			"count":312,
			"max":[
				3.242504358291626,
				2.176500082015991,
				6.467547416687012
			],
			"min":[
				-3.242504358291626,
				0.5444825887680054,
				-6.917089939117432
			],
			"type":"VEC3"
		},
		{
			"bufferView":35,
			"componentType":5126,
			"count":312,
			"type":"VEC3"
		},
		{
			"bufferView":36,
			"componentType":5126,
			"count":312,
			"type":"VEC2"
		},
		{
			"bufferView":37,
			"componentType":5123,
			"count":312,
			"normalized":true,
			"type":"VEC4"
		},
		{
			"bufferView":38,
			"componentType":5123,
			"count":468,
			"type":"SCALAR"
		},
		{
			"bufferView":39,
			"componentType":5126,
			"count":288,
			"max":[
				3.7595367431640625,
				2.12583589553833,
				6.512859344482422
			],
			"min":[
				-3.7595367431640625,
				1.2265369892120361,
				-7.070044994354248
			],
			"type":"VEC3"
		},
		{
			"bufferView":40,
			"componentType":5126,
			"count":288,
			"type":"VEC3"
		},
		{
			"bufferView":41,
			"componentType":5126,
			"count":288,
			"type":"VEC2"
		},
		{
			"bufferView":42,
			"componentType":5123,
			"count":288,
			"normalized":true,
			"type":"VEC4"
		},
		{
			"bufferView":43,
			"componentType":5123,
			"count":432,
			"type":"SCALAR"
		},
		{
			"bufferView":44,
			"componentType":5126,
			"count":384,
			"max":[
				3.727904796600342,
				2.3677234649658203,
				6.4615983963012695
			],
			"min":[
				-3.727904796600342,
				1.2437591552734375,
				-7.014613628387451
			],
			"type":"VEC3"
		},
		{
			"bufferView":45,
			"componentType":5126,
			"count":384,
			"type":"VEC3"
		},
		{
			"bufferView":46,
			"componentType":5126,
			"count":384,
			"type":"VEC2"
		},
		{
			"bufferView":47,
			"componentType":5123,
			"count":384,
			"normalized":true,
			"type":"VEC4"
		},
		{
			"bufferView":48,
			"componentType":5123,
			"count":576,
			"type":"SCALAR"
		},
		{
			"bufferView":49,
			"componentType":5126,
			"count":1251,
			"max":[
				3.879953145980835,
				4.855899810791016,
				12.816765785217285
			],
			"min":[
				-3.879953145980835,
				0.6373770833015442,
				-11.385828018188477
			],
			"type":"VEC3"
		},
		{
			"bufferView":50,
			"componentType":5126,
			"count":1251,
			"type":"VEC3"
		},
		{
			"bufferView":51,
			"componentType":5126,
			"count":1251,
			"type":"VEC2"
		},
		{
			"bufferView":52,
			"componentType":5123,
			"count":1251,
			"normalized":true,
			"type":"VEC4"
		},
		{
			"bufferView":53,
			"componentType":5123,
			"count":2484,
			"type":"SCALAR"
		},
		{
			"bufferView":54,
			"componentType":5126,
			"count":120,
			"max":[
				1.4515290260314941,
				3.253350019454956,
				12.60072135925293
			],
			"min":[
				-1.4515290260314941,
				2.671449899673462,
				12.540721893310547
			],
			"type":"VEC3"
		},
		{
			"bufferView":55,
			"componentType":5126,
			"count":120,
			"type":"VEC3"
		},
		{
			"bufferView":56,
			"componentType":5126,
			"count":120,
			"type":"VEC2"
		},
		{
			"bufferView":57,
			"componentType":5123,
			"count":120,
			"normalized":true,
			"type":"VEC4"
		},
		{
			"bufferView":58,
			"componentType":5123,
			"count":180,
			"type":"SCALAR"
		},
		{
			"bufferView":59,
			"componentType":5126,
			"count":40,
			"max":[
				0.30000001192092896,
				5.605899810791016,
				13.05676555633545
			],
			"min":[
				-0.30000001192092896,
				4.855899810791016,
				12.456765174865723
			],
			"type":"VEC3"
		},
		{
			"bufferView":60,
			"componentType":5126,
			"count":40,
			"type":"VEC3"
		},
		{
			"bufferView":61,
			"componentType":5126,
			"count":40,
			"type":"VEC2"
		},
		{
			"bufferView":62,
			"componentType":5123,
			"count":40,
			"normalized":true,
			"type":"VEC4"
		},
		{
			"bufferView":63,
			"componentType":5123,
			"count":84,
			"type":"SCALAR"
		},
		{
			"bufferView":64,
			"componentType":5126,
			"count":516,
			"max":[
				1,
				23.624187469482422,
				13.760610580444336
			],
			"min":[
				-1,
				1.0124592781066895,
				-18.343612670898438
			],
			"type":"VEC3"
		},
		{
			"bufferView":65,
			"componentType":5126,
			"count":516,
			"type":"VEC3"
		},
		{
			"bufferView":66,
			"componentType":5126,
			"count":516,
			"type":"VEC2"
		},
		{
			"bufferView":67,
			"componentType":5123,
			"count":516,
			"normalized":true,
			"type":"VEC4"
		},
		{
			"bufferView":68,
			"componentType":5123,
			"count":1296,
			"type":"SCALAR"
		},
		{
			"bufferView":69,
			"componentType":5126,
			"count":24,
			"max":[
				0.8665249943733215,
				2.1514999866485596,
				-1.1500000953674316
			],
			"min":[
				-0.8665249943733215,
				1.8514999151229858,
				-2.5299999713897705
			],
			"type":"VEC3"
		},
		{
			"bufferView":70,
			"componentType":5126,
			"count":24,
			"type":"VEC3"
		},
		{
			"bufferView":71,
			"componentType":5126,
			"count":24,
			"type":"VEC2"
		},
		{
			"bufferView":72,
			"componentType":5123,
			"count":24,
			"normalized":true,
			"type":"VEC4"
		},
		{
			"bufferView":73,
			"componentType":5123,
			"count":36,
			"type":"SCALAR"
		},
		{
			"bufferView":74,
			"componentType":5126,
			"count":1048,
			"max":[
				3.862090826034546,
				20.06005859375,
				5.079999923706055
			],
			"min":[
				-3.862090826034546,
				2.02742862701416,
				-16.160390853881836
			],
			"type":"VEC3"
		},
		{
			"bufferView":75,
			"componentType":5126,
			"count":1048,
			"type":"VEC3"
		},
		{
			"bufferView":76,
			"componentType":5126,
			"count":1048,
			"type":"VEC2"
		},
		{
			"bufferView":77,
			"componentType":5123,
			"count":1048,
			"normalized":true,
			"type":"VEC4"
		},
		{
			"bufferView":78,
			"componentType":5123,
			"count":2568,
			"type":"SCALAR"
		},
		{
			"bufferView":79,
			"componentType":5126,
			"count":1736,
			"max":[
				3.8231804370880127,
				20.24928092956543,
				2.612255573272705
			],
			"min":[
				-3.8231804370880127,
				2.181469678878784,
				-18.351877212524414
			],
			"type":"VEC3"
		},
		{
			"bufferView":80,
			"componentType":5126,
			"count":1736,
			"type":"VEC3"
		},
		{
			"bufferView":81,
			"componentType":5126,
			"count":1736,
			"type":"VEC2"
		},
		{
			"bufferView":82,
			"componentType":5123,
			"count":1736,
			"normalized":true,
			"type":"VEC4"
		},
		{
			"bufferView":83,
			"componentType":5123,
			"count":2604,
			"type":"SCALAR"
		},
		{
			"bufferView":84,
			"componentType":5126,
			"count":26,
			"max":[
				0.16424664855003357,
				0,
				4.599999904632568
			],
			"min":[
				-0.1664924919605255,
				-0.2759999930858612,
				0
			],
			"type":"VEC3"
		},
		{
			"bufferView":85,
			"componentType":5126,
			"count":26,
			"type":"VEC3"
		},
		{
			"bufferView":86,
			"componentType":5126,
			"count":26,
			"type":"VEC2"
		},
		{
			"bufferView":87,
			"componentType":5123,
			"count":72,
			"type":"SCALAR"
		},
		{
			"bufferView":88,
			"componentType":5126,
			"count":121,
			"max":[
				16.25600814819336,
				1.9073486328125e-06,
				1.055206537246704
			],
			"min":[
				0,
				-10.20827579498291,
				-0.5554372668266296
			],
			"type":"VEC3"
		},
		{
			"bufferView":89,
			"componentType":5126,
			"count":121,
			"type":"VEC3"
		},
		{
			"bufferView":90,
			"componentType":5126,
			"count":121,
			"type":"VEC2"
		},
		{
			"bufferView":91,
			"componentType":5123,
			"count":600,
			"type":"SCALAR"
		},
		{
			"bufferView":92,
			"componentType":5126,
			"count":121,
			"max":[
				17.31791114807129,
				2.384185791015625e-06,
				1.0554263591766357
			],
			"min":[
				0,
				-10.41773796081543,
				-0.5555529594421387
			],
			"type":"VEC3"
		},
		{
			"bufferView":93,
			"componentType":5126,
			"count":121,
			"type":"VEC3"
		},
		{
			"bufferView":94,
			"componentType":5126,
			"count":121,
			"type":"VEC2"
		}
	],
	"bufferViews":[
		{
			"buffer":0,
			"byteLength":540,
			"byteOffset":0,
			"target":34962
		},
		{
			"buffer":0,
			"byteLength":540,
			"byteOffset":540,
			"target":34962
		},
		{
			"buffer":0,
			"byteLength":360,
			"byteOffset":1080,
			"target":34962
		},
		{
			"buffer":0,
			"byteLength":384,
			"byteOffset":1440,
			"target":34963
		},
		{
			"buffer":0,
			"byteLength":73740,
			"byteOffset":1824,
			"target":34962
		},
		{
			"buffer":0,
			"byteLength":73740,
			"byteOffset":75564,
			"target":34962
		},
		{
			"buffer":0,
			"byteLength":49160,
			"byteOffset":149304,
			"target":34962
		},
		{
			"buffer":0,
			"byteLength":49160,
			"byteOffset":198464,
			"target":34962
		},
		{
			"buffer":0,
			"byteLength":44928,
			"byteOffset":247624,
			"target":34963
		},
		{
			"buffer":0,
			"byteLength":26460,
			"byteOffset":292552,
			"target":34962
		},
		{
			"buffer":0,
			"byteLength":26460,
			"byteOffset":319012,
			"target":34962
		},
		{
			"buffer":0,
			"byteLength":17640,
			"byteOffset":345472,
			"target":34962
		},
		{
			"buffer":0,
			"byteLength":17640,
			"byteOffset":363112,
			"target":34962
		},
		{
			"buffer":0,
			"byteLength":8064,
			"byteOffset":380752,
			"target":34963
		},
		{
			"buffer":0,
			"byteLength":9900,
			"byteOffset":388816,
			"target":34962
		},
		{
			"buffer":0,
			"byteLength":9900,
			"byteOffset":398716,
			"target":34962
		},
		{
			"buffer":0,
			"byteLength":6600,
			"byteOffset":408616,
			"target":34962
		},
		{
			"buffer":0,
			"byteLength":6600,
			"byteOffset":415216,
			"target":34962
		},
		{
			"buffer":0,
			"byteLength":4380,
			"byteOffset":421816,
			"target":34963
		},
		{
			"buffer":0,
			"byteLength":47976,
			"byteOffset":426196,
			"target":34962
		},
		{
			"buffer":0,
			"byteLength":47976,
			"byteOffset":474172,
			"target":34962
		},
		{
			"buffer":0,
			"byteLength":31984,
			"byteOffset":522148,
			"target":34962
		},
		{
			"buffer":0,
			"byteLength":31984,
			"byteOffset":554132,
			"target":34962
		},
		{
			"buffer":0,
			"byteLength":24864,
			"byteOffset":586116,
			"target":34963
		},
		{
			"buffer":0,
			"byteLength":12768,
			"byteOffset":610980,
			"target":34962
		},
		{
			"buffer":0,
			"byteLength":12768,
			"byteOffset":623748,
			"target":34962
		},
		{
			"buffer":0,
			"byteLength":8512,
			"byteOffset":636516,
			"target":34962
		},
		{
			"buffer":0,
			"byteLength":8512,
			"byteOffset":645028,
			"target":34962
		},
		{
			"buffer":0,
			"byteLength":4488,
			"byteOffset":653540,
			"target":34963
		},
		{
			"buffer":0,
			"byteLength":12228,
			"byteOffset":658028,
			"target":34962
		},
		{
			"buffer":0,
			"byteLength":12228,
			"byteOffset":670256,
			"target":34962
		},
		{
			"buffer":0,
			"byteLength":8152,
			"byteOffset":682484,
			"target":34962
		},
		{
			"buffer":0,
			"byteLength":8152,
			"byteOffset":690636,
			"target":34962
		},
		{
			"buffer":0,
			"byteLength":4056,
			"byteOffset":698788,
			"target":34963
		},
		{
			"buffer":0,
			"byteLength":3744,
			"byteOffset":702844,
			"target":34962
		},
		{
			"buffer":0,
			"byteLength":3744,
			"byteOffset":706588,
			"target":34962
		},
		{
			"buffer":0,
			"byteLength":2496,
			"byteOffset":710332,
			"target":34962
		},
		{
			"buffer":0,
			"byteLength":2496,
			"byteOffset":712828,
			"target":34962
		},
		{
			"buffer":0,
			"byteLength":936,
			"byteOffset":715324,
			"target":34963
		},
		{
			"buffer":0,
			"byteLength":3456,
			"byteOffset":716260,
			"target":34962
		},
		{
			"buffer":0,
			"byteLength":3456,
			"byteOffset":719716,
			"target":34962
		},
		{
			"buffer":0,
			"byteLength":2304,
			"byteOffset":723172,
			"target":34962
		},
		{
			"buffer":0,
			"byteLength":2304,
			"byteOffset":725476,
			"target":34962
		},
		{
			"buffer":0,
			"byteLength":864,
			"byteOffset":727780,
			"target":34963
		},
		{
			"buffer":0,
			"byteLength":4608,
			"byteOffset":728644,
			"target":34962
		},
		{
			"buffer":0,
			"byteLength":4608,
			"byteOffset":733252,
			"target":34962
		},
		{
			"buffer":0,
			"byteLength":3072,
			"byteOffset":737860,
			"target":34962
		},
		{
			"buffer":0,
			"byteLength":3072,
			"byteOffset":740932,
			"target":34962
		},
		{
			"buffer":0,
			"byteLength":1152,
			"byteOffset":744004,
			"target":34963
		},
		{
			"buffer":0,
			"byteLength":15012,
			"byteOffset":745156,
			"target":34962
		},
		{
			"buffer":0,
			"byteLength":15012,
			"byteOffset":760168,
			"target":34962
		},
		{
			"buffer":0,
			"byteLength":10008,
			"byteOffset":775180,
			"target":34962
		},
		{
			"buffer":0,
			"byteLength":10008,
			"byteOffset":785188,
			"target":34962
		},
		{
			"buffer":0,
			"byteLength":4968,
			"byteOffset":795196,
			"target":34963
		},
		{
			"buffer":0,
			"byteLength":1440,
			"byteOffset":800164,
			"target":34962
		},
		{
			"buffer":0,
			"byteLength":1440,
			"byteOffset":801604,
			"target":34962
		},
		{
			"buffer":0,
			"byteLength":960,
			"byteOffset":803044,
			"target":34962
		},
		{
			"buffer":0,
			"byteLength":960,
			"byteOffset":804004,
			"target":34962
		},
		{
			"buffer":0,
			"byteLength":360,
			"byteOffset":804964,
			"target":34963
		},
		{
			"buffer":0,
			"byteLength":480,
			"byteOffset":805324,
			"target":34962
		},
		{
			"buffer":0,
			"byteLength":480,
			"byteOffset":805804,
			"target":34962
		},
		{
			"buffer":0,
			"byteLength":320,
			"byteOffset":806284,
			"target":34962
		},
		{
			"buffer":0,
			"byteLength":320,
			"byteOffset":806604,
			"target":34962
		},
		{
			"buffer":0,
			"byteLength":168,
			"byteOffset":806924,
			"target":34963
		},
		{
			"buffer":0,
			"byteLength":6192,
			"byteOffset":807092,
			"target":34962
		},
		{
			"buffer":0,
			"byteLength":6192,
			"byteOffset":813284,
			"target":34962
		},
		{
			"buffer":0,
			"byteLength":4128,
			"byteOffset":819476,
			"target":34962
		},
		{
			"buffer":0,
			"byteLength":4128,
			"byteOffset":823604,
			"target":34962
		},
		{
			"buffer":0,
			"byteLength":2592,
			"byteOffset":827732,
			"target":34963
		},
		{
			"buffer":0,
			"byteLength":288,
			"byteOffset":830324,
			"target":34962
		},
		{
			"buffer":0,
			"byteLength":288,
			"byteOffset":830612,
			"target":34962
		},
		{
			"buffer":0,
			"byteLength":192,
			"byteOffset":830900,
			"target":34962
		},
		{
			"buffer":0,
			"byteLength":192,
			"byteOffset":831092,
			"target":34962
		},
		{
			"buffer":0,
			"byteLength":72,
			"byteOffset":831284,
			"target":34963
		},
		{
			"buffer":0,
			"byteLength":12576,
			"byteOffset":831356,
			"target":34962
		},
		{
			"buffer":0,
			"byteLength":12576,
			"byteOffset":843932,
			"target":34962
		},
		{
			"buffer":0,
			"byteLength":8384,
			"byteOffset":856508,
			"target":34962
		},
		{
			"buffer":0,
			"byteLength":8384,
			"byteOffset":864892,
			"target":34962
		},
		{
			"buffer":0,
			"byteLength":5136,
			"byteOffset":873276,
			"target":34963
		},
		{
			"buffer":0,
			"byteLength":20832,
			"byteOffset":878412,
			"target":34962
		},
		{
			"buffer":0,
			"byteLength":20832,
			"byteOffset":899244,
			"target":34962
		},
		{
			"buffer":0,
			"byteLength":13888,
			"byteOffset":920076,
			"target":34962
		},
		{
			"buffer":0,
			"byteLength":13888,
			"byteOffset":933964,
			"target":34962
		},
		{
			"buffer":0,
			"byteLength":5208,
			"byteOffset":947852,
			"target":34963
		},
		{
			"buffer":0,
			"byteLength":312,
			"byteOffset":953060,
			"target":34962
		},
		{
			"buffer":0,
			"byteLength":312,
			"byteOffset":953372,
			"target":34962
		},
		{
			"buffer":0,
			"byteLength":208,
			"byteOffset":953684,
			"target":34962
		},
		{
			"buffer":0,
			"byteLength":144,
			"byteOffset":953892,
			"target":34963
		},
		{
			"buffer":0,
			"byteLength":1452,
			"byteOffset":954036,
			"target":34962
		},
		{
			"buffer":0,
			"byteLength":1452,
			"byteOffset":955488,
			"target":34962
		},
		{
			"buffer":0,
			"byteLength":968,
			"byteOffset":956940,
			"target":34962
		},
		{
			"buffer":0,
			"byteLength":1200,
			"byteOffset":957908,
			"target":34963
		},
		{
			"buffer":0,
			"byteLength":1452,
			"byteOffset":959108,
			"target":34962
		},
		{
			"buffer":0,
			"byteLength":1452,
			"byteOffset":960560,
			"target":34962
		},
		{
			"buffer":0,
			"byteLength":968,
			"byteOffset":962012,
			"target":34962
		}
	],
	"samplers":[
		{
			"magFilter":9729,
			"minFilter":9987
		}
	],
	"buffers":[
		{
			"byteLength":962980,
			"uri":"lugger.bin"
		}
	]
}
