{
	"asset":{
		"generator":"Khronos glTF Blender I/O v5.2.40",
		"version":"2.0"
	},
	"extensionsUsed":[
		"KHR_materials_emissive_strength"
	],
	"scene":0,
	"scenes":[
		{
			"name":"Scene",
			"nodes":[
				0,
				1,
				2,
				3,
				4,
				5,
				6,
				7,
				8,
				9,
				10,
				11,
				12,
				13,
				14,
				15,
				16,
				17,
				18,
				19,
				20,
				21,
				22,
				23,
				24,
				25,
				26,
				27,
				28,
				29,
				30,
				31,
				32,
				33,
				34,
				35,
				36,
				37,
				38,
				39,
				40,
				41,
				42,
				43,
				44,
				45,
				46,
				47,
				48,
				49,
				50,
				51,
				52,
				53,
				54,
				55,
				56,
				57,
				58,
				59,
				60,
				61,
				62,
				63,
				64,
				65,
				66,
				67,
				68,
				69,
				70,
				71,
				72,
				73,
				74,
				75,
				76,
				77,
				78,
				79,
				80,
				81,
				82,
				83,
				84,
				85,
				86,
				87,
				88,
				89,
				90,
				91,
				92,
				93,
				94,
				95,
				96,
				97,
				98,
				99,
				100,
				101,
				102,
				103,
				104,
				105,
				106,
				107
			]
		}
	],
	"nodes":[
		{
			"mesh":0,
			"name":"Flag",
			"translation":[
				0,
				27.681598663330078,
				32.3164176940918
			]
		},
		{
			"mesh":1,
			"name":"Hull"
		},
		{
			"name":"Muzzle_P_00",
			"translation":[
				-6.88217306137085,
				0.7402260303497314,
				-17.13051986694336
			]
		},
		{
			"name":"Muzzle_P_01",
			"translation":[
				-7.976085662841797,
				0.6188846826553345,
				-14.299798965454102
			]
		},
		{
			"name":"Muzzle_P_02",
			"translation":[
				-8.701165199279785,
				0.5244426131248474,
				-11.46875
			]
		},
		{
			"name":"Muzzle_P_03",
			"translation":[
				-8.975942611694336,
				0.43551725149154663,
				-8.63613224029541
			]
		},
		{
			"name":"Muzzle_P_04",
			"translation":[
				-8.994100570678711,
				0.3768177926540375,
				-5.912059307098389
			]
		},
		{
			"name":"Muzzle_P_05",
			"translation":[
				-8.994098663330078,
				0.36934471130371094,
				-3.2204184532165527
			]
		},
		{
			"name":"Muzzle_P_06",
			"translation":[
				-8.994108200073242,
				0.41738229990005493,
				-0.5290203094482422
			]
		},
		{
			"name":"Muzzle_P_07",
			"translation":[
				-8.994124412536621,
				0.5062313675880432,
				2.162266969680786
			]
		},
		{
			"name":"Muzzle_P_08",
			"translation":[
				-8.994146347045898,
				0.631354033946991,
				4.853489398956299
			]
		},
		{
			"name":"Muzzle_P_09",
			"translation":[
				-8.994173049926758,
				0.7902109622955322,
				7.5446600914001465
			]
		},
		{
			"name":"Muzzle_P_10",
			"translation":[
				-8.994203567504883,
				0.9810559749603271,
				10.235783576965332
			]
		},
		{
			"name":"Muzzle_P_11",
			"translation":[
				-8.780539512634277,
				1.1981409788131714,
				13.100798606872559
			]
		},
		{
			"name":"Muzzle_P_12",
			"translation":[
				-8.051620483398438,
				1.4156956672668457,
				15.92543888092041
			]
		},
		{
			"name":"Muzzle_P_13",
			"translation":[
				-7.067190647125244,
				2.878206491470337,
				-17.11652946472168
			]
		},
		{
			"name":"Muzzle_P_14",
			"translation":[
				-8.048430442810059,
				2.7232024669647217,
				-14.260595321655273
			]
		},
		{
			"name":"Muzzle_P_15",
			"translation":[
				-8.674942016601562,
				2.5995051860809326,
				-11.441926002502441
			]
		},
		{
			"name":"Muzzle_P_16",
			"translation":[
				-8.923539161682129,
				2.489673614501953,
				-8.631481170654297
			]
		},
		{
			"name":"Muzzle_P_17",
			"translation":[
				-8.941376686096191,
				2.4172232151031494,
				-5.910020351409912
			]
		},
		{
			"name":"Muzzle_P_18",
			"translation":[
				-8.941370010375977,
				2.407954216003418,
				-3.221792221069336
			]
		},
		{
			"name":"Muzzle_P_19",
			"translation":[
				-8.94141674041748,
				2.467538356781006,
				-0.5328575372695923
			]
		},
		{
			"name":"Muzzle_P_20",
			"translation":[
				-8.94150161743164,
				2.577772617340088,
				2.156399965286255
			]
		},
		{
			"name":"Muzzle_P_21",
			"translation":[
				-8.941617965698242,
				2.7330727577209473,
				4.845847129821777
			]
		},
		{
			"name":"Muzzle_P_22",
			"translation":[
				-8.941758155822754,
				2.930342435836792,
				7.535445213317871
			]
		},
		{
			"name":"Muzzle_P_23",
			"translation":[
				-8.941916465759277,
				3.1674742698669434,
				10.225177764892578
			]
		},
		{
			"name":"Muzzle_P_24",
			"translation":[
				-8.74615478515625,
				3.4357573986053467,
				13.072187423706055
			]
		},
		{
			"name":"Muzzle_P_25",
			"translation":[
				-8.111082077026367,
				3.7116618156433105,
				15.88177490234375
			]
		},
		{
			"name":"Muzzle_P_26",
			"translation":[
				-6.9880051612854,
				5.039562702178955,
				-17.091833114624023
			]
		},
		{
			"name":"Muzzle_P_27",
			"translation":[
				-7.855058670043945,
				4.843164443969727,
				-14.214319229125977
			]
		},
		{
			"name":"Muzzle_P_28",
			"translation":[
				-8.390905380249023,
				4.68214750289917,
				-11.41138744354248
			]
		},
		{
			"name":"Muzzle_P_29",
			"translation":[
				-8.611929893493652,
				4.548908710479736,
				-8.623181343078613
			]
		},
		{
			"name":"Muzzle_P_30",
			"translation":[
				-8.628510475158691,
				4.462610244750977,
				-5.906986236572266
			]
		},
		{
			"name":"Muzzle_P_31",
			"translation":[
				-8.628467559814453,
				4.451543807983398,
				-3.223836660385132
			]
		},
		{
			"name":"Muzzle_P_32",
			"translation":[
				-8.628742218017578,
				4.522694110870361,
				-0.5385703444480896
			]
		},
		{
			"name":"Muzzle_P_33",
			"translation":[
				-8.629244804382324,
				4.65435266494751,
				2.1476595401763916
			]
		},
		{
			"name":"Muzzle_P_34",
			"translation":[
				-8.629931449890137,
				4.839879989624023,
				4.834449291229248
			]
		},
		{
			"name":"Muzzle_P_35",
			"translation":[
				-8.63076400756836,
				5.075611591339111,
				7.521687984466553
			]
		},
		{
			"name":"Muzzle_P_36",
			"translation":[
				-8.631708145141602,
				5.359076499938965,
				10.20932388305664
			]
		},
		{
			"name":"Muzzle_P_37",
			"translation":[
				-8.457186698913574,
				5.680477142333984,
				13.03610610961914
			]
		},
		{
			"name":"Muzzle_P_38",
			"translation":[
				-7.909857749938965,
				6.021536827087402,
				15.829370498657227
			]
		},
		{
			"name":"Muzzle_P_39",
			"translation":[
				-6.984487056732178,
				6.566636562347412,
				-8.479999542236328
			]
		},
		{
			"name":"Muzzle_P_40",
			"translation":[
				-6.993565559387207,
				6.454319000244141,
				-4.875999927520752
			]
		},
		{
			"name":"Muzzle_P_41",
			"translation":[
				-6.993565559387207,
				6.511614799499512,
				-1.2719999551773071
			]
		},
		{
			"name":"Muzzle_P_42",
			"translation":[
				-6.993565559387207,
				6.706103324890137,
				2.3320000171661377
			]
		},
		{
			"name":"Muzzle_P_43",
			"translation":[
				-6.993565559387207,
				7.011999607086182,
				5.935999870300293
			]
		},
		{
			"name":"Muzzle_S_00",
			"translation":[
				6.88217306137085,
				0.7402260303497314,
				-17.13051986694336
			]
		},
		{
			"name":"Muzzle_S_01",
			"translation":[
				7.976085662841797,
				0.6188846826553345,
				-14.299798965454102
			]
		},
		{
			"name":"Muzzle_S_02",
			"translation":[
				8.701165199279785,
				0.5244426131248474,
				-11.46875
			]
		},
		{
			"name":"Muzzle_S_03",
			"translation":[
				8.975942611694336,
				0.43551725149154663,
				-8.63613224029541
			]
		},
		{
			"name":"Muzzle_S_04",
			"translation":[
				8.994100570678711,
				0.3768177926540375,
				-5.912059307098389
			]
		},
		{
			"name":"Muzzle_S_05",
			"translation":[
				8.994098663330078,
				0.36934471130371094,
				-3.2204184532165527
			]
		},
		{
			"name":"Muzzle_S_06",
			"translation":[
				8.994108200073242,
				0.41738229990005493,
				-0.5290203094482422
			]
		},
		{
			"name":"Muzzle_S_07",
			"translation":[
				8.994124412536621,
				0.5062313675880432,
				2.162266969680786
			]
		},
		{
			"name":"Muzzle_S_08",
			"translation":[
				8.994146347045898,
				0.631354033946991,
				4.853489398956299
			]
		},
		{
			"name":"Muzzle_S_09",
			"translation":[
				8.994173049926758,
				0.7902109622955322,
				7.5446600914001465
			]
		},
		{
			"name":"Muzzle_S_10",
			"translation":[
				8.994203567504883,
				0.9810559749603271,
				10.235783576965332
			]
		},
		{
			"name":"Muzzle_S_11",
			"translation":[
				8.780539512634277,
				1.1981409788131714,
				13.100798606872559
			]
		},
		{
			"name":"Muzzle_S_12",
			"translation":[
				8.051620483398438,
				1.4156956672668457,
				15.92543888092041
			]
		},
		{
			"name":"Muzzle_S_13",
			"translation":[
				7.067190647125244,
				2.878206491470337,
				-17.11652946472168
			]
		},
		{
			"name":"Muzzle_S_14",
			"translation":[
				8.048430442810059,
				2.7232024669647217,
				-14.260595321655273
			]
		},
		{
			"name":"Muzzle_S_15",
			"translation":[
				8.674942016601562,
				2.5995051860809326,
				-11.441926002502441
			]
		},
		{
			"name":"Muzzle_S_16",
			"translation":[
				8.923539161682129,
				2.489673614501953,
				-8.631481170654297
			]
		},
		{
			"name":"Muzzle_S_17",
			"translation":[
				8.941376686096191,
				2.4172232151031494,
				-5.910020351409912
			]
		},
		{
			"name":"Muzzle_S_18",
			"translation":[
				8.941370010375977,
				2.407954216003418,
				-3.221792221069336
			]
		},
		{
			"name":"Muzzle_S_19",
			"translation":[
				8.94141674041748,
				2.467538356781006,
				-0.5328575372695923
			]
		},
		{
			"name":"Muzzle_S_20",
			"translation":[
				8.94150161743164,
				2.577772617340088,
				2.156399965286255
			]
		},
		{
			"name":"Muzzle_S_21",
			"translation":[
				8.941617965698242,
				2.7330727577209473,
				4.845847129821777
			]
		},
		{
			"name":"Muzzle_S_22",
			"translation":[
				8.941758155822754,
				2.930342435836792,
				7.535445213317871
			]
		},
		{
			"name":"Muzzle_S_23",
			"translation":[
				8.941916465759277,
				3.1674742698669434,
				10.225177764892578
			]
		},
		{
			"name":"Muzzle_S_24",
			"translation":[
				8.74615478515625,
				3.4357573986053467,
				13.072187423706055
			]
		},
		{
			"name":"Muzzle_S_25",
			"translation":[
				8.111082077026367,
				3.7116618156433105,
				15.88177490234375
			]
		},
		{
			"name":"Muzzle_S_26",
			"translation":[
				6.9880051612854,
				5.039562702178955,
				-17.091833114624023
			]
		},
		{
			"name":"Muzzle_S_27",
			"translation":[
				7.855058670043945,
				4.843164443969727,
				-14.214319229125977
			]
		},
		{
			"name":"Muzzle_S_28",
			"translation":[
				8.390905380249023,
				4.68214750289917,
				-11.41138744354248
			]
		},
		{
			"name":"Muzzle_S_29",
			"translation":[
				8.611929893493652,
				4.548908710479736,
				-8.623181343078613
			]
		},
		{
			"name":"Muzzle_S_30",
			"translation":[
				8.628510475158691,
				4.462610244750977,
				-5.906986236572266
			]
		},
		{
			"name":"Muzzle_S_31",
			"translation":[
				8.628467559814453,
				4.451543807983398,
				-3.223836660385132
			]
		},
		{
			"name":"Muzzle_S_32",
			"translation":[
				8.628742218017578,
				4.522694110870361,
				-0.5385703444480896
			]
		},
		{
			"name":"Muzzle_S_33",
			"translation":[
				8.629244804382324,
				4.65435266494751,
				2.1476595401763916
			]
		},
		{
			"name":"Muzzle_S_34",
			"translation":[
				8.629931449890137,
				4.839879989624023,
				4.834449291229248
			]
		},
		{
			"name":"Muzzle_S_35",
			"translation":[
				8.63076400756836,
				5.075611591339111,
				7.521687984466553
			]
		},
		{
			"name":"Muzzle_S_36",
			"translation":[
				8.631708145141602,
				5.359076499938965,
				10.20932388305664
			]
		},
		{
			"name":"Muzzle_S_37",
			"translation":[
				8.457186698913574,
				5.680477142333984,
				13.03610610961914
			]
		},
		{
			"name":"Muzzle_S_38",
			"translation":[
				7.909857749938965,
				6.021536827087402,
				15.829370498657227
			]
		},
		{
			"name":"Muzzle_S_39",
			"translation":[
				6.984487056732178,
				6.566636562347412,
				-8.479999542236328
			]
		},
		{
			"name":"Muzzle_S_40",
			"translation":[
				6.993565559387207,
				6.454319000244141,
				-4.875999927520752
			]
		},
		{
			"name":"Muzzle_S_41",
			"translation":[
				6.993565559387207,
				6.511614799499512,
				-1.2719999551773071
			]
		},
		{
			"name":"Muzzle_S_42",
			"translation":[
				6.993565559387207,
				6.706103324890137,
				2.3320000171661377
			]
		},
		{
			"name":"Muzzle_S_43",
			"translation":[
				6.993565559387207,
				7.011999607086182,
				5.935999870300293
			]
		},
		{
			"mesh":2,
			"name":"Pennant",
			"translation":[
				0,
				58.52498245239258,
				-0.08641749620437622
			]
		},
		{
			"mesh":3,
			"name":"Sail_0_0",
			"rotation":[
				0.026176918298006058,
				0,
				0,
				0.9996573328971863
			],
			"translation":[
				0,
				22.904762268066406,
				-16.960954666137695
			]
		},
		{
			"mesh":4,
			"name":"Sail_0_1_E",
			"rotation":[
				0.026176918298006058,
				0,
				0,
				0.9996573328971863
			],
			"translation":[
				0,
				33.88994598388672,
				-16.38524627685547
			]
		},
		{
			"mesh":5,
			"name":"Sail_0_2",
			"rotation":[
				0.026176918298006058,
				0,
				0,
				0.9996573328971863
			],
			"translation":[
				0,
				42.12883377075195,
				-15.95346450805664
			]
		},
		{
			"mesh":6,
			"name":"Sail_0_3",
			"rotation":[
				0.026176918298006058,
				0,
				0,
				0.9996573328971863
			],
			"translation":[
				0,
				48.5368537902832,
				-15.617633819580078
			]
		},
		{
			"mesh":7,
			"name":"Sail_1_0",
			"rotation":[
				0.026176918298006058,
				0,
				0,
				0.9996573328971863
			],
			"translation":[
				0,
				24.067323684692383,
				-1.0392918586730957
			]
		},
		{
			"mesh":8,
			"name":"Sail_1_1_E",
			"rotation":[
				0.026176918298006058,
				0,
				0,
				0.9996573328971863
			],
			"translation":[
				0,
				36.3380012512207,
				-0.3962128460407257
			]
		},
		{
			"mesh":9,
			"name":"Sail_1_2",
			"rotation":[
				0.026176918298006058,
				0,
				0,
				0.9996573328971863
			],
			"translation":[
				0,
				45.541011810302734,
				0.0860966145992279
			]
		},
		{
			"mesh":10,
			"name":"Sail_1_3",
			"rotation":[
				0.026176918298006058,
				0,
				0,
				0.9996573328971863
			],
			"translation":[
				0,
				52.698909759521484,
				0.4612261950969696
			]
		},
		{
			"mesh":11,
			"name":"Sail_2_1",
			"rotation":[
				0.026176918298006058,
				0,
				0,
				0.9996573328971863
			],
			"translation":[
				0,
				30.11716079711914,
				15.169771194458008
			]
		},
		{
			"mesh":12,
			"name":"Sail_2_2",
			"rotation":[
				0.026176918298006058,
				0,
				0,
				0.9996573328971863
			],
			"translation":[
				0,
				36.95368576049805,
				15.528058052062988
			]
		},
		{
			"mesh":13,
			"name":"Sail_2_3",
			"rotation":[
				0.026176918298006058,
				0,
				0,
				0.9996573328971863
			],
			"translation":[
				0,
				42.27098083496094,
				15.80672550201416
			]
		},
		{
			"mesh":14,
			"name":"Sail_jib_0",
			"rotation":[
				-0.3863021433353424,
				0.649648129940033,
				-0.27920854091644287,
				0.5922589302062988
			],
			"translation":[
				0,
				37.2140998840332,
				-20.645397186279297
			]
		},
		{
			"mesh":15,
			"name":"Sail_jib_1",
			"rotation":[
				-0.3827582597732544,
				0.6483271718025208,
				-0.28226199746131897,
				0.5945554375648499
			],
			"translation":[
				0,
				40.74129104614258,
				-24.418476104736328
			]
		},
		{
			"mesh":16,
			"name":"Sail_spanker",
			"rotation":[
				-0.11702294647693634,
				-0.6904799938201904,
				0.15243861079216003,
				0.6973560452461243
			],
			"translation":[
				0,
				26.507709503173828,
				15.190000534057617
			]
		},
		{
			"mesh":17,
			"name":"Sail_sprit",
			"translation":[
				0,
				10.489459037780762,
				-31.863597869873047
			]
		},
		{
			"mesh":18,
			"name":"Sail_stay_1",
			"rotation":[
				-0.3017628788948059,
				0.6808352470397949,
				-0.1909540295600891,
				0.6394835710525513
			],
			"translation":[
				0,
				46.84927749633789,
				-1.2242071628570557
			]
		},
		{
			"mesh":19,
			"name":"Sail_stay_2",
			"rotation":[
				-0.3132489025592804,
				0.66460120677948,
				0.24146497249603271,
				0.6339361071586609
			],
			"translation":[
				0,
				38.4171257019043,
				14.260270118713379
			]
		}
	],
	"materials":[
		{
			"doubleSided":true,
			"name":"manowar_flag",
			"pbrMetallicRoughness":{
				"metallicFactor":0,
				"roughnessFactor":0.8999999761581421
			}
		},
		{
			"doubleSided":true,
			"name":"manowar_hull",
			"normalTexture":{
				"index":0
			},
			"pbrMetallicRoughness":{
				"baseColorTexture":{
					"index":1
				},
				"metallicFactor":0,
				"roughnessFactor":0.7200000286102295
			}
		},
		{
			"doubleSided":true,
			"name":"manowar_deck",
			"normalTexture":{
				"index":2
			},
			"pbrMetallicRoughness":{
				"baseColorTexture":{
					"index":3
				},
				"metallicFactor":0,
				"roughnessFactor":0.8500000238418579
			}
		},
		{
			"doubleSided":true,
			"name":"manowar_upper",
			"normalTexture":{
				"index":4
			},
			"pbrMetallicRoughness":{
				"baseColorTexture":{
					"index":5
				},
				"metallicFactor":0,
				"roughnessFactor":0.75
			}
		},
		{
			"doubleSided":true,
			"name":"manowar_wale",
			"pbrMetallicRoughness":{
				"baseColorFactor":[
					0.07150355726480484,
					0.044966764748096466,
					0.016889773309230804,
					1
				],
				"metallicFactor":0,
				"roughnessFactor":0.699999988079071
			}
		},
		{
			"doubleSided":true,
			"name":"manowar_dark",
			"pbrMetallicRoughness":{
				"baseColorFactor":[
					0.0036765073891729116,
					0.002428215928375721,
					0.0018211619462817907,
					1
				],
				"metallicFactor":0,
				"roughnessFactor":0.949999988079071
			}
		},
		{
			"doubleSided":true,
			"name":"manowar_trim",
			"pbrMetallicRoughness":{
				"baseColorFactor":[
					0.3998839855194092,
					0.2622506618499756,
					0.02518685907125473,
					1
				],
				"metallicFactor":0.4000000059604645,
				"roughnessFactor":0.44999998807907104
			}
		},
		{
			"doubleSided":true,
			"name":"manowar_rail",
			"pbrMetallicRoughness":{
				"baseColorFactor":[
					0.0423114113509655,
					0.021219009533524513,
					0.008568125776946545,
					1
				],
				"metallicFactor":0,
				"roughnessFactor":0.75
			}
		},
		{
			"doubleSided":true,
			"name":"manowar_lid",
			"pbrMetallicRoughness":{
				"baseColorFactor":[
					0.1210947185754776,
					0.03847058489918709,
					0.0132679408416152,
					1
				],
				"metallicFactor":0,
				"roughnessFactor":0.699999988079071
			}
		},
		{
			"doubleSided":true,
			"name":"manowar_portred",
			"pbrMetallicRoughness":{
				"baseColorFactor":[
					0.07618538290262222,
					0.00802319310605526,
					0.005181516520678997,
					1
				],
				"metallicFactor":0,
				"roughnessFactor":0.8500000238418579
			}
		},
		{
			"doubleSided":true,
			"name":"manowar_iron",
			"pbrMetallicRoughness":{
				"baseColorFactor":[
					0.00802319310605526,
					0.007499032188206911,
					0.006995410192757845,
					1
				],
				"metallicFactor":0.550000011920929,
				"roughnessFactor":0.5
			}
		},
		{
			"doubleSided":true,
			"emissiveFactor":[
				0.11999999731779099,
				0.06624137015101228,
				0.01729541620696895
			],
			"name":"manowar_glass",
			"pbrMetallicRoughness":{
				"baseColorFactor":[
					0.005181516520678997,
					0.00802319310605526,
					0.011612244881689548,
					1
				],
				"metallicFactor":0.30000001192092896,
				"roughnessFactor":0.07999999821186066
			}
		},
		{
			"doubleSided":true,
			"emissiveFactor":[
				1,
				0.4564110338687897,
				0.06847816705703735
			],
			"extensions":{
				"KHR_materials_emissive_strength":{
					"emissiveStrength":5
				}
			},
			"name":"manowar_lantern",
			"pbrMetallicRoughness":{
				"baseColorFactor":[
					1,
					0.7605245113372803,
					0.35153260827064514,
					1
				],
				"metallicFactor":0,
				"roughnessFactor":0.30000001192092896
			}
		},
		{
			"doubleSided":true,
			"name":"manowar_spar",
			"pbrMetallicRoughness":{
				"baseColorFactor":[
					0.04817182570695877,
					0.024157632142305374,
					0.01032982300966978,
					1
				],
				"metallicFactor":0,
				"roughnessFactor":0.699999988079071
			}
		},
		{
			"doubleSided":true,
			"name":"manowar_grating",
			"pbrMetallicRoughness":{
				"baseColorFactor":[
					0.06847816705703735,
					0.03560131415724754,
					0.014443843625485897,
					1
				],
				"metallicFactor":0,
				"roughnessFactor":0.8999999761581421
			}
		},
		{
			"doubleSided":true,
			"name":"manowar_spar_black",
			"pbrMetallicRoughness":{
				"baseColorFactor":[
					0.006995410192757845,
					0.005181516520678997,
					0.0036765073891729116,
					1
				],
				"metallicFactor":0,
				"roughnessFactor":0.699999988079071
			}
		},
		{
			"doubleSided":true,
			"name":"manowar_rope",
			"pbrMetallicRoughness":{
				"baseColorFactor":[
					0.008568125776946545,
					0.006048833020031452,
					0.004024717025458813,
					1
				],
				"metallicFactor":0,
				"roughnessFactor":0.8999999761581421
			}
		},
		{
			"doubleSided":true,
			"name":"manowar_sail",
			"pbrMetallicRoughness":{
				"baseColorTexture":{
					"index":6
				},
				"metallicFactor":0,
				"roughnessFactor":0.949999988079071
			}
		}
	],
	"meshes":[
		{
			"name":"Flag",
			"primitives":[
				{
					"attributes":{
						"POSITION":0,
						"NORMAL":1,
						"TEXCOORD_0":2
					},
					"indices":3,
					"material":0
				}
			]
		},
		{
			"name":"Hull",
			"primitives":[
				{
					"attributes":{
						"POSITION":4,
						"NORMAL":5,
						"TEXCOORD_0":6,
						"COLOR_0":7
					},
					"indices":8,
					"material":1
				},
				{
					"attributes":{
						"POSITION":9,
						"NORMAL":10,
						"TEXCOORD_0":11,
						"COLOR_0":12
					},
					"indices":13,
					"material":2
				},
				{
					"attributes":{
						"POSITION":14,
						"NORMAL":15,
						"TEXCOORD_0":16,
						"COLOR_0":17
					},
					"indices":18,
					"material":3
				},
				{
					"attributes":{
						"POSITION":19,
						"NORMAL":20,
						"TEXCOORD_0":21,
						"COLOR_0":22
					},
					"indices":23,
					"material":4
				},
				{
					"attributes":{
						"POSITION":24,
						"NORMAL":25,
						"TEXCOORD_0":26,
						"COLOR_0":27
					},
					"indices":28,
					"material":5
				},
				{
					"attributes":{
						"POSITION":29,
						"NORMAL":30,
						"TEXCOORD_0":31,
						"COLOR_0":32
					},
					"indices":33,
					"material":6
				},
				{
					"attributes":{
						"POSITION":34,
						"NORMAL":35,
						"TEXCOORD_0":36,
						"COLOR_0":37
					},
					"indices":38,
					"material":7
				},
				{
					"attributes":{
						"POSITION":39,
						"NORMAL":40,
						"TEXCOORD_0":41,
						"COLOR_0":42
					},
					"indices":43,
					"material":8
				},
				{
					"attributes":{
						"POSITION":44,
						"NORMAL":45,
						"TEXCOORD_0":46,
						"COLOR_0":47
					},
					"indices":48,
					"material":9
				},
				{
					"attributes":{
						"POSITION":49,
						"NORMAL":50,
						"TEXCOORD_0":51,
						"COLOR_0":52
					},
					"indices":53,
					"material":10
				},
				{
					"attributes":{
						"POSITION":54,
						"NORMAL":55,
						"TEXCOORD_0":56,
						"COLOR_0":57
					},
					"indices":58,
					"material":11
				},
				{
					"attributes":{
						"POSITION":59,
						"NORMAL":60,
						"TEXCOORD_0":61,
						"COLOR_0":62
					},
					"indices":63,
					"material":12
				},
				{
					"attributes":{
						"POSITION":64,
						"NORMAL":65,
						"TEXCOORD_0":66,
						"COLOR_0":67
					},
					"indices":68,
					"material":13
				},
				{
					"attributes":{
						"POSITION":69,
						"NORMAL":70,
						"TEXCOORD_0":71,
						"COLOR_0":72
					},
					"indices":73,
					"material":14
				},
				{
					"attributes":{
						"POSITION":74,
						"NORMAL":75,
						"TEXCOORD_0":76,
						"COLOR_0":77
					},
					"indices":78,
					"material":15
				},
				{
					"attributes":{
						"POSITION":79,
						"NORMAL":80,
						"TEXCOORD_0":81,
						"COLOR_0":82
					},
					"indices":83,
					"material":16
				}
			]
		},
		{
			"name":"Pennant",
			"primitives":[
				{
					"attributes":{
						"POSITION":84,
						"NORMAL":85,
						"TEXCOORD_0":86
					},
					"indices":87,
					"material":0
				}
			]
		},
		{
			"name":"Sail_0_0",
			"primitives":[
				{
					"attributes":{
						"POSITION":88,
						"NORMAL":89,
						"TEXCOORD_0":90
					},
					"indices":91,
					"material":17
				}
			]
		},
		{
			"name":"Sail_0_1_E",
			"primitives":[
				{
					"attributes":{
						"POSITION":92,
						"NORMAL":93,
						"TEXCOORD_0":94
					},
					"indices":91,
					"material":17
				}
			]
		},
		{
			"name":"Sail_0_2",
			"primitives":[
				{
					"attributes":{
						"POSITION":95,
						"NORMAL":96,
						"TEXCOORD_0":97
					},
					"indices":91,
					"material":17
				}
			]
		},
		{
			"name":"Sail_0_3",
			"primitives":[
				{
					"attributes":{
						"POSITION":98,
						"NORMAL":99,
						"TEXCOORD_0":100
					},
					"indices":91,
					"material":17
				}
			]
		},
		{
			"name":"Sail_1_0",
			"primitives":[
				{
					"attributes":{
						"POSITION":101,
						"NORMAL":102,
						"TEXCOORD_0":103
					},
					"indices":91,
					"material":17
				}
			]
		},
		{
			"name":"Sail_1_1_E",
			"primitives":[
				{
					"attributes":{
						"POSITION":104,
						"NORMAL":105,
						"TEXCOORD_0":106
					},
					"indices":91,
					"material":17
				}
			]
		},
		{
			"name":"Sail_1_2",
			"primitives":[
				{
					"attributes":{
						"POSITION":107,
						"NORMAL":108,
						"TEXCOORD_0":109
					},
					"indices":91,
					"material":17
				}
			]
		},
		{
			"name":"Sail_1_3",
			"primitives":[
				{
					"attributes":{
						"POSITION":110,
						"NORMAL":111,
						"TEXCOORD_0":112
					},
					"indices":91,
					"material":17
				}
			]
		},
		{
			"name":"Sail_2_1",
			"primitives":[
				{
					"attributes":{
						"POSITION":113,
						"NORMAL":114,
						"TEXCOORD_0":115
					},
					"indices":91,
					"material":17
				}
			]
		},
		{
			"name":"Sail_2_2",
			"primitives":[
				{
					"attributes":{
						"POSITION":116,
						"NORMAL":117,
						"TEXCOORD_0":118
					},
					"indices":91,
					"material":17
				}
			]
		},
		{
			"name":"Sail_2_3",
			"primitives":[
				{
					"attributes":{
						"POSITION":119,
						"NORMAL":120,
						"TEXCOORD_0":121
					},
					"indices":91,
					"material":17
				}
			]
		},
		{
			"name":"Sail_jib_0",
			"primitives":[
				{
					"attributes":{
						"POSITION":122,
						"NORMAL":123,
						"TEXCOORD_0":124
					},
					"indices":125,
					"material":17
				}
			]
		},
		{
			"name":"Sail_jib_1",
			"primitives":[
				{
					"attributes":{
						"POSITION":126,
						"NORMAL":127,
						"TEXCOORD_0":128
					},
					"indices":125,
					"material":17
				}
			]
		},
		{
			"name":"Sail_spanker",
			"primitives":[
				{
					"attributes":{
						"POSITION":129,
						"NORMAL":130,
						"TEXCOORD_0":131
					},
					"indices":132,
					"material":17
				}
			]
		},
		{
			"name":"Sail_sprit",
			"primitives":[
				{
					"attributes":{
						"POSITION":133,
						"NORMAL":134,
						"TEXCOORD_0":135
					},
					"indices":91,
					"material":17
				}
			]
		},
		{
			"name":"Sail_stay_1",
			"primitives":[
				{
					"attributes":{
						"POSITION":136,
						"NORMAL":137,
						"TEXCOORD_0":138
					},
					"indices":125,
					"material":17
				}
			]
		},
		{
			"name":"Sail_stay_2",
			"primitives":[
				{
					"attributes":{
						"POSITION":139,
						"NORMAL":140,
						"TEXCOORD_0":141
					},
					"indices":142,
					"material":17
				}
			]
		}
	],
	"textures":[
		{
			"sampler":0,
			"source":0
		},
		{
			"sampler":0,
			"source":1
		},
		{
			"sampler":0,
			"source":2
		},
		{
			"sampler":0,
			"source":3
		},
		{
			"sampler":0,
			"source":4
		},
		{
			"sampler":0,
			"source":5
		},
		{
			"sampler":0,
			"source":6
		}
	],
	"images":[
		{
			"mimeType":"image/jpeg",
			"name":"manowar_hull_n",
			"uri":"textures/manowar_hull_n.jpg"
		},
		{
			"mimeType":"image/jpeg",
			"name":"manowar_hull",
			"uri":"textures/manowar_hull.jpg"
		},
		{
			"mimeType":"image/jpeg",
			"name":"deck_n",
			"uri":"textures/deck_n.jpg"
		},
		{
			"mimeType":"image/jpeg",
			"name":"deck",
			"uri":"textures/deck.jpg"
		},
		{
			"mimeType":"image/jpeg",
			"name":"manowar_upper_n",
			"uri":"textures/manowar_upper_n.jpg"
		},
		{
			"mimeType":"image/jpeg",
			"name":"manowar_upper",
			"uri":"textures/manowar_upper.jpg"
		},
		{
			"mimeType":"image/jpeg",
			"name":"manowar_sail",
			"uri":"textures/manowar_sail.jpg"
		}
	],
	"accessors":[
		{
			"bufferView":0,
			"componentType":5126,
			"count":45,
			"max":[
				0.06440079212188721,
				0,
				7.420000076293945
			],
			"min":[
				-0.17260636389255524,
				-4.769999980926514,
				0
			],
			"type":"VEC3"
		},
		{
			"bufferView":1,
			"componentType":5126,
			"count":45,
			"type":"VEC3"
		},
		{
			"bufferView":2,
			"componentType":5126,
			"count":45,
			"type":"VEC2"
		},
		{
			"bufferView":3,
			"componentType":5123,
			"count":192,
			"type":"SCALAR"
		},
		{
			"bufferView":4,
			"componentType":5126,
			"count":5671,
			"max":[
				8.00379753112793,
				9.857999801635742,
				28.885000228881836
			],
			"min":[
				-8.00379753112793,
				-6.982749938964844,
				-28.354999542236328
			],
			"type":"VEC3"
		},
		{
			"bufferView":5,
			"componentType":5126,
			"count":5671,
			"type":"VEC3"
		},
		{
			"bufferView":6,
			"componentType":5126,
			"count":5671,
			"type":"VEC2"
		},
		{
			"bufferView":7,
			"componentType":5123,
			"count":5671,
			"normalized":true,
			"type":"VEC4"
		},
		{
			"bufferView":8,
			"componentType":5123,
			"count":22464,
			"type":"SCALAR"
		},
		{
			"bufferView":9,
			"componentType":5126,
			"count":2522,
			"max":[
				7.2827301025390625,
				18.401599884033203,
				30.211416244506836
			],
			"min":[
				-7.2827301025390625,
				5.751882553100586,
				-28.354999542236328
			],
			"type":"VEC3"
		},
		{
			"bufferView":10,
			"componentType":5126,
			"count":2522,
			"type":"VEC3"
		},
		{
			"bufferView":11,
			"componentType":5126,
			"count":2522,
			"type":"VEC2"
		},
		{
			"bufferView":12,
			"componentType":5123,
			"count":2522,
			"normalized":true,
			"type":"VEC4"
		},
		{
			"bufferView":13,
			"componentType":5123,
			"count":5184,
			"type":"SCALAR"
		},
		{
			"bufferView":14,
			"componentType":5126,
			"count":1136,
			"max":[
				7.2827301025390625,
				19.301599502563477,
				30.351144790649414
			],
			"min":[
				-7.2827301025390625,
				-5.504049777984619,
				-28.626644134521484
			],
			"type":"VEC3"
		},
		{
			"bufferView":15,
			"componentType":5126,
			"count":1136,
			"type":"VEC3"
		},
		{
			"bufferView":16,
			"componentType":5126,
			"count":1136,
			"type":"VEC2"
		},
		{
			"bufferView":17,
			"componentType":5123,
			"count":1136,
			"normalized":true,
			"type":"VEC4"
		},
		{
			"bufferView":18,
			"componentType":5123,
			"count":2790,
			"type":"SCALAR"
		},
		{
			"bufferView":19,
			"componentType":5126,
			"count":6812,
			"max":[
				8.253700256347656,
				18.534648895263672,
				30.228843688964844
			],
			"min":[
				-8.253700256347656,
				-7.550749778747559,
				-30.799264907836914
			],
			"type":"VEC3"
		},
		{
			"bufferView":20,
			"componentType":5126,
			"count":6812,
			"type":"VEC3"
		},
		{
			"bufferView":21,
			"componentType":5126,
			"count":6812,
			"type":"VEC2"
		},
		{
			"bufferView":22,
			"componentType":5123,
			"count":6812,
			"normalized":true,
			"type":"VEC4"
		},
		{
			"bufferView":23,
			"componentType":5123,
			"count":21195,
			"type":"SCALAR"
		},
		{
			"bufferView":24,
			"componentType":5126,
			"count":2064,
			"max":[
				8.090899467468262,
				15.862801551818848,
				18.000001907348633
			],
			"min":[
				-8.090899467468262,
				0.11202510446310043,
				-17.713897705078125
			],
			"type":"VEC3"
		},
		{
			"bufferView":25,
			"componentType":5126,
			"count":2064,
			"type":"VEC3"
		},
		{
			"bufferView":26,
			"componentType":5126,
			"count":2064,
			"type":"VEC2"
		},
		{
			"bufferView":27,
			"componentType":5123,
			"count":2064,
			"normalized":true,
			"type":"VEC4"
		},
		{
			"bufferView":28,
			"componentType":5123,
			"count":3096,
			"type":"SCALAR"
		},
		{
			"bufferView":29,
			"componentType":5126,
			"count":5100,
			"max":[
				6.910708904266357,
				58.85481643676758,
				30.80441665649414
			],
			"min":[
				-6.910708904266357,
				0.7751027941703796,
				-31.349266052246094
			],
			"type":"VEC3"
		},
		{
			"bufferView":30,
			"componentType":5126,
			"count":5100,
			"type":"VEC3"
		},
		{
			"bufferView":31,
			"componentType":5126,
			"count":5100,
			"type":"VEC2"
		},
		{
			"bufferView":32,
			"componentType":5123,
			"count":5100,
			"normalized":true,
			"type":"VEC4"
		},
		{
			"bufferView":33,
			"componentType":5123,
			"count":10824,
			"type":"SCALAR"
		},
		{
			"bufferView":34,
			"componentType":5126,
			"count":2736,
			"max":[
				6.880721092224121,
				19.25160026550293,
				30.25141716003418
			],
			"min":[
				-6.880721092224121,
				9.52877426147461,
				-27.816068649291992
			],
			"type":"VEC3"
		},
		{
			"bufferView":35,
			"componentType":5126,
			"count":2736,
			"type":"VEC3"
		},
		{
			"bufferView":36,
			"componentType":5126,
			"count":2736,
			"type":"VEC2"
		},
		{
			"bufferView":37,
			"componentType":5123,
			"count":2736,
			"normalized":true,
			"type":"VEC4"
		},
		{
			"bufferView":38,
			"componentType":5123,
			"count":4104,
			"type":"SCALAR"
		},
		{
			"bufferView":39,
			"componentType":5126,
			"count":1872,
			"max":[
				8.681890487670898,
				6.675602912902832,
				16.083478927612305
			],
			"min":[
				-8.681890487670898,
				0.7031475901603699,
				-17.28940773010254
			],
			"type":"VEC3"
		},
		{
			"bufferView":40,
			"componentType":5126,
			"count":1872,
			"type":"VEC3"
		},
		{
			"bufferView":41,
			"componentType":5126,
			"count":1872,
			"type":"VEC2"
		},
		{
			"bufferView":42,
			"componentType":5123,
			"count":1872,
			"normalized":true,
			"type":"VEC4"
		},
		{
			"bufferView":43,
			"componentType":5123,
			"count":2808,
			"type":"SCALAR"
		},
		{
			"bufferView":44,
			"componentType":5126,
			"count":2112,
			"max":[
				8.649255752563477,
				6.781999588012695,
				16.034730911254883
			],
			"min":[
				-8.649255752563477,
				0.7089736461639404,
				-17.237140655517578
			],
			"type":"VEC3"
		},
		{
			"bufferView":45,
			"componentType":5126,
			"count":2112,
			"type":"VEC3"
		},
		{
			"bufferView":46,
			"componentType":5126,
			"count":2112,
			"type":"VEC2"
		},
		{
			"bufferView":47,
			"componentType":5123,
			"count":2112,
			"normalized":true,
			"type":"VEC4"
		},
		{
			"bufferView":48,
			"componentType":5123,
			"count":3168,
			"type":"SCALAR"
		},
		{
			"bufferView":49,
			"componentType":5126,
			"count":5839,
			"max":[
				8.750784873962402,
				19.50160026550293,
				30.371416091918945
			],
			"min":[
				-8.750784873962402,
				0.2040669023990631,
				-24.53762435913086
			],
			"type":"VEC3"
		},
		{
			"bufferView":50,
			"componentType":5126,
			"count":5839,
			"type":"VEC3"
		},
		{
			"bufferView":51,
			"componentType":5126,
			"count":5839,
			"type":"VEC2"
		},
		{
			"bufferView":52,
			"componentType":5123,
			"count":5839,
			"normalized":true,
			"type":"VEC4"
		},
		{
			"bufferView":53,
			"componentType":5123,
			"count":11820,
			"type":"SCALAR"
		},
		{
			"bufferView":54,
			"componentType":5126,
			"count":936,
			"max":[
				5.621228218078613,
				16.840749740600586,
				29.938796997070312
			],
			"min":[
				-5.621228218078613,
				8.745689392089844,
				23.569000244140625
			],
			"type":"VEC3"
		},
		{
			"bufferView":55,
			"componentType":5126,
			"count":936,
			"type":"VEC3"
		},
		{
			"bufferView":56,
			"componentType":5126,
			"count":936,
			"type":"VEC2"
		},
		{
			"bufferView":57,
			"componentType":5123,
			"count":936,
			"normalized":true,
			"type":"VEC4"
		},
		{
			"bufferView":58,
			"componentType":5123,
			"count":1404,
			"type":"SCALAR"
		},
		{
			"bufferView":59,
			"componentType":5126,
			"count":120,
			"max":[
				3.479504108428955,
				20.589099884033203,
				30.746416091918945
			],
			"min":[
				-3.479504108428955,
				19.50160026550293,
				29.87641716003418
			],
			"type":"VEC3"
		},
		{
			"bufferView":60,
			"componentType":5126,
			"count":120,
			"type":"VEC3"
		},
		{
			"bufferView":61,
			"componentType":5126,
			"count":120,
			"type":"VEC2"
		},
		{
			"bufferView":62,
			"componentType":5123,
			"count":120,
			"normalized":true,
			"type":"VEC4"
		},
		{
			"bufferView":63,
			"componentType":5123,
			"count":252,
			"type":"SCALAR"
		},
		{
			"bufferView":64,
			"componentType":5126,
			"count":1658,
			"max":[
				16.006000518798828,
				58.580528259277344,
				32.36526107788086
			],
			"min":[
				-16.006000518798828,
				4.287078857421875,
				-42.12493896484375
			],
			"type":"VEC3"
		},
		{
			"bufferView":65,
			"componentType":5126,
			"count":1658,
			"type":"VEC3"
		},
		{
			"bufferView":66,
			"componentType":5126,
			"count":1658,
			"type":"VEC2"
		},
		{
			"bufferView":67,
			"componentType":5123,
			"count":1658,
			"normalized":true,
			"type":"VEC4"
		},
		{
			"bufferView":68,
			"componentType":5123,
			"count":4440,
			"type":"SCALAR"
		},
		{
			"bufferView":69,
			"componentType":5126,
			"count":51,
			"max":[
				2.2008249759674072,
				6.710284233093262,
				8.479999542236328
			],
			"min":[
				-2.2008249759674072,
				5.894063472747803,
				-30.499265670776367
			],
			"type":"VEC3"
		},
		{
			"bufferView":70,
			"componentType":5126,
			"count":51,
			"type":"VEC3"
		},
		{
			"bufferView":71,
			"componentType":5126,
			"count":51,
			"type":"VEC2"
		},
		{
			"bufferView":72,
			"componentType":5123,
			"count":51,
			"normalized":true,
			"type":"VEC4"
		},
		{
			"bufferView":73,
			"componentType":5123,
			"count":75,
			"type":"SCALAR"
		},
		{
			"bufferView":74,
			"componentType":5126,
			"count":2723,
			"max":[
				8.268980979919434,
				48.124202728271484,
				17.88404083251953
			],
			"min":[
				-8.268980979919434,
				5.833861827850342,
				-37.17936706542969
			],
			"type":"VEC3"
		},
		{
			"bufferView":75,
			"componentType":5126,
			"count":2723,
			"type":"VEC3"
		},
		{
			"bufferView":76,
			"componentType":5126,
			"count":2723,
			"type":"VEC2"
		},
		{
			"bufferView":77,
			"componentType":5123,
			"count":2723,
			"normalized":true,
			"type":"VEC4"
		},
		{
			"bufferView":78,
			"componentType":5123,
			"count":6456,
			"type":"SCALAR"
		},
		{
			"bufferView":79,
			"componentType":5126,
			"count":15287,
			"max":[
				15.378972053527832,
				57.99766159057617,
				28.124290466308594
			],
			"min":[
				-15.381658554077148,
				5.954188823699951,
				-42.13090896606445
			],
			"type":"VEC3"
		},
		{
			"bufferView":80,
			"componentType":5126,
			"count":15287,
			"type":"VEC3"
		},
		{
			"bufferView":81,
			"componentType":5126,
			"count":15287,
			"type":"VEC2"
		},
		{
			"bufferView":82,
			"componentType":5123,
			"count":15287,
			"normalized":true,
			"type":"VEC4"
		},
		{
			"bufferView":83,
			"componentType":5123,
			"count":24192,
			"type":"SCALAR"
		},
		{
			"bufferView":84,
			"componentType":5126,
			"count":26,
			"max":[
				0.16424664855003357,
				0,
				10.600000381469727
			],
			"min":[
				-0.1664924919605255,
				-0.6359999775886536,
				0
			],
			"type":"VEC3"
		},
		{
			"bufferView":85,
			"componentType":5126,
			"count":26,
			"type":"VEC3"
		},
		{
			"bufferView":86,
			"componentType":5126,
			"count":26,
			"type":"VEC2"
		},
		{
			"bufferView":87,
			"componentType":5123,
			"count":72,
			"type":"SCALAR"
		},
		{
			"bufferView":88,
			"componentType":5126,
			"count":150,
			"max":[
				16.006000518798828,
				0,
				0
			],
			"min":[
				-16.006000518798828,
				-10.541912078857422,
				-4.036614894866943
			],
			"type":"VEC3"
		},
		{
			"bufferView":89,
			"componentType":5126,
			"count":150,
			"type":"VEC3"
		},
		{
			"bufferView":90,
			"componentType":5126,
			"count":150,
			"type":"VEC2"
		},
		{
			"bufferView":91,
			"componentType":5123,
			"count":756,
			"type":"SCALAR"
		},
		{
			"bufferView":92,
			"componentType":5126,
			"count":150,
			"max":[
				14.405400276184082,
				0,
				0
			],
			"min":[
				-14.405400276184082,
				-10.45025634765625,
				-3.5156002044677734
			],
			"type":"VEC3"
		},
		{
			"bufferView":93,
			"componentType":5126,
			"count":150,
			"type":"VEC3"
		},
		{
			"bufferView":94,
			"componentType":5126,
			"count":150,
			"type":"VEC2"
		},
		{
			"bufferView":95,
			"componentType":5126,
			"count":150,
			"max":[
				12.100536346435547,
				0,
				0
			],
			"min":[
				-12.100536346435547,
				-7.700191974639893,
				-2.8639156818389893
			],
			"type":"VEC3"
		},
		{
			"bufferView":96,
			"componentType":5126,
			"count":150,
			"type":"VEC3"
		},
		{
			"bufferView":97,
			"componentType":5126,
			"count":150,
			"type":"VEC2"
		},
		{
			"bufferView":98,
			"componentType":5126,
			"count":150,
			"max":[
				9.507563591003418,
				0,
				0
			],
			"min":[
				-9.507563591003418,
				-5.86681604385376,
				-2.1747782230377197
			],
			"type":"VEC3"
		},
		{
			"bufferView":99,
			"componentType":5126,
			"count":150,
			"type":"VEC3"
		},
		{
			"bufferView":100,
			"componentType":5126,
			"count":150,
			"type":"VEC2"
		},
		{
			"bufferView":101,
			"componentType":5126,
			"count":150,
			"max":[
				14.725520133972168,
				0,
				0
			],
			"min":[
				-14.725520133972168,
				-11.775540351867676,
				-3.7136857509613037
			],
			"type":"VEC3"
		},
		{
			"bufferView":102,
			"componentType":5126,
			"count":150,
			"type":"VEC3"
		},
		{
			"bufferView":103,
			"componentType":5126,
			"count":150,
			"type":"VEC2"
		},
		{
			"bufferView":104,
			"componentType":5126,
			"count":150,
			"max":[
				13.252967834472656,
				0,
				0
			],
			"min":[
				-13.252967834472656,
				-11.737520217895508,
				-3.2343521118164062
			],
			"type":"VEC3"
		},
		{
			"bufferView":105,
			"componentType":5126,
			"count":150,
			"type":"VEC3"
		},
		{
			"bufferView":106,
			"componentType":5126,
			"count":150,
			"type":"VEC2"
		},
		{
			"bufferView":107,
			"componentType":5126,
			"count":150,
			"max":[
				11.132493019104004,
				0,
				0
			],
			"min":[
				-11.132493019104004,
				-8.665639877319336,
				-2.6348025798797607
			],
			"type":"VEC3"
		},
		{
			"bufferView":108,
			"componentType":5126,
			"count":150,
			"type":"VEC3"
		},
		{
			"bufferView":109,
			"componentType":5126,
			"count":150,
			"type":"VEC2"
		},
		{
			"bufferView":110,
			"componentType":5126,
			"count":150,
			"max":[
				8.74695873260498,
				0,
				0
			],
			"min":[
				-8.74695873260498,
				-6.617720127105713,
				-2.00079607963562
			],
			"type":"VEC3"
		},
		{
			"bufferView":111,
			"componentType":5126,
			"count":150,
			"type":"VEC3"
		},
		{
			"bufferView":112,
			"componentType":5126,
			"count":150,
			"type":"VEC2"
		},
		{
			"bufferView":113,
			"componentType":5126,
			"count":150,
			"max":[
				12.100536346435547,
				0,
				0
			],
			"min":[
				-12.100536346435547,
				-8.577872276306152,
				-2.953104257583618
			],
			"type":"VEC3"
		},
		{
			"bufferView":114,
			"componentType":5126,
			"count":150,
			"type":"VEC3"
		},
		{
			"bufferView":115,
			"componentType":5126,
			"count":150,
			"type":"VEC2"
		},
		{
			"bufferView":116,
			"componentType":5126,
			"count":150,
			"max":[
				10.164450645446777,
				0,
				0
			],
			"min":[
				-10.164450645446777,
				-6.295904159545898,
				-2.405689239501953
			],
			"type":"VEC3"
		},
		{
			"bufferView":117,
			"componentType":5126,
			"count":150,
			"type":"VEC3"
		},
		{
			"bufferView":118,
			"componentType":5126,
			"count":150,
			"type":"VEC2"
		},
		{
			"bufferView":119,
			"componentType":5126,
			"count":150,
			"max":[
				7.986353874206543,
				0,
				0
			],
			"min":[
				-7.986353874206543,
				-4.77459192276001,
				-1.8268136978149414
			],
			"type":"VEC3"
		},
		{
			"bufferView":120,
			"componentType":5126,
			"count":150,
			"type":"VEC3"
		},
		{
			"bufferView":121,
			"componentType":5126,
			"count":150,
			"type":"VEC2"
		},
		{
			"bufferView":122,
			"componentType":5126,
			"count":64,
			"max":[
				28.56928825378418,
				6.67572021484375e-06,
				0.6862574219703674
			],
			"min":[
				0,
				-6.489724159240723,
				-1.1276456117630005
			],
			"type":"VEC3"
		},
		{
			"bufferView":123,
			"componentType":5126,
			"count":64,
			"type":"VEC3"
		},
		{
			"bufferView":124,
			"componentType":5126,
			"count":64,
			"type":"VEC2"
		},
		{
			"bufferView":125,
			"componentType":5123,
			"count":294,
			"type":"SCALAR"
		},
		{
			"bufferView":126,
			"componentType":5126,
			"count":64,
			"max":[
				30.464019775390625,
				1.33514404296875e-05,
				0.6874914169311523
			],
			"min":[
				0,
				-6.939907550811768,
				-1.1296730041503906
			],
			"type":"VEC3"
		},
		{
			"bufferView":127,
			"componentType":5126,
			"count":64,
			"type":"VEC3"
		},
		{
			"bufferView":128,
			"componentType":5126,
			"count":64,
			"type":"VEC2"
		},
		{
			"bufferView":129,
			"componentType":5126,
			"count":81,
			"max":[
				12.196130752563477,
				8.344650268554688e-07,
				0.9320334792137146
			],
			"min":[
				-5.692930698394775,
				-18.249914169311523,
				-0.9128743410110474
			],
			"type":"VEC3"
		},
		{
			"bufferView":130,
			"componentType":5126,
			"count":81,
			"type":"VEC3"
		},
		{
			"bufferView":131,
			"componentType":5126,
			"count":81,
			"type":"VEC2"
		},
		{
			"bufferView":132,
			"componentType":5123,
			"count":384,
			"type":"SCALAR"
		},
		{
			"bufferView":133,
			"componentType":5126,
			"count":150,
			"max":[
				7.602849960327148,
				0,
				0
			],
			"min":[
				-7.602849960327148,
				-6.722519874572754,
				-1.9454818964004517
			],
			"type":"VEC3"
		},
		{
			"bufferView":134,
			"componentType":5126,
			"count":150,
			"type":"VEC3"
		},
		{
			"bufferView":135,
			"componentType":5126,
			"count":150,
			"type":"VEC2"
		},
		{
			"bufferView":136,
			"componentType":5126,
			"count":64,
			"max":[
				17.688657760620117,
				5.7220458984375e-06,
				0.610485315322876
			],
			"min":[
				0,
				-5.934240818023682,
				-1.0031392574310303
			],
			"type":"VEC3"
		},
		{
			"bufferView":137,
			"componentType":5126,
			"count":64,
			"type":"VEC3"
		},
		{
			"bufferView":138,
			"componentType":5126,
			"count":64,
			"type":"VEC2"
		},
		{
			"bufferView":139,
			"componentType":5126,
			"count":64,
			"max":[
				12.896858215332031,
				1.6391277313232422e-06,
				0.42804792523384094
			],
			"min":[
				-9.478632705395285e-07,
				-0.8021209239959717,
				-0.7033641338348389
			],
			"type":"VEC3"
		},
		{
			"bufferView":140,
			"componentType":5126,
			"count":64,
			"type":"VEC3"
		},
		{
			"bufferView":141,
			"componentType":5126,
			"count":64,
			"type":"VEC2"
		},
		{
			"bufferView":142,
			"componentType":5123,
			"count":294,
			"type":"SCALAR"
		}
	],
	"bufferViews":[
		{
			"buffer":0,
			"byteLength":540,
			"byteOffset":0,
			"target":34962
		},
		{
			"buffer":0,
			"byteLength":540,
			"byteOffset":540,
			"target":34962
		},
		{
			"buffer":0,
			"byteLength":360,
			"byteOffset":1080,
			"target":34962
		},
		{
			"buffer":0,
			"byteLength":384,
			"byteOffset":1440,
			"target":34963
		},
		{
			"buffer":0,
			"byteLength":68052,
			"byteOffset":1824,
			"target":34962
		},
		{
			"buffer":0,
			"byteLength":68052,
			"byteOffset":69876,
			"target":34962
		},
		{
			"buffer":0,
			"byteLength":45368,
			"byteOffset":137928,
			"target":34962
		},
		{
			"buffer":0,
			"byteLength":45368,
			"byteOffset":183296,
			"target":34962
		},
		{
			"buffer":0,
			"byteLength":44928,
			"byteOffset":228664,
			"target":34963
		},
		{
			"buffer":0,
			"byteLength":30264,
			"byteOffset":273592,
			"target":34962
		},
		{
			"buffer":0,
			"byteLength":30264,
			"byteOffset":303856,
			"target":34962
		},
		{
			"buffer":0,
			"byteLength":20176,
			"byteOffset":334120,
			"target":34962
		},
		{
			"buffer":0,
			"byteLength":20176,
			"byteOffset":354296,
			"target":34962
		},
		{
			"buffer":0,
			"byteLength":10368,
			"byteOffset":374472,
			"target":34963
		},
		{
			"buffer":0,
			"byteLength":13632,
			"byteOffset":384840,
			"target":34962
		},
		{
			"buffer":0,
			"byteLength":13632,
			"byteOffset":398472,
			"target":34962
		},
		{
			"buffer":0,
			"byteLength":9088,
			"byteOffset":412104,
			"target":34962
		},
		{
			"buffer":0,
			"byteLength":9088,
			"byteOffset":421192,
			"target":34962
		},
		{
			"buffer":0,
			"byteLength":5580,
			"byteOffset":430280,
			"target":34963
		},
		{
			"buffer":0,
			"byteLength":81744,
			"byteOffset":435860,
			"target":34962
		},
		{
			"buffer":0,
			"byteLength":81744,
			"byteOffset":517604,
			"target":34962
		},
		{
			"buffer":0,
			"byteLength":54496,
			"byteOffset":599348,
			"target":34962
		},
		{
			"buffer":0,
			"byteLength":54496,
			"byteOffset":653844,
			"target":34962
		},
		{
			"buffer":0,
			"byteLength":42390,
			"byteOffset":708340,
			"target":34963
		},
		{
			"buffer":0,
			"byteLength":24768,
			"byteOffset":750732,
			"target":34962
		},
		{
			"buffer":0,
			"byteLength":24768,
			"byteOffset":775500,
			"target":34962
		},
		{
			"buffer":0,
			"byteLength":16512,
			"byteOffset":800268,
			"target":34962
		},
		{
			"buffer":0,
			"byteLength":16512,
			"byteOffset":816780,
			"target":34962
		},
		{
			"buffer":0,
			"byteLength":6192,
			"byteOffset":833292,
			"target":34963
		},
		{
			"buffer":0,
			"byteLength":61200,
			"byteOffset":839484,
			"target":34962
		},
		{
			"buffer":0,
			"byteLength":61200,
			"byteOffset":900684,
			"target":34962
		},
		{
			"buffer":0,
			"byteLength":40800,
			"byteOffset":961884,
			"target":34962
		},
		{
			"buffer":0,
			"byteLength":40800,
			"byteOffset":1002684,
			"target":34962
		},
		{
			"buffer":0,
			"byteLength":21648,
			"byteOffset":1043484,
			"target":34963
		},
		{
			"buffer":0,
			"byteLength":32832,
			"byteOffset":1065132,
			"target":34962
		},
		{
			"buffer":0,
			"byteLength":32832,
			"byteOffset":1097964,
			"target":34962
		},
		{
			"buffer":0,
			"byteLength":21888,
			"byteOffset":1130796,
			"target":34962
		},
		{
			"buffer":0,
			"byteLength":21888,
			"byteOffset":1152684,
			"target":34962
		},
		{
			"buffer":0,
			"byteLength":8208,
			"byteOffset":1174572,
			"target":34963
		},
		{
			"buffer":0,
			"byteLength":22464,
			"byteOffset":1182780,
			"target":34962
		},
		{
			"buffer":0,
			"byteLength":22464,
			"byteOffset":1205244,
			"target":34962
		},
		{
			"buffer":0,
			"byteLength":14976,
			"byteOffset":1227708,
			"target":34962
		},
		{
			"buffer":0,
			"byteLength":14976,
			"byteOffset":1242684,
			"target":34962
		},
		{
			"buffer":0,
			"byteLength":5616,
			"byteOffset":1257660,
			"target":34963
		},
		{
			"buffer":0,
			"byteLength":25344,
			"byteOffset":1263276,
			"target":34962
		},
		{
			"buffer":0,
			"byteLength":25344,
			"byteOffset":1288620,
			"target":34962
		},
		{
			"buffer":0,
			"byteLength":16896,
			"byteOffset":1313964,
			"target":34962
		},
		{
			"buffer":0,
			"byteLength":16896,
			"byteOffset":1330860,
			"target":34962
		},
		{
			"buffer":0,
			"byteLength":6336,
			"byteOffset":1347756,
			"target":34963
		},
		{
			"buffer":0,
			"byteLength":70068,
			"byteOffset":1354092,
			"target":34962
		},
		{
			"buffer":0,
			"byteLength":70068,
			"byteOffset":1424160,
			"target":34962
		},
		{
			"buffer":0,
			"byteLength":46712,
			"byteOffset":1494228,
			"target":34962
		},
		{
			"buffer":0,
			"byteLength":46712,
			"byteOffset":1540940,
			"target":34962
		},
		{
			"buffer":0,
			"byteLength":23640,
			"byteOffset":1587652,
			"target":34963
		},
		{
			"buffer":0,
			"byteLength":11232,
			"byteOffset":1611292,
			"target":34962
		},
		{
			"buffer":0,
			"byteLength":11232,
			"byteOffset":1622524,
			"target":34962
		},
		{
			"buffer":0,
			"byteLength":7488,
			"byteOffset":1633756,
			"target":34962
		},
		{
			"buffer":0,
			"byteLength":7488,
			"byteOffset":1641244,
			"target":34962
		},
		{
			"buffer":0,
			"byteLength":2808,
			"byteOffset":1648732,
			"target":34963
		},
		{
			"buffer":0,
			"byteLength":1440,
			"byteOffset":1651540,
			"target":34962
		},
		{
			"buffer":0,
			"byteLength":1440,
			"byteOffset":1652980,
			"target":34962
		},
		{
			"buffer":0,
			"byteLength":960,
			"byteOffset":1654420,
			"target":34962
		},
		{
			"buffer":0,
			"byteLength":960,
			"byteOffset":1655380,
			"target":34962
		},
		{
			"buffer":0,
			"byteLength":504,
			"byteOffset":1656340,
			"target":34963
		},
		{
			"buffer":0,
			"byteLength":19896,
			"byteOffset":1656844,
			"target":34962
		},
		{
			"buffer":0,
			"byteLength":19896,
			"byteOffset":1676740,
			"target":34962
		},
		{
			"buffer":0,
			"byteLength":13264,
			"byteOffset":1696636,
			"target":34962
		},
		{
			"buffer":0,
			"byteLength":13264,
			"byteOffset":1709900,
			"target":34962
		},
		{
			"buffer":0,
			"byteLength":8880,
			"byteOffset":1723164,
			"target":34963
		},
		{
			"buffer":0,
			"byteLength":612,
			"byteOffset":1732044,
			"target":34962
		},
		{
			"buffer":0,
			"byteLength":612,
			"byteOffset":1732656,
			"target":34962
		},
		{
			"buffer":0,
			"byteLength":408,
			"byteOffset":1733268,
			"target":34962
		},
		{
			"buffer":0,
			"byteLength":408,
			"byteOffset":1733676,
			"target":34962
		},
		{
			"buffer":0,
			"byteLength":150,
			"byteOffset":1734084,
			"target":34963
		},
		{
			"buffer":0,
			"byteLength":32676,
			"byteOffset":1734236,
			"target":34962
		},
		{
			"buffer":0,
			"byteLength":32676,
			"byteOffset":1766912,
			"target":34962
		},
		{
			"buffer":0,
			"byteLength":21784,
			"byteOffset":1799588,
			"target":34962
		},
		{
			"buffer":0,
			"byteLength":21784,
			"byteOffset":1821372,
			"target":34962
		},
		{
			"buffer":0,
			"byteLength":12912,
			"byteOffset":1843156,
			"target":34963
		},
		{
			"buffer":0,
			"byteLength":183444,
			"byteOffset":1856068,
			"target":34962
		},
		{
			"buffer":0,
			"byteLength":183444,
			"byteOffset":2039512,
			"target":34962
		},
		{
			"buffer":0,
			"byteLength":122296,
			"byteOffset":2222956,
			"target":34962
		},
		{
			"buffer":0,
			"byteLength":122296,
			"byteOffset":2345252,
			"target":34962
		},
		{
			"buffer":0,
			"byteLength":48384,
			"byteOffset":2467548,
			"target":34963
		},
		{
			"buffer":0,
			"byteLength":312,
			"byteOffset":2515932,
			"target":34962
		},
		{
			"buffer":0,
			"byteLength":312,
			"byteOffset":2516244,
			"target":34962
		},
		{
			"buffer":0,
			"byteLength":208,
			"byteOffset":2516556,
			"target":34962
		},
		{
			"buffer":0,
			"byteLength":144,
			"byteOffset":2516764,
			"target":34963
		},
		{
			"buffer":0,
			"byteLength":1800,
			"byteOffset":2516908,
			"target":34962
		},
		{
			"buffer":0,
			"byteLength":1800,
			"byteOffset":2518708,
			"target":34962
		},
		{
			"buffer":0,
			"byteLength":1200,
			"byteOffset":2520508,
			"target":34962
		},
		{
			"buffer":0,
			"byteLength":1512,
			"byteOffset":2521708,
			"target":34963
		},
		{
			"buffer":0,
			"byteLength":1800,
			"byteOffset":2523220,
			"target":34962
		},
		{
			"buffer":0,
			"byteLength":1800,
			"byteOffset":2525020,
			"target":34962
		},
		{
			"buffer":0,
			"byteLength":1200,
			"byteOffset":2526820,
			"target":34962
		},
		{
			"buffer":0,
			"byteLength":1800,
			"byteOffset":2528020,
			"target":34962
		},
		{
			"buffer":0,
			"byteLength":1800,
			"byteOffset":2529820,
			"target":34962
		},
		{
			"buffer":0,
			"byteLength":1200,
			"byteOffset":2531620,
			"target":34962
		},
		{
			"buffer":0,
			"byteLength":1800,
			"byteOffset":2532820,
			"target":34962
		},
		{
			"buffer":0,
			"byteLength":1800,
			"byteOffset":2534620,
			"target":34962
		},
		{
			"buffer":0,
			"byteLength":1200,
			"byteOffset":2536420,
			"target":34962
		},
		{
			"buffer":0,
			"byteLength":1800,
			"byteOffset":2537620,
			"target":34962
		},
		{
			"buffer":0,
			"byteLength":1800,
			"byteOffset":2539420,
			"target":34962
		},
		{
			"buffer":0,
			"byteLength":1200,
			"byteOffset":2541220,
			"target":34962
		},
		{
			"buffer":0,
			"byteLength":1800,
			"byteOffset":2542420,
			"target":34962
		},
		{
			"buffer":0,
			"byteLength":1800,
			"byteOffset":2544220,
			"target":34962
		},
		{
			"buffer":0,
			"byteLength":1200,
			"byteOffset":2546020,
			"target":34962
		},
		{
			"buffer":0,
			"byteLength":1800,
			"byteOffset":2547220,
			"target":34962
		},
		{
			"buffer":0,
			"byteLength":1800,
			"byteOffset":2549020,
			"target":34962
		},
		{
			"buffer":0,
			"byteLength":1200,
			"byteOffset":2550820,
			"target":34962
		},
		{
			"buffer":0,
			"byteLength":1800,
			"byteOffset":2552020,
			"target":34962
		},
		{
			"buffer":0,
			"byteLength":1800,
			"byteOffset":2553820,
			"target":34962
		},
		{
			"buffer":0,
			"byteLength":1200,
			"byteOffset":2555620,
			"target":34962
		},
		{
			"buffer":0,
			"byteLength":1800,
			"byteOffset":2556820,
			"target":34962
		},
		{
			"buffer":0,
			"byteLength":1800,
			"byteOffset":2558620,
			"target":34962
		},
		{
			"buffer":0,
			"byteLength":1200,
			"byteOffset":2560420,
			"target":34962
		},
		{
			"buffer":0,
			"byteLength":1800,
			"byteOffset":2561620,
			"target":34962
		},
		{
			"buffer":0,
			"byteLength":1800,
			"byteOffset":2563420,
			"target":34962
		},
		{
			"buffer":0,
			"byteLength":1200,
			"byteOffset":2565220,
			"target":34962
		},
		{
			"buffer":0,
			"byteLength":1800,
			"byteOffset":2566420,
			"target":34962
		},
		{
			"buffer":0,
			"byteLength":1800,
			"byteOffset":2568220,
			"target":34962
		},
		{
			"buffer":0,
			"byteLength":1200,
			"byteOffset":2570020,
			"target":34962
		},
		{
			"buffer":0,
			"byteLength":768,
			"byteOffset":2571220,
			"target":34962
		},
		{
			"buffer":0,
			"byteLength":768,
			"byteOffset":2571988,
			"target":34962
		},
		{
			"buffer":0,
			"byteLength":512,
			"byteOffset":2572756,
			"target":34962
		},
		{
			"buffer":0,
			"byteLength":588,
			"byteOffset":2573268,
			"target":34963
		},
		{
			"buffer":0,
			"byteLength":768,
			"byteOffset":2573856,
			"target":34962
		},
		{
			"buffer":0,
			"byteLength":768,
			"byteOffset":2574624,
			"target":34962
		},
		{
			"buffer":0,
			"byteLength":512,
			"byteOffset":2575392,
			"target":34962
		},
		{
			"buffer":0,
			"byteLength":972,
			"byteOffset":2575904,
			"target":34962
		},
		{
			"buffer":0,
			"byteLength":972,
			"byteOffset":2576876,
			"target":34962
		},
		{
			"buffer":0,
			"byteLength":648,
			"byteOffset":2577848,
			"target":34962
		},
		{
			"buffer":0,
			"byteLength":768,
			"byteOffset":2578496,
			"target":34963
		},
		{
			"buffer":0,
			"byteLength":1800,
			"byteOffset":2579264,
			"target":34962
		},
		{
			"buffer":0,
			"byteLength":1800,
			"byteOffset":2581064,
			"target":34962
		},
		{
			"buffer":0,
			"byteLength":1200,
			"byteOffset":2582864,
			"target":34962
		},
		{
			"buffer":0,
			"byteLength":768,
			"byteOffset":2584064,
			"target":34962
		},
		{
			"buffer":0,
			"byteLength":768,
			"byteOffset":2584832,
			"target":34962
		},
		{
			"buffer":0,
			"byteLength":512,
			"byteOffset":2585600,
			"target":34962
		},
		{
			"buffer":0,
			"byteLength":768,
			"byteOffset":2586112,
			"target":34962
		},
		{
			"buffer":0,
			"byteLength":768,
			"byteOffset":2586880,
			"target":34962
		},
		{
			"buffer":0,
			"byteLength":512,
			"byteOffset":2587648,
			"target":34962
		},
		{
			"buffer":0,
			"byteLength":588,
			"byteOffset":2588160,
			"target":34963
		}
	],
	"samplers":[
		{
			"magFilter":9729,
			"minFilter":9987
		}
	],
	"buffers":[
		{
			"byteLength":2588748,
			"uri":"manowar.bin"
		}
	]
}
