{
	"asset":{
		"generator":"Khronos glTF Blender I/O v5.2.40",
		"version":"2.0"
	},
	"scene":0,
	"scenes":[
		{
			"name":"Scene",
			"nodes":[
				0,
				1,
				2,
				3,
				4,
				5,
				6,
				7,
				8,
				9,
				10,
				11,
				12,
				13,
				14,
				15
			]
		}
	],
	"nodes":[
		{
			"mesh":0,
			"name":"Flag",
			"translation":[
				0.046802423894405365,
				14.492488861083984,
				18.824588775634766
			]
		},
		{
			"mesh":1,
			"name":"Pennant",
			"translation":[
				-0.0002388099965173751,
				30.062885284423828,
				1.7500104904174805
			]
		},
		{
			"mesh":2,
			"name":"Sail_0",
			"translation":[
				-0.010332584381103516,
				6.38273811340332,
				-18.401020050048828
			]
		},
		{
			"mesh":3,
			"name":"Sail_1",
			"translation":[
				-0.010922431945800781,
				10.830676078796387,
				-10.564933776855469
			]
		},
		{
			"mesh":4,
			"name":"Sail_2",
			"translation":[
				-0.033793091773986816,
				16.873693466186523,
				-9.75794792175293
			]
		},
		{
			"mesh":5,
			"name":"Sail_3",
			"translation":[
				-0.037429094314575195,
				18.255340576171875,
				-0.4284244775772095
			]
		},
		{
			"mesh":6,
			"name":"Sail_4",
			"translation":[
				-0.028623580932617188,
				24.07848358154297,
				1.5437320470809937
			]
		},
		{
			"mesh":7,
			"name":"Sail_5",
			"translation":[
				0.0046950578689575195,
				17.841516494750977,
				10.229520797729492
			]
		},
		{
			"mesh":8,
			"name":"Sail_6",
			"translation":[
				-0.0035872459411621094,
				12.135991096496582,
				10.409463882446289
			]
		},
		{
			"mesh":9,
			"name":"Sail_7",
			"translation":[
				-0.0040280818939208984,
				21.603199005126953,
				10.607147216796875
			]
		},
		{
			"mesh":10,
			"name":"ship_pinnace_aft"
		},
		{
			"mesh":11,
			"name":"ship_pinnace_deck"
		},
		{
			"mesh":12,
			"name":"ship_pinnace_details"
		},
		{
			"mesh":13,
			"name":"ship_pinnace_hull"
		},
		{
			"mesh":14,
			"name":"ship_pinnace_interior"
		},
		{
			"mesh":15,
			"name":"ship_pinnace_rigging"
		}
	],
	"materials":[
		{
			"doubleSided":true,
			"name":"flag",
			"pbrMetallicRoughness":{
				"baseColorFactor":[
					0.800000011920929,
					0.800000011920929,
					0.800000011920929,
					1
				],
				"metallicFactor":0,
				"roughnessFactor":0.5
			}
		},
		{
			"alphaMode":"MASK",
			"doubleSided":true,
			"name":"ship_pinnace_sails",
			"normalTexture":{
				"index":0
			},
			"pbrMetallicRoughness":{
				"baseColorTexture":{
					"index":1
				},
				"metallicRoughnessTexture":{
					"index":2
				}
			}
		},
		{
			"doubleSided":true,
			"name":"ship_pinnace_aft",
			"normalTexture":{
				"index":3
			},
			"pbrMetallicRoughness":{
				"baseColorTexture":{
					"index":4
				},
				"metallicRoughnessTexture":{
					"index":5
				}
			}
		},
		{
			"doubleSided":true,
			"name":"ship_pinnace_deck",
			"normalTexture":{
				"index":6
			},
			"pbrMetallicRoughness":{
				"baseColorTexture":{
					"index":7
				},
				"metallicFactor":0,
				"metallicRoughnessTexture":{
					"index":8
				}
			}
		},
		{
			"doubleSided":true,
			"name":"ship_pinnace_details",
			"normalTexture":{
				"index":9
			},
			"pbrMetallicRoughness":{
				"baseColorTexture":{
					"index":10
				},
				"metallicRoughnessTexture":{
					"index":11
				}
			}
		},
		{
			"doubleSided":true,
			"name":"ship_pinnace_hull",
			"normalTexture":{
				"index":12
			},
			"pbrMetallicRoughness":{
				"baseColorTexture":{
					"index":13
				},
				"metallicRoughnessTexture":{
					"index":14
				}
			}
		},
		{
			"doubleSided":true,
			"name":"ship_pinnace_interior",
			"normalTexture":{
				"index":15
			},
			"pbrMetallicRoughness":{
				"baseColorTexture":{
					"index":16
				},
				"metallicFactor":0,
				"metallicRoughnessTexture":{
					"index":17
				}
			}
		},
		{
			"doubleSided":true,
			"name":"ship_pinnace_rigging",
			"normalTexture":{
				"index":18
			},
			"pbrMetallicRoughness":{
				"baseColorTexture":{
					"index":19
				},
				"metallicRoughnessTexture":{
					"index":20
				}
			}
		}
	],
	"meshes":[
		{
			"name":"Flag",
			"primitives":[
				{
					"attributes":{
						"POSITION":0,
						"NORMAL":1,
						"TEXCOORD_0":2
					},
					"indices":3,
					"material":0
				}
			]
		},
		{
			"name":"Pennant",
			"primitives":[
				{
					"attributes":{
						"POSITION":4,
						"NORMAL":5,
						"TEXCOORD_0":6
					},
					"indices":7,
					"material":0
				}
			]
		},
		{
			"name":"Plane.006",
			"primitives":[
				{
					"attributes":{
						"POSITION":8,
						"NORMAL":9,
						"TEXCOORD_0":10
					},
					"indices":11,
					"material":1
				}
			]
		},
		{
			"name":"Plane.002",
			"primitives":[
				{
					"attributes":{
						"POSITION":12,
						"NORMAL":13,
						"TEXCOORD_0":14
					},
					"indices":15,
					"material":1
				}
			]
		},
		{
			"name":"Plane.008",
			"primitives":[
				{
					"attributes":{
						"POSITION":16,
						"NORMAL":17,
						"TEXCOORD_0":18
					},
					"indices":19,
					"material":1
				}
			]
		},
		{
			"name":"Plane.001",
			"primitives":[
				{
					"attributes":{
						"POSITION":20,
						"NORMAL":21,
						"TEXCOORD_0":22
					},
					"indices":23,
					"material":1
				}
			]
		},
		{
			"name":"Plane.007",
			"primitives":[
				{
					"attributes":{
						"POSITION":24,
						"NORMAL":25,
						"TEXCOORD_0":26
					},
					"indices":27,
					"material":1
				}
			]
		},
		{
			"name":"Plane.004",
			"primitives":[
				{
					"attributes":{
						"POSITION":28,
						"NORMAL":29,
						"TEXCOORD_0":30
					},
					"indices":31,
					"material":1
				}
			]
		},
		{
			"name":"Plane.005",
			"primitives":[
				{
					"attributes":{
						"POSITION":32,
						"NORMAL":33,
						"TEXCOORD_0":34
					},
					"indices":35,
					"material":1
				}
			]
		},
		{
			"name":"Plane.003",
			"primitives":[
				{
					"attributes":{
						"POSITION":36,
						"NORMAL":37,
						"TEXCOORD_0":38
					},
					"indices":39,
					"material":1
				}
			]
		},
		{
			"name":"Plane.041",
			"primitives":[
				{
					"attributes":{
						"POSITION":40,
						"NORMAL":41,
						"TEXCOORD_0":42,
						"TEXCOORD_1":43
					},
					"indices":44,
					"material":2
				}
			]
		},
		{
			"name":"Plane.057",
			"primitives":[
				{
					"attributes":{
						"POSITION":45,
						"NORMAL":46,
						"TEXCOORD_0":47
					},
					"indices":48,
					"material":3
				}
			]
		},
		{
			"name":"Plane.046",
			"primitives":[
				{
					"attributes":{
						"POSITION":49,
						"NORMAL":50,
						"TEXCOORD_0":51
					},
					"indices":52,
					"material":4
				}
			]
		},
		{
			"name":"Plane.498",
			"primitives":[
				{
					"attributes":{
						"POSITION":53,
						"NORMAL":54,
						"TEXCOORD_0":55
					},
					"indices":56,
					"material":5
				}
			]
		},
		{
			"name":"Plane.043",
			"primitives":[
				{
					"attributes":{
						"POSITION":57,
						"NORMAL":58,
						"TEXCOORD_0":59
					},
					"indices":60,
					"material":6
				}
			]
		},
		{
			"name":"Cylinder.042",
			"primitives":[
				{
					"attributes":{
						"POSITION":61,
						"NORMAL":62,
						"TEXCOORD_0":63
					},
					"indices":64,
					"material":7
				}
			]
		}
	],
	"textures":[
		{
			"sampler":0,
			"source":0
		},
		{
			"sampler":0,
			"source":1
		},
		{
			"sampler":0,
			"source":2
		},
		{
			"sampler":0,
			"source":3
		},
		{
			"sampler":0,
			"source":4
		},
		{
			"sampler":0,
			"source":5
		},
		{
			"sampler":0,
			"source":6
		},
		{
			"sampler":0,
			"source":7
		},
		{
			"sampler":0,
			"source":8
		},
		{
			"sampler":0,
			"source":9
		},
		{
			"sampler":0,
			"source":10
		},
		{
			"sampler":0,
			"source":11
		},
		{
			"sampler":0,
			"source":12
		},
		{
			"sampler":0,
			"source":13
		},
		{
			"sampler":0,
			"source":14
		},
		{
			"sampler":0,
			"source":15
		},
		{
			"sampler":0,
			"source":16
		},
		{
			"sampler":0,
			"source":17
		},
		{
			"sampler":0,
			"source":18
		},
		{
			"sampler":0,
			"source":19
		},
		{
			"sampler":0,
			"source":20
		}
	],
	"images":[
		{
			"mimeType":"image/jpeg",
			"name":"ship_pinnace_sails_nor_gl_2k",
			"uri":"textures/ship_pinnace_sails_nor_gl_2k.jpg"
		},
		{
			"mimeType":"image/png",
			"name":"ship_pinnace_sails_diff_2k",
			"uri":"textures/ship_pinnace_sails_diff_2k.png"
		},
		{
			"mimeType":"image/jpeg",
			"name":"ship_pinnace_sails_arm_2k",
			"uri":"textures/ship_pinnace_sails_arm_2k.jpg"
		},
		{
			"mimeType":"image/jpeg",
			"name":"ship_pinnace_aft_nor_gl_2k",
			"uri":"textures/ship_pinnace_aft_nor_gl_2k.jpg"
		},
		{
			"mimeType":"image/jpeg",
			"name":"ship_pinnace_aft_diff_2k",
			"uri":"textures/ship_pinnace_aft_diff_2k.jpg"
		},
		{
			"mimeType":"image/jpeg",
			"name":"ship_pinnace_aft_arm_2k",
			"uri":"textures/ship_pinnace_aft_arm_2k.jpg"
		},
		{
			"mimeType":"image/jpeg",
			"name":"ship_pinnace_deck_nor_gl_2k",
			"uri":"textures/ship_pinnace_deck_nor_gl_2k.jpg"
		},
		{
			"mimeType":"image/jpeg",
			"name":"ship_pinnace_deck_diff_2k",
			"uri":"textures/ship_pinnace_deck_diff_2k.jpg"
		},
		{
			"mimeType":"image/jpeg",
			"name":"ship_pinnace_deck_arm_2k",
			"uri":"textures/ship_pinnace_deck_arm_2k.jpg"
		},
		{
			"mimeType":"image/jpeg",
			"name":"ship_pinnace_details_nor_gl_2k",
			"uri":"textures/ship_pinnace_details_nor_gl_2k.jpg"
		},
		{
			"mimeType":"image/jpeg",
			"name":"ship_pinnace_details_diff_2k",
			"uri":"textures/ship_pinnace_details_diff_2k.jpg"
		},
		{
			"mimeType":"image/jpeg",
			"name":"ship_pinnace_details_arm_2k",
			"uri":"textures/ship_pinnace_details_arm_2k.jpg"
		},
		{
			"mimeType":"image/jpeg",
			"name":"ship_pinnace_hull_nor_gl_2k",
			"uri":"textures/ship_pinnace_hull_nor_gl_2k.jpg"
		},
		{
			"mimeType":"image/jpeg",
			"name":"ship_pinnace_hull_diff_2k",
			"uri":"textures/ship_pinnace_hull_diff_2k.jpg"
		},
		{
			"mimeType":"image/jpeg",
			"name":"ship_pinnace_hull_arm_2k",
			"uri":"textures/ship_pinnace_hull_arm_2k.jpg"
		},
		{
			"mimeType":"image/jpeg",
			"name":"ship_pinnace_interior_nor_gl_2k",
			"uri":"textures/ship_pinnace_interior_nor_gl_2k.jpg"
		},
		{
			"mimeType":"image/jpeg",
			"name":"ship_pinnace_interior_diff_2k",
			"uri":"textures/ship_pinnace_interior_diff_2k.jpg"
		},
		{
			"mimeType":"image/jpeg",
			"name":"ship_pinnace_interior_arm_2k",
			"uri":"textures/ship_pinnace_interior_arm_2k.jpg"
		},
		{
			"mimeType":"image/jpeg",
			"name":"ship_pinnace_rigging_nor_gl_2k",
			"uri":"textures/ship_pinnace_rigging_nor_gl_2k.jpg"
		},
		{
			"mimeType":"image/jpeg",
			"name":"ship_pinnace_rigging_diff_2k",
			"uri":"textures/ship_pinnace_rigging_diff_2k.jpg"
		},
		{
			"mimeType":"image/jpeg",
			"name":"ship_pinnace_rigging_arm_2k",
			"uri":"textures/ship_pinnace_rigging_arm_2k.jpg"
		}
	],
	"accessors":[
		{
			"bufferView":0,
			"componentType":5126,
			"count":128,
			"max":[
				0.10447829216718674,
				0,
				3.6502063274383545
			],
			"min":[
				-0.28002169728279114,
				-2.3228585720062256,
				0
			],
			"type":"VEC3"
		},
		{
			"bufferView":1,
			"componentType":5126,
			"count":128,
			"type":"VEC3"
		},
		{
			"bufferView":2,
			"componentType":5126,
			"count":128,
			"type":"VEC2"
		},
		{
			"bufferView":3,
			"componentType":5123,
			"count":192,
			"type":"SCALAR"
		},
		{
			"bufferView":4,
			"componentType":5126,
			"count":128,
			"max":[
				0.15196843445301056,
				0,
				5.309391021728516
			],
			"min":[
				-0.4073043167591095,
				-0.39820432662963867,
				0
			],
			"type":"VEC3"
		},
		{
			"bufferView":5,
			"componentType":5126,
			"count":128,
			"type":"VEC3"
		},
		{
			"bufferView":6,
			"componentType":5126,
			"count":128,
			"type":"VEC2"
		},
		{
			"bufferView":7,
			"componentType":5123,
			"count":192,
			"type":"SCALAR"
		},
		{
			"bufferView":8,
			"componentType":5126,
			"count":947,
			"max":[
				3.4899322986602783,
				0,
				0.19311904907226562
			],
			"min":[
				-3.4899322986602783,
				-0.8688969612121582,
				-0.19311904907226562
			],
			"type":"VEC3"
		},
		{
			"bufferView":9,
			"componentType":5126,
			"count":947,
			"type":"VEC3"
		},
		{
			"bufferView":10,
			"componentType":5126,
			"count":947,
			"type":"VEC2"
		},
		{
			"bufferView":11,
			"componentType":5123,
			"count":5196,
			"type":"SCALAR"
		},
		{
			"bufferView":12,
			"componentType":5126,
			"count":791,
			"max":[
				4.050111293792725,
				0,
				1.0980396270751953
			],
			"min":[
				-4.050111293792725,
				-3.3775620460510254,
				-1.0980405807495117
			],
			"type":"VEC3"
		},
		{
			"bufferView":13,
			"componentType":5126,
			"count":791,
			"type":"VEC3"
		},
		{
			"bufferView":14,
			"componentType":5126,
			"count":791,
			"type":"VEC2"
		},
		{
			"bufferView":15,
			"componentType":5123,
			"count":4434,
			"type":"SCALAR"
		},
		{
			"bufferView":16,
			"componentType":5126,
			"count":1283,
			"max":[
				3.4621024131774902,
				0,
				0.19236373901367188
			],
			"min":[
				-3.4621024131774902,
				-1.2708959579467773,
				-0.19236373901367188
			],
			"type":"VEC3"
		},
		{
			"bufferView":17,
			"componentType":5126,
			"count":1283,
			"type":"VEC3"
		},
		{
			"bufferView":18,
			"componentType":5126,
			"count":1283,
			"type":"VEC2"
		},
		{
			"bufferView":19,
			"componentType":5123,
			"count":7272,
			"type":"SCALAR"
		},
		{
			"bufferView":20,
			"componentType":5126,
			"count":691,
			"max":[
				4.3844451904296875,
				0,
				1.7189275026321411
			],
			"min":[
				-4.3844451904296875,
				-6.495661735534668,
				-1.7189275026321411
			],
			"type":"VEC3"
		},
		{
			"bufferView":21,
			"componentType":5126,
			"count":691,
			"type":"VEC3"
		},
		{
			"bufferView":22,
			"componentType":5126,
			"count":691,
			"type":"VEC2"
		},
		{
			"bufferView":23,
			"componentType":5123,
			"count":3822,
			"type":"SCALAR"
		},
		{
			"bufferView":24,
			"componentType":5126,
			"count":1255,
			"max":[
				2.759629964828491,
				0,
				0.23586928844451904
			],
			"min":[
				-2.759629964828491,
				-1.6302242279052734,
				-0.23586928844451904
			],
			"type":"VEC3"
		},
		{
			"bufferView":25,
			"componentType":5126,
			"count":1255,
			"type":"VEC3"
		},
		{
			"bufferView":26,
			"componentType":5126,
			"count":1255,
			"type":"VEC2"
		},
		{
			"bufferView":27,
			"componentType":5123,
			"count":7116,
			"type":"SCALAR"
		},
		{
			"bufferView":28,
			"componentType":5126,
			"count":533,
			"max":[
				3.625669479370117,
				0,
				1.0342674255371094
			],
			"min":[
				-3.625669479370117,
				-4.95562744140625,
				-1.034266471862793
			],
			"type":"VEC3"
		},
		{
			"bufferView":29,
			"componentType":5126,
			"count":533,
			"type":"VEC3"
		},
		{
			"bufferView":30,
			"componentType":5126,
			"count":533,
			"type":"VEC2"
		},
		{
			"bufferView":31,
			"componentType":5123,
			"count":2910,
			"type":"SCALAR"
		},
		{
			"bufferView":32,
			"componentType":5126,
			"count":503,
			"max":[
				3.8911571502685547,
				0,
				0.9156332015991211
			],
			"min":[
				-3.8911571502685547,
				-3.2035388946533203,
				-0.9156322479248047
			],
			"type":"VEC3"
		},
		{
			"bufferView":33,
			"componentType":5126,
			"count":503,
			"type":"VEC3"
		},
		{
			"bufferView":34,
			"componentType":5126,
			"count":503,
			"type":"VEC2"
		},
		{
			"bufferView":35,
			"componentType":5123,
			"count":2724,
			"type":"SCALAR"
		},
		{
			"bufferView":36,
			"componentType":5126,
			"count":465,
			"max":[
				3.0924651622772217,
				0,
				0.8261508941650391
			],
			"min":[
				-3.0924651622772217,
				-3.614480972290039,
				-0.8261508941650391
			],
			"type":"VEC3"
		},
		{
			"bufferView":37,
			"componentType":5126,
			"count":465,
			"type":"VEC3"
		},
		{
			"bufferView":38,
			"componentType":5126,
			"count":465,
			"type":"VEC2"
		},
		{
			"bufferView":39,
			"componentType":5123,
			"count":2526,
			"type":"SCALAR"
		},
		{
			"bufferView":40,
			"componentType":5126,
			"count":33420,
			"max":[
				4.096955299377441,
				9.380546569824219,
				18.146373748779297
			],
			"min":[
				-4.096935749053955,
				1.6550650596618652,
				12.984476089477539
			],
			"type":"VEC3"
		},
		{
			"bufferView":41,
			"componentType":5126,
			"count":33420,
			"type":"VEC3"
		},
		{
			"bufferView":42,
			"componentType":5126,
			"count":33420,
			"type":"VEC2"
		},
		{
			"bufferView":43,
			"componentType":5126,
			"count":33420,
			"type":"VEC2"
		},
		{
			"bufferView":44,
			"componentType":5123,
			"count":96732,
			"type":"SCALAR"
		},
		{
			"bufferView":45,
			"componentType":5126,
			"count":11975,
			"max":[
				4.080398082733154,
				8.989690780639648,
				17.942581176757812
			],
			"min":[
				-4.0804009437561035,
				2.908597469329834,
				-14.431346893310547
			],
			"type":"VEC3"
		},
		{
			"bufferView":46,
			"componentType":5126,
			"count":11975,
			"type":"VEC3"
		},
		{
			"bufferView":47,
			"componentType":5126,
			"count":11975,
			"type":"VEC2"
		},
		{
			"bufferView":48,
			"componentType":5123,
			"count":28086,
			"type":"SCALAR"
		},
		{
			"bufferView":49,
			"componentType":5126,
			"count":23304,
			"max":[
				4.618793964385986,
				10.26850414276123,
				17.78887939453125
			],
			"min":[
				-4.618794918060303,
				1.2266311645507812,
				-17.124927520751953
			],
			"type":"VEC3"
		},
		{
			"bufferView":50,
			"componentType":5126,
			"count":23304,
			"type":"VEC3"
		},
		{
			"bufferView":51,
			"componentType":5126,
			"count":23304,
			"type":"VEC2"
		},
		{
			"bufferView":52,
			"componentType":5123,
			"count":76956,
			"type":"SCALAR"
		},
		{
			"bufferView":53,
			"componentType":5126,
			"count":15731,
			"max":[
				4.5329084396362305,
				7.9250993728637695,
				16.591846466064453
			],
			"min":[
				-4.5329084396362305,
				-2.412184715270996,
				-16.591846466064453
			],
			"type":"VEC3"
		},
		{
			"bufferView":54,
			"componentType":5126,
			"count":15731,
			"type":"VEC3"
		},
		{
			"bufferView":55,
			"componentType":5126,
			"count":15731,
			"type":"VEC2"
		},
		{
			"bufferView":56,
			"componentType":5123,
			"count":50901,
			"type":"SCALAR"
		},
		{
			"bufferView":57,
			"componentType":5126,
			"count":5227,
			"max":[
				4.434971332550049,
				7.932513236999512,
				17.19418716430664
			],
			"min":[
				-4.434970855712891,
				-1.1989402770996094,
				-14.250328063964844
			],
			"type":"VEC3"
		},
		{
			"bufferView":58,
			"componentType":5126,
			"count":5227,
			"type":"VEC3"
		},
		{
			"bufferView":59,
			"componentType":5126,
			"count":5227,
			"type":"VEC2"
		},
		{
			"bufferView":60,
			"componentType":5123,
			"count":18930,
			"type":"SCALAR"
		},
		{
			"bufferView":61,
			"componentType":5126,
			"count":77758,
			"max":[
				4.75060510635376,
				30.162885665893555,
				18.89505386352539
			],
			"min":[
				-4.775965690612793,
				2.693758010864258,
				-20.893917083740234
			],
			"type":"VEC3"
		},
		{
			"bufferView":62,
			"componentType":5126,
			"count":77758,
			"type":"VEC3"
		},
		{
			"bufferView":63,
			"componentType":5126,
			"count":77758,
			"type":"VEC2"
		},
		{
			"bufferView":64,
			"componentType":5125,
			"count":197346,
			"type":"SCALAR"
		}
	],
	"bufferViews":[
		{
			"buffer":0,
			"byteLength":1536,
			"byteOffset":0,
			"target":34962
		},
		{
			"buffer":0,
			"byteLength":1536,
			"byteOffset":1536,
			"target":34962
		},
		{
			"buffer":0,
			"byteLength":1024,
			"byteOffset":3072,
			"target":34962
		},
		{
			"buffer":0,
			"byteLength":384,
			"byteOffset":4096,
			"target":34963
		},
		{
			"buffer":0,
			"byteLength":1536,
			"byteOffset":4480,
			"target":34962
		},
		{
			"buffer":0,
			"byteLength":1536,
			"byteOffset":6016,
			"target":34962
		},
		{
			"buffer":0,
			"byteLength":1024,
			"byteOffset":7552,
			"target":34962
		},
		{
			"buffer":0,
			"byteLength":384,
			"byteOffset":8576,
			"target":34963
		},
		{
			"buffer":0,
			"byteLength":11364,
			"byteOffset":8960,
			"target":34962
		},
		{
			"buffer":0,
			"byteLength":11364,
			"byteOffset":20324,
			"target":34962
		},
		{
			"buffer":0,
			"byteLength":7576,
			"byteOffset":31688,
			"target":34962
		},
		{
			"buffer":0,
			"byteLength":10392,
			"byteOffset":39264,
			"target":34963
		},
		{
			"buffer":0,
			"byteLength":9492,
			"byteOffset":49656,
			"target":34962
		},
		{
			"buffer":0,
			"byteLength":9492,
			"byteOffset":59148,
			"target":34962
		},
		{
			"buffer":0,
			"byteLength":6328,
			"byteOffset":68640,
			"target":34962
		},
		{
			"buffer":0,
			"byteLength":8868,
			"byteOffset":74968,
			"target":34963
		},
		{
			"buffer":0,
			"byteLength":15396,
			"byteOffset":83836,
			"target":34962
		},
		{
			"buffer":0,
			"byteLength":15396,
			"byteOffset":99232,
			"target":34962
		},
		{
			"buffer":0,
			"byteLength":10264,
			"byteOffset":114628,
			"target":34962
		},
		{
			"buffer":0,
			"byteLength":14544,
			"byteOffset":124892,
			"target":34963
		},
		{
			"buffer":0,
			"byteLength":8292,
			"byteOffset":139436,
			"target":34962
		},
		{
			"buffer":0,
			"byteLength":8292,
			"byteOffset":147728,
			"target":34962
		},
		{
			"buffer":0,
			"byteLength":5528,
			"byteOffset":156020,
			"target":34962
		},
		{
			"buffer":0,
			"byteLength":7644,
			"byteOffset":161548,
			"target":34963
		},
		{
			"buffer":0,
			"byteLength":15060,
			"byteOffset":169192,
			"target":34962
		},
		{
			"buffer":0,
			"byteLength":15060,
			"byteOffset":184252,
			"target":34962
		},
		{
			"buffer":0,
			"byteLength":10040,
			"byteOffset":199312,
			"target":34962
		},
		{
			"buffer":0,
			"byteLength":14232,
			"byteOffset":209352,
			"target":34963
		},
		{
			"buffer":0,
			"byteLength":6396,
			"byteOffset":223584,
			"target":34962
		},
		{
			"buffer":0,
			"byteLength":6396,
			"byteOffset":229980,
			"target":34962
		},
		{
			"buffer":0,
			"byteLength":4264,
			"byteOffset":236376,
			"target":34962
		},
		{
			"buffer":0,
			"byteLength":5820,
			"byteOffset":240640,
			"target":34963
		},
		{
			"buffer":0,
			"byteLength":6036,
			"byteOffset":246460,
			"target":34962
		},
		{
			"buffer":0,
			"byteLength":6036,
			"byteOffset":252496,
			"target":34962
		},
		{
			"buffer":0,
			"byteLength":4024,
			"byteOffset":258532,
			"target":34962
		},
		{
			"buffer":0,
			"byteLength":5448,
			"byteOffset":262556,
			"target":34963
		},
		{
			"buffer":0,
			"byteLength":5580,
			"byteOffset":268004,
			"target":34962
		},
		{
			"buffer":0,
			"byteLength":5580,
			"byteOffset":273584,
			"target":34962
		},
		{
			"buffer":0,
			"byteLength":3720,
			"byteOffset":279164,
			"target":34962
		},
		{
			"buffer":0,
			"byteLength":5052,
			"byteOffset":282884,
			"target":34963
		},
		{
			"buffer":0,
			"byteLength":401040,
			"byteOffset":287936,
			"target":34962
		},
		{
			"buffer":0,
			"byteLength":401040,
			"byteOffset":688976,
			"target":34962
		},
		{
			"buffer":0,
			"byteLength":267360,
			"byteOffset":1090016,
			"target":34962
		},
		{
			"buffer":0,
			"byteLength":267360,
			"byteOffset":1357376,
			"target":34962
		},
		{
			"buffer":0,
			"byteLength":193464,
			"byteOffset":1624736,
			"target":34963
		},
		{
			"buffer":0,
			"byteLength":143700,
			"byteOffset":1818200,
			"target":34962
		},
		{
			"buffer":0,
			"byteLength":143700,
			"byteOffset":1961900,
			"target":34962
		},
		{
			"buffer":0,
			"byteLength":95800,
			"byteOffset":2105600,
			"target":34962
		},
		{
			"buffer":0,
			"byteLength":56172,
			"byteOffset":2201400,
			"target":34963
		},
		{
			"buffer":0,
			"byteLength":279648,
			"byteOffset":2257572,
			"target":34962
		},
		{
			"buffer":0,
			"byteLength":279648,
			"byteOffset":2537220,
			"target":34962
		},
		{
			"buffer":0,
			"byteLength":186432,
			"byteOffset":2816868,
			"target":34962
		},
		{
			"buffer":0,
			"byteLength":153912,
			"byteOffset":3003300,
			"target":34963
		},
		{
			"buffer":0,
			"byteLength":188772,
			"byteOffset":3157212,
			"target":34962
		},
		{
			"buffer":0,
			"byteLength":188772,
			"byteOffset":3345984,
			"target":34962
		},
		{
			"buffer":0,
			"byteLength":125848,
			"byteOffset":3534756,
			"target":34962
		},
		{
			"buffer":0,
			"byteLength":101802,
			"byteOffset":3660604,
			"target":34963
		},
		{
			"buffer":0,
			"byteLength":62724,
			"byteOffset":3762408,
			"target":34962
		},
		{
			"buffer":0,
			"byteLength":62724,
			"byteOffset":3825132,
			"target":34962
		},
		{
			"buffer":0,
			"byteLength":41816,
			"byteOffset":3887856,
			"target":34962
		},
		{
			"buffer":0,
			"byteLength":37860,
			"byteOffset":3929672,
			"target":34963
		},
		{
			"buffer":0,
			"byteLength":933096,
			"byteOffset":3967532,
			"target":34962
		},
		{
			"buffer":0,
			"byteLength":933096,
			"byteOffset":4900628,
			"target":34962
		},
		{
			"buffer":0,
			"byteLength":622064,
			"byteOffset":5833724,
			"target":34962
		},
		{
			"buffer":0,
			"byteLength":789384,
			"byteOffset":6455788,
			"target":34963
		}
	],
	"samplers":[
		{
			"magFilter":9729,
			"minFilter":9987
		}
	],
	"buffers":[
		{
			"byteLength":7245172,
			"uri":"ship_pinnace.bin"
		}
	]
}
