{
	"asset":{
		"generator":"Khronos glTF Blender I/O v5.2.40",
		"version":"2.0"
	},
	"extensionsUsed":[
		"KHR_materials_emissive_strength"
	],
	"scene":0,
	"scenes":[
		{
			"name":"Scene",
			"nodes":[
				0,
				1,
				2,
				3,
				4,
				5,
				6,
				7,
				8,
				9,
				10,
				11,
				12,
				13,
				14,
				15,
				16,
				17,
				18,
				19,
				20,
				21,
				22,
				23,
				24,
				25,
				26,
				27,
				28,
				29
			]
		}
	],
	"nodes":[
		{
			"mesh":0,
			"name":"Flag",
			"translation":[
				0,
				9.852399826049805,
				16.638235092163086
			]
		},
		{
			"mesh":1,
			"name":"Hull"
		},
		{
			"name":"Muzzle_P_00",
			"translation":[
				-4.108163356781006,
				1.2878273725509644,
				-8.502334594726562
			]
		},
		{
			"name":"Muzzle_P_01",
			"translation":[
				-4.704626083374023,
				1.2550288438796997,
				-5.656322956085205
			]
		},
		{
			"name":"Muzzle_P_02",
			"translation":[
				-4.780340194702148,
				1.1973068714141846,
				-2.9185314178466797
			]
		},
		{
			"name":"Muzzle_P_03",
			"translation":[
				-4.780447959899902,
				1.2196508646011353,
				-0.2834048271179199
			]
		},
		{
			"name":"Muzzle_P_04",
			"translation":[
				-4.780892372131348,
				1.3153998851776123,
				2.3534297943115234
			]
		},
		{
			"name":"Muzzle_P_05",
			"translation":[
				-4.7815446853637695,
				1.469779133796692,
				4.99091911315918
			]
		},
		{
			"name":"Muzzle_P_06",
			"translation":[
				-4.533434867858887,
				1.6469389200210571,
				7.838305950164795
			]
		},
		{
			"name":"Muzzle_P_07",
			"translation":[
				-4.258995532989502,
				2.999521493911743,
				-4.480000019073486
			]
		},
		{
			"name":"Muzzle_P_08",
			"translation":[
				-4.263347148895264,
				2.9634153842926025,
				-1.306666612625122
			]
		},
		{
			"name":"Muzzle_P_09",
			"translation":[
				-4.263347148895264,
				3.0895352363586426,
				1.8666666746139526
			]
		},
		{
			"name":"Muzzle_S_00",
			"translation":[
				4.108163356781006,
				1.2878273725509644,
				-8.502334594726562
			]
		},
		{
			"name":"Muzzle_S_01",
			"translation":[
				4.704626083374023,
				1.2550288438796997,
				-5.656322956085205
			]
		},
		{
			"name":"Muzzle_S_02",
			"translation":[
				4.780340194702148,
				1.1973068714141846,
				-2.9185314178466797
			]
		},
		{
			"name":"Muzzle_S_03",
			"translation":[
				4.780447959899902,
				1.2196508646011353,
				-0.2834048271179199
			]
		},
		{
			"name":"Muzzle_S_04",
			"translation":[
				4.780892372131348,
				1.3153998851776123,
				2.3534297943115234
			]
		},
		{
			"name":"Muzzle_S_05",
			"translation":[
				4.7815446853637695,
				1.469779133796692,
				4.99091911315918
			]
		},
		{
			"name":"Muzzle_S_06",
			"translation":[
				4.533434867858887,
				1.6469389200210571,
				7.838305950164795
			]
		},
		{
			"name":"Muzzle_S_07",
			"translation":[
				4.258995532989502,
				2.999521493911743,
				-4.480000019073486
			]
		},
		{
			"name":"Muzzle_S_08",
			"translation":[
				4.263347148895264,
				2.9634153842926025,
				-1.306666612625122
			]
		},
		{
			"name":"Muzzle_S_09",
			"translation":[
				4.263347148895264,
				3.0895352363586426,
				1.8666666746139526
			]
		},
		{
			"mesh":2,
			"name":"Pennant",
			"translation":[
				0,
				28.945846557617188,
				3.2449142932891846
			]
		},
		{
			"mesh":3,
			"name":"Sail_0_0_E",
			"rotation":[
				0.026176918298006058,
				0,
				0,
				0.9996573328971863
			],
			"translation":[
				0,
				11.736421585083008,
				-7.311354160308838
			]
		},
		{
			"mesh":4,
			"name":"Sail_0_1",
			"rotation":[
				0.026176918298006058,
				0,
				0,
				0.9996573328971863
			],
			"translation":[
				0,
				18.836437225341797,
				-6.939258098602295
			]
		},
		{
			"mesh":5,
			"name":"Sail_1_0_E",
			"rotation":[
				0.026176918298006058,
				0,
				0,
				0.9996573328971863
			],
			"translation":[
				0,
				12.561810493469238,
				2.7698450088500977
			]
		},
		{
			"mesh":6,
			"name":"Sail_1_1",
			"rotation":[
				0.026176918298006058,
				0,
				0,
				0.9996573328971863
			],
			"translation":[
				0,
				20.279216766357422,
				3.174297332763672
			]
		},
		{
			"mesh":7,
			"name":"Sail_jib_0",
			"rotation":[
				-0.36106523871421814,
				0.6572141051292419,
				-0.26090148091316223,
				0.6079736351966858
			],
			"translation":[
				0,
				17.81391716003418,
				-9.631600379943848
			]
		},
		{
			"mesh":8,
			"name":"Sail_spanker",
			"rotation":[
				-0.15678559243679047,
				-0.6823549866676331,
				0.18545009195804596,
				0.6895057559013367
			],
			"translation":[
				0,
				15.329950332641602,
				3.1499998569488525
			]
		},
		{
			"mesh":9,
			"name":"Sail_stay_1",
			"rotation":[
				-0.2511384189128876,
				0.69364333152771,
				-0.13732782006263733,
				0.6610064506530762
			],
			"translation":[
				0,
				22.699779510498047,
				2.5050206184387207
			]
		}
	],
	"materials":[
		{
			"doubleSided":true,
			"name":"sloop_flag",
			"pbrMetallicRoughness":{
				"metallicFactor":0,
				"roughnessFactor":0.8999999761581421
			}
		},
		{
			"doubleSided":true,
			"name":"sloop_hull",
			"normalTexture":{
				"index":0
			},
			"pbrMetallicRoughness":{
				"baseColorTexture":{
					"index":1
				},
				"metallicFactor":0,
				"roughnessFactor":0.7200000286102295
			}
		},
		{
			"doubleSided":true,
			"name":"sloop_deck",
			"normalTexture":{
				"index":2
			},
			"pbrMetallicRoughness":{
				"baseColorTexture":{
					"index":3
				},
				"metallicFactor":0,
				"roughnessFactor":0.8500000238418579
			}
		},
		{
			"doubleSided":true,
			"name":"sloop_upper",
			"normalTexture":{
				"index":4
			},
			"pbrMetallicRoughness":{
				"baseColorTexture":{
					"index":5
				},
				"metallicFactor":0,
				"roughnessFactor":0.75
			}
		},
		{
			"doubleSided":true,
			"name":"sloop_wale",
			"pbrMetallicRoughness":{
				"baseColorFactor":[
					0.048324037343263626,
					0.02921489253640175,
					0.01308945007622242,
					1
				],
				"metallicFactor":0,
				"roughnessFactor":0.699999988079071
			}
		},
		{
			"doubleSided":true,
			"name":"sloop_trim",
			"pbrMetallicRoughness":{
				"baseColorFactor":[
					0.3593394160270691,
					0.2187901735305786,
					0.0487823523581028,
					1
				],
				"metallicFactor":0.4000000059604645,
				"roughnessFactor":0.44999998807907104
			}
		},
		{
			"doubleSided":true,
			"name":"sloop_rail",
			"pbrMetallicRoughness":{
				"baseColorFactor":[
					0.0423114113509655,
					0.021219009533524513,
					0.008568125776946545,
					1
				],
				"metallicFactor":0,
				"roughnessFactor":0.75
			}
		},
		{
			"doubleSided":true,
			"name":"sloop_dark",
			"pbrMetallicRoughness":{
				"baseColorFactor":[
					0.0036765073891729116,
					0.002428215928375721,
					0.0018211619462817907,
					1
				],
				"metallicFactor":0,
				"roughnessFactor":0.949999988079071
			}
		},
		{
			"doubleSided":true,
			"name":"sloop_lid",
			"pbrMetallicRoughness":{
				"baseColorFactor":[
					0.007396671921014786,
					0.005181516520678997,
					0.003411084646359086,
					1
				],
				"metallicFactor":0,
				"roughnessFactor":0.699999988079071
			}
		},
		{
			"doubleSided":true,
			"name":"sloop_portred",
			"pbrMetallicRoughness":{
				"baseColorFactor":[
					0.07618538290262222,
					0.00802319310605526,
					0.005181516520678997,
					1
				],
				"metallicFactor":0,
				"roughnessFactor":0.8500000238418579
			}
		},
		{
			"doubleSided":true,
			"name":"sloop_iron",
			"pbrMetallicRoughness":{
				"baseColorFactor":[
					0.00802319310605526,
					0.007499032188206911,
					0.006995410192757845,
					1
				],
				"metallicFactor":0.550000011920929,
				"roughnessFactor":0.5
			}
		},
		{
			"doubleSided":true,
			"emissiveFactor":[
				0.11999999731779099,
				0.06624137015101228,
				0.01729541620696895
			],
			"name":"sloop_glass",
			"pbrMetallicRoughness":{
				"baseColorFactor":[
					0.005181516520678997,
					0.00802319310605526,
					0.011612244881689548,
					1
				],
				"metallicFactor":0.30000001192092896,
				"roughnessFactor":0.07999999821186066
			}
		},
		{
			"doubleSided":true,
			"emissiveFactor":[
				1,
				0.4564110338687897,
				0.06847816705703735
			],
			"extensions":{
				"KHR_materials_emissive_strength":{
					"emissiveStrength":5
				}
			},
			"name":"sloop_lantern",
			"pbrMetallicRoughness":{
				"baseColorFactor":[
					1,
					0.7605245113372803,
					0.35153260827064514,
					1
				],
				"metallicFactor":0,
				"roughnessFactor":0.30000001192092896
			}
		},
		{
			"doubleSided":true,
			"name":"sloop_spar",
			"pbrMetallicRoughness":{
				"baseColorFactor":[
					0.04817182570695877,
					0.024157632142305374,
					0.01032982300966978,
					1
				],
				"metallicFactor":0,
				"roughnessFactor":0.699999988079071
			}
		},
		{
			"doubleSided":true,
			"name":"sloop_grating",
			"pbrMetallicRoughness":{
				"baseColorFactor":[
					0.06847816705703735,
					0.03560131415724754,
					0.014443843625485897,
					1
				],
				"metallicFactor":0,
				"roughnessFactor":0.8999999761581421
			}
		},
		{
			"doubleSided":true,
			"name":"sloop_spar_black",
			"pbrMetallicRoughness":{
				"baseColorFactor":[
					0.006995410192757845,
					0.005181516520678997,
					0.0036765073891729116,
					1
				],
				"metallicFactor":0,
				"roughnessFactor":0.699999988079071
			}
		},
		{
			"doubleSided":true,
			"name":"sloop_rope",
			"pbrMetallicRoughness":{
				"baseColorFactor":[
					0.008568125776946545,
					0.006048833020031452,
					0.004024717025458813,
					1
				],
				"metallicFactor":0,
				"roughnessFactor":0.8999999761581421
			}
		},
		{
			"doubleSided":true,
			"name":"sloop_sail",
			"pbrMetallicRoughness":{
				"baseColorTexture":{
					"index":6
				},
				"metallicFactor":0,
				"roughnessFactor":0.949999988079071
			}
		}
	],
	"meshes":[
		{
			"name":"Flag",
			"primitives":[
				{
					"attributes":{
						"POSITION":0,
						"NORMAL":1,
						"TEXCOORD_0":2
					},
					"indices":3,
					"material":0
				}
			]
		},
		{
			"name":"Hull",
			"primitives":[
				{
					"attributes":{
						"POSITION":4,
						"NORMAL":5,
						"TEXCOORD_0":6,
						"COLOR_0":7
					},
					"indices":8,
					"material":1
				},
				{
					"attributes":{
						"POSITION":9,
						"NORMAL":10,
						"TEXCOORD_0":11,
						"COLOR_0":12
					},
					"indices":13,
					"material":2
				},
				{
					"attributes":{
						"POSITION":14,
						"NORMAL":15,
						"TEXCOORD_0":16,
						"COLOR_0":17
					},
					"indices":18,
					"material":3
				},
				{
					"attributes":{
						"POSITION":19,
						"NORMAL":20,
						"TEXCOORD_0":21,
						"COLOR_0":22
					},
					"indices":23,
					"material":4
				},
				{
					"attributes":{
						"POSITION":24,
						"NORMAL":25,
						"TEXCOORD_0":26,
						"COLOR_0":27
					},
					"indices":28,
					"material":5
				},
				{
					"attributes":{
						"POSITION":29,
						"NORMAL":30,
						"TEXCOORD_0":31,
						"COLOR_0":32
					},
					"indices":33,
					"material":6
				},
				{
					"attributes":{
						"POSITION":34,
						"NORMAL":35,
						"TEXCOORD_0":36,
						"COLOR_0":37
					},
					"indices":38,
					"material":7
				},
				{
					"attributes":{
						"POSITION":39,
						"NORMAL":40,
						"TEXCOORD_0":41,
						"COLOR_0":42
					},
					"indices":43,
					"material":8
				},
				{
					"attributes":{
						"POSITION":44,
						"NORMAL":45,
						"TEXCOORD_0":46,
						"COLOR_0":47
					},
					"indices":48,
					"material":9
				},
				{
					"attributes":{
						"POSITION":49,
						"NORMAL":50,
						"TEXCOORD_0":51,
						"COLOR_0":52
					},
					"indices":53,
					"material":10
				},
				{
					"attributes":{
						"POSITION":54,
						"NORMAL":55,
						"TEXCOORD_0":56,
						"COLOR_0":57
					},
					"indices":58,
					"material":11
				},
				{
					"attributes":{
						"POSITION":59,
						"NORMAL":60,
						"TEXCOORD_0":61,
						"COLOR_0":62
					},
					"indices":63,
					"material":12
				},
				{
					"attributes":{
						"POSITION":64,
						"NORMAL":65,
						"TEXCOORD_0":66,
						"COLOR_0":67
					},
					"indices":68,
					"material":13
				},
				{
					"attributes":{
						"POSITION":69,
						"NORMAL":70,
						"TEXCOORD_0":71,
						"COLOR_0":72
					},
					"indices":73,
					"material":14
				},
				{
					"attributes":{
						"POSITION":74,
						"NORMAL":75,
						"TEXCOORD_0":76,
						"COLOR_0":77
					},
					"indices":78,
					"material":15
				},
				{
					"attributes":{
						"POSITION":79,
						"NORMAL":80,
						"TEXCOORD_0":81,
						"COLOR_0":82
					},
					"indices":83,
					"material":16
				}
			]
		},
		{
			"name":"Pennant",
			"primitives":[
				{
					"attributes":{
						"POSITION":84,
						"NORMAL":85,
						"TEXCOORD_0":86
					},
					"indices":87,
					"material":0
				}
			]
		},
		{
			"name":"Sail_0_0_E",
			"primitives":[
				{
					"attributes":{
						"POSITION":88,
						"NORMAL":89,
						"TEXCOORD_0":90
					},
					"indices":91,
					"material":17
				}
			]
		},
		{
			"name":"Sail_0_1",
			"primitives":[
				{
					"attributes":{
						"POSITION":92,
						"NORMAL":93,
						"TEXCOORD_0":94
					},
					"indices":91,
					"material":17
				}
			]
		},
		{
			"name":"Sail_1_0_E",
			"primitives":[
				{
					"attributes":{
						"POSITION":95,
						"NORMAL":96,
						"TEXCOORD_0":97
					},
					"indices":91,
					"material":17
				}
			]
		},
		{
			"name":"Sail_1_1",
			"primitives":[
				{
					"attributes":{
						"POSITION":98,
						"NORMAL":99,
						"TEXCOORD_0":100
					},
					"indices":91,
					"material":17
				}
			]
		},
		{
			"name":"Sail_jib_0",
			"primitives":[
				{
					"attributes":{
						"POSITION":101,
						"NORMAL":102,
						"TEXCOORD_0":103
					},
					"indices":104,
					"material":17
				}
			]
		},
		{
			"name":"Sail_spanker",
			"primitives":[
				{
					"attributes":{
						"POSITION":105,
						"NORMAL":106,
						"TEXCOORD_0":107
					},
					"indices":108,
					"material":17
				}
			]
		},
		{
			"name":"Sail_stay_1",
			"primitives":[
				{
					"attributes":{
						"POSITION":109,
						"NORMAL":110,
						"TEXCOORD_0":111
					},
					"indices":104,
					"material":17
				}
			]
		}
	],
	"textures":[
		{
			"sampler":0,
			"source":0
		},
		{
			"sampler":0,
			"source":1
		},
		{
			"sampler":0,
			"source":2
		},
		{
			"sampler":0,
			"source":3
		},
		{
			"sampler":0,
			"source":4
		},
		{
			"sampler":0,
			"source":5
		},
		{
			"sampler":0,
			"source":6
		}
	],
	"images":[
		{
			"mimeType":"image/jpeg",
			"name":"sloop_hull_n",
			"uri":"textures/sloop_hull_n.jpg"
		},
		{
			"mimeType":"image/jpeg",
			"name":"sloop_hull",
			"uri":"textures/sloop_hull.jpg"
		},
		{
			"mimeType":"image/jpeg",
			"name":"deck_n",
			"uri":"textures/deck_n.jpg"
		},
		{
			"mimeType":"image/jpeg",
			"name":"deck",
			"uri":"textures/deck.jpg"
		},
		{
			"mimeType":"image/jpeg",
			"name":"sloop_upper_n",
			"uri":"textures/sloop_upper_n.jpg"
		},
		{
			"mimeType":"image/jpeg",
			"name":"sloop_upper",
			"uri":"textures/sloop_upper.jpg"
		},
		{
			"mimeType":"image/jpeg",
			"name":"sloop_sail",
			"uri":"textures/sloop_sail.jpg"
		}
	],
	"accessors":[
		{
			"bufferView":0,
			"componentType":5126,
			"count":45,
			"max":[
				0.06440079212188721,
				0,
				3.9200000762939453
			],
			"min":[
				-0.17260636389255524,
				-2.5199999809265137,
				0
			],
			"type":"VEC3"
		},
		{
			"bufferView":1,
			"componentType":5126,
			"count":45,
			"type":"VEC3"
		},
		{
			"bufferView":2,
			"componentType":5126,
			"count":45,
			"type":"VEC2"
		},
		{
			"bufferView":3,
			"componentType":5123,
			"count":192,
			"type":"SCALAR"
		},
		{
			"bufferView":4,
			"componentType":5126,
			"count":6200,
			"max":[
				3.8363821506500244,
				3.864000082015991,
				15.260000228881836
			],
			"min":[
				-3.8363821506500244,
				-2.736999988555908,
				-14.979999542236328
			],
			"type":"VEC3"
		},
		{
			"bufferView":5,
			"componentType":5126,
			"count":6200,
			"type":"VEC3"
		},
		{
			"bufferView":6,
			"componentType":5126,
			"count":6200,
			"type":"VEC2"
		},
		{
			"bufferView":7,
			"componentType":5123,
			"count":6200,
			"normalized":true,
			"type":"VEC4"
		},
		{
			"bufferView":8,
			"componentType":5123,
			"count":22464,
			"type":"SCALAR"
		},
		{
			"bufferView":9,
			"componentType":5126,
			"count":2162,
			"max":[
				3.490760087966919,
				4.572400093078613,
				15.408235549926758
			],
			"min":[
				-3.490760087966919,
				2.2545418739318848,
				-14.979999542236328
			],
			"type":"VEC3"
		},
		{
			"bufferView":10,
			"componentType":5126,
			"count":2162,
			"type":"VEC3"
		},
		{
			"bufferView":11,
			"componentType":5126,
			"count":2162,
			"type":"VEC2"
		},
		{
			"bufferView":12,
			"componentType":5123,
			"count":2162,
			"normalized":true,
			"type":"VEC4"
		},
		{
			"bufferView":13,
			"componentType":5123,
			"count":4032,
			"type":"SCALAR"
		},
		{
			"bufferView":14,
			"componentType":5126,
			"count":815,
			"max":[
				3.490760087966919,
				5.356400012969971,
				15.572290420532227
			],
			"min":[
				-3.490760087966919,
				-2.157399892807007,
				-15.17446517944336
			],
			"type":"VEC3"
		},
		{
			"bufferView":15,
			"componentType":5126,
			"count":815,
			"type":"VEC3"
		},
		{
			"bufferView":16,
			"componentType":5126,
			"count":815,
			"type":"VEC2"
		},
		{
			"bufferView":17,
			"componentType":5123,
			"count":815,
			"normalized":true,
			"type":"VEC4"
		},
		{
			"bufferView":18,
			"componentType":5123,
			"count":2190,
			"type":"SCALAR"
		},
		{
			"bufferView":19,
			"componentType":5126,
			"count":4167,
			"max":[
				4.471235752105713,
				4.782642364501953,
				15.437342643737793
			],
			"min":[
				-4.471235752105713,
				-3.305000066757202,
				-16.392303466796875
			],
			"type":"VEC3"
		},
		{
			"bufferView":20,
			"componentType":5126,
			"count":4167,
			"type":"VEC3"
		},
		{
			"bufferView":21,
			"componentType":5126,
			"count":4167,
			"type":"VEC2"
		},
		{
			"bufferView":22,
			"componentType":5123,
			"count":4167,
			"normalized":true,
			"type":"VEC4"
		},
		{
			"bufferView":23,
			"componentType":5123,
			"count":12768,
			"type":"SCALAR"
		},
		{
			"bufferView":24,
			"componentType":5126,
			"count":1242,
			"max":[
				2.9922757148742676,
				29.275680541992188,
				15.848236083984375
			],
			"min":[
				-2.9922757148742676,
				0.7710005044937134,
				-16.942304611206055
			],
			"type":"VEC3"
		},
		{
			"bufferView":25,
			"componentType":5126,
			"count":1242,
			"type":"VEC3"
		},
		{
			"bufferView":26,
			"componentType":5126,
			"count":1242,
			"type":"VEC2"
		},
		{
			"bufferView":27,
			"componentType":5123,
			"count":1242,
			"normalized":true,
			"type":"VEC4"
		},
		{
			"bufferView":28,
			"componentType":5123,
			"count":2628,
			"type":"SCALAR"
		},
		{
			"bufferView":29,
			"componentType":5126,
			"count":1072,
			"max":[
				3.182030200958252,
				5.492400169372559,
				15.478235244750977
			],
			"min":[
				-3.182030200958252,
				1.8469038009643555,
				-16.08177375793457
			],
			"type":"VEC3"
		},
		{
			"bufferView":30,
			"componentType":5126,
			"count":1072,
			"type":"VEC3"
		},
		{
			"bufferView":31,
			"componentType":5126,
			"count":1072,
			"type":"VEC2"
		},
		{
			"bufferView":32,
			"componentType":5123,
			"count":1072,
			"normalized":true,
			"type":"VEC4"
		},
		{
			"bufferView":33,
			"componentType":5123,
			"count":2148,
			"type":"SCALAR"
		},
		{
			"bufferView":34,
			"componentType":5126,
			"count":360,
			"max":[
				3.919227123260498,
				2.5789999961853027,
				8.013192176818848
			],
			"min":[
				-3.919227123260498,
				0.7346057295799255,
				-8.567048072814941
			],
			"type":"VEC3"
		},
		{
			"bufferView":35,
			"componentType":5126,
			"count":360,
			"type":"VEC3"
		},
		{
			"bufferView":36,
			"componentType":5126,
			"count":360,
			"type":"VEC2"
		},
		{
			"bufferView":37,
			"componentType":5123,
			"count":360,
			"normalized":true,
			"type":"VEC4"
		},
		{
			"bufferView":38,
			"componentType":5123,
			"count":540,
			"type":"SCALAR"
		},
		{
			"bufferView":39,
			"componentType":5126,
			"count":336,
			"max":[
				4.437356472015381,
				2.415741205215454,
				8.068159103393555
			],
			"min":[
				-4.437356472015381,
				1.4165282249450684,
				-8.729079246520996
			],
			"type":"VEC3"
		},
		{
			"bufferView":40,
			"componentType":5126,
			"count":336,
			"type":"VEC3"
		},
		{
			"bufferView":41,
			"componentType":5126,
			"count":336,
			"type":"VEC2"
		},
		{
			"bufferView":42,
			"componentType":5123,
			"count":336,
			"normalized":true,
			"type":"VEC4"
		},
		{
			"bufferView":43,
			"componentType":5123,
			"count":504,
			"type":"SCALAR"
		},
		{
			"bufferView":44,
			"componentType":5126,
			"count":480,
			"max":[
				4.405669212341309,
				2.8595352172851562,
				8.016496658325195
			],
			"min":[
				-4.405669212341309,
				1.433915615081787,
				-8.673331260681152
			],
			"type":"VEC3"
		},
		{
			"bufferView":45,
			"componentType":5126,
			"count":480,
			"type":"VEC3"
		},
		{
			"bufferView":46,
			"componentType":5126,
			"count":480,
			"type":"VEC2"
		},
		{
			"bufferView":47,
			"componentType":5123,
			"count":480,
			"normalized":true,
			"type":"VEC4"
		},
		{
			"bufferView":48,
			"componentType":5123,
			"count":720,
			"type":"SCALAR"
		},
		{
			"bufferView":49,
			"componentType":5126,
			"count":1463,
			"max":[
				4.556694030761719,
				5.672399997711182,
				15.568236351013184
			],
			"min":[
				-4.556694030761719,
				0.7690591216087341,
				-13.54685115814209
			],
			"type":"VEC3"
		},
		{
			"bufferView":50,
			"componentType":5126,
			"count":1463,
			"type":"VEC3"
		},
		{
			"bufferView":51,
			"componentType":5126,
			"count":1463,
			"type":"VEC2"
		},
		{
			"bufferView":52,
			"componentType":5123,
			"count":1463,
			"normalized":true,
			"type":"VEC4"
		},
		{
			"bufferView":53,
			"componentType":5123,
			"count":2916,
			"type":"SCALAR"
		},
		{
			"bufferView":54,
			"componentType":5126,
			"count":120,
			"max":[
				1.7670786380767822,
				3.960599899291992,
				15.316096305847168
			],
			"min":[
				-1.7670786380767822,
				3.252200126647949,
				15.256096839904785
			],
			"type":"VEC3"
		},
		{
			"bufferView":55,
			"componentType":5126,
			"count":120,
			"type":"VEC3"
		},
		{
			"bufferView":56,
			"componentType":5126,
			"count":120,
			"type":"VEC2"
		},
		{
			"bufferView":57,
			"componentType":5123,
			"count":120,
			"normalized":true,
			"type":"VEC4"
		},
		{
			"bufferView":58,
			"componentType":5123,
			"count":180,
			"type":"SCALAR"
		},
		{
			"bufferView":59,
			"componentType":5126,
			"count":40,
			"max":[
				0.30000001192092896,
				6.422399997711182,
				15.808236122131348
			],
			"min":[
				-0.30000001192092896,
				5.672399997711182,
				15.208235740661621
			],
			"type":"VEC3"
		},
		{
			"bufferView":60,
			"componentType":5126,
			"count":40,
			"type":"VEC3"
		},
		{
			"bufferView":61,
			"componentType":5126,
			"count":40,
			"type":"VEC2"
		},
		{
			"bufferView":62,
			"componentType":5123,
			"count":40,
			"normalized":true,
			"type":"VEC4"
		},
		{
			"bufferView":63,
			"componentType":5123,
			"count":84,
			"type":"SCALAR"
		},
		{
			"bufferView":64,
			"componentType":5126,
			"count":964,
			"max":[
				7.671999931335449,
				28.998777389526367,
				16.68708038330078
			],
			"min":[
				-7.671999931335449,
				0.9336882829666138,
				-22.327524185180664
			],
			"type":"VEC3"
		},
		{
			"bufferView":65,
			"componentType":5126,
			"count":964,
			"type":"VEC3"
		},
		{
			"bufferView":66,
			"componentType":5126,
			"count":964,
			"type":"VEC2"
		},
		{
			"bufferView":67,
			"componentType":5123,
			"count":964,
			"normalized":true,
			"type":"VEC4"
		},
		{
			"bufferView":68,
			"componentType":5123,
			"count":2472,
			"type":"SCALAR"
		},
		{
			"bufferView":69,
			"componentType":5126,
			"count":24,
			"max":[
				1.054900050163269,
				2.55400013923645,
				-1.4000000953674316
			],
			"min":[
				-1.054900050163269,
				2.253999948501587,
				-3.0799999237060547
			],
			"type":"VEC3"
		},
		{
			"bufferView":70,
			"componentType":5126,
			"count":24,
			"type":"VEC3"
		},
		{
			"bufferView":71,
			"componentType":5126,
			"count":24,
			"type":"VEC2"
		},
		{
			"bufferView":72,
			"componentType":5123,
			"count":24,
			"normalized":true,
			"type":"VEC4"
		},
		{
			"bufferView":73,
			"componentType":5123,
			"count":36,
			"type":"SCALAR"
		},
		{
			"bufferView":74,
			"componentType":5126,
			"count":1839,
			"max":[
				4.484316825866699,
				23.36577796936035,
				6.079999923706055
			],
			"min":[
				-4.484316825866699,
				2.457502841949463,
				-19.660390853881836
			],
			"type":"VEC3"
		},
		{
			"bufferView":75,
			"componentType":5126,
			"count":1839,
			"type":"VEC3"
		},
		{
			"bufferView":76,
			"componentType":5126,
			"count":1839,
			"type":"VEC2"
		},
		{
			"bufferView":77,
			"componentType":5123,
			"count":1839,
			"normalized":true,
			"type":"VEC4"
		},
		{
			"bufferView":78,
			"componentType":5123,
			"count":4368,
			"type":"SCALAR"
		},
		{
			"bufferView":79,
			"componentType":5126,
			"count":5399,
			"max":[
				7.380787372589111,
				28.420547485351562,
				14.393596649169922
			],
			"min":[
				-7.3830647468566895,
				2.5279324054718018,
				-22.337942123413086
			],
			"type":"VEC3"
		},
		{
			"bufferView":80,
			"componentType":5126,
			"count":5399,
			"type":"VEC3"
		},
		{
			"bufferView":81,
			"componentType":5126,
			"count":5399,
			"type":"VEC2"
		},
		{
			"bufferView":82,
			"componentType":5123,
			"count":5399,
			"normalized":true,
			"type":"VEC4"
		},
		{
			"bufferView":83,
			"componentType":5123,
			"count":8724,
			"type":"SCALAR"
		},
		{
			"bufferView":84,
			"componentType":5126,
			"count":26,
			"max":[
				0.16424664855003357,
				0,
				5.599999904632568
			],
			"min":[
				-0.1664924919605255,
				-0.335999995470047,
				0
			],
			"type":"VEC3"
		},
		{
			"bufferView":85,
			"componentType":5126,
			"count":26,
			"type":"VEC3"
		},
		{
			"bufferView":86,
			"componentType":5126,
			"count":26,
			"type":"VEC2"
		},
		{
			"bufferView":87,
			"componentType":5123,
			"count":72,
			"type":"SCALAR"
		},
		{
			"bufferView":88,
			"componentType":5126,
			"count":150,
			"max":[
				7.671999931335449,
				0,
				0
			],
			"min":[
				-7.671999931335449,
				-6.398784160614014,
				-1.9348312616348267
			],
			"type":"VEC3"
		},
		{
			"bufferView":89,
			"componentType":5126,
			"count":150,
			"type":"VEC3"
		},
		{
			"bufferView":90,
			"componentType":5126,
			"count":150,
			"type":"VEC2"
		},
		{
			"bufferView":91,
			"componentType":5123,
			"count":756,
			"type":"SCALAR"
		},
		{
			"bufferView":92,
			"componentType":5126,
			"count":150,
			"max":[
				6.904799938201904,
				0,
				0
			],
			"min":[
				-6.904799938201904,
				-6.559760093688965,
				-1.6100987195968628
			],
			"type":"VEC3"
		},
		{
			"bufferView":93,
			"componentType":5126,
			"count":150,
			"type":"VEC3"
		},
		{
			"bufferView":94,
			"componentType":5126,
			"count":150,
			"type":"VEC2"
		},
		{
			"bufferView":95,
			"componentType":5126,
			"count":150,
			"max":[
				7.058239936828613,
				0,
				0
			],
			"min":[
				-7.058239936828613,
				-6.9552001953125,
				-1.7800447940826416
			],
			"type":"VEC3"
		},
		{
			"bufferView":96,
			"componentType":5126,
			"count":150,
			"type":"VEC3"
		},
		{
			"bufferView":97,
			"componentType":5126,
			"count":150,
			"type":"VEC2"
		},
		{
			"bufferView":98,
			"componentType":5126,
			"count":150,
			"max":[
				6.352416038513184,
				0,
				0
			],
			"min":[
				-6.352416038513184,
				-7.177999973297119,
				-1.4812908172607422
			],
			"type":"VEC3"
		},
		{
			"bufferView":99,
			"componentType":5126,
			"count":150,
			"type":"VEC3"
		},
		{
			"bufferView":100,
			"componentType":5126,
			"count":150,
			"type":"VEC2"
		},
		{
			"bufferView":101,
			"componentType":5126,
			"count":64,
			"max":[
				15.694256782531738,
				1.049041748046875e-05,
				0.3633993864059448
			],
			"min":[
				0,
				-3.7475948333740234,
				-0.5971311926841736
			],
			"type":"VEC3"
		},
		{
			"bufferView":102,
			"componentType":5126,
			"count":64,
			"type":"VEC3"
		},
		{
			"bufferView":103,
			"componentType":5126,
			"count":64,
			"type":"VEC2"
		},
		{
			"bufferView":104,
			"componentType":5123,
			"count":294,
			"type":"SCALAR"
		},
		{
			"bufferView":105,
			"componentType":5126,
			"count":81,
			"max":[
				6.581156253814697,
				9.5367431640625e-07,
				0.49293696880340576
			],
			"min":[
				-4.839836597442627,
				-11.790639877319336,
				-0.48248034715652466
			],
			"type":"VEC3"
		},
		{
			"bufferView":106,
			"componentType":5126,
			"count":81,
			"type":"VEC3"
		},
		{
			"bufferView":107,
			"componentType":5126,
			"count":81,
			"type":"VEC2"
		},
		{
			"bufferView":108,
			"componentType":5123,
			"count":384,
			"type":"SCALAR"
		},
		{
			"bufferView":109,
			"componentType":5126,
			"count":64,
			"max":[
				9.96571159362793,
				4.172325134277344e-07,
				0.3225111663341522
			],
			"min":[
				0,
				-3.131622552871704,
				-0.5299447178840637
			],
			"type":"VEC3"
		},
		{
			"bufferView":110,
			"componentType":5126,
			"count":64,
			"type":"VEC3"
		},
		{
			"bufferView":111,
			"componentType":5126,
			"count":64,
			"type":"VEC2"
		}
	],
	"bufferViews":[
		{
			"buffer":0,
			"byteLength":540,
			"byteOffset":0,
			"target":34962
		},
		{
			"buffer":0,
			"byteLength":540,
			"byteOffset":540,
			"target":34962
		},
		{
			"buffer":0,
			"byteLength":360,
			"byteOffset":1080,
			"target":34962
		},
		{
			"buffer":0,
			"byteLength":384,
			"byteOffset":1440,
			"target":34963
		},
		{
			"buffer":0,
			"byteLength":74400,
			"byteOffset":1824,
			"target":34962
		},
		{
			"buffer":0,
			"byteLength":74400,
			"byteOffset":76224,
			"target":34962
		},
		{
			"buffer":0,
			"byteLength":49600,
			"byteOffset":150624,
			"target":34962
		},
		{
			"buffer":0,
			"byteLength":49600,
			"byteOffset":200224,
			"target":34962
		},
		{
			"buffer":0,
			"byteLength":44928,
			"byteOffset":249824,
			"target":34963
		},
		{
			"buffer":0,
			"byteLength":25944,
			"byteOffset":294752,
			"target":34962
		},
		{
			"buffer":0,
			"byteLength":25944,
			"byteOffset":320696,
			"target":34962
		},
		{
			"buffer":0,
			"byteLength":17296,
			"byteOffset":346640,
			"target":34962
		},
		{
			"buffer":0,
			"byteLength":17296,
			"byteOffset":363936,
			"target":34962
		},
		{
			"buffer":0,
			"byteLength":8064,
			"byteOffset":381232,
			"target":34963
		},
		{
			"buffer":0,
			"byteLength":9780,
			"byteOffset":389296,
			"target":34962
		},
		{
			"buffer":0,
			"byteLength":9780,
			"byteOffset":399076,
			"target":34962
		},
		{
			"buffer":0,
			"byteLength":6520,
			"byteOffset":408856,
			"target":34962
		},
		{
			"buffer":0,
			"byteLength":6520,
			"byteOffset":415376,
			"target":34962
		},
		{
			"buffer":0,
			"byteLength":4380,
			"byteOffset":421896,
			"target":34963
		},
		{
			"buffer":0,
			"byteLength":50004,
			"byteOffset":426276,
			"target":34962
		},
		{
			"buffer":0,
			"byteLength":50004,
			"byteOffset":476280,
			"target":34962
		},
		{
			"buffer":0,
			"byteLength":33336,
			"byteOffset":526284,
			"target":34962
		},
		{
			"buffer":0,
			"byteLength":33336,
			"byteOffset":559620,
			"target":34962
		},
		{
			"buffer":0,
			"byteLength":25536,
			"byteOffset":592956,
			"target":34963
		},
		{
			"buffer":0,
			"byteLength":14904,
			"byteOffset":618492,
			"target":34962
		},
		{
			"buffer":0,
			"byteLength":14904,
			"byteOffset":633396,
			"target":34962
		},
		{
			"buffer":0,
			"byteLength":9936,
			"byteOffset":648300,
			"target":34962
		},
		{
			"buffer":0,
			"byteLength":9936,
			"byteOffset":658236,
			"target":34962
		},
		{
			"buffer":0,
			"byteLength":5256,
			"byteOffset":668172,
			"target":34963
		},
		{
			"buffer":0,
			"byteLength":12864,
			"byteOffset":673428,
			"target":34962
		},
		{
			"buffer":0,
			"byteLength":12864,
			"byteOffset":686292,
			"target":34962
		},
		{
			"buffer":0,
			"byteLength":8576,
			"byteOffset":699156,
			"target":34962
		},
		{
			"buffer":0,
			"byteLength":8576,
			"byteOffset":707732,
			"target":34962
		},
		{
			"buffer":0,
			"byteLength":4296,
			"byteOffset":716308,
			"target":34963
		},
		{
			"buffer":0,
			"byteLength":4320,
			"byteOffset":720604,
			"target":34962
		},
		{
			"buffer":0,
			"byteLength":4320,
			"byteOffset":724924,
			"target":34962
		},
		{
			"buffer":0,
			"byteLength":2880,
			"byteOffset":729244,
			"target":34962
		},
		{
			"buffer":0,
			"byteLength":2880,
			"byteOffset":732124,
			"target":34962
		},
		{
			"buffer":0,
			"byteLength":1080,
			"byteOffset":735004,
			"target":34963
		},
		{
			"buffer":0,
			"byteLength":4032,
			"byteOffset":736084,
			"target":34962
		},
		{
			"buffer":0,
			"byteLength":4032,
			"byteOffset":740116,
			"target":34962
		},
		{
			"buffer":0,
			"byteLength":2688,
			"byteOffset":744148,
			"target":34962
		},
		{
			"buffer":0,
			"byteLength":2688,
			"byteOffset":746836,
			"target":34962
		},
		{
			"buffer":0,
			"byteLength":1008,
			"byteOffset":749524,
			"target":34963
		},
		{
			"buffer":0,
			"byteLength":5760,
			"byteOffset":750532,
			"target":34962
		},
		{
			"buffer":0,
			"byteLength":5760,
			"byteOffset":756292,
			"target":34962
		},
		{
			"buffer":0,
			"byteLength":3840,
			"byteOffset":762052,
			"target":34962
		},
		{
			"buffer":0,
			"byteLength":3840,
			"byteOffset":765892,
			"target":34962
		},
		{
			"buffer":0,
			"byteLength":1440,
			"byteOffset":769732,
			"target":34963
		},
		{
			"buffer":0,
			"byteLength":17556,
			"byteOffset":771172,
			"target":34962
		},
		{
			"buffer":0,
			"byteLength":17556,
			"byteOffset":788728,
			"target":34962
		},
		{
			"buffer":0,
			"byteLength":11704,
			"byteOffset":806284,
			"target":34962
		},
		{
			"buffer":0,
			"byteLength":11704,
			"byteOffset":817988,
			"target":34962
		},
		{
			"buffer":0,
			"byteLength":5832,
			"byteOffset":829692,
			"target":34963
		},
		{
			"buffer":0,
			"byteLength":1440,
			"byteOffset":835524,
			"target":34962
		},
		{
			"buffer":0,
			"byteLength":1440,
			"byteOffset":836964,
			"target":34962
		},
		{
			"buffer":0,
			"byteLength":960,
			"byteOffset":838404,
			"target":34962
		},
		{
			"buffer":0,
			"byteLength":960,
			"byteOffset":839364,
			"target":34962
		},
		{
			"buffer":0,
			"byteLength":360,
			"byteOffset":840324,
			"target":34963
		},
		{
			"buffer":0,
			"byteLength":480,
			"byteOffset":840684,
			"target":34962
		},
		{
			"buffer":0,
			"byteLength":480,
			"byteOffset":841164,
			"target":34962
		},
		{
			"buffer":0,
			"byteLength":320,
			"byteOffset":841644,
			"target":34962
		},
		{
			"buffer":0,
			"byteLength":320,
			"byteOffset":841964,
			"target":34962
		},
		{
			"buffer":0,
			"byteLength":168,
			"byteOffset":842284,
			"target":34963
		},
		{
			"buffer":0,
			"byteLength":11568,
			"byteOffset":842452,
			"target":34962
		},
		{
			"buffer":0,
			"byteLength":11568,
			"byteOffset":854020,
			"target":34962
		},
		{
			"buffer":0,
			"byteLength":7712,
			"byteOffset":865588,
			"target":34962
		},
		{
			"buffer":0,
			"byteLength":7712,
			"byteOffset":873300,
			"target":34962
		},
		{
			"buffer":0,
			"byteLength":4944,
			"byteOffset":881012,
			"target":34963
		},
		{
			"buffer":0,
			"byteLength":288,
			"byteOffset":885956,
			"target":34962
		},
		{
			"buffer":0,
			"byteLength":288,
			"byteOffset":886244,
			"target":34962
		},
		{
			"buffer":0,
			"byteLength":192,
			"byteOffset":886532,
			"target":34962
		},
		{
			"buffer":0,
			"byteLength":192,
			"byteOffset":886724,
			"target":34962
		},
		{
			"buffer":0,
			"byteLength":72,
			"byteOffset":886916,
			"target":34963
		},
		{
			"buffer":0,
			"byteLength":22068,
			"byteOffset":886988,
			"target":34962
		},
		{
			"buffer":0,
			"byteLength":22068,
			"byteOffset":909056,
			"target":34962
		},
		{
			"buffer":0,
			"byteLength":14712,
			"byteOffset":931124,
			"target":34962
		},
		{
			"buffer":0,
			"byteLength":14712,
			"byteOffset":945836,
			"target":34962
		},
		{
			"buffer":0,
			"byteLength":8736,
			"byteOffset":960548,
			"target":34963
		},
		{
			"buffer":0,
			"byteLength":64788,
			"byteOffset":969284,
			"target":34962
		},
		{
			"buffer":0,
			"byteLength":64788,
			"byteOffset":1034072,
			"target":34962
		},
		{
			"buffer":0,
			"byteLength":43192,
			"byteOffset":1098860,
			"target":34962
		},
		{
			"buffer":0,
			"byteLength":43192,
			"byteOffset":1142052,
			"target":34962
		},
		{
			"buffer":0,
			"byteLength":17448,
			"byteOffset":1185244,
			"target":34963
		},
		{
			"buffer":0,
			"byteLength":312,
			"byteOffset":1202692,
			"target":34962
		},
		{
			"buffer":0,
			"byteLength":312,
			"byteOffset":1203004,
			"target":34962
		},
		{
			"buffer":0,
			"byteLength":208,
			"byteOffset":1203316,
			"target":34962
		},
		{
			"buffer":0,
			"byteLength":144,
			"byteOffset":1203524,
			"target":34963
		},
		{
			"buffer":0,
			"byteLength":1800,
			"byteOffset":1203668,
			"target":34962
		},
		{
			"buffer":0,
			"byteLength":1800,
			"byteOffset":1205468,
			"target":34962
		},
		{
			"buffer":0,
			"byteLength":1200,
			"byteOffset":1207268,
			"target":34962
		},
		{
			"buffer":0,
			"byteLength":1512,
			"byteOffset":1208468,
			"target":34963
		},
		{
			"buffer":0,
			"byteLength":1800,
			"byteOffset":1209980,
			"target":34962
		},
		{
			"buffer":0,
			"byteLength":1800,
			"byteOffset":1211780,
			"target":34962
		},
		{
			"buffer":0,
			"byteLength":1200,
			"byteOffset":1213580,
			"target":34962
		},
		{
			"buffer":0,
			"byteLength":1800,
			"byteOffset":1214780,
			"target":34962
		},
		{
			"buffer":0,
			"byteLength":1800,
			"byteOffset":1216580,
			"target":34962
		},
		{
			"buffer":0,
			"byteLength":1200,
			"byteOffset":1218380,
			"target":34962
		},
		{
			"buffer":0,
			"byteLength":1800,
			"byteOffset":1219580,
			"target":34962
		},
		{
			"buffer":0,
			"byteLength":1800,
			"byteOffset":1221380,
			"target":34962
		},
		{
			"buffer":0,
			"byteLength":1200,
			"byteOffset":1223180,
			"target":34962
		},
		{
			"buffer":0,
			"byteLength":768,
			"byteOffset":1224380,
			"target":34962
		},
		{
			"buffer":0,
			"byteLength":768,
			"byteOffset":1225148,
			"target":34962
		},
		{
			"buffer":0,
			"byteLength":512,
			"byteOffset":1225916,
			"target":34962
		},
		{
			"buffer":0,
			"byteLength":588,
			"byteOffset":1226428,
			"target":34963
		},
		{
			"buffer":0,
			"byteLength":972,
			"byteOffset":1227016,
			"target":34962
		},
		{
			"buffer":0,
			"byteLength":972,
			"byteOffset":1227988,
			"target":34962
		},
		{
			"buffer":0,
			"byteLength":648,
			"byteOffset":1228960,
			"target":34962
		},
		{
			"buffer":0,
			"byteLength":768,
			"byteOffset":1229608,
			"target":34963
		},
		{
			"buffer":0,
			"byteLength":768,
			"byteOffset":1230376,
			"target":34962
		},
		{
			"buffer":0,
			"byteLength":768,
			"byteOffset":1231144,
			"target":34962
		},
		{
			"buffer":0,
			"byteLength":512,
			"byteOffset":1231912,
			"target":34962
		}
	],
	"samplers":[
		{
			"magFilter":9729,
			"minFilter":9987
		}
	],
	"buffers":[
		{
			"byteLength":1232424,
			"uri":"sloop.bin"
		}
	]
}
