{
	"asset":{
		"generator":"Khronos glTF Blender I/O v5.2.40",
		"version":"2.0"
	},
	"extensionsUsed":[
		"KHR_materials_emissive_strength"
	],
	"scene":0,
	"scenes":[
		{
			"name":"Scene",
			"nodes":[
				0,
				1,
				2,
				3,
				4,
				5,
				6,
				7
			]
		}
	],
	"nodes":[
		{
			"mesh":0,
			"name":"Flag",
			"translation":[
				0,
				8.235899925231934,
				13.71176528930664
			]
		},
		{
			"mesh":1,
			"name":"Hull"
		},
		{
			"name":"Muzzle_P_00",
			"translation":[
				-3.7056562900543213,
				2.588892698287964,
				-3.680000066757202
			]
		},
		{
			"name":"Muzzle_P_01",
			"translation":[
				-3.70904803276062,
				2.5977234840393066,
				0.23000000417232513
			]
		},
		{
			"name":"Muzzle_S_00",
			"translation":[
				3.7056562900543213,
				2.588892698287964,
				-3.680000066757202
			]
		},
		{
			"name":"Muzzle_S_01",
			"translation":[
				3.70904803276062,
				2.5977234840393066,
				0.23000000417232513
			]
		},
		{
			"mesh":2,
			"name":"Pennant",
			"translation":[
				0,
				19.999099731445312,
				-1.840000033378601
			]
		},
		{
			"mesh":3,
			"name":"Sail_0_lateen",
			"rotation":[
				-0.31508955359458923,
				-0.6010813117027283,
				0.3724263608455658,
				0.6330232620239258
			],
			"translation":[
				0,
				8.19950008392334,
				-7.820000171661377
			]
		}
	],
	"materials":[
		{
			"doubleSided":true,
			"name":"tartane_flag",
			"pbrMetallicRoughness":{
				"metallicFactor":0,
				"roughnessFactor":0.8999999761581421
			}
		},
		{
			"doubleSided":true,
			"name":"tartane_hull",
			"normalTexture":{
				"index":0
			},
			"pbrMetallicRoughness":{
				"baseColorTexture":{
					"index":1
				},
				"metallicFactor":0,
				"roughnessFactor":0.7200000286102295
			}
		},
		{
			"doubleSided":true,
			"name":"tartane_deck",
			"normalTexture":{
				"index":2
			},
			"pbrMetallicRoughness":{
				"baseColorTexture":{
					"index":3
				},
				"metallicFactor":0,
				"roughnessFactor":0.8500000238418579
			}
		},
		{
			"doubleSided":true,
			"name":"tartane_upper",
			"normalTexture":{
				"index":4
			},
			"pbrMetallicRoughness":{
				"baseColorTexture":{
					"index":5
				},
				"metallicFactor":0,
				"roughnessFactor":0.75
			}
		},
		{
			"doubleSided":true,
			"name":"tartane_wale",
			"pbrMetallicRoughness":{
				"baseColorFactor":[
					0.02972867526113987,
					0.017263473942875862,
					0.007811048999428749,
					1
				],
				"metallicFactor":0,
				"roughnessFactor":0.699999988079071
			}
		},
		{
			"doubleSided":true,
			"name":"tartane_trim",
			"pbrMetallicRoughness":{
				"baseColorFactor":[
					0.15713611245155334,
					0.09040199965238571,
					0.033349666744470596,
					1
				],
				"metallicFactor":0.4000000059604645,
				"roughnessFactor":0.44999998807907104
			}
		},
		{
			"doubleSided":true,
			"name":"tartane_rail",
			"pbrMetallicRoughness":{
				"baseColorFactor":[
					0.0423114113509655,
					0.021219009533524513,
					0.008568125776946545,
					1
				],
				"metallicFactor":0,
				"roughnessFactor":0.75
			}
		},
		{
			"doubleSided":true,
			"emissiveFactor":[
				0.11999999731779099,
				0.06624137015101228,
				0.01729541620696895
			],
			"name":"tartane_glass",
			"pbrMetallicRoughness":{
				"baseColorFactor":[
					0.005181516520678997,
					0.00802319310605526,
					0.011612244881689548,
					1
				],
				"metallicFactor":0.30000001192092896,
				"roughnessFactor":0.07999999821186066
			}
		},
		{
			"doubleSided":true,
			"name":"tartane_iron",
			"pbrMetallicRoughness":{
				"baseColorFactor":[
					0.00802319310605526,
					0.007499032188206911,
					0.006995410192757845,
					1
				],
				"metallicFactor":0.550000011920929,
				"roughnessFactor":0.5
			}
		},
		{
			"doubleSided":true,
			"emissiveFactor":[
				1,
				0.4564110338687897,
				0.06847816705703735
			],
			"extensions":{
				"KHR_materials_emissive_strength":{
					"emissiveStrength":5
				}
			},
			"name":"tartane_lantern",
			"pbrMetallicRoughness":{
				"baseColorFactor":[
					1,
					0.7605245113372803,
					0.35153260827064514,
					1
				],
				"metallicFactor":0,
				"roughnessFactor":0.30000001192092896
			}
		},
		{
			"doubleSided":true,
			"name":"tartane_spar",
			"pbrMetallicRoughness":{
				"baseColorFactor":[
					0.04817182570695877,
					0.024157632142305374,
					0.01032982300966978,
					1
				],
				"metallicFactor":0,
				"roughnessFactor":0.699999988079071
			}
		},
		{
			"doubleSided":true,
			"name":"tartane_spar_black",
			"pbrMetallicRoughness":{
				"baseColorFactor":[
					0.006995410192757845,
					0.005181516520678997,
					0.0036765073891729116,
					1
				],
				"metallicFactor":0,
				"roughnessFactor":0.699999988079071
			}
		},
		{
			"doubleSided":true,
			"name":"tartane_portred",
			"pbrMetallicRoughness":{
				"baseColorFactor":[
					0.07618538290262222,
					0.00802319310605526,
					0.005181516520678997,
					1
				],
				"metallicFactor":0,
				"roughnessFactor":0.8500000238418579
			}
		},
		{
			"doubleSided":true,
			"name":"tartane_rope",
			"pbrMetallicRoughness":{
				"baseColorFactor":[
					0.008568125776946545,
					0.006048833020031452,
					0.004024717025458813,
					1
				],
				"metallicFactor":0,
				"roughnessFactor":0.8999999761581421
			}
		},
		{
			"doubleSided":true,
			"name":"tartane_sail",
			"pbrMetallicRoughness":{
				"baseColorTexture":{
					"index":6
				},
				"metallicFactor":0,
				"roughnessFactor":0.949999988079071
			}
		}
	],
	"meshes":[
		{
			"name":"Flag",
			"primitives":[
				{
					"attributes":{
						"POSITION":0,
						"NORMAL":1,
						"TEXCOORD_0":2
					},
					"indices":3,
					"material":0
				}
			]
		},
		{
			"name":"Hull",
			"primitives":[
				{
					"attributes":{
						"POSITION":4,
						"NORMAL":5,
						"TEXCOORD_0":6,
						"COLOR_0":7
					},
					"indices":8,
					"material":1
				},
				{
					"attributes":{
						"POSITION":9,
						"NORMAL":10,
						"TEXCOORD_0":11,
						"COLOR_0":12
					},
					"indices":13,
					"material":2
				},
				{
					"attributes":{
						"POSITION":14,
						"NORMAL":15,
						"TEXCOORD_0":16,
						"COLOR_0":17
					},
					"indices":18,
					"material":3
				},
				{
					"attributes":{
						"POSITION":19,
						"NORMAL":20,
						"TEXCOORD_0":21,
						"COLOR_0":22
					},
					"indices":23,
					"material":4
				},
				{
					"attributes":{
						"POSITION":24,
						"NORMAL":25,
						"TEXCOORD_0":26,
						"COLOR_0":27
					},
					"indices":28,
					"material":5
				},
				{
					"attributes":{
						"POSITION":29,
						"NORMAL":30,
						"TEXCOORD_0":31,
						"COLOR_0":32
					},
					"indices":33,
					"material":6
				},
				{
					"attributes":{
						"POSITION":34,
						"NORMAL":35,
						"TEXCOORD_0":36,
						"COLOR_0":37
					},
					"indices":38,
					"material":7
				},
				{
					"attributes":{
						"POSITION":39,
						"NORMAL":40,
						"TEXCOORD_0":41,
						"COLOR_0":42
					},
					"indices":43,
					"material":8
				},
				{
					"attributes":{
						"POSITION":44,
						"NORMAL":45,
						"TEXCOORD_0":46,
						"COLOR_0":47
					},
					"indices":48,
					"material":9
				},
				{
					"attributes":{
						"POSITION":49,
						"NORMAL":50,
						"TEXCOORD_0":51,
						"COLOR_0":52
					},
					"indices":53,
					"material":10
				},
				{
					"attributes":{
						"POSITION":54,
						"NORMAL":55,
						"TEXCOORD_0":56,
						"COLOR_0":57
					},
					"indices":58,
					"material":11
				},
				{
					"attributes":{
						"POSITION":59,
						"NORMAL":60,
						"TEXCOORD_0":61,
						"COLOR_0":62
					},
					"indices":38,
					"material":12
				},
				{
					"attributes":{
						"POSITION":63,
						"NORMAL":64,
						"TEXCOORD_0":65,
						"COLOR_0":66
					},
					"indices":67,
					"material":13
				}
			]
		},
		{
			"name":"Pennant",
			"primitives":[
				{
					"attributes":{
						"POSITION":68,
						"NORMAL":69,
						"TEXCOORD_0":70
					},
					"indices":71,
					"material":0
				}
			]
		},
		{
			"name":"Sail_0_lateen",
			"primitives":[
				{
					"attributes":{
						"POSITION":72,
						"NORMAL":73,
						"TEXCOORD_0":74
					},
					"indices":75,
					"material":14
				}
			]
		}
	],
	"textures":[
		{
			"sampler":0,
			"source":0
		},
		{
			"sampler":0,
			"source":1
		},
		{
			"sampler":0,
			"source":2
		},
		{
			"sampler":0,
			"source":3
		},
		{
			"sampler":0,
			"source":4
		},
		{
			"sampler":0,
			"source":5
		},
		{
			"sampler":0,
			"source":6
		}
	],
	"images":[
		{
			"mimeType":"image/jpeg",
			"name":"tartane_hull_n",
			"uri":"textures/tartane_hull_n.jpg"
		},
		{
			"mimeType":"image/jpeg",
			"name":"tartane_hull",
			"uri":"textures/tartane_hull.jpg"
		},
		{
			"mimeType":"image/jpeg",
			"name":"deck_n",
			"uri":"textures/deck_n.jpg"
		},
		{
			"mimeType":"image/jpeg",
			"name":"deck",
			"uri":"textures/deck.jpg"
		},
		{
			"mimeType":"image/jpeg",
			"name":"tartane_upper_n",
			"uri":"textures/tartane_upper_n.jpg"
		},
		{
			"mimeType":"image/jpeg",
			"name":"tartane_upper",
			"uri":"textures/tartane_upper.jpg"
		},
		{
			"mimeType":"image/jpeg",
			"name":"tartane_sail",
			"uri":"textures/tartane_sail.jpg"
		}
	],
	"accessors":[
		{
			"bufferView":0,
			"componentType":5126,
			"count":45,
			"max":[
				0.06440079212188721,
				0,
				3.2200000286102295
			],
			"min":[
				-0.17260636389255524,
				-2.069999933242798,
				0
			],
			"type":"VEC3"
		},
		{
			"bufferView":1,
			"componentType":5126,
			"count":45,
			"type":"VEC3"
		},
		{
			"bufferView":2,
			"componentType":5126,
			"count":45,
			"type":"VEC2"
		},
		{
			"bufferView":3,
			"componentType":5123,
			"count":192,
			"type":"SCALAR"
		},
		{
			"bufferView":4,
			"componentType":5126,
			"count":6098,
			"max":[
				2.990297794342041,
				3.1740000247955322,
				12.53499984741211
			],
			"min":[
				-2.990297794342041,
				-2.2482500076293945,
				-12.305000305175781
			],
			"type":"VEC3"
		},
		{
			"bufferView":5,
			"componentType":5126,
			"count":6098,
			"type":"VEC3"
		},
		{
			"bufferView":6,
			"componentType":5126,
			"count":6098,
			"type":"VEC2"
		},
		{
			"bufferView":7,
			"componentType":5123,
			"count":6098,
			"normalized":true,
			"type":"VEC4"
		},
		{
			"bufferView":8,
			"componentType":5123,
			"count":22464,
			"type":"SCALAR"
		},
		{
			"bufferView":9,
			"componentType":5126,
			"count":2195,
			"max":[
				2.720900058746338,
				3.7558999061584473,
				12.65676498413086
			],
			"min":[
				-2.720900058746338,
				1.851945161819458,
				-12.305000305175781
			],
			"type":"VEC3"
		},
		{
			"bufferView":10,
			"componentType":5126,
			"count":2195,
			"type":"VEC3"
		},
		{
			"bufferView":11,
			"componentType":5126,
			"count":2195,
			"type":"VEC2"
		},
		{
			"bufferView":12,
			"componentType":5123,
			"count":2195,
			"normalized":true,
			"type":"VEC4"
		},
		{
			"bufferView":13,
			"componentType":5123,
			"count":4032,
			"type":"SCALAR"
		},
		{
			"bufferView":14,
			"componentType":5126,
			"count":645,
			"max":[
				2.720900058746338,
				4.399899959564209,
				12.791523933410645
			],
			"min":[
				-2.720900058746338,
				-1.7721500396728516,
				-12.305000305175781
			],
			"type":"VEC3"
		},
		{
			"bufferView":15,
			"componentType":5126,
			"count":645,
			"type":"VEC3"
		},
		{
			"bufferView":16,
			"componentType":5126,
			"count":645,
			"type":"VEC2"
		},
		{
			"bufferView":17,
			"componentType":5123,
			"count":645,
			"normalized":true,
			"type":"VEC4"
		},
		{
			"bufferView":18,
			"componentType":5123,
			"count":1758,
			"type":"SCALAR"
		},
		{
			"bufferView":19,
			"componentType":5126,
			"count":3796,
			"max":[
				3.7020339965820312,
				3.952572822570801,
				12.683036804199219
			],
			"min":[
				-3.7020339965820312,
				-2.8162498474121094,
				-12.45572280883789
			],
			"type":"VEC3"
		},
		{
			"bufferView":20,
			"componentType":5126,
			"count":3796,
			"type":"VEC3"
		},
		{
			"bufferView":21,
			"componentType":5126,
			"count":3796,
			"type":"VEC2"
		},
		{
			"bufferView":22,
			"componentType":5123,
			"count":3796,
			"normalized":true,
			"type":"VEC4"
		},
		{
			"bufferView":23,
			"componentType":5123,
			"count":12132,
			"type":"SCALAR"
		},
		{
			"bufferView":24,
			"componentType":5126,
			"count":766,
			"max":[
				2.3455848693847656,
				6.005899906158447,
				13.096765518188477
			],
			"min":[
				-2.3455848693847656,
				0.7730323672294617,
				6.345000267028809
			],
			"type":"VEC3"
		},
		{
			"bufferView":25,
			"componentType":5126,
			"count":766,
			"type":"VEC3"
		},
		{
			"bufferView":26,
			"componentType":5126,
			"count":766,
			"type":"VEC2"
		},
		{
			"bufferView":27,
			"componentType":5123,
			"count":766,
			"normalized":true,
			"type":"VEC4"
		},
		{
			"bufferView":28,
			"componentType":5123,
			"count":1488,
			"type":"SCALAR"
		},
		{
			"bufferView":29,
			"componentType":5126,
			"count":786,
			"max":[
				2.4734504222869873,
				4.675899982452393,
				12.726764678955078
			],
			"min":[
				-2.4734504222869873,
				2.9938924312591553,
				6.400000095367432
			],
			"type":"VEC3"
		},
		{
			"bufferView":30,
			"componentType":5126,
			"count":786,
			"type":"VEC3"
		},
		{
			"bufferView":31,
			"componentType":5126,
			"count":786,
			"type":"VEC2"
		},
		{
			"bufferView":32,
			"componentType":5123,
			"count":786,
			"normalized":true,
			"type":"VEC4"
		},
		{
			"bufferView":33,
			"componentType":5123,
			"count":1428,
			"type":"SCALAR"
		},
		{
			"bufferView":34,
			"componentType":5126,
			"count":96,
			"max":[
				1.353818655014038,
				3.253350019454956,
				12.60072135925293
			],
			"min":[
				-1.353818655014038,
				2.671449899673462,
				12.540721893310547
			],
			"type":"VEC3"
		},
		{
			"bufferView":35,
			"componentType":5126,
			"count":96,
			"type":"VEC3"
		},
		{
			"bufferView":36,
			"componentType":5126,
			"count":96,
			"type":"VEC2"
		},
		{
			"bufferView":37,
			"componentType":5123,
			"count":96,
			"normalized":true,
			"type":"VEC4"
		},
		{
			"bufferView":38,
			"componentType":5123,
			"count":144,
			"type":"SCALAR"
		},
		{
			"bufferView":39,
			"componentType":5126,
			"count":481,
			"max":[
				3.315520763397217,
				4.855899810791016,
				12.816765785217285
			],
			"min":[
				-3.315520763397217,
				0.6373770833015442,
				-11.341062545776367
			],
			"type":"VEC3"
		},
		{
			"bufferView":40,
			"componentType":5126,
			"count":481,
			"type":"VEC3"
		},
		{
			"bufferView":41,
			"componentType":5126,
			"count":481,
			"type":"VEC2"
		},
		{
			"bufferView":42,
			"componentType":5123,
			"count":481,
			"normalized":true,
			"type":"VEC4"
		},
		{
			"bufferView":43,
			"componentType":5123,
			"count":900,
			"type":"SCALAR"
		},
		{
			"bufferView":44,
			"componentType":5126,
			"count":40,
			"max":[
				0.30000001192092896,
				5.605899810791016,
				13.05676555633545
			],
			"min":[
				-0.30000001192092896,
				4.855899810791016,
				12.456765174865723
			],
			"type":"VEC3"
		},
		{
			"bufferView":45,
			"componentType":5126,
			"count":40,
			"type":"VEC3"
		},
		{
			"bufferView":46,
			"componentType":5126,
			"count":40,
			"type":"VEC2"
		},
		{
			"bufferView":47,
			"componentType":5123,
			"count":40,
			"normalized":true,
			"type":"VEC4"
		},
		{
			"bufferView":48,
			"componentType":5123,
			"count":84,
			"type":"SCALAR"
		},
		{
			"bufferView":49,
			"componentType":5126,
			"count":417,
			"max":[
				1,
				23.466278076171875,
				13.760610580444336
			],
			"min":[
				-1,
				0.8515000343322754,
				-18.343612670898438
			],
			"type":"VEC3"
		},
		{
			"bufferView":50,
			"componentType":5126,
			"count":417,
			"type":"VEC3"
		},
		{
			"bufferView":51,
			"componentType":5126,
			"count":417,
			"type":"VEC2"
		},
		{
			"bufferView":52,
			"componentType":5123,
			"count":417,
			"normalized":true,
			"type":"VEC4"
		},
		{
			"bufferView":53,
			"componentType":5123,
			"count":1092,
			"type":"SCALAR"
		},
		{
			"bufferView":54,
			"componentType":5126,
			"count":567,
			"max":[
				3.715481758117676,
				19.899099349975586,
				5.079999923706055
			],
			"min":[
				-3.715481758117676,
				1.9560915231704712,
				-16.160390853881836
			],
			"type":"VEC3"
		},
		{
			"bufferView":55,
			"componentType":5126,
			"count":567,
			"type":"VEC3"
		},
		{
			"bufferView":56,
			"componentType":5126,
			"count":567,
			"type":"VEC2"
		},
		{
			"bufferView":57,
			"componentType":5123,
			"count":567,
			"normalized":true,
			"type":"VEC4"
		},
		{
			"bufferView":58,
			"componentType":5123,
			"count":1380,
			"type":"SCALAR"
		},
		{
			"bufferView":59,
			"componentType":5126,
			"count":96,
			"max":[
				2.33404803276062,
				2.3677234649658203,
				0.6299999952316284
			],
			"min":[
				-2.33404803276062,
				1.9788925647735596,
				-4.079999923706055
			],
			"type":"VEC3"
		},
		{
			"bufferView":60,
			"componentType":5126,
			"count":96,
			"type":"VEC3"
		},
		{
			"bufferView":61,
			"componentType":5126,
			"count":96,
			"type":"VEC2"
		},
		{
			"bufferView":62,
			"componentType":5123,
			"count":96,
			"normalized":true,
			"type":"VEC4"
		},
		{
			"bufferView":63,
			"componentType":5126,
			"count":904,
			"max":[
				3.67663311958313,
				20.07900619506836,
				-1.5125055313110352
			],
			"min":[
				-3.67663311958313,
				2.0778918266296387,
				-18.34942626953125
			],
			"type":"VEC3"
		},
		{
			"bufferView":64,
			"componentType":5126,
			"count":904,
			"type":"VEC3"
		},
		{
			"bufferView":65,
			"componentType":5126,
			"count":904,
			"type":"VEC2"
		},
		{
			"bufferView":66,
			"componentType":5123,
			"count":904,
			"normalized":true,
			"type":"VEC4"
		},
		{
			"bufferView":67,
			"componentType":5123,
			"count":1356,
			"type":"SCALAR"
		},
		{
			"bufferView":68,
			"componentType":5126,
			"count":26,
			"max":[
				0.16424664855003357,
				0,
				4.599999904632568
			],
			"min":[
				-0.1664924919605255,
				-0.2759999930858612,
				0
			],
			"type":"VEC3"
		},
		{
			"bufferView":69,
			"componentType":5126,
			"count":26,
			"type":"VEC3"
		},
		{
			"bufferView":70,
			"componentType":5126,
			"count":26,
			"type":"VEC2"
		},
		{
			"bufferView":71,
			"componentType":5123,
			"count":72,
			"type":"SCALAR"
		},
		{
			"bufferView":72,
			"componentType":5126,
			"count":121,
			"max":[
				17.917482376098633,
				0,
				1.056259274482727
			],
			"min":[
				0,
				-11.342792510986328,
				-0.5559912919998169
			],
			"type":"VEC3"
		},
		{
			"bufferView":73,
			"componentType":5126,
			"count":121,
			"type":"VEC3"
		},
		{
			"bufferView":74,
			"componentType":5126,
			"count":121,
			"type":"VEC2"
		},
		{
			"bufferView":75,
			"componentType":5123,
			"count":600,
			"type":"SCALAR"
		}
	],
	"bufferViews":[
		{
			"buffer":0,
			"byteLength":540,
			"byteOffset":0,
			"target":34962
		},
		{
			"buffer":0,
			"byteLength":540,
			"byteOffset":540,
			"target":34962
		},
		{
			"buffer":0,
			"byteLength":360,
			"byteOffset":1080,
			"target":34962
		},
		{
			"buffer":0,
			"byteLength":384,
			"byteOffset":1440,
			"target":34963
		},
		{
			"buffer":0,
			"byteLength":73176,
			"byteOffset":1824,
			"target":34962
		},
		{
			"buffer":0,
			"byteLength":73176,
			"byteOffset":75000,
			"target":34962
		},
		{
			"buffer":0,
			"byteLength":48784,
			"byteOffset":148176,
			"target":34962
		},
		{
			"buffer":0,
			"byteLength":48784,
			"byteOffset":196960,
			"target":34962
		},
		{
			"buffer":0,
			"byteLength":44928,
			"byteOffset":245744,
			"target":34963
		},
		{
			"buffer":0,
			"byteLength":26340,
			"byteOffset":290672,
			"target":34962
		},
		{
			"buffer":0,
			"byteLength":26340,
			"byteOffset":317012,
			"target":34962
		},
		{
			"buffer":0,
			"byteLength":17560,
			"byteOffset":343352,
			"target":34962
		},
		{
			"buffer":0,
			"byteLength":17560,
			"byteOffset":360912,
			"target":34962
		},
		{
			"buffer":0,
			"byteLength":8064,
			"byteOffset":378472,
			"target":34963
		},
		{
			"buffer":0,
			"byteLength":7740,
			"byteOffset":386536,
			"target":34962
		},
		{
			"buffer":0,
			"byteLength":7740,
			"byteOffset":394276,
			"target":34962
		},
		{
			"buffer":0,
			"byteLength":5160,
			"byteOffset":402016,
			"target":34962
		},
		{
			"buffer":0,
			"byteLength":5160,
			"byteOffset":407176,
			"target":34962
		},
		{
			"buffer":0,
			"byteLength":3516,
			"byteOffset":412336,
			"target":34963
		},
		{
			"buffer":0,
			"byteLength":45552,
			"byteOffset":415852,
			"target":34962
		},
		{
			"buffer":0,
			"byteLength":45552,
			"byteOffset":461404,
			"target":34962
		},
		{
			"buffer":0,
			"byteLength":30368,
			"byteOffset":506956,
			"target":34962
		},
		{
			"buffer":0,
			"byteLength":30368,
			"byteOffset":537324,
			"target":34962
		},
		{
			"buffer":0,
			"byteLength":24264,
			"byteOffset":567692,
			"target":34963
		},
		{
			"buffer":0,
			"byteLength":9192,
			"byteOffset":591956,
			"target":34962
		},
		{
			"buffer":0,
			"byteLength":9192,
			"byteOffset":601148,
			"target":34962
		},
		{
			"buffer":0,
			"byteLength":6128,
			"byteOffset":610340,
			"target":34962
		},
		{
			"buffer":0,
			"byteLength":6128,
			"byteOffset":616468,
			"target":34962
		},
		{
			"buffer":0,
			"byteLength":2976,
			"byteOffset":622596,
			"target":34963
		},
		{
			"buffer":0,
			"byteLength":9432,
			"byteOffset":625572,
			"target":34962
		},
		{
			"buffer":0,
			"byteLength":9432,
			"byteOffset":635004,
			"target":34962
		},
		{
			"buffer":0,
			"byteLength":6288,
			"byteOffset":644436,
			"target":34962
		},
		{
			"buffer":0,
			"byteLength":6288,
			"byteOffset":650724,
			"target":34962
		},
		{
			"buffer":0,
			"byteLength":2856,
			"byteOffset":657012,
			"target":34963
		},
		{
			"buffer":0,
			"byteLength":1152,
			"byteOffset":659868,
			"target":34962
		},
		{
			"buffer":0,
			"byteLength":1152,
			"byteOffset":661020,
			"target":34962
		},
		{
			"buffer":0,
			"byteLength":768,
			"byteOffset":662172,
			"target":34962
		},
		{
			"buffer":0,
			"byteLength":768,
			"byteOffset":662940,
			"target":34962
		},
		{
			"buffer":0,
			"byteLength":288,
			"byteOffset":663708,
			"target":34963
		},
		{
			"buffer":0,
			"byteLength":5772,
			"byteOffset":663996,
			"target":34962
		},
		{
			"buffer":0,
			"byteLength":5772,
			"byteOffset":669768,
			"target":34962
		},
		{
			"buffer":0,
			"byteLength":3848,
			"byteOffset":675540,
			"target":34962
		},
		{
			"buffer":0,
			"byteLength":3848,
			"byteOffset":679388,
			"target":34962
		},
		{
			"buffer":0,
			"byteLength":1800,
			"byteOffset":683236,
			"target":34963
		},
		{
			"buffer":0,
			"byteLength":480,
			"byteOffset":685036,
			"target":34962
		},
		{
			"buffer":0,
			"byteLength":480,
			"byteOffset":685516,
			"target":34962
		},
		{
			"buffer":0,
			"byteLength":320,
			"byteOffset":685996,
			"target":34962
		},
		{
			"buffer":0,
			"byteLength":320,
			"byteOffset":686316,
			"target":34962
		},
		{
			"buffer":0,
			"byteLength":168,
			"byteOffset":686636,
			"target":34963
		},
		{
			"buffer":0,
			"byteLength":5004,
			"byteOffset":686804,
			"target":34962
		},
		{
			"buffer":0,
			"byteLength":5004,
			"byteOffset":691808,
			"target":34962
		},
		{
			"buffer":0,
			"byteLength":3336,
			"byteOffset":696812,
			"target":34962
		},
		{
			"buffer":0,
			"byteLength":3336,
			"byteOffset":700148,
			"target":34962
		},
		{
			"buffer":0,
			"byteLength":2184,
			"byteOffset":703484,
			"target":34963
		},
		{
			"buffer":0,
			"byteLength":6804,
			"byteOffset":705668,
			"target":34962
		},
		{
			"buffer":0,
			"byteLength":6804,
			"byteOffset":712472,
			"target":34962
		},
		{
			"buffer":0,
			"byteLength":4536,
			"byteOffset":719276,
			"target":34962
		},
		{
			"buffer":0,
			"byteLength":4536,
			"byteOffset":723812,
			"target":34962
		},
		{
			"buffer":0,
			"byteLength":2760,
			"byteOffset":728348,
			"target":34963
		},
		{
			"buffer":0,
			"byteLength":1152,
			"byteOffset":731108,
			"target":34962
		},
		{
			"buffer":0,
			"byteLength":1152,
			"byteOffset":732260,
			"target":34962
		},
		{
			"buffer":0,
			"byteLength":768,
			"byteOffset":733412,
			"target":34962
		},
		{
			"buffer":0,
			"byteLength":768,
			"byteOffset":734180,
			"target":34962
		},
		{
			"buffer":0,
			"byteLength":10848,
			"byteOffset":734948,
			"target":34962
		},
		{
			"buffer":0,
			"byteLength":10848,
			"byteOffset":745796,
			"target":34962
		},
		{
			"buffer":0,
			"byteLength":7232,
			"byteOffset":756644,
			"target":34962
		},
		{
			"buffer":0,
			"byteLength":7232,
			"byteOffset":763876,
			"target":34962
		},
		{
			"buffer":0,
			"byteLength":2712,
			"byteOffset":771108,
			"target":34963
		},
		{
			"buffer":0,
			"byteLength":312,
			"byteOffset":773820,
			"target":34962
		},
		{
			"buffer":0,
			"byteLength":312,
			"byteOffset":774132,
			"target":34962
		},
		{
			"buffer":0,
			"byteLength":208,
			"byteOffset":774444,
			"target":34962
		},
		{
			"buffer":0,
			"byteLength":144,
			"byteOffset":774652,
			"target":34963
		},
		{
			"buffer":0,
			"byteLength":1452,
			"byteOffset":774796,
			"target":34962
		},
		{
			"buffer":0,
			"byteLength":1452,
			"byteOffset":776248,
			"target":34962
		},
		{
			"buffer":0,
			"byteLength":968,
			"byteOffset":777700,
			"target":34962
		},
		{
			"buffer":0,
			"byteLength":1200,
			"byteOffset":778668,
			"target":34963
		}
	],
	"samplers":[
		{
			"magFilter":9729,
			"minFilter":9987
		}
	],
	"buffers":[
		{
			"byteLength":779868,
			"uri":"tartane.bin"
		}
	]
}
